999
dxfrw 0.6.3
  0
SECTION
  2
HEADER
  9
$ACADVER
  1
AC1021
  9
$DWGCODEPAGE
  3
ANSI_1252
  9
$INSBASE
 10
0
 20
0
 30
0
  9
$EXTMIN
 10
-4.327777777777778
 20
-59
 30
0
  9
$EXTMAX
 10
34.77083333333339
 20
3.5
 30
0
  9
$LIMMIN
 10
0
 20
0
  9
$LIMMAX
 10
420
 20
297
  9
$ORTHOMODE
 70
    0
  9
$REGENMODE
 70
    1
  9
$FILLMODE
 70
    1
  9
$QTEXTMODE
 70
    0
  9
$MIRRTEXT
 70
    0
  9
$LTSCALE
 40
1
  9
$ATTMODE
 70
    0
  9
$TEXTSIZE
 40
2.5
  9
$TRACEWID
 40
15.68
  9
$TEXTSTYLE
  7
STANDARD
  9
$CLAYER
  8
0
  9
$CELTYPE
  6
BYLAYER
  9
$CECOLOR
 62
  256
  9
$CELTSCALE
 40
1
  9
$DISPSILH
 70
    0
  9
$DIMSCALE
 40
1
  9
$DIMASZ
 40
0.0082021
  9
$DIMEXO
 40
0.00205052
  9
$DIMDLI
 40
3.75
  9
$DIMRND
 40
0
  9
$DIMDLE
 40
0
  9
$DIMEXE
 40
0.00410105
  9
$DIMTP
 40
0
  9
$DIMTM
 40
0
  9
$DIMTXT
 40
0.0082021
  9
$DIMCEN
 40
2.5
  9
$DIMTSZ
 40
0
  9
$DIMTOL
 70
    0
  9
$DIMLIM
 70
    0
  9
$DIMTIH
 70
    0
  9
$DIMTOH
 70
    0
  9
$DIMSE1
 70
    0
  9
$DIMSE2
 70
    0
  9
$DIMTAD
 70
    1
  9
$DIMZIN
 70
    1
  9
$DIMBLK
  1

  9
$DIMASO
 70
    1
  9
$DIMSHO
 70
    1
  9
$DIMPOST
  1

  9
$DIMAPOST
  1

  9
$DIMALT
 70
    0
  9
$DIMALTD
 70
    3
  9
$DIMALTF
 40
0.03937
  9
$DIMLFAC
 40
1
  9
$DIMTOFL
 70
    1
  9
$DIMTVP
 40
0
  9
$DIMTIX
 70
    0
  9
$DIMSOXD
 70
    0
  9
$DIMSAH
 70
    0
  9
$DIMBLK1
  1

  9
$DIMBLK2
  1

  9
$DIMSTYLE
  2
STANDARD
  9
$DIMCLRD
 70
    0
  9
$DIMCLRE
 70
    0
  9
$DIMCLRT
 70
    0
  9
$DIMTFAC
 40
1
  9
$DIMGAP
 40
0.00205052
  9
$DIMJUST
 70
    0
  9
$DIMSD1
 70
    0
  9
$DIMSD2
 70
    0
  9
$DIMTOLJ
 70
    0
  9
$DIMTZIN
 70
    8
  9
$DIMALTZ
 70
    0
  9
$DIMALTTZ
 70
    0
  9
$DIMUPT
 70
    0
  9
$DIMDEC
 70
    4
  9
$DIMTDEC
 70
    2
  9
$DIMALTU
 70
    2
  9
$DIMALTTD
 70
    3
  9
$DIMTXSTY
  7
standard
  9
$DIMAUNIT
 70
    0
  9
$DIMADEC
 70
    2
  9
$DIMALTRND
 40
0
  9
$DIMAZIN
 70
    0
  9
$DIMDSEP
 70
    0
  9
$DIMATFIT
 70
    3
  9
$DIMFRAC
 70
    0
  9
$DIMLDRBLK
  1
STANDARD
  9
$DIMLUNIT
 70
    2
  9
$DIMLWD
 70
   -2
  9
$DIMLWE
 70
   -2
  9
$DIMTMOVE
 70
    0
  9
$DIMFXL
 40
0
  9
$DIMFXLON
 70
    0
  9
$DIMJOGANG
 40
0.7854
  9
$DIMTFILL
 70
    0
  9
$DIMTFILLCLR
 70
    0
  9
$DIMARCSYM
 70
    0
  9
$DIMLTYPE
  6

  9
$DIMLTEX1
  6

  9
$DIMLTEX2
  6

  9
$LUNITS
 70
    2
  9
$LUPREC
 70
    4
  9
$SKETCHINC
 40
1
  9
$FILLETRAD
 40
0
  9
$AUNITS
 70
    0
  9
$AUPREC
 70
    2
  9
$MENU
  1
.
  9
$ELEVATION
 40
0
  9
$PELEVATION
 40
0
  9
$THICKNESS
 40
0
  9
$LIMCHECK
 70
    0
  9
$CHAMFERA
 40
0
  9
$CHAMFERB
 40
0
  9
$CHAMFERC
 40
0
  9
$CHAMFERD
 40
0
  9
$SKPOLY
 70
    0
  9
$USRTIMER
 70
    1
  9
$ANGBASE
 50
0
  9
$ANGDIR
 70
    0
  9
$PDMODE
 70
   34
  9
$PDSIZE
 40
0
  9
$PLINEWID
 40
0
  9
$SPLFRAME
 70
    0
  9
$SPLINETYPE
 70
    2
  9
$SPLINESEGS
 70
    8
  9
$HANDSEED
  5
20000
  9
$SURFTAB1
 70
    6
  9
$SURFTAB2
 70
    6
  9
$SURFTYPE
 70
    6
  9
$SURFU
 70
    6
  9
$SURFV
 70
    6
  9
$UCSBASE
  2

  9
$UCSNAME
  2

  9
$UCSORG
 10
0
 20
0
 30
0
  9
$UCSXDIR
 10
1
 20
0
 30
0
  9
$UCSYDIR
 10
0
 20
1
 30
0
  9
$UCSORTHOREF
  2

  9
$UCSORTHOVIEW
 70
    0
  9
$UCSORGTOP
 10
0
 20
0
 30
0
  9
$UCSORGBOTTOM
 10
0
 20
0
 30
0
  9
$UCSORGLEFT
 10
0
 20
0
 30
0
  9
$UCSORGRIGHT
 10
0
 20
0
 30
0
  9
$UCSORGFRONT
 10
0
 20
0
 30
0
  9
$UCSORGBACK
 10
0
 20
0
 30
0
  9
$PUCSBASE
  2

  9
$PUCSNAME
  2

  9
$PUCSORG
 10
0
 20
0
 30
0
  9
$PUCSXDIR
 10
1
 20
0
 30
0
  9
$PUCSYDIR
 10
0
 20
1
 30
0
  9
$PUCSORTHOREF
  2

  9
$PUCSORTHOVIEW
 70
    0
  9
$PUCSORGTOP
 10
0
 20
0
 30
0
  9
$PUCSORGBOTTOM
 10
0
 20
0
 30
0
  9
$PUCSORGLEFT
 10
0
 20
0
 30
0
  9
$PUCSORGRIGHT
 10
0
 20
0
 30
0
  9
$PUCSORGFRONT
 10
0
 20
0
 30
0
  9
$PUCSORGBACK
 10
0
 20
0
 30
0
  9
$USERI1
 70
    0
  9
$USERI2
 70
    0
  9
$USERI3
 70
    0
  9
$USERI4
 70
    0
  9
$USERI5
 70
    0
  9
$USERR1
 40
0
  9
$USERR2
 40
0
  9
$USERR3
 40
0
  9
$USERR4
 40
0
  9
$USERR5
 40
0
  9
$WORLDVIEW
 70
    1
  9
$SHADEDGE
 70
    3
  9
$SHADEDIF
 70
   70
  9
$TILEMODE
 70
    1
  9
$MAXACTVP
 70
   64
  9
$PINSBASE
 10
1.525823272090985
 20
10.60110236220473
 30
0
  9
$PLIMCHECK
 70
    0
  9
$PEXTMIN
 10
0
 20
0
 30
0
  9
$PEXTMAX
 10
0
 20
0
 30
0
  9
$GRIDMODE
 70
    1
  9
$SNAPSTYLE
 70
    0
  9
$GRIDUNIT
 10
0
 20
0
  9
$PLIMMIN
 10
0
 20
0
  9
$PLIMMAX
 10
8.267716535433072
 20
11.69291338582677
  9
$UNITMODE
 70
    0
  9
$VISRETAIN
 70
    1
  9
$PLINEGEN
 70
    0
  9
$PSLTSCALE
 70
    1
  9
$TREEDEPTH
 70
 3020
  9
$CMLSTYLE
  2
Standard
  9
$CMLJUST
 70
    0
  9
$CMLSCALE
 40
20
  9
$PROXYGRAPHICS
 70
    1
  9
$MEASUREMENT
 70
    1
  9
$CELWEIGHT
370
   -1
  9
$ENDCAPS
280
    0
  9
$JOINSTYLE
280
    0
  9
$LWDISPLAY
290
    0
  9
$INSUNITS
 70
    1
  9
$HYPERLINKBASE
  1

  9
$STYLESHEET
  1

  9
$XEDIT
290
    1
  9
$CEPSNTYPE
380
    0
  9
$PSTYLEMODE
290
    1
  9
$EXTNAMES
290
    1
  9
$PSVPSCALE
 40
0.1713384963333562
  9
$OLESTARTUP
290
    0
  9
$SORTENTS
280
  127
  9
$INDEXCTL
280
    0
  9
$HIDETEXT
280
    1
  9
$XCLIPFRAME
290
    0
  9
$HALOGAP
280
    0
  9
$OBSCOLOR
 70
  257
  9
$OBSLTYPE
280
    0
  9
$INTERSECTIONDISPLAY
280
    0
  9
$INTERSECTIONCOLOR
 70
  257
  9
$DIMASSOC
280
    1
  9
$PROJECTNAME
  1

  9
$CAMERADISPLAY
290
    0
  9
$LENSLENGTH
 40
50
  9
$CAMERAHEIGHT
 40
0
  9
$STEPSPERSEC
 40
2
  9
$STEPSIZE
 40
50
  9
$3DDWFPREC
 40
2
  9
$PSOLWIDTH
 40
5
  9
$PSOLHEIGHT
 40
80
  9
$LOFTANG1
 40
1.570796326794897
  9
$LOFTANG2
 40
1.570796326794897
  9
$LOFTMAG1
 40
0
  9
$LOFTMAG2
 40
0
  9
$LOFTPARAM
 70
    7
  9
$LOFTNORMALS
280
    1
  9
$LATITUDE
 40
1
  9
$LONGITUDE
 40
1
  9
$NORTHDIRECTION
 40
0
  9
$TIMEZONE
 70
-8000
  9
$LIGHTGLYPHDISPLAY
280
    1
  9
$TILEMODELIGHTSYNCH
280
    1
  9
$SOLIDHIST
280
    1
  9
$SHOWHIST
280
    1
  9
$DWFFRAME
280
    2
  9
$DGNFRAME
280
    0
  9
$REALWORLDSCALE
290
    1
  9
$INTERFERECOLOR
 62
    1
  9
$CSHADOW
280
    0
  9
$SHADOWPLANELOCATION
 40
0
  0
ENDSEC
  0
SECTION
  2
CLASSES
  0
ENDSEC
  0
SECTION
  2
TABLES
  0
TABLE
  2
VPORT
  5
8
330
0
100
AcDbSymbolTable
 70
    1
  0
VPORT
  5
31
330
2
100
AcDbSymbolTableRecord
100
AcDbViewportTableRecord
  2
*ACTIVE
 70
    0
 10
0
 20
0
 11
1
 21
1
 12
32.26722074957803
 22
3.087986451762669
 13
0
 23
0
 14
10
 24
10
 15
10
 25
10
 16
0
 26
0
 36
1
 17
0
 27
0
 37
0
 40
58.08994803460788
 41
1.969183359013867
 42
50
 43
0
 44
0
 50
0
 51
0
 71
    0
 72
  100
 73
    1
 74
    3
 75
    0
 76
    1
 77
    0
 78
    0
281
    0
 65
    1
110
0
120
0
130
0
111
1
121
0
131
0
112
0
122
1
132
0
 79
    0
146
0
348
10020
 60
    7
 61
    5
292
1
282
    1
141
0
142
0
 63
  250
421
3358443
  0
ENDTAB
  0
TABLE
  2
LTYPE
  5
5
330
0
100
AcDbSymbolTable
 70
    4
  0
LTYPE
  5
14
330
5
100
AcDbSymbolTableRecord
100
AcDbLinetypeTableRecord
  2
ByBlock
 70
    0
  3

 72
   65
 73
    0
 40
0
  0
LTYPE
  5
15
330
5
100
AcDbSymbolTableRecord
100
AcDbLinetypeTableRecord
  2
ByLayer
 70
    0
  3

 72
   65
 73
    0
 40
0
  0
LTYPE
  5
16
330
5
100
AcDbSymbolTableRecord
100
AcDbLinetypeTableRecord
  2
Continuous
 70
    0
  3
Solid line
 72
   65
 73
    0
 40
0
  0
LTYPE
  5
32
330
5
100
AcDbSymbolTableRecord
100
AcDbLinetypeTableRecord
  2
DOT
 70
    0
  3
Dot . . . . . . . . . . . . . . . . . . . . . .
 72
   65
 73
    2
 40
6.35
 49
0
 74
    0
 49
-6.35
 74
    0
  0
LTYPE
  5
33
330
5
100
AcDbSymbolTableRecord
100
AcDbLinetypeTableRecord
  2
DOTTINY
 70
    0
  3
Dot (.15x) .....................................
 72
   65
 73
    2
 40
0.9525
 49
0
 74
    0
 49
-0.9525
 74
    0
  0
LTYPE
  5
34
330
5
100
AcDbSymbolTableRecord
100
AcDbLinetypeTableRecord
  2
DOT2
 70
    0
  3
Dot (.5x) .....................................
 72
   65
 73
    2
 40
3.175
 49
0
 74
    0
 49
-3.175
 74
    0
  0
LTYPE
  5
35
330
5
100
AcDbSymbolTableRecord
100
AcDbLinetypeTableRecord
  2
DOTX2
 70
    0
  3
Dot (2x) .  .  .  .  .  .  .  .  .  .  .  .  .
 72
   65
 73
    2
 40
12.7
 49
0
 74
    0
 49
-12.7
 74
    0
  0
LTYPE
  5
36
330
5
100
AcDbSymbolTableRecord
100
AcDbLinetypeTableRecord
  2
DASHED
 70
    0
  3
Dashed _ _ _ _ _ _ _ _ _ _ _ _ _ _ _ _ _
 72
   65
 73
    2
 40
19.05
 49
12.7
 74
    0
 49
-6.35
 74
    0
  0
LTYPE
  5
37
330
5
100
AcDbSymbolTableRecord
100
AcDbLinetypeTableRecord
  2
DASHEDTINY
 70
    0
  3
Dashed (.15x) _ _ _ _ _ _ _ _ _ _ _ _ _ _ _ _ _
 72
   65
 73
    2
 40
2.8575
 49
1.905
 74
    0
 49
-0.9525
 74
    0
  0
LTYPE
  5
38
330
5
100
AcDbSymbolTableRecord
100
AcDbLinetypeTableRecord
  2
DASHED2
 70
    0
  3
Dashed (.5x) _ _ _ _ _ _ _ _ _ _ _ _ _ _ _ _ _
 72
   65
 73
    2
 40
9.524999999999999
 49
6.35
 74
    0
 49
-3.175
 74
    0
  0
LTYPE
  5
39
330
5
100
AcDbSymbolTableRecord
100
AcDbLinetypeTableRecord
  2
DASHEDX2
 70
    0
  3
Dashed (2x) ____  ____  ____  ____  ____  ___
 72
   65
 73
    2
 40
38.09999999999999
 49
25.4
 74
    0
 49
-12.7
 74
    0
  0
LTYPE
  5
3A
330
5
100
AcDbSymbolTableRecord
100
AcDbLinetypeTableRecord
  2
DASHDOT
 70
    0
  3
Dash dot __ . __ . __ . __ . __ . __ . __ . __
 72
   65
 73
    4
 40
25.4
 49
12.7
 74
    0
 49
-6.35
 74
    0
 49
0
 74
    0
 49
-6.35
 74
    0
  0
LTYPE
  5
3B
330
5
100
AcDbSymbolTableRecord
100
AcDbLinetypeTableRecord
  2
DASHDOTTINY
 70
    0
  3
Dash dot (.15x) _._._._._._._._._._._._._._._.
 72
   65
 73
    4
 40
3.81
 49
1.905
 74
    0
 49
-0.9525
 74
    0
 49
0
 74
    0
 49
-0.9525
 74
    0
  0
LTYPE
  5
3C
330
5
100
AcDbSymbolTableRecord
100
AcDbLinetypeTableRecord
  2
DASHDOT2
 70
    0
  3
Dash dot (.5x) _._._._._._._._._._._._._._._.
 72
   65
 73
    4
 40
12.7
 49
6.35
 74
    0
 49
-3.175
 74
    0
 49
0
 74
    0
 49
-3.175
 74
    0
  0
LTYPE
  5
3D
330
5
100
AcDbSymbolTableRecord
100
AcDbLinetypeTableRecord
  2
DASHDOTX2
 70
    0
  3
Dash dot (2x) ____  .  ____  .  ____  .  ___
 72
   65
 73
    4
 40
50.8
 49
25.4
 74
    0
 49
-12.7
 74
    0
 49
0
 74
    0
 49
-12.7
 74
    0
  0
LTYPE
  5
3E
330
5
100
AcDbSymbolTableRecord
100
AcDbLinetypeTableRecord
  2
DIVIDE
 70
    0
  3
Divide ____ . . ____ . . ____ . . ____ . . ____
 72
   65
 73
    6
 40
31.75
 49
12.7
 74
    0
 49
-6.35
 74
    0
 49
0
 74
    0
 49
-6.35
 74
    0
 49
0
 74
    0
 49
-6.35
 74
    0
  0
LTYPE
  5
3F
330
5
100
AcDbSymbolTableRecord
100
AcDbLinetypeTableRecord
  2
DIVIDETINY
 70
    0
  3
Divide (.15x) __..__..__..__..__..__..__..__.._
 72
   65
 73
    6
 40
4.7625
 49
1.905
 74
    0
 49
-0.9525
 74
    0
 49
0
 74
    0
 49
-0.9525
 74
    0
 49
0
 74
    0
 49
-0.9525
 74
    0
  0
LTYPE
  5
40
330
5
100
AcDbSymbolTableRecord
100
AcDbLinetypeTableRecord
  2
DIVIDE2
 70
    0
  3
Divide (.5x) __..__..__..__..__..__..__..__.._
 72
   65
 73
    6
 40
15.875
 49
6.35
 74
    0
 49
-3.175
 74
    0
 49
0
 74
    0
 49
-3.175
 74
    0
 49
0
 74
    0
 49
-3.175
 74
    0
  0
LTYPE
  5
41
330
5
100
AcDbSymbolTableRecord
100
AcDbLinetypeTableRecord
  2
DIVIDEX2
 70
    0
  3
Divide (2x) ________  .  .  ________  .  .  _
 72
   65
 73
    6
 40
63.5
 49
25.4
 74
    0
 49
-12.7
 74
    0
 49
0
 74
    0
 49
-12.7
 74
    0
 49
0
 74
    0
 49
-12.7
 74
    0
  0
LTYPE
  5
42
330
5
100
AcDbSymbolTableRecord
100
AcDbLinetypeTableRecord
  2
BORDER
 70
    0
  3
Border __ __ . __ __ . __ __ . __ __ . __ __ .
 72
   65
 73
    6
 40
44.45
 49
12.7
 74
    0
 49
-6.35
 74
    0
 49
12.7
 74
    0
 49
-6.35
 74
    0
 49
0
 74
    0
 49
-6.35
 74
    0
  0
LTYPE
  5
43
330
5
100
AcDbSymbolTableRecord
100
AcDbLinetypeTableRecord
  2
BORDERTINY
 70
    0
  3
Border (.15x) __.__.__.__.__.__.__.__.__.__.__.
 72
   65
 73
    6
 40
6.6675
 49
1.905
 74
    0
 49
-0.9525
 74
    0
 49
1.905
 74
    0
 49
-0.9525
 74
    0
 49
0
 74
    0
 49
-0.9525
 74
    0
  0
LTYPE
  5
44
330
5
100
AcDbSymbolTableRecord
100
AcDbLinetypeTableRecord
  2
BORDER2
 70
    0
  3
Border (.5x) __.__.__.__.__.__.__.__.__.__.__.
 72
   65
 73
    6
 40
22.225
 49
6.35
 74
    0
 49
-3.175
 74
    0
 49
6.35
 74
    0
 49
-3.175
 74
    0
 49
0
 74
    0
 49
-3.175
 74
    0
  0
LTYPE
  5
45
330
5
100
AcDbSymbolTableRecord
100
AcDbLinetypeTableRecord
  2
BORDERX2
 70
    0
  3
Border (2x) ____  ____  .  ____  ____  .  ___
 72
   65
 73
    6
 40
88.89999999999999
 49
25.4
 74
    0
 49
-12.7
 74
    0
 49
25.4
 74
    0
 49
-12.7
 74
    0
 49
0
 74
    0
 49
-12.7
 74
    0
  0
LTYPE
  5
46
330
5
100
AcDbSymbolTableRecord
100
AcDbLinetypeTableRecord
  2
CENTER
 70
    0
  3
Center ____ _ ____ _ ____ _ ____ _ ____ _ ____
 72
   65
 73
    4
 40
50.8
 49
31.75
 74
    0
 49
-6.35
 74
    0
 49
6.35
 74
    0
 49
-6.35
 74
    0
  0
LTYPE
  5
47
330
5
100
AcDbSymbolTableRecord
100
AcDbLinetypeTableRecord
  2
CENTERTINY
 70
    0
  3
Center (.15x) ___ _ ___ _ ___ _ ___ _ ___ _ ___
 72
   65
 73
    4
 40
7.62
 49
4.7625
 74
    0
 49
-0.9525
 74
    0
 49
0.9525
 74
    0
 49
-0.9525
 74
    0
  0
LTYPE
  5
48
330
5
100
AcDbSymbolTableRecord
100
AcDbLinetypeTableRecord
  2
CENTER2
 70
    0
  3
Center (.5x) ___ _ ___ _ ___ _ ___ _ ___ _ ___
 72
   65
 73
    4
 40
28.575
 49
19.05
 74
    0
 49
-3.175
 74
    0
 49
3.175
 74
    0
 49
-3.175
 74
    0
  0
LTYPE
  5
49
330
5
100
AcDbSymbolTableRecord
100
AcDbLinetypeTableRecord
  2
CENTERX2
 70
    0
  3
Center (2x) ________  __  ________  __  _____
 72
   65
 73
    4
 40
101.6
 49
63.5
 74
    0
 49
-12.7
 74
    0
 49
12.7
 74
    0
 49
-12.7
 74
    0
  0
ENDTAB
  0
TABLE
  2
LAYER
  5
2
330
0
100
AcDbSymbolTable
 70
    1
  0
LAYER
  5
10
330
2
100
AcDbSymbolTableRecord
100
AcDbLayerTableRecord
  2
0
 70
    0
 62
    7
  6
CONTINUOUS
370
    0
390
F
  0
LAYER
  5
4A
330
2
100
AcDbSymbolTableRecord
100
AcDbLayerTableRecord
  2
D1
 70
    0
 62
    7
  6
CONTINUOUS
370
    0
390
F
  0
ENDTAB
  0
TABLE
  2
STYLE
  5
3
330
0
100
AcDbSymbolTable
 70
    3
  0
STYLE
  5
4B
330
2
100
AcDbSymbolTableRecord
100
AcDbTextStyleTableRecord
  2
Standard
 70
    0
 40
0
 41
1
 50
0
 71
    0
 42
1
  3
txt
  4

  0
ENDTAB
  0
TABLE
  2
VIEW
  5
6
330
0
100
AcDbSymbolTable
 70
    0
  0
ENDTAB
  0
TABLE
  2
UCS
  5
7
330
0
100
AcDbSymbolTable
 70
    0
  0
ENDTAB
  0
TABLE
  2
APPID
  5
9
330
0
100
AcDbSymbolTable
 70
    1
  0
APPID
  5
12
330
9
100
AcDbSymbolTableRecord
100
AcDbRegAppTableRecord
  2
ACAD
 70
    0
  0
APPID
  5
4C
330
9
100
AcDbSymbolTableRecord
100
AcDbRegAppTableRecord
  2
LibreCad
 70
    0
  0
ENDTAB
  0
TABLE
  2
DIMSTYLE
  5
A
330
0
100
AcDbSymbolTable
 70
    1
100
AcDbDimStyleTable
 71
    1
  0
DIMSTYLE
105
4D
330
A
100
AcDbSymbolTableRecord
100
AcDbDimStyleTableRecord
  2
Standard
 70
    0
 40
1
 41
0.0082021
 42
0.00205052
 43
0.38
 44
0.00410105
 45
0
 46
0
 47
0
 48
0
 49
0
140
0.0082021
141
0.09
142
0
143
25.4
144
1
145
0
146
1
147
0.00205052
148
0
 71
    0
 72
    0
 73
    0
 74
    1
 75
    0
 76
    0
 77
    0
 78
    1
 79
    0
170
    0
171
    2
172
    0
173
    0
174
    0
175
    0
176
    0
177
    0
178
    0
179
    2
271
    4
272
    4
273
    2
274
    2
275
    0
276
    0
277
    2
278
    0
279
    0
280
    0
281
    0
282
    0
283
    1
284
    0
285
    0
286
    0
288
    0
289
    3
340
standard
341

371
   -2
372
   -2
  0
ENDTAB
  0
TABLE
  2
BLOCK_RECORD
  5
1
330
0
100
AcDbSymbolTable
 70
    2
  0
BLOCK_RECORD
  5
1F
330
1
100
AcDbSymbolTableRecord
100
AcDbBlockTableRecord
  2
*Model_Space
 70
    0
280
    1
281
    0
  0
BLOCK_RECORD
  5
1E
330
1
100
AcDbSymbolTableRecord
100
AcDbBlockTableRecord
  2
*Paper_Space
 70
    0
280
    1
281
    0
  0
ENDTAB
  0
ENDSEC
  0
SECTION
  2
BLOCKS
  0
BLOCK
  5
20
330
1F
100
AcDbEntity
  8
0
100
AcDbBlockBegin
  2
*Model_Space
 70
    0
 10
0
 20
0
 30
0
  3
*Model_Space
  1

  0
ENDBLK
  5
21
330
1F
100
AcDbEntity
  8
0
100
AcDbBlockEnd
  0
BLOCK
  5
1C
330
1B
100
AcDbEntity
  8
0
100
AcDbBlockBegin
  2
*Paper_Space
 70
    0
 10
0
 20
0
 30
0
  3
*Paper_Space
  1

  0
ENDBLK
  5
1D
330
1F
100
AcDbEntity
  8
0
100
AcDbBlockEnd
  0
ENDSEC
  0
SECTION
  2
ENTITIES
  0
HATCH
  5
4E
100
AcDbEntity
  8
D1
  6
ByLayer
 62
  256
370
   -1
100
AcDbHatch
 10
0
 20
0
 30
0
210
0
220
0
230
1
  2
SOLID
 70
    1
 71
    0
 91
    1
 92
    0
 93
    1
 72
    2
 10
18.3
 20
-47.49999999999999
 40
0.09999999999999432
 50
0
 51
360
 73
    1
 97
    0
 75
    0
 76
    1
 98
    0
  0
HATCH
  5
4F
100
AcDbEntity
  8
D1
  6
ByLayer
 62
  256
370
   -1
100
AcDbHatch
 10
0
 20
0
 30
0
210
0
220
0
230
1
  2
SOLID
 70
    1
 71
    0
 91
    1
 92
    0
 93
    1
 72
    2
 10
19.7
 20
-47.49999999999999
 40
0.09999999999999432
 50
0
 51
360
 73
    1
 97
    0
 75
    0
 76
    1
 98
    0
  0
HATCH
  5
50
100
AcDbEntity
  8
D1
  6
ByLayer
 62
  256
370
   -1
100
AcDbHatch
 10
0
 20
0
 30
0
210
0
220
0
230
1
  2
SOLID
 70
    1
 71
    0
 91
    1
 92
    0
 93
    1
 72
    2
 10
16.3
 20
-47.49999999999999
 40
0.09999999999999432
 50
0
 51
360
 73
    1
 97
    0
 75
    0
 76
    1
 98
    0
  0
HATCH
  5
51
100
AcDbEntity
  8
D1
  6
ByLayer
 62
  256
370
   -1
100
AcDbHatch
 10
0
 20
0
 30
0
210
0
220
0
230
1
  2
SOLID
 70
    1
 71
    0
 91
    1
 92
    0
 93
    1
 72
    2
 10
17.7
 20
-47.49999999999999
 40
0.09999999999999432
 50
0
 51
360
 73
    1
 97
    0
 75
    0
 76
    1
 98
    0
  0
HATCH
  5
52
100
AcDbEntity
  8
D1
  6
ByLayer
 62
  256
370
   -1
100
AcDbHatch
 10
0
 20
0
 30
0
210
0
220
0
230
1
  2
SOLID
 70
    1
 71
    0
 91
    1
 92
    0
 93
    1
 72
    2
 10
13.8
 20
-47.5
 40
0.09999999999999432
 50
0
 51
360
 73
    1
 97
    0
 75
    0
 76
    1
 98
    0
  0
HATCH
  5
53
100
AcDbEntity
  8
D1
  6
ByLayer
 62
  256
370
   -1
100
AcDbHatch
 10
0
 20
0
 30
0
210
0
220
0
230
1
  2
SOLID
 70
    1
 71
    0
 91
    1
 92
    0
 93
    1
 72
    2
 10
15.2
 20
-47.5
 40
0.09999999999999432
 50
0
 51
360
 73
    1
 97
    0
 75
    0
 76
    1
 98
    0
  0
HATCH
  5
54
100
AcDbEntity
  8
D1
  6
ByLayer
 62
  256
370
   -1
100
AcDbHatch
 10
0
 20
0
 30
0
210
0
220
0
230
1
  2
SOLID
 70
    1
 71
    0
 91
    1
 92
    0
 93
    1
 72
    2
 10
18.3
 20
-0.4999999999999929
 40
0.09999999999999432
 50
0
 51
360
 73
    1
 97
    0
 75
    0
 76
    1
 98
    0
  0
HATCH
  5
55
100
AcDbEntity
  8
D1
  6
ByLayer
 62
  256
370
   -1
100
AcDbHatch
 10
0
 20
0
 30
0
210
0
220
0
230
1
  2
SOLID
 70
    1
 71
    0
 91
    1
 92
    0
 93
    1
 72
    2
 10
19.7
 20
-0.4999999999999929
 40
0.09999999999999432
 50
0
 51
360
 73
    1
 97
    0
 75
    0
 76
    1
 98
    0
  0
HATCH
  5
56
100
AcDbEntity
  8
D1
  6
ByLayer
 62
  256
370
   -1
100
AcDbHatch
 10
0
 20
0
 30
0
210
0
220
0
230
1
  2
SOLID
 70
    1
 71
    0
 91
    1
 92
    0
 93
    1
 72
    2
 10
16.3
 20
-0.4999999999999929
 40
0.09999999999999432
 50
0
 51
360
 73
    1
 97
    0
 75
    0
 76
    1
 98
    0
  0
HATCH
  5
57
100
AcDbEntity
  8
D1
  6
ByLayer
 62
  256
370
   -1
100
AcDbHatch
 10
0
 20
0
 30
0
210
0
220
0
230
1
  2
SOLID
 70
    1
 71
    0
 91
    1
 92
    0
 93
    1
 72
    2
 10
17.7
 20
-0.4999999999999929
 40
0.09999999999999432
 50
0
 51
360
 73
    1
 97
    0
 75
    0
 76
    1
 98
    0
  0
HATCH
  5
58
100
AcDbEntity
  8
D1
  6
ByLayer
 62
  256
370
   -1
100
AcDbHatch
 10
0
 20
0
 30
0
210
0
220
0
230
1
  2
SOLID
 70
    1
 71
    0
 91
    1
 92
    0
 93
    1
 72
    2
 10
13.8
 20
-0.4999999999999858
 40
0.09999999999999432
 50
0
 51
360
 73
    1
 97
    0
 75
    0
 76
    1
 98
    0
  0
HATCH
  5
59
100
AcDbEntity
  8
D1
  6
ByLayer
 62
  256
370
   -1
100
AcDbHatch
 10
0
 20
0
 30
0
210
0
220
0
230
1
  2
SOLID
 70
    1
 71
    0
 91
    1
 92
    0
 93
    1
 72
    2
 10
15.2
 20
-0.4999999999999858
 40
0.09999999999999432
 50
0
 51
360
 73
    1
 97
    0
 75
    0
 76
    1
 98
    0
  0
LWPOLYLINE
  5
5A
100
AcDbEntity
  8
D1
  6
ByLayer
 62
  256
370
   -1
100
AcDbPolyline
 90
    4
 70
    1
 43
0
 10
0
 20
0
 10
1
 20
0
 10
1
 20
-48
 10
0
 20
-48
  0
LWPOLYLINE
  5
5B
100
AcDbEntity
  8
D1
  6
ByLayer
 62
  256
370
   -1
100
AcDbPolyline
 90
    4
 70
    1
 43
0
 10
23
 20
0
 10
24
 20
0
 10
24
 20
-48
 10
23
 20
-48
  0
LINE
  5
5C
100
AcDbEntity
  8
D1
  6
ByLayer
 62
  256
370
   -1
100
AcDbLine
 10
19
 20
-49
 11
19
 21
-51
  0
LINE
  5
5D
100
AcDbEntity
  8
D1
  6
ByLayer
 62
  256
370
   -1
100
AcDbLine
 10
17
 20
-49
 11
17
 21
-53
  0
LINE
  5
5E
100
AcDbEntity
  8
D1
  6
ByLayer
 62
  256
370
   -1
100
AcDbLine
 10
14.5
 20
-49
 11
14.5
 21
-55
  0
LWPOLYLINE
  5
5F
100
AcDbEntity
  8
D1
  6
ByLayer
 62
  256
370
   -1
100
AcDbPolyline
 90
    4
 70
    1
 43
0
 10
18.1
 20
-47.99999999999999
 10
19.9
 20
-47.99999999999999
 10
19.9
 20
-46.99999999999999
 10
18.1
 20
-46.99999999999999
  0
CIRCLE
  5
60
100
AcDbEntity
  8
D1
  6
ByLayer
 62
  256
370
   -1
100
AcDbCircle
 10
18.3
 20
-47.49999999999999
 40
0.09999999999999432
  0
CIRCLE
  5
61
100
AcDbEntity
  8
D1
  6
ByLayer
 62
  256
370
   -1
100
AcDbCircle
 10
19.7
 20
-47.49999999999999
 40
0.09999999999999432
  0
LINE
  5
62
100
AcDbEntity
  8
D1
  6
ByLayer
 62
  256
370
   -1
100
AcDbLine
 10
19
 20
-48.09999999999999
 11
19
 21
-47.99999999999999
  0
LWPOLYLINE
  5
63
100
AcDbEntity
  8
D1
  6
ByLayer
 62
  256
370
   -1
100
AcDbPolyline
 90
    4
 70
    1
 43
0
 10
16.1
 20
-47.99999999999999
 10
17.9
 20
-47.99999999999999
 10
17.9
 20
-46.99999999999999
 10
16.1
 20
-46.99999999999999
  0
CIRCLE
  5
64
100
AcDbEntity
  8
D1
  6
ByLayer
 62
  256
370
   -1
100
AcDbCircle
 10
16.3
 20
-47.49999999999999
 40
0.09999999999999432
  0
CIRCLE
  5
65
100
AcDbEntity
  8
D1
  6
ByLayer
 62
  256
370
   -1
100
AcDbCircle
 10
17.7
 20
-47.49999999999999
 40
0.09999999999999432
  0
LINE
  5
66
100
AcDbEntity
  8
D1
  6
ByLayer
 62
  256
370
   -1
100
AcDbLine
 10
17
 20
-48.09999999999999
 11
17
 21
-47.99999999999999
  0
LWPOLYLINE
  5
67
100
AcDbEntity
  8
D1
  6
ByLayer
 62
  256
370
   -1
100
AcDbPolyline
 90
    4
 70
    1
 43
0
 10
13.6
 20
-48
 10
15.4
 20
-48
 10
15.4
 20
-47
 10
13.6
 20
-47
  0
CIRCLE
  5
68
100
AcDbEntity
  8
D1
  6
ByLayer
 62
  256
370
   -1
100
AcDbCircle
 10
13.8
 20
-47.5
 40
0.09999999999999432
  0
CIRCLE
  5
69
100
AcDbEntity
  8
D1
  6
ByLayer
 62
  256
370
   -1
100
AcDbCircle
 10
15.2
 20
-47.5
 40
0.09999999999999432
  0
LINE
  5
6A
100
AcDbEntity
  8
D1
  6
ByLayer
 62
  256
370
   -1
100
AcDbLine
 10
14.5
 20
-48.1
 11
14.5
 21
-48
  0
LWPOLYLINE
  5
6B
100
AcDbEntity
  8
D1
  6
ByLayer
 62
  256
370
   -1
100
AcDbPolyline
 90
    4
 70
    1
 43
0
 10
1
 20
-48
 10
23
 20
-48
 10
23
 20
-47.50000000000001
 10
1
 20
-47.50000000000001
  0
LWPOLYLINE
  5
6C
100
AcDbEntity
  8
D1
  6
ByLayer
 62
  256
370
   -1
100
AcDbPolyline
 90
    4
 70
    1
 43
0
 10
1
 20
0
 10
23
 20
0
 10
23
 20
-0.4999999999999999
 10
1
 20
-0.5000000000000001
  0
LWPOLYLINE
  5
6D
100
AcDbEntity
  8
D1
  6
ByLayer
 62
  256
370
   -1
100
AcDbPolyline
 90
    4
 70
    1
 43
0
 10
19.9
 20
7.105427357601002e-015
 10
18.1
 20
7.105427357601002e-015
 10
18.1
 20
-0.9999999999999929
 10
19.9
 20
-0.9999999999999929
  0
CIRCLE
  5
6E
100
AcDbEntity
  8
D1
  6
ByLayer
 62
  256
370
   -1
100
AcDbCircle
 10
19.7
 20
-0.4999999999999929
 40
0.09999999999999432
  0
CIRCLE
  5
6F
100
AcDbEntity
  8
D1
  6
ByLayer
 62
  256
370
   -1
100
AcDbCircle
 10
18.3
 20
-0.4999999999999929
 40
0.09999999999999432
  0
LWPOLYLINE
  5
70
100
AcDbEntity
  8
D1
  6
ByLayer
 62
  256
370
   -1
100
AcDbPolyline
 90
    4
 70
    1
 43
0
 10
17.9
 20
7.105427357601002e-015
 10
16.1
 20
7.105427357601002e-015
 10
16.1
 20
-0.9999999999999929
 10
17.9
 20
-0.9999999999999929
  0
CIRCLE
  5
71
100
AcDbEntity
  8
D1
  6
ByLayer
 62
  256
370
   -1
100
AcDbCircle
 10
17.7
 20
-0.4999999999999929
 40
0.09999999999999432
  0
CIRCLE
  5
72
100
AcDbEntity
  8
D1
  6
ByLayer
 62
  256
370
   -1
100
AcDbCircle
 10
16.3
 20
-0.4999999999999929
 40
0.09999999999999432
  0
LWPOLYLINE
  5
73
100
AcDbEntity
  8
D1
  6
ByLayer
 62
  256
370
   -1
100
AcDbPolyline
 90
    4
 70
    1
 43
0
 10
15.4
 20
1.4210854715202e-014
 10
13.6
 20
1.4210854715202e-014
 10
13.6
 20
-0.9999999999999858
 10
15.4
 20
-0.9999999999999858
  0
CIRCLE
  5
74
100
AcDbEntity
  8
D1
  6
ByLayer
 62
  256
370
   -1
100
AcDbCircle
 10
15.2
 20
-0.4999999999999858
 40
0.09999999999999432
  0
CIRCLE
  5
75
100
AcDbEntity
  8
D1
  6
ByLayer
 62
  256
370
   -1
100
AcDbCircle
 10
13.8
 20
-0.4999999999999858
 40
0.09999999999999432
  0
LINE
  5
76
100
AcDbEntity
  8
D1
  6
ByLayer
 62
  256
370
   -1
100
AcDbLine
 10
25
 20
-48
 11
28
 21
-48
  0
LINE
  5
77
100
AcDbEntity
  8
D1
  6
ByLayer
 62
  256
370
   -1
100
AcDbLine
 10
24
 20
-49
 11
24
 21
-55
  0
LINE
  5
78
100
AcDbEntity
  8
D1
  6
DASHEDTINY
 62
  256
370
   -1
100
AcDbLine
 10
17
 20
-52
 11
24
 21
-52
  0
LINE
  5
79
100
AcDbEntity
  8
D1
  6
DASHEDTINY
 62
  256
370
   -1
100
AcDbLine
 10
24
 20
-50
 11
19
 21
-50
  0
LINE
  5
7A
100
AcDbEntity
  8
D1
  6
DASHEDTINY
 62
  256
370
   -1
100
AcDbLine
 10
24
 20
-54
 11
14.5
 21
-54
  0
LINE
  5
7B
100
AcDbEntity
  8
D1
  6
DASHEDTINY
 62
  256
370
   -1
100
AcDbLine
 10
27
 20
-45
 11
27
 21
-48
  0
LINE
  5
7C
100
AcDbEntity
  8
D1
  6
ByLayer
 62
  256
370
   -1
100
AcDbLine
 10
20
 20
-45
 11
28
 21
-45
  0
MTEXT
  5
7D
100
AcDbEntity
  8
D1
  6
ByLayer
 62
  256
370
   -1
100
AcDbMText
 10
21.6
 20
-49.40000000000001
 30
0
 40
1
 41
1.166666666666728
 71
    5
 72
    1
  1
5"
  7

210
0
220
0
230
1
 50
0
 73
    2
 44
1
  0
MTEXT
  5
7E
100
AcDbEntity
  8
D1
  6
ByLayer
 62
  256
370
   -1
100
AcDbMText
 10
20.5
 20
-51.40000000000001
 30
0
 40
1
 41
1.166666666666667
 71
    5
 72
    1
  1
7"
  7

210
0
220
0
230
1
 50
0
 73
    2
 44
1
  0
MTEXT
  5
7F
100
AcDbEntity
  8
D1
  6
ByLayer
 62
  256
370
   -1
100
AcDbMText
 10
18.7
 20
-53.40000000000001
 30
0
 40
1
 41
2.277777777777902
 71
    5
 72
    1
  1
9.5"
  7

210
0
220
0
230
1
 50
0
 73
    2
 44
1
  0
LINE
  5
80
100
AcDbEntity
  8
D1
  6
ByLayer
 62
  256
370
   -1
100
AcDbLine
 10
0
 20
3
 11
0
 21
1
  0
LINE
  5
81
100
AcDbEntity
  8
D1
  6
ByLayer
 62
  256
370
   -1
100
AcDbLine
 10
24
 20
3
 11
24
 21
1
  0
LINE
  5
82
100
AcDbEntity
  8
D1
  6
DASHEDTINY
 62
  256
370
   -1
100
AcDbLine
 10
24
 20
2
 11
0
 21
2
  0
LINE
  5
83
100
AcDbEntity
  8
D1
  6
DASHEDTINY
 62
  256
370
   -1
100
AcDbLine
 10
-2
 20
0
 11
-2
 21
-48
  0
LINE
  5
84
100
AcDbEntity
  8
D1
  6
ByLayer
 62
  256
370
   -1
100
AcDbLine
 10
-1
 20
-48
 11
-3
 21
-48
  0
LINE
  5
85
100
AcDbEntity
  8
D1
  6
ByLayer
 62
  256
370
   -1
100
AcDbLine
 10
-1
 20
0
 11
-3
 21
0
  0
MTEXT
  5
86
100
AcDbEntity
  8
D1
  6
ByLayer
 62
  256
370
   -1
100
AcDbMText
 10
12
 20
3
 30
0
 40
1
 41
2.055555555555555
 71
    5
 72
    1
  1
24"
  7

210
0
220
0
230
1
 50
0
 73
    2
 44
1
  0
MTEXT
  5
87
100
AcDbEntity
  8
D1
  6
ByLayer
 62
  256
370
   -1
100
AcDbMText
 10
-3.3
 20
-25
 30
0
 40
1
 41
2.055555555555555
 71
    5
 72
    1
  1
48"
  7

210
0
220
0
230
1
 50
0
 73
    2
 44
1
  0
MTEXT
  5
88
100
AcDbEntity
  8
D1
  6
ByLayer
 62
  256
370
   -1
100
AcDbMText
 10
29.41666661111108
 20
-46.5
 30
0
 40
1
 41
3.833333222222285
 71
    5
 72
    1
  1
3"-(A)
  7

210
0
220
0
230
1
 50
0
 73
    2
 44
1
  0
MTEXT
  5
89
100
AcDbEntity
  8
D1
  6
ByLayer
 62
  256
370
   -1
100
AcDbMText
 10
3
 20
-20
 30
0
 40
1
 41
3.222222222222222
 71
    5
 72
    1
  1
BACK
  7

210
0
220
0
230
1
 50
0
 73
    2
 44
1
  0
MTEXT
  5
8A
100
AcDbEntity
  8
D1
  6
ByLayer
 62
  256
370
   -1
100
AcDbMText
 10
26.5
 20
-20
 30
0
 40
1
 41
4
 71
    5
 72
    1
  1
FRONT
  7

210
0
220
0
230
1
 50
0
 73
    2
 44
1
  0
MTEXT
  5
8B
100
AcDbEntity
  8
D1
  6
ByLayer
 62
  256
370
   -1
100
AcDbMText
 10
30.71527777777778
 20
-41.75
 30
0
 40
0.5
 41
8.111111111111205
 71
    5
 72
    1
  1
(A): Refers to the NGM\PTrack end mounted to\Pthe edge of the module
  7

210
0
220
0
230
1
 50
0
 73
    2
 44
1
  0
LWPOLYLINE
  5
8C
100
AcDbEntity
  8
D1
  6
ByLayer
 62
  256
370
   18
100
AcDbPolyline
 90
    5
 70
    1
 43
0
 10
19.5
 20
-1.399999999999991
 10
18.5
 20
-1.399999999999991
 10
18.5
 20
-1.29999999999999
 10
19.5
 20
-1.29999999999999
 10
19.5
 20
-1.29999999999999
  0
LWPOLYLINE
  5
8D
100
AcDbEntity
  8
D1
  6
ByLayer
 62
  256
370
   18
100
AcDbPolyline
 90
    5
 70
    1
 43
0
 10
19.5
 20
-1.099999999999994
 10
18.5
 20
-1.099999999999994
 10
18.5
 20
-0.9999999999999929
 10
19.5
 20
-0.9999999999999929
 10
19.5
 20
-0.9999999999999929
  0
LWPOLYLINE
  5
8E
100
AcDbEntity
  8
D1
  6
ByLayer
 62
  256
370
   18
100
AcDbPolyline
 90
    5
 70
    1
 43
0
 10
19.5
 20
-0.7999999999999901
 10
18.5
 20
-0.7999999999999901
 10
18.5
 20
-0.6999999999999886
 10
19.5
 20
-0.6999999999999886
 10
19.5
 20
-0.6999999999999886
  0
LWPOLYLINE
  5
8F
100
AcDbEntity
  8
D1
  6
ByLayer
 62
  256
370
   18
100
AcDbPolyline
 90
    5
 70
    1
 43
0
 10
19.5
 20
-0.4999999999999929
 10
18.5
 20
-0.4999999999999929
 10
18.5
 20
-0.3999999999999915
 10
19.5
 20
-0.3999999999999915
 10
19.5
 20
-0.3999999999999915
  0
LWPOLYLINE
  5
90
100
AcDbEntity
  8
D1
  6
ByLayer
 62
  256
370
   18
100
AcDbPolyline
 90
    5
 70
    1
 43
0
 10
19.5
 20
-0.1999999999999886
 10
18.5
 20
-0.1999999999999886
 10
18.5
 20
-0.09999999999998721
 10
19.5
 20
-0.09999999999998721
 10
19.5
 20
-0.09999999999998721
  0
LINE
  5
91
100
AcDbEntity
  8
D1
  6
ByLayer
 62
  256
370
   18
100
AcDbLine
 10
18.6
 20
-2.999999999999993
 11
18.6
 21
-5.999999999999993
  0
LINE
  5
92
100
AcDbEntity
  8
D1
  6
ByLayer
 62
  256
370
   18
100
AcDbLine
 10
19.4
 20
-2.999999999999993
 11
19.4
 21
-5.999999999999993
  0
LWPOLYLINE
  5
93
100
AcDbEntity
  8
D1
  6
ByLayer
 62
  256
370
   18
100
AcDbPolyline
 90
    5
 70
    1
 43
0
 10
16.5
 20
-6.099999999999994
 10
17.5
 20
-6.099999999999994
 10
17.5
 20
-6.199999999999996
 10
16.5
 20
-6.199999999999996
 10
16.5
 20
-6.199999999999996
  0
LWPOLYLINE
  5
94
100
AcDbEntity
  8
D1
  6
ByLayer
 62
  256
370
   18
100
AcDbPolyline
 90
    5
 70
    1
 43
0
 10
16.5
 20
-3.099999999999994
 10
17.5
 20
-3.099999999999994
 10
17.5
 20
-3.199999999999996
 10
16.5
 20
-3.199999999999996
 10
16.5
 20
-3.199999999999996
  0
LWPOLYLINE
  5
95
100
AcDbEntity
  8
D1
  6
ByLayer
 62
  256
370
   18
100
AcDbPolyline
 90
    5
 70
    1
 43
0
 10
16.5
 20
-3.399999999999991
 10
17.5
 20
-3.399999999999991
 10
17.5
 20
-3.499999999999993
 10
16.5
 20
-3.499999999999993
 10
16.5
 20
-3.499999999999993
  0
LWPOLYLINE
  5
96
100
AcDbEntity
  8
D1
  6
ByLayer
 62
  256
370
   18
100
AcDbPolyline
 90
    5
 70
    1
 43
0
 10
16.5
 20
-3.699999999999996
 10
17.5
 20
-3.699999999999996
 10
17.5
 20
-3.799999999999997
 10
16.5
 20
-3.799999999999997
 10
16.5
 20
-3.799999999999997
  0
LWPOLYLINE
  5
97
100
AcDbEntity
  8
D1
  6
ByLayer
 62
  256
370
   18
100
AcDbPolyline
 90
    5
 70
    1
 43
0
 10
16.5
 20
-4.29999999999999
 10
17.5
 20
-4.29999999999999
 10
17.5
 20
-4.399999999999991
 10
16.5
 20
-4.399999999999991
 10
16.5
 20
-4.399999999999991
  0
LWPOLYLINE
  5
98
100
AcDbEntity
  8
D1
  6
ByLayer
 62
  256
370
   18
100
AcDbPolyline
 90
    5
 70
    1
 43
0
 10
16.5
 20
-4.599999999999994
 10
17.5
 20
-4.599999999999994
 10
17.5
 20
-4.699999999999996
 10
16.5
 20
-4.699999999999996
 10
16.5
 20
-4.699999999999996
  0
LWPOLYLINE
  5
99
100
AcDbEntity
  8
D1
  6
ByLayer
 62
  256
370
   18
100
AcDbPolyline
 90
    5
 70
    1
 43
0
 10
16.5
 20
-4.899999999999991
 10
17.5
 20
-4.899999999999991
 10
17.5
 20
-4.999999999999993
 10
16.5
 20
-4.999999999999993
 10
16.5
 20
-4.999999999999993
  0
LWPOLYLINE
  5
9A
100
AcDbEntity
  8
D1
  6
ByLayer
 62
  256
370
   18
100
AcDbPolyline
 90
    5
 70
    1
 43
0
 10
16.5
 20
-5.199999999999996
 10
17.5
 20
-5.199999999999996
 10
17.5
 20
-5.299999999999997
 10
16.5
 20
-5.299999999999997
 10
16.5
 20
-5.299999999999997
  0
LWPOLYLINE
  5
9B
100
AcDbEntity
  8
D1
  6
ByLayer
 62
  256
370
   18
100
AcDbPolyline
 90
    5
 70
    1
 43
0
 10
16.5
 20
-5.499999999999993
 10
17.5
 20
-5.499999999999993
 10
17.5
 20
-5.599999999999994
 10
16.5
 20
-5.599999999999994
 10
16.5
 20
-5.599999999999994
  0
LWPOLYLINE
  5
9C
100
AcDbEntity
  8
D1
  6
ByLayer
 62
  256
370
   18
100
AcDbPolyline
 90
    5
 70
    1
 43
0
 10
16.5
 20
-5.799999999999997
 10
17.5
 20
-5.799999999999997
 10
17.5
 20
-5.899999999999999
 10
16.5
 20
-5.899999999999999
 10
16.5
 20
-5.899999999999999
  0
LWPOLYLINE
  5
9D
100
AcDbEntity
  8
D1
  6
ByLayer
 62
  256
370
   18
100
AcDbPolyline
 90
    6
 70
    1
 43
0
 10
16.5
 20
-3.999999999999993
 10
17.5
 20
-3.999999999999993
 10
17.5
 20
-4.099999999999994
 10
16.5
 20
-4.099999999999994
 10
16.5
 20
-4.099999999999994
 10
16.5
 20
-4.099999999999994
  0
LINE
  5
9E
100
AcDbEntity
  8
D1
  6
ByLayer
 62
  256
370
   18
100
AcDbLine
 10
16.6
 20
-2.999999999999993
 11
16.6
 21
-5.999999999999993
  0
LINE
  5
9F
100
AcDbEntity
  8
D1
  6
ByLayer
 62
  256
370
   18
100
AcDbLine
 10
17.4
 20
-2.999999999999993
 11
17.4
 21
-5.999999999999993
  0
LWPOLYLINE
  5
A0
100
AcDbEntity
  8
D1
  6
ByLayer
 62
  256
370
   18
100
AcDbPolyline
 90
    5
 70
    1
 43
0
 10
14
 20
-6.099999999999987
 10
15
 20
-6.099999999999987
 10
15
 20
-6.199999999999989
 10
14
 20
-6.199999999999989
 10
14
 20
-6.199999999999989
  0
LWPOLYLINE
  5
A1
100
AcDbEntity
  8
D1
  6
ByLayer
 62
  256
370
   18
100
AcDbPolyline
 90
    5
 70
    1
 43
0
 10
14
 20
-3.099999999999987
 10
15
 20
-3.099999999999987
 10
15
 20
-3.199999999999989
 10
14
 20
-3.199999999999989
 10
14
 20
-3.199999999999989
  0
LWPOLYLINE
  5
A2
100
AcDbEntity
  8
D1
  6
ByLayer
 62
  256
370
   18
100
AcDbPolyline
 90
    5
 70
    1
 43
0
 10
14
 20
-3.399999999999984
 10
15
 20
-3.399999999999984
 10
15
 20
-3.499999999999986
 10
14
 20
-3.499999999999986
 10
14
 20
-3.499999999999986
  0
LWPOLYLINE
  5
A3
100
AcDbEntity
  8
D1
  6
ByLayer
 62
  256
370
   18
100
AcDbPolyline
 90
    5
 70
    1
 43
0
 10
14
 20
-3.699999999999989
 10
15
 20
-3.699999999999989
 10
15
 20
-3.79999999999999
 10
14
 20
-3.79999999999999
 10
14
 20
-3.79999999999999
  0
LWPOLYLINE
  5
A4
100
AcDbEntity
  8
D1
  6
ByLayer
 62
  256
370
   18
100
AcDbPolyline
 90
    5
 70
    1
 43
0
 10
14
 20
-4.299999999999983
 10
15
 20
-4.299999999999983
 10
15
 20
-4.399999999999984
 10
14
 20
-4.399999999999984
 10
14
 20
-4.399999999999984
  0
LWPOLYLINE
  5
A5
100
AcDbEntity
  8
D1
  6
ByLayer
 62
  256
370
   18
100
AcDbPolyline
 90
    5
 70
    1
 43
0
 10
14
 20
-4.599999999999987
 10
15
 20
-4.599999999999987
 10
15
 20
-4.699999999999989
 10
14
 20
-4.699999999999989
 10
14
 20
-4.699999999999989
  0
LWPOLYLINE
  5
A6
100
AcDbEntity
  8
D1
  6
ByLayer
 62
  256
370
   18
100
AcDbPolyline
 90
    5
 70
    1
 43
0
 10
14
 20
-4.899999999999984
 10
15
 20
-4.899999999999984
 10
15
 20
-4.999999999999986
 10
14
 20
-4.999999999999986
 10
14
 20
-4.999999999999986
  0
LWPOLYLINE
  5
A7
100
AcDbEntity
  8
D1
  6
ByLayer
 62
  256
370
   18
100
AcDbPolyline
 90
    5
 70
    1
 43
0
 10
14
 20
-5.199999999999989
 10
15
 20
-5.199999999999989
 10
15
 20
-5.29999999999999
 10
14
 20
-5.29999999999999
 10
14
 20
-5.29999999999999
  0
LWPOLYLINE
  5
A8
100
AcDbEntity
  8
D1
  6
ByLayer
 62
  256
370
   18
100
AcDbPolyline
 90
    5
 70
    1
 43
0
 10
14
 20
-5.499999999999986
 10
15
 20
-5.499999999999986
 10
15
 20
-5.599999999999987
 10
14
 20
-5.599999999999987
 10
14
 20
-5.599999999999987
  0
LWPOLYLINE
  5
A9
100
AcDbEntity
  8
D1
  6
ByLayer
 62
  256
370
   18
100
AcDbPolyline
 90
    5
 70
    1
 43
0
 10
14
 20
-5.79999999999999
 10
15
 20
-5.79999999999999
 10
15
 20
-5.899999999999991
 10
14
 20
-5.899999999999991
 10
14
 20
-5.899999999999991
  0
LWPOLYLINE
  5
AA
100
AcDbEntity
  8
D1
  6
ByLayer
 62
  256
370
   18
100
AcDbPolyline
 90
    6
 70
    1
 43
0
 10
14
 20
-3.999999999999986
 10
15
 20
-3.999999999999986
 10
15
 20
-4.099999999999987
 10
14
 20
-4.099999999999987
 10
14
 20
-4.099999999999987
 10
14
 20
-4.099999999999987
  0
LINE
  5
AB
100
AcDbEntity
  8
D1
  6
ByLayer
 62
  256
370
   18
100
AcDbLine
 10
14.1
 20
-2.999999999999986
 11
14.1
 21
-5.999999999999986
  0
LINE
  5
AC
100
AcDbEntity
  8
D1
  6
ByLayer
 62
  256
370
   18
100
AcDbLine
 10
14.9
 20
-2.999999999999986
 11
14.9
 21
-5.999999999999986
  0
LINE
  5
AD
100
AcDbEntity
  8
D1
  6
ByLayer
 62
  256
370
   18
100
AcDbLine
 10
19.4
 20
-2.999999999999993
 11
19.4
 21
7.105427357601002e-015
  0
LINE
  5
AE
100
AcDbEntity
  8
D1
  6
ByLayer
 62
  256
370
   18
100
AcDbLine
 10
18.6
 20
-2.999999999999993
 11
18.6
 21
7.105427357601002e-015
  0
LWPOLYLINE
  5
AF
100
AcDbEntity
  8
D1
  6
ByLayer
 62
  256
370
   18
100
AcDbPolyline
 90
    5
 70
    1
 43
0
 10
17.5
 20
-2.899999999999991
 10
16.5
 20
-2.899999999999991
 10
16.5
 20
-2.79999999999999
 10
17.5
 20
-2.79999999999999
 10
17.5
 20
-2.79999999999999
  0
LWPOLYLINE
  5
B0
100
AcDbEntity
  8
D1
  6
ByLayer
 62
  256
370
   18
100
AcDbPolyline
 90
    5
 70
    1
 43
0
 10
17.5
 20
-2.599999999999994
 10
16.5
 20
-2.599999999999994
 10
16.5
 20
-2.499999999999993
 10
17.5
 20
-2.499999999999993
 10
17.5
 20
-2.499999999999993
  0
LWPOLYLINE
  5
B1
100
AcDbEntity
  8
D1
  6
ByLayer
 62
  256
370
   18
100
AcDbPolyline
 90
    5
 70
    1
 43
0
 10
17.5
 20
-2.29999999999999
 10
16.5
 20
-2.29999999999999
 10
16.5
 20
-2.199999999999989
 10
17.5
 20
-2.199999999999989
 10
17.5
 20
-2.199999999999989
  0
LWPOLYLINE
  5
B2
100
AcDbEntity
  8
D1
  6
ByLayer
 62
  256
370
   18
100
AcDbPolyline
 90
    5
 70
    1
 43
0
 10
17.5
 20
-1.699999999999996
 10
16.5
 20
-1.699999999999996
 10
16.5
 20
-1.599999999999994
 10
17.5
 20
-1.599999999999994
 10
17.5
 20
-1.599999999999994
  0
LWPOLYLINE
  5
B3
100
AcDbEntity
  8
D1
  6
ByLayer
 62
  256
370
   18
100
AcDbPolyline
 90
    5
 70
    1
 43
0
 10
17.5
 20
-1.399999999999991
 10
16.5
 20
-1.399999999999991
 10
16.5
 20
-1.29999999999999
 10
17.5
 20
-1.29999999999999
 10
17.5
 20
-1.29999999999999
  0
LWPOLYLINE
  5
B4
100
AcDbEntity
  8
D1
  6
ByLayer
 62
  256
370
   18
100
AcDbPolyline
 90
    5
 70
    1
 43
0
 10
17.5
 20
-1.099999999999994
 10
16.5
 20
-1.099999999999994
 10
16.5
 20
-0.9999999999999929
 10
17.5
 20
-0.9999999999999929
 10
17.5
 20
-0.9999999999999929
  0
LWPOLYLINE
  5
B5
100
AcDbEntity
  8
D1
  6
ByLayer
 62
  256
370
   18
100
AcDbPolyline
 90
    5
 70
    1
 43
0
 10
17.5
 20
-0.7999999999999901
 10
16.5
 20
-0.7999999999999901
 10
16.5
 20
-0.6999999999999886
 10
17.5
 20
-0.6999999999999886
 10
17.5
 20
-0.6999999999999886
  0
LWPOLYLINE
  5
B6
100
AcDbEntity
  8
D1
  6
ByLayer
 62
  256
370
   18
100
AcDbPolyline
 90
    5
 70
    1
 43
0
 10
17.5
 20
-0.4999999999999929
 10
16.5
 20
-0.4999999999999929
 10
16.5
 20
-0.3999999999999915
 10
17.5
 20
-0.3999999999999915
 10
17.5
 20
-0.3999999999999915
  0
LWPOLYLINE
  5
B7
100
AcDbEntity
  8
D1
  6
ByLayer
 62
  256
370
   18
100
AcDbPolyline
 90
    5
 70
    1
 43
0
 10
17.5
 20
-0.1999999999999886
 10
16.5
 20
-0.1999999999999886
 10
16.5
 20
-0.09999999999998721
 10
17.5
 20
-0.09999999999998721
 10
17.5
 20
-0.09999999999998721
  0
LWPOLYLINE
  5
B8
100
AcDbEntity
  8
D1
  6
ByLayer
 62
  256
370
   18
100
AcDbPolyline
 90
    6
 70
    1
 43
0
 10
17.5
 20
-1.999999999999993
 10
16.5
 20
-1.999999999999993
 10
16.5
 20
-1.899999999999991
 10
17.5
 20
-1.899999999999991
 10
17.5
 20
-1.899999999999991
 10
17.5
 20
-1.899999999999991
  0
LINE
  5
B9
100
AcDbEntity
  8
D1
  6
ByLayer
 62
  256
370
   18
100
AcDbLine
 10
17.4
 20
-2.999999999999993
 11
17.4
 21
7.105427357601002e-015
  0
LINE
  5
BA
100
AcDbEntity
  8
D1
  6
ByLayer
 62
  256
370
   18
100
AcDbLine
 10
16.6
 20
-2.999999999999993
 11
16.6
 21
7.105427357601002e-015
  0
LWPOLYLINE
  5
BB
100
AcDbEntity
  8
D1
  6
ByLayer
 62
  256
370
   18
100
AcDbPolyline
 90
    5
 70
    1
 43
0
 10
15
 20
-2.899999999999984
 10
14
 20
-2.899999999999984
 10
14
 20
-2.799999999999983
 10
15
 20
-2.799999999999983
 10
15
 20
-2.799999999999983
  0
LWPOLYLINE
  5
BC
100
AcDbEntity
  8
D1
  6
ByLayer
 62
  256
370
   18
100
AcDbPolyline
 90
    5
 70
    1
 43
0
 10
15
 20
-2.599999999999987
 10
14
 20
-2.599999999999987
 10
14
 20
-2.499999999999986
 10
15
 20
-2.499999999999986
 10
15
 20
-2.499999999999986
  0
LWPOLYLINE
  5
BD
100
AcDbEntity
  8
D1
  6
ByLayer
 62
  256
370
   18
100
AcDbPolyline
 90
    5
 70
    1
 43
0
 10
15
 20
-2.299999999999983
 10
14
 20
-2.299999999999983
 10
14
 20
-2.199999999999982
 10
15
 20
-2.199999999999982
 10
15
 20
-2.199999999999982
  0
LWPOLYLINE
  5
BE
100
AcDbEntity
  8
D1
  6
ByLayer
 62
  256
370
   18
100
AcDbPolyline
 90
    5
 70
    1
 43
0
 10
15
 20
-1.699999999999989
 10
14
 20
-1.699999999999989
 10
14
 20
-1.599999999999987
 10
15
 20
-1.599999999999987
 10
15
 20
-1.599999999999987
  0
LWPOLYLINE
  5
BF
100
AcDbEntity
  8
D1
  6
ByLayer
 62
  256
370
   18
100
AcDbPolyline
 90
    5
 70
    1
 43
0
 10
15
 20
-1.399999999999984
 10
14
 20
-1.399999999999984
 10
14
 20
-1.299999999999983
 10
15
 20
-1.299999999999983
 10
15
 20
-1.299999999999983
  0
LWPOLYLINE
  5
C0
100
AcDbEntity
  8
D1
  6
ByLayer
 62
  256
370
   18
100
AcDbPolyline
 90
    5
 70
    1
 43
0
 10
15
 20
-1.099999999999987
 10
14
 20
-1.099999999999987
 10
14
 20
-0.9999999999999858
 10
15
 20
-0.9999999999999858
 10
15
 20
-0.9999999999999858
  0
LWPOLYLINE
  5
C1
100
AcDbEntity
  8
D1
  6
ByLayer
 62
  256
370
   18
100
AcDbPolyline
 90
    5
 70
    1
 43
0
 10
15
 20
-0.7999999999999829
 10
14
 20
-0.7999999999999829
 10
14
 20
-0.6999999999999815
 10
15
 20
-0.6999999999999815
 10
15
 20
-0.6999999999999815
  0
LWPOLYLINE
  5
C2
100
AcDbEntity
  8
D1
  6
ByLayer
 62
  256
370
   18
100
AcDbPolyline
 90
    5
 70
    1
 43
0
 10
15
 20
-0.4999999999999858
 10
14
 20
-0.4999999999999858
 10
14
 20
-0.3999999999999844
 10
15
 20
-0.3999999999999844
 10
15
 20
-0.3999999999999844
  0
LWPOLYLINE
  5
C3
100
AcDbEntity
  8
D1
  6
ByLayer
 62
  256
370
   18
100
AcDbPolyline
 90
    5
 70
    1
 43
0
 10
15
 20
-0.1999999999999815
 10
14
 20
-0.1999999999999815
 10
14
 20
-0.0999999999999801
 10
15
 20
-0.0999999999999801
 10
15
 20
-0.0999999999999801
  0
LWPOLYLINE
  5
C4
100
AcDbEntity
  8
D1
  6
ByLayer
 62
  256
370
   18
100
AcDbPolyline
 90
    6
 70
    1
 43
0
 10
15
 20
-1.999999999999986
 10
14
 20
-1.999999999999986
 10
14
 20
-1.899999999999984
 10
15
 20
-1.899999999999984
 10
15
 20
-1.899999999999984
 10
15
 20
-1.899999999999984
  0
LINE
  5
C5
100
AcDbEntity
  8
D1
  6
ByLayer
 62
  256
370
   18
100
AcDbLine
 10
14.9
 20
-2.999999999999986
 11
14.9
 21
1.4210854715202e-014
  0
LINE
  5
C6
100
AcDbEntity
  8
D1
  6
ByLayer
 62
  256
370
   18
100
AcDbLine
 10
14.1
 20
-2.999999999999986
 11
14.1
 21
1.4210854715202e-014
  0
LWPOLYLINE
  5
C7
100
AcDbEntity
  8
D1
  6
ByLayer
 62
  256
370
   18
100
AcDbPolyline
 90
    5
 70
    1
 43
0
 10
18.5
 20
-6.099999999999994
 10
19.5
 20
-6.099999999999994
 10
19.5
 20
-6.199999999999996
 10
18.5
 20
-6.199999999999996
 10
18.5
 20
-6.199999999999996
  0
LWPOLYLINE
  5
C8
100
AcDbEntity
  8
D1
  6
ByLayer
 62
  256
370
   18
100
AcDbPolyline
 90
    5
 70
    1
 43
0
 10
18.5
 20
-3.099999999999994
 10
19.5
 20
-3.099999999999994
 10
19.5
 20
-3.199999999999996
 10
18.5
 20
-3.199999999999996
 10
18.5
 20
-3.199999999999996
  0
LWPOLYLINE
  5
C9
100
AcDbEntity
  8
D1
  6
ByLayer
 62
  256
370
   18
100
AcDbPolyline
 90
    5
 70
    1
 43
0
 10
18.5
 20
-3.399999999999991
 10
19.5
 20
-3.399999999999991
 10
19.5
 20
-3.499999999999993
 10
18.5
 20
-3.499999999999993
 10
18.5
 20
-3.499999999999993
  0
LWPOLYLINE
  5
CA
100
AcDbEntity
  8
D1
  6
ByLayer
 62
  256
370
   18
100
AcDbPolyline
 90
    5
 70
    1
 43
0
 10
18.5
 20
-3.699999999999996
 10
19.5
 20
-3.699999999999996
 10
19.5
 20
-3.799999999999997
 10
18.5
 20
-3.799999999999997
 10
18.5
 20
-3.799999999999997
  0
LWPOLYLINE
  5
CB
100
AcDbEntity
  8
D1
  6
ByLayer
 62
  256
370
   18
100
AcDbPolyline
 90
    5
 70
    1
 43
0
 10
18.5
 20
-4.29999999999999
 10
19.5
 20
-4.29999999999999
 10
19.5
 20
-4.399999999999991
 10
18.5
 20
-4.399999999999991
 10
18.5
 20
-4.399999999999991
  0
LWPOLYLINE
  5
CC
100
AcDbEntity
  8
D1
  6
ByLayer
 62
  256
370
   18
100
AcDbPolyline
 90
    5
 70
    1
 43
0
 10
18.5
 20
-4.599999999999994
 10
19.5
 20
-4.599999999999994
 10
19.5
 20
-4.699999999999996
 10
18.5
 20
-4.699999999999996
 10
18.5
 20
-4.699999999999996
  0
LWPOLYLINE
  5
CD
100
AcDbEntity
  8
D1
  6
ByLayer
 62
  256
370
   18
100
AcDbPolyline
 90
    5
 70
    1
 43
0
 10
18.5
 20
-4.899999999999991
 10
19.5
 20
-4.899999999999991
 10
19.5
 20
-4.999999999999993
 10
18.5
 20
-4.999999999999993
 10
18.5
 20
-4.999999999999993
  0
LWPOLYLINE
  5
CE
100
AcDbEntity
  8
D1
  6
ByLayer
 62
  256
370
   18
100
AcDbPolyline
 90
    5
 70
    1
 43
0
 10
18.5
 20
-5.199999999999996
 10
19.5
 20
-5.199999999999996
 10
19.5
 20
-5.299999999999997
 10
18.5
 20
-5.299999999999997
 10
18.5
 20
-5.299999999999997
  0
LWPOLYLINE
  5
CF
100
AcDbEntity
  8
D1
  6
ByLayer
 62
  256
370
   18
100
AcDbPolyline
 90
    5
 70
    1
 43
0
 10
18.5
 20
-5.499999999999993
 10
19.5
 20
-5.499999999999993
 10
19.5
 20
-5.599999999999994
 10
18.5
 20
-5.599999999999994
 10
18.5
 20
-5.599999999999994
  0
LWPOLYLINE
  5
D0
100
AcDbEntity
  8
D1
  6
ByLayer
 62
  256
370
   18
100
AcDbPolyline
 90
    5
 70
    1
 43
0
 10
18.5
 20
-5.799999999999997
 10
19.5
 20
-5.799999999999997
 10
19.5
 20
-5.899999999999999
 10
18.5
 20
-5.899999999999999
 10
18.5
 20
-5.899999999999999
  0
LWPOLYLINE
  5
D1
100
AcDbEntity
  8
D1
  6
ByLayer
 62
  256
370
   18
100
AcDbPolyline
 90
    6
 70
    1
 43
0
 10
18.5
 20
-3.999999999999993
 10
19.5
 20
-3.999999999999993
 10
19.5
 20
-4.099999999999994
 10
18.5
 20
-4.099999999999994
 10
18.5
 20
-4.099999999999994
 10
18.5
 20
-4.099999999999994
  0
LWPOLYLINE
  5
D2
100
AcDbEntity
  8
D1
  6
ByLayer
 62
  256
370
   18
100
AcDbPolyline
 90
    5
 70
    1
 43
0
 10
19.5
 20
-2.899999999999991
 10
18.5
 20
-2.899999999999991
 10
18.5
 20
-2.79999999999999
 10
19.5
 20
-2.79999999999999
 10
19.5
 20
-2.79999999999999
  0
LWPOLYLINE
  5
D3
100
AcDbEntity
  8
D1
  6
ByLayer
 62
  256
370
   18
100
AcDbPolyline
 90
    5
 70
    1
 43
0
 10
19.5
 20
-2.599999999999994
 10
18.5
 20
-2.599999999999994
 10
18.5
 20
-2.499999999999993
 10
19.5
 20
-2.499999999999993
 10
19.5
 20
-2.499999999999993
  0
LWPOLYLINE
  5
D4
100
AcDbEntity
  8
D1
  6
ByLayer
 62
  256
370
   18
100
AcDbPolyline
 90
    5
 70
    1
 43
0
 10
19.5
 20
-2.29999999999999
 10
18.5
 20
-2.29999999999999
 10
18.5
 20
-2.199999999999989
 10
19.5
 20
-2.199999999999989
 10
19.5
 20
-2.199999999999989
  0
LWPOLYLINE
  5
D5
100
AcDbEntity
  8
D1
  6
ByLayer
 62
  256
370
   18
100
AcDbPolyline
 90
    5
 70
    1
 43
0
 10
19.5
 20
-1.699999999999996
 10
18.5
 20
-1.699999999999996
 10
18.5
 20
-1.599999999999994
 10
19.5
 20
-1.599999999999994
 10
19.5
 20
-1.599999999999994
  0
LWPOLYLINE
  5
D6
100
AcDbEntity
  8
D1
  6
ByLayer
 62
  256
370
   18
100
AcDbPolyline
 90
    6
 70
    1
 43
0
 10
19.5
 20
-1.999999999999993
 10
18.5
 20
-1.999999999999993
 10
18.5
 20
-1.899999999999991
 10
19.5
 20
-1.899999999999991
 10
19.5
 20
-1.899999999999991
 10
19.5
 20
-1.899999999999991
  0
LWPOLYLINE
  5
D7
100
AcDbEntity
  8
D1
  6
ByLayer
 62
  256
370
   18
100
AcDbPolyline
 90
    5
 70
    1
 43
0
 10
18.5
 20
-46.59999999999999
 10
19.5
 20
-46.59999999999999
 10
19.5
 20
-46.7
 10
18.5
 20
-46.7
 10
18.5
 20
-46.7
  0
LWPOLYLINE
  5
D8
100
AcDbEntity
  8
D1
  6
ByLayer
 62
  256
370
   18
100
AcDbPolyline
 90
    5
 70
    1
 43
0
 10
18.5
 20
-46.89999999999999
 10
19.5
 20
-46.89999999999999
 10
19.5
 20
-46.99999999999999
 10
18.5
 20
-46.99999999999999
 10
18.5
 20
-46.99999999999999
  0
LWPOLYLINE
  5
D9
100
AcDbEntity
  8
D1
  6
ByLayer
 62
  256
370
   18
100
AcDbPolyline
 90
    5
 70
    1
 43
0
 10
18.5
 20
-47.2
 10
19.5
 20
-47.2
 10
19.5
 20
-47.3
 10
18.5
 20
-47.3
 10
18.5
 20
-47.3
  0
LWPOLYLINE
  5
DA
100
AcDbEntity
  8
D1
  6
ByLayer
 62
  256
370
   18
100
AcDbPolyline
 90
    5
 70
    1
 43
0
 10
18.5
 20
-47.49999999999999
 10
19.5
 20
-47.49999999999999
 10
19.5
 20
-47.59999999999999
 10
18.5
 20
-47.59999999999999
 10
18.5
 20
-47.59999999999999
  0
LWPOLYLINE
  5
DB
100
AcDbEntity
  8
D1
  6
ByLayer
 62
  256
370
   18
100
AcDbPolyline
 90
    5
 70
    1
 43
0
 10
18.5
 20
-47.8
 10
19.5
 20
-47.8
 10
19.5
 20
-47.9
 10
18.5
 20
-47.9
 10
18.5
 20
-47.9
  0
LINE
  5
DC
100
AcDbEntity
  8
D1
  6
ByLayer
 62
  256
370
   18
100
AcDbLine
 10
18.6
 20
-44.99999999999999
 11
18.6
 21
-47.99999999999999
  0
LINE
  5
DD
100
AcDbEntity
  8
D1
  6
ByLayer
 62
  256
370
   18
100
AcDbLine
 10
19.4
 20
-44.99999999999999
 11
19.4
 21
-47.99999999999999
  0
LWPOLYLINE
  5
DE
100
AcDbEntity
  8
D1
  6
ByLayer
 62
  256
370
   18
100
AcDbPolyline
 90
    5
 70
    1
 43
0
 10
16.5
 20
-46.59999999999999
 10
17.5
 20
-46.59999999999999
 10
17.5
 20
-46.7
 10
16.5
 20
-46.7
 10
16.5
 20
-46.7
  0
LWPOLYLINE
  5
DF
100
AcDbEntity
  8
D1
  6
ByLayer
 62
  256
370
   18
100
AcDbPolyline
 90
    5
 70
    1
 43
0
 10
16.5
 20
-46.89999999999999
 10
17.5
 20
-46.89999999999999
 10
17.5
 20
-46.99999999999999
 10
16.5
 20
-46.99999999999999
 10
16.5
 20
-46.99999999999999
  0
LWPOLYLINE
  5
E0
100
AcDbEntity
  8
D1
  6
ByLayer
 62
  256
370
   18
100
AcDbPolyline
 90
    5
 70
    1
 43
0
 10
16.5
 20
-47.2
 10
17.5
 20
-47.2
 10
17.5
 20
-47.3
 10
16.5
 20
-47.3
 10
16.5
 20
-47.3
  0
LWPOLYLINE
  5
E1
100
AcDbEntity
  8
D1
  6
ByLayer
 62
  256
370
   18
100
AcDbPolyline
 90
    5
 70
    1
 43
0
 10
16.5
 20
-47.49999999999999
 10
17.5
 20
-47.49999999999999
 10
17.5
 20
-47.59999999999999
 10
16.5
 20
-47.59999999999999
 10
16.5
 20
-47.59999999999999
  0
LWPOLYLINE
  5
E2
100
AcDbEntity
  8
D1
  6
ByLayer
 62
  256
370
   18
100
AcDbPolyline
 90
    5
 70
    1
 43
0
 10
16.5
 20
-47.8
 10
17.5
 20
-47.8
 10
17.5
 20
-47.9
 10
16.5
 20
-47.9
 10
16.5
 20
-47.9
  0
LINE
  5
E3
100
AcDbEntity
  8
D1
  6
ByLayer
 62
  256
370
   18
100
AcDbLine
 10
16.6
 20
-44.99999999999999
 11
16.6
 21
-47.99999999999999
  0
LINE
  5
E4
100
AcDbEntity
  8
D1
  6
ByLayer
 62
  256
370
   18
100
AcDbLine
 10
17.4
 20
-44.99999999999999
 11
17.4
 21
-47.99999999999999
  0
LWPOLYLINE
  5
E5
100
AcDbEntity
  8
D1
  6
ByLayer
 62
  256
370
   18
100
AcDbPolyline
 90
    5
 70
    1
 43
0
 10
14
 20
-46.6
 10
15
 20
-46.6
 10
15
 20
-46.7
 10
14
 20
-46.7
 10
14
 20
-46.7
  0
LWPOLYLINE
  5
E6
100
AcDbEntity
  8
D1
  6
ByLayer
 62
  256
370
   18
100
AcDbPolyline
 90
    5
 70
    1
 43
0
 10
14
 20
-46.9
 10
15
 20
-46.9
 10
15
 20
-47
 10
14
 20
-47
 10
14
 20
-47
  0
LWPOLYLINE
  5
E7
100
AcDbEntity
  8
D1
  6
ByLayer
 62
  256
370
   18
100
AcDbPolyline
 90
    5
 70
    1
 43
0
 10
14
 20
-47.2
 10
15
 20
-47.2
 10
15
 20
-47.3
 10
14
 20
-47.3
 10
14
 20
-47.3
  0
LWPOLYLINE
  5
E8
100
AcDbEntity
  8
D1
  6
ByLayer
 62
  256
370
   18
100
AcDbPolyline
 90
    5
 70
    1
 43
0
 10
14
 20
-47.5
 10
15
 20
-47.5
 10
15
 20
-47.6
 10
14
 20
-47.6
 10
14
 20
-47.6
  0
LWPOLYLINE
  5
E9
100
AcDbEntity
  8
D1
  6
ByLayer
 62
  256
370
   18
100
AcDbPolyline
 90
    5
 70
    1
 43
0
 10
14
 20
-47.8
 10
15
 20
-47.8
 10
15
 20
-47.90000000000001
 10
14
 20
-47.90000000000001
 10
14
 20
-47.90000000000001
  0
LINE
  5
EA
100
AcDbEntity
  8
D1
  6
ByLayer
 62
  256
370
   18
100
AcDbLine
 10
14.1
 20
-45
 11
14.1
 21
-48
  0
LINE
  5
EB
100
AcDbEntity
  8
D1
  6
ByLayer
 62
  256
370
   18
100
AcDbLine
 10
14.9
 20
-45
 11
14.9
 21
-48
  0
LWPOLYLINE
  5
EC
100
AcDbEntity
  8
D1
  6
ByLayer
 62
  256
370
   18
100
AcDbPolyline
 90
    5
 70
    1
 43
0
 10
18.5
 20
-45.09999999999999
 10
19.5
 20
-45.09999999999999
 10
19.5
 20
-45.2
 10
18.5
 20
-45.2
 10
18.5
 20
-45.2
  0
LWPOLYLINE
  5
ED
100
AcDbEntity
  8
D1
  6
ByLayer
 62
  256
370
   18
100
AcDbPolyline
 90
    5
 70
    1
 43
0
 10
18.5
 20
-45.39999999999999
 10
19.5
 20
-45.39999999999999
 10
19.5
 20
-45.49999999999999
 10
18.5
 20
-45.49999999999999
 10
18.5
 20
-45.49999999999999
  0
LWPOLYLINE
  5
EE
100
AcDbEntity
  8
D1
  6
ByLayer
 62
  256
370
   18
100
AcDbPolyline
 90
    5
 70
    1
 43
0
 10
18.5
 20
-45.7
 10
19.5
 20
-45.7
 10
19.5
 20
-45.8
 10
18.5
 20
-45.8
 10
18.5
 20
-45.8
  0
LWPOLYLINE
  5
EF
100
AcDbEntity
  8
D1
  6
ByLayer
 62
  256
370
   18
100
AcDbPolyline
 90
    5
 70
    1
 43
0
 10
18.5
 20
-46.29999999999999
 10
19.5
 20
-46.29999999999999
 10
19.5
 20
-46.39999999999999
 10
18.5
 20
-46.39999999999999
 10
18.5
 20
-46.39999999999999
  0
LWPOLYLINE
  5
F0
100
AcDbEntity
  8
D1
  6
ByLayer
 62
  256
370
   18
100
AcDbPolyline
 90
    6
 70
    1
 43
0
 10
18.5
 20
-45.99999999999999
 10
19.5
 20
-45.99999999999999
 10
19.5
 20
-46.09999999999999
 10
18.5
 20
-46.09999999999999
 10
18.5
 20
-46.09999999999999
 10
18.5
 20
-46.09999999999999
  0
LWPOLYLINE
  5
F1
100
AcDbEntity
  8
D1
  6
ByLayer
 62
  256
370
   18
100
AcDbPolyline
 90
    5
 70
    1
 43
0
 10
16.5
 20
-45.09999999999999
 10
17.5
 20
-45.09999999999999
 10
17.5
 20
-45.2
 10
16.5
 20
-45.2
 10
16.5
 20
-45.2
  0
LWPOLYLINE
  5
F2
100
AcDbEntity
  8
D1
  6
ByLayer
 62
  256
370
   18
100
AcDbPolyline
 90
    5
 70
    1
 43
0
 10
16.5
 20
-45.39999999999999
 10
17.5
 20
-45.39999999999999
 10
17.5
 20
-45.49999999999999
 10
16.5
 20
-45.49999999999999
 10
16.5
 20
-45.49999999999999
  0
LWPOLYLINE
  5
F3
100
AcDbEntity
  8
D1
  6
ByLayer
 62
  256
370
   18
100
AcDbPolyline
 90
    5
 70
    1
 43
0
 10
16.5
 20
-45.7
 10
17.5
 20
-45.7
 10
17.5
 20
-45.8
 10
16.5
 20
-45.8
 10
16.5
 20
-45.8
  0
LWPOLYLINE
  5
F4
100
AcDbEntity
  8
D1
  6
ByLayer
 62
  256
370
   18
100
AcDbPolyline
 90
    5
 70
    1
 43
0
 10
16.5
 20
-46.29999999999999
 10
17.5
 20
-46.29999999999999
 10
17.5
 20
-46.39999999999999
 10
16.5
 20
-46.39999999999999
 10
16.5
 20
-46.39999999999999
  0
LWPOLYLINE
  5
F5
100
AcDbEntity
  8
D1
  6
ByLayer
 62
  256
370
   18
100
AcDbPolyline
 90
    6
 70
    1
 43
0
 10
16.5
 20
-45.99999999999999
 10
17.5
 20
-45.99999999999999
 10
17.5
 20
-46.09999999999999
 10
16.5
 20
-46.09999999999999
 10
16.5
 20
-46.09999999999999
 10
16.5
 20
-46.09999999999999
  0
LWPOLYLINE
  5
F6
100
AcDbEntity
  8
D1
  6
ByLayer
 62
  256
370
   18
100
AcDbPolyline
 90
    5
 70
    1
 43
0
 10
14
 20
-45.1
 10
15
 20
-45.1
 10
15
 20
-45.2
 10
14
 20
-45.2
 10
14
 20
-45.2
  0
LWPOLYLINE
  5
F7
100
AcDbEntity
  8
D1
  6
ByLayer
 62
  256
370
   18
100
AcDbPolyline
 90
    5
 70
    1
 43
0
 10
14
 20
-45.4
 10
15
 20
-45.4
 10
15
 20
-45.5
 10
14
 20
-45.5
 10
14
 20
-45.5
  0
LWPOLYLINE
  5
F8
100
AcDbEntity
  8
D1
  6
ByLayer
 62
  256
370
   18
100
AcDbPolyline
 90
    5
 70
    1
 43
0
 10
14
 20
-45.7
 10
15
 20
-45.7
 10
15
 20
-45.8
 10
14
 20
-45.8
 10
14
 20
-45.8
  0
LWPOLYLINE
  5
F9
100
AcDbEntity
  8
D1
  6
ByLayer
 62
  256
370
   18
100
AcDbPolyline
 90
    5
 70
    1
 43
0
 10
14
 20
-46.3
 10
15
 20
-46.3
 10
15
 20
-46.4
 10
14
 20
-46.4
 10
14
 20
-46.4
  0
LWPOLYLINE
  5
FA
100
AcDbEntity
  8
D1
  6
ByLayer
 62
  256
370
   18
100
AcDbPolyline
 90
    6
 70
    1
 43
0
 10
14
 20
-46
 10
15
 20
-46
 10
15
 20
-46.1
 10
14
 20
-46.1
 10
14
 20
-46.1
 10
14
 20
-46.1
  0
LWPOLYLINE
  5
FB
100
AcDbEntity
  8
D1
  6
ByLayer
 62
  256
370
   18
100
AcDbPolyline
 90
    5
 70
    1
 43
0
 10
18.5
 20
-42.09999999999999
 10
19.5
 20
-42.09999999999999
 10
19.5
 20
-42.2
 10
18.5
 20
-42.2
 10
18.5
 20
-42.2
  0
LWPOLYLINE
  5
FC
100
AcDbEntity
  8
D1
  6
ByLayer
 62
  256
370
   18
100
AcDbPolyline
 90
    5
 70
    1
 43
0
 10
18.5
 20
-42.39999999999999
 10
19.5
 20
-42.39999999999999
 10
19.5
 20
-42.49999999999999
 10
18.5
 20
-42.49999999999999
 10
18.5
 20
-42.49999999999999
  0
LWPOLYLINE
  5
FD
100
AcDbEntity
  8
D1
  6
ByLayer
 62
  256
370
   18
100
AcDbPolyline
 90
    5
 70
    1
 43
0
 10
18.5
 20
-42.7
 10
19.5
 20
-42.7
 10
19.5
 20
-42.8
 10
18.5
 20
-42.8
 10
18.5
 20
-42.8
  0
LWPOLYLINE
  5
FE
100
AcDbEntity
  8
D1
  6
ByLayer
 62
  256
370
   18
100
AcDbPolyline
 90
    5
 70
    1
 43
0
 10
18.5
 20
-43.29999999999999
 10
19.5
 20
-43.29999999999999
 10
19.5
 20
-43.39999999999999
 10
18.5
 20
-43.39999999999999
 10
18.5
 20
-43.39999999999999
  0
LWPOLYLINE
  5
FF
100
AcDbEntity
  8
D1
  6
ByLayer
 62
  256
370
   18
100
AcDbPolyline
 90
    5
 70
    1
 43
0
 10
18.5
 20
-43.59999999999999
 10
19.5
 20
-43.59999999999999
 10
19.5
 20
-43.7
 10
18.5
 20
-43.7
 10
18.5
 20
-43.7
  0
LWPOLYLINE
  5
100
100
AcDbEntity
  8
D1
  6
ByLayer
 62
  256
370
   18
100
AcDbPolyline
 90
    5
 70
    1
 43
0
 10
18.5
 20
-43.89999999999999
 10
19.5
 20
-43.89999999999999
 10
19.5
 20
-43.99999999999999
 10
18.5
 20
-43.99999999999999
 10
18.5
 20
-43.99999999999999
  0
LWPOLYLINE
  5
101
100
AcDbEntity
  8
D1
  6
ByLayer
 62
  256
370
   18
100
AcDbPolyline
 90
    5
 70
    1
 43
0
 10
18.5
 20
-44.2
 10
19.5
 20
-44.2
 10
19.5
 20
-44.3
 10
18.5
 20
-44.3
 10
18.5
 20
-44.3
  0
LWPOLYLINE
  5
102
100
AcDbEntity
  8
D1
  6
ByLayer
 62
  256
370
   18
100
AcDbPolyline
 90
    5
 70
    1
 43
0
 10
18.5
 20
-44.49999999999999
 10
19.5
 20
-44.49999999999999
 10
19.5
 20
-44.59999999999999
 10
18.5
 20
-44.59999999999999
 10
18.5
 20
-44.59999999999999
  0
LWPOLYLINE
  5
103
100
AcDbEntity
  8
D1
  6
ByLayer
 62
  256
370
   18
100
AcDbPolyline
 90
    5
 70
    1
 43
0
 10
18.5
 20
-44.8
 10
19.5
 20
-44.8
 10
19.5
 20
-44.9
 10
18.5
 20
-44.9
 10
18.5
 20
-44.9
  0
LWPOLYLINE
  5
104
100
AcDbEntity
  8
D1
  6
ByLayer
 62
  256
370
   18
100
AcDbPolyline
 90
    6
 70
    1
 43
0
 10
18.5
 20
-42.99999999999999
 10
19.5
 20
-42.99999999999999
 10
19.5
 20
-43.09999999999999
 10
18.5
 20
-43.09999999999999
 10
18.5
 20
-43.09999999999999
 10
18.5
 20
-43.09999999999999
  0
LINE
  5
105
100
AcDbEntity
  8
D1
  6
ByLayer
 62
  256
370
   18
100
AcDbLine
 10
18.6
 20
-41.99999999999999
 11
18.6
 21
-44.99999999999999
  0
LINE
  5
106
100
AcDbEntity
  8
D1
  6
ByLayer
 62
  256
370
   18
100
AcDbLine
 10
19.4
 20
-41.99999999999999
 11
19.4
 21
-44.99999999999999
  0
LWPOLYLINE
  5
107
100
AcDbEntity
  8
D1
  6
ByLayer
 62
  256
370
   18
100
AcDbPolyline
 90
    5
 70
    1
 43
0
 10
18.5
 20
-39.09999999999999
 10
19.5
 20
-39.09999999999999
 10
19.5
 20
-39.2
 10
18.5
 20
-39.2
 10
18.5
 20
-39.2
  0
LWPOLYLINE
  5
108
100
AcDbEntity
  8
D1
  6
ByLayer
 62
  256
370
   18
100
AcDbPolyline
 90
    5
 70
    1
 43
0
 10
18.5
 20
-39.39999999999999
 10
19.5
 20
-39.39999999999999
 10
19.5
 20
-39.49999999999999
 10
18.5
 20
-39.49999999999999
 10
18.5
 20
-39.49999999999999
  0
LWPOLYLINE
  5
109
100
AcDbEntity
  8
D1
  6
ByLayer
 62
  256
370
   18
100
AcDbPolyline
 90
    5
 70
    1
 43
0
 10
18.5
 20
-39.7
 10
19.5
 20
-39.7
 10
19.5
 20
-39.8
 10
18.5
 20
-39.8
 10
18.5
 20
-39.8
  0
LWPOLYLINE
  5
10A
100
AcDbEntity
  8
D1
  6
ByLayer
 62
  256
370
   18
100
AcDbPolyline
 90
    5
 70
    1
 43
0
 10
18.5
 20
-40.29999999999999
 10
19.5
 20
-40.29999999999999
 10
19.5
 20
-40.39999999999999
 10
18.5
 20
-40.39999999999999
 10
18.5
 20
-40.39999999999999
  0
LWPOLYLINE
  5
10B
100
AcDbEntity
  8
D1
  6
ByLayer
 62
  256
370
   18
100
AcDbPolyline
 90
    5
 70
    1
 43
0
 10
18.5
 20
-40.59999999999999
 10
19.5
 20
-40.59999999999999
 10
19.5
 20
-40.7
 10
18.5
 20
-40.7
 10
18.5
 20
-40.7
  0
LWPOLYLINE
  5
10C
100
AcDbEntity
  8
D1
  6
ByLayer
 62
  256
370
   18
100
AcDbPolyline
 90
    5
 70
    1
 43
0
 10
18.5
 20
-40.89999999999999
 10
19.5
 20
-40.89999999999999
 10
19.5
 20
-40.99999999999999
 10
18.5
 20
-40.99999999999999
 10
18.5
 20
-40.99999999999999
  0
LWPOLYLINE
  5
10D
100
AcDbEntity
  8
D1
  6
ByLayer
 62
  256
370
   18
100
AcDbPolyline
 90
    5
 70
    1
 43
0
 10
18.5
 20
-41.2
 10
19.5
 20
-41.2
 10
19.5
 20
-41.3
 10
18.5
 20
-41.3
 10
18.5
 20
-41.3
  0
LWPOLYLINE
  5
10E
100
AcDbEntity
  8
D1
  6
ByLayer
 62
  256
370
   18
100
AcDbPolyline
 90
    5
 70
    1
 43
0
 10
18.5
 20
-41.49999999999999
 10
19.5
 20
-41.49999999999999
 10
19.5
 20
-41.59999999999999
 10
18.5
 20
-41.59999999999999
 10
18.5
 20
-41.59999999999999
  0
LWPOLYLINE
  5
10F
100
AcDbEntity
  8
D1
  6
ByLayer
 62
  256
370
   18
100
AcDbPolyline
 90
    5
 70
    1
 43
0
 10
18.5
 20
-41.8
 10
19.5
 20
-41.8
 10
19.5
 20
-41.9
 10
18.5
 20
-41.9
 10
18.5
 20
-41.9
  0
LWPOLYLINE
  5
110
100
AcDbEntity
  8
D1
  6
ByLayer
 62
  256
370
   18
100
AcDbPolyline
 90
    6
 70
    1
 43
0
 10
18.5
 20
-39.99999999999999
 10
19.5
 20
-39.99999999999999
 10
19.5
 20
-40.09999999999999
 10
18.5
 20
-40.09999999999999
 10
18.5
 20
-40.09999999999999
 10
18.5
 20
-40.09999999999999
  0
LINE
  5
111
100
AcDbEntity
  8
D1
  6
ByLayer
 62
  256
370
   18
100
AcDbLine
 10
18.6
 20
-38.99999999999999
 11
18.6
 21
-41.99999999999999
  0
LINE
  5
112
100
AcDbEntity
  8
D1
  6
ByLayer
 62
  256
370
   18
100
AcDbLine
 10
19.4
 20
-38.99999999999999
 11
19.4
 21
-41.99999999999999
  0
LWPOLYLINE
  5
113
100
AcDbEntity
  8
D1
  6
ByLayer
 62
  256
370
   18
100
AcDbPolyline
 90
    5
 70
    1
 43
0
 10
18.5
 20
-36.09999999999999
 10
19.5
 20
-36.09999999999999
 10
19.5
 20
-36.2
 10
18.5
 20
-36.2
 10
18.5
 20
-36.2
  0
LWPOLYLINE
  5
114
100
AcDbEntity
  8
D1
  6
ByLayer
 62
  256
370
   18
100
AcDbPolyline
 90
    5
 70
    1
 43
0
 10
18.5
 20
-36.39999999999999
 10
19.5
 20
-36.39999999999999
 10
19.5
 20
-36.49999999999999
 10
18.5
 20
-36.49999999999999
 10
18.5
 20
-36.49999999999999
  0
LWPOLYLINE
  5
115
100
AcDbEntity
  8
D1
  6
ByLayer
 62
  256
370
   18
100
AcDbPolyline
 90
    5
 70
    1
 43
0
 10
18.5
 20
-36.7
 10
19.5
 20
-36.7
 10
19.5
 20
-36.8
 10
18.5
 20
-36.8
 10
18.5
 20
-36.8
  0
LWPOLYLINE
  5
116
100
AcDbEntity
  8
D1
  6
ByLayer
 62
  256
370
   18
100
AcDbPolyline
 90
    5
 70
    1
 43
0
 10
18.5
 20
-37.29999999999999
 10
19.5
 20
-37.29999999999999
 10
19.5
 20
-37.39999999999999
 10
18.5
 20
-37.39999999999999
 10
18.5
 20
-37.39999999999999
  0
LWPOLYLINE
  5
117
100
AcDbEntity
  8
D1
  6
ByLayer
 62
  256
370
   18
100
AcDbPolyline
 90
    5
 70
    1
 43
0
 10
18.5
 20
-37.59999999999999
 10
19.5
 20
-37.59999999999999
 10
19.5
 20
-37.7
 10
18.5
 20
-37.7
 10
18.5
 20
-37.7
  0
LWPOLYLINE
  5
118
100
AcDbEntity
  8
D1
  6
ByLayer
 62
  256
370
   18
100
AcDbPolyline
 90
    5
 70
    1
 43
0
 10
18.5
 20
-37.89999999999999
 10
19.5
 20
-37.89999999999999
 10
19.5
 20
-37.99999999999999
 10
18.5
 20
-37.99999999999999
 10
18.5
 20
-37.99999999999999
  0
LWPOLYLINE
  5
119
100
AcDbEntity
  8
D1
  6
ByLayer
 62
  256
370
   18
100
AcDbPolyline
 90
    5
 70
    1
 43
0
 10
18.5
 20
-38.2
 10
19.5
 20
-38.2
 10
19.5
 20
-38.3
 10
18.5
 20
-38.3
 10
18.5
 20
-38.3
  0
LWPOLYLINE
  5
11A
100
AcDbEntity
  8
D1
  6
ByLayer
 62
  256
370
   18
100
AcDbPolyline
 90
    5
 70
    1
 43
0
 10
18.5
 20
-38.49999999999999
 10
19.5
 20
-38.49999999999999
 10
19.5
 20
-38.59999999999999
 10
18.5
 20
-38.59999999999999
 10
18.5
 20
-38.59999999999999
  0
LWPOLYLINE
  5
11B
100
AcDbEntity
  8
D1
  6
ByLayer
 62
  256
370
   18
100
AcDbPolyline
 90
    5
 70
    1
 43
0
 10
18.5
 20
-38.8
 10
19.5
 20
-38.8
 10
19.5
 20
-38.9
 10
18.5
 20
-38.9
 10
18.5
 20
-38.9
  0
LWPOLYLINE
  5
11C
100
AcDbEntity
  8
D1
  6
ByLayer
 62
  256
370
   18
100
AcDbPolyline
 90
    6
 70
    1
 43
0
 10
18.5
 20
-36.99999999999999
 10
19.5
 20
-36.99999999999999
 10
19.5
 20
-37.09999999999999
 10
18.5
 20
-37.09999999999999
 10
18.5
 20
-37.09999999999999
 10
18.5
 20
-37.09999999999999
  0
LINE
  5
11D
100
AcDbEntity
  8
D1
  6
ByLayer
 62
  256
370
   18
100
AcDbLine
 10
18.6
 20
-35.99999999999999
 11
18.6
 21
-38.99999999999999
  0
LINE
  5
11E
100
AcDbEntity
  8
D1
  6
ByLayer
 62
  256
370
   18
100
AcDbLine
 10
19.4
 20
-35.99999999999999
 11
19.4
 21
-38.99999999999999
  0
LWPOLYLINE
  5
11F
100
AcDbEntity
  8
D1
  6
ByLayer
 62
  256
370
   18
100
AcDbPolyline
 90
    5
 70
    1
 43
0
 10
18.5
 20
-33.09999999999999
 10
19.5
 20
-33.09999999999999
 10
19.5
 20
-33.2
 10
18.5
 20
-33.2
 10
18.5
 20
-33.2
  0
LWPOLYLINE
  5
120
100
AcDbEntity
  8
D1
  6
ByLayer
 62
  256
370
   18
100
AcDbPolyline
 90
    5
 70
    1
 43
0
 10
18.5
 20
-33.39999999999999
 10
19.5
 20
-33.39999999999999
 10
19.5
 20
-33.49999999999999
 10
18.5
 20
-33.49999999999999
 10
18.5
 20
-33.49999999999999
  0
LWPOLYLINE
  5
121
100
AcDbEntity
  8
D1
  6
ByLayer
 62
  256
370
   18
100
AcDbPolyline
 90
    5
 70
    1
 43
0
 10
18.5
 20
-33.7
 10
19.5
 20
-33.7
 10
19.5
 20
-33.8
 10
18.5
 20
-33.8
 10
18.5
 20
-33.8
  0
LWPOLYLINE
  5
122
100
AcDbEntity
  8
D1
  6
ByLayer
 62
  256
370
   18
100
AcDbPolyline
 90
    5
 70
    1
 43
0
 10
18.5
 20
-34.29999999999999
 10
19.5
 20
-34.29999999999999
 10
19.5
 20
-34.39999999999999
 10
18.5
 20
-34.39999999999999
 10
18.5
 20
-34.39999999999999
  0
LWPOLYLINE
  5
123
100
AcDbEntity
  8
D1
  6
ByLayer
 62
  256
370
   18
100
AcDbPolyline
 90
    5
 70
    1
 43
0
 10
18.5
 20
-34.59999999999999
 10
19.5
 20
-34.59999999999999
 10
19.5
 20
-34.7
 10
18.5
 20
-34.7
 10
18.5
 20
-34.7
  0
LWPOLYLINE
  5
124
100
AcDbEntity
  8
D1
  6
ByLayer
 62
  256
370
   18
100
AcDbPolyline
 90
    5
 70
    1
 43
0
 10
18.5
 20
-34.89999999999999
 10
19.5
 20
-34.89999999999999
 10
19.5
 20
-34.99999999999999
 10
18.5
 20
-34.99999999999999
 10
18.5
 20
-34.99999999999999
  0
LWPOLYLINE
  5
125
100
AcDbEntity
  8
D1
  6
ByLayer
 62
  256
370
   18
100
AcDbPolyline
 90
    5
 70
    1
 43
0
 10
18.5
 20
-35.2
 10
19.5
 20
-35.2
 10
19.5
 20
-35.3
 10
18.5
 20
-35.3
 10
18.5
 20
-35.3
  0
LWPOLYLINE
  5
126
100
AcDbEntity
  8
D1
  6
ByLayer
 62
  256
370
   18
100
AcDbPolyline
 90
    5
 70
    1
 43
0
 10
18.5
 20
-35.49999999999999
 10
19.5
 20
-35.49999999999999
 10
19.5
 20
-35.59999999999999
 10
18.5
 20
-35.59999999999999
 10
18.5
 20
-35.59999999999999
  0
LWPOLYLINE
  5
127
100
AcDbEntity
  8
D1
  6
ByLayer
 62
  256
370
   18
100
AcDbPolyline
 90
    5
 70
    1
 43
0
 10
18.5
 20
-35.8
 10
19.5
 20
-35.8
 10
19.5
 20
-35.9
 10
18.5
 20
-35.9
 10
18.5
 20
-35.9
  0
LWPOLYLINE
  5
128
100
AcDbEntity
  8
D1
  6
ByLayer
 62
  256
370
   18
100
AcDbPolyline
 90
    6
 70
    1
 43
0
 10
18.5
 20
-33.99999999999999
 10
19.5
 20
-33.99999999999999
 10
19.5
 20
-34.09999999999999
 10
18.5
 20
-34.09999999999999
 10
18.5
 20
-34.09999999999999
 10
18.5
 20
-34.09999999999999
  0
LINE
  5
129
100
AcDbEntity
  8
D1
  6
ByLayer
 62
  256
370
   18
100
AcDbLine
 10
18.6
 20
-32.99999999999999
 11
18.6
 21
-35.99999999999999
  0
LINE
  5
12A
100
AcDbEntity
  8
D1
  6
ByLayer
 62
  256
370
   18
100
AcDbLine
 10
19.4
 20
-32.99999999999999
 11
19.4
 21
-35.99999999999999
  0
LWPOLYLINE
  5
12B
100
AcDbEntity
  8
D1
  6
ByLayer
 62
  256
370
   18
100
AcDbPolyline
 90
    5
 70
    1
 43
0
 10
18.5
 20
-30.09999999999999
 10
19.5
 20
-30.09999999999999
 10
19.5
 20
-30.2
 10
18.5
 20
-30.2
 10
18.5
 20
-30.2
  0
LWPOLYLINE
  5
12C
100
AcDbEntity
  8
D1
  6
ByLayer
 62
  256
370
   18
100
AcDbPolyline
 90
    5
 70
    1
 43
0
 10
18.5
 20
-30.39999999999999
 10
19.5
 20
-30.39999999999999
 10
19.5
 20
-30.49999999999999
 10
18.5
 20
-30.49999999999999
 10
18.5
 20
-30.49999999999999
  0
LWPOLYLINE
  5
12D
100
AcDbEntity
  8
D1
  6
ByLayer
 62
  256
370
   18
100
AcDbPolyline
 90
    5
 70
    1
 43
0
 10
18.5
 20
-30.7
 10
19.5
 20
-30.7
 10
19.5
 20
-30.8
 10
18.5
 20
-30.8
 10
18.5
 20
-30.8
  0
LWPOLYLINE
  5
12E
100
AcDbEntity
  8
D1
  6
ByLayer
 62
  256
370
   18
100
AcDbPolyline
 90
    5
 70
    1
 43
0
 10
18.5
 20
-31.29999999999999
 10
19.5
 20
-31.29999999999999
 10
19.5
 20
-31.39999999999999
 10
18.5
 20
-31.39999999999999
 10
18.5
 20
-31.39999999999999
  0
LWPOLYLINE
  5
12F
100
AcDbEntity
  8
D1
  6
ByLayer
 62
  256
370
   18
100
AcDbPolyline
 90
    5
 70
    1
 43
0
 10
18.5
 20
-31.59999999999999
 10
19.5
 20
-31.59999999999999
 10
19.5
 20
-31.7
 10
18.5
 20
-31.7
 10
18.5
 20
-31.7
  0
LWPOLYLINE
  5
130
100
AcDbEntity
  8
D1
  6
ByLayer
 62
  256
370
   18
100
AcDbPolyline
 90
    5
 70
    1
 43
0
 10
18.5
 20
-31.89999999999999
 10
19.5
 20
-31.89999999999999
 10
19.5
 20
-31.99999999999999
 10
18.5
 20
-31.99999999999999
 10
18.5
 20
-31.99999999999999
  0
LWPOLYLINE
  5
131
100
AcDbEntity
  8
D1
  6
ByLayer
 62
  256
370
   18
100
AcDbPolyline
 90
    5
 70
    1
 43
0
 10
18.5
 20
-32.2
 10
19.5
 20
-32.2
 10
19.5
 20
-32.3
 10
18.5
 20
-32.3
 10
18.5
 20
-32.3
  0
LWPOLYLINE
  5
132
100
AcDbEntity
  8
D1
  6
ByLayer
 62
  256
370
   18
100
AcDbPolyline
 90
    5
 70
    1
 43
0
 10
18.5
 20
-32.49999999999999
 10
19.5
 20
-32.49999999999999
 10
19.5
 20
-32.59999999999999
 10
18.5
 20
-32.59999999999999
 10
18.5
 20
-32.59999999999999
  0
LWPOLYLINE
  5
133
100
AcDbEntity
  8
D1
  6
ByLayer
 62
  256
370
   18
100
AcDbPolyline
 90
    5
 70
    1
 43
0
 10
18.5
 20
-32.8
 10
19.5
 20
-32.8
 10
19.5
 20
-32.9
 10
18.5
 20
-32.9
 10
18.5
 20
-32.9
  0
LWPOLYLINE
  5
134
100
AcDbEntity
  8
D1
  6
ByLayer
 62
  256
370
   18
100
AcDbPolyline
 90
    6
 70
    1
 43
0
 10
18.5
 20
-30.99999999999999
 10
19.5
 20
-30.99999999999999
 10
19.5
 20
-31.09999999999999
 10
18.5
 20
-31.09999999999999
 10
18.5
 20
-31.09999999999999
 10
18.5
 20
-31.09999999999999
  0
LINE
  5
135
100
AcDbEntity
  8
D1
  6
ByLayer
 62
  256
370
   18
100
AcDbLine
 10
18.6
 20
-29.99999999999999
 11
18.6
 21
-32.99999999999999
  0
LINE
  5
136
100
AcDbEntity
  8
D1
  6
ByLayer
 62
  256
370
   18
100
AcDbLine
 10
19.4
 20
-29.99999999999999
 11
19.4
 21
-32.99999999999999
  0
LWPOLYLINE
  5
137
100
AcDbEntity
  8
D1
  6
ByLayer
 62
  256
370
   18
100
AcDbPolyline
 90
    5
 70
    1
 43
0
 10
18.5
 20
-27.09999999999999
 10
19.5
 20
-27.09999999999999
 10
19.5
 20
-27.2
 10
18.5
 20
-27.2
 10
18.5
 20
-27.2
  0
LWPOLYLINE
  5
138
100
AcDbEntity
  8
D1
  6
ByLayer
 62
  256
370
   18
100
AcDbPolyline
 90
    5
 70
    1
 43
0
 10
18.5
 20
-27.39999999999999
 10
19.5
 20
-27.39999999999999
 10
19.5
 20
-27.49999999999999
 10
18.5
 20
-27.49999999999999
 10
18.5
 20
-27.49999999999999
  0
LWPOLYLINE
  5
139
100
AcDbEntity
  8
D1
  6
ByLayer
 62
  256
370
   18
100
AcDbPolyline
 90
    5
 70
    1
 43
0
 10
18.5
 20
-27.7
 10
19.5
 20
-27.7
 10
19.5
 20
-27.8
 10
18.5
 20
-27.8
 10
18.5
 20
-27.8
  0
LWPOLYLINE
  5
13A
100
AcDbEntity
  8
D1
  6
ByLayer
 62
  256
370
   18
100
AcDbPolyline
 90
    5
 70
    1
 43
0
 10
18.5
 20
-28.29999999999999
 10
19.5
 20
-28.29999999999999
 10
19.5
 20
-28.39999999999999
 10
18.5
 20
-28.39999999999999
 10
18.5
 20
-28.39999999999999
  0
LWPOLYLINE
  5
13B
100
AcDbEntity
  8
D1
  6
ByLayer
 62
  256
370
   18
100
AcDbPolyline
 90
    5
 70
    1
 43
0
 10
18.5
 20
-28.59999999999999
 10
19.5
 20
-28.59999999999999
 10
19.5
 20
-28.7
 10
18.5
 20
-28.7
 10
18.5
 20
-28.7
  0
LWPOLYLINE
  5
13C
100
AcDbEntity
  8
D1
  6
ByLayer
 62
  256
370
   18
100
AcDbPolyline
 90
    5
 70
    1
 43
0
 10
18.5
 20
-28.89999999999999
 10
19.5
 20
-28.89999999999999
 10
19.5
 20
-28.99999999999999
 10
18.5
 20
-28.99999999999999
 10
18.5
 20
-28.99999999999999
  0
LWPOLYLINE
  5
13D
100
AcDbEntity
  8
D1
  6
ByLayer
 62
  256
370
   18
100
AcDbPolyline
 90
    5
 70
    1
 43
0
 10
18.5
 20
-29.2
 10
19.5
 20
-29.2
 10
19.5
 20
-29.3
 10
18.5
 20
-29.3
 10
18.5
 20
-29.3
  0
LWPOLYLINE
  5
13E
100
AcDbEntity
  8
D1
  6
ByLayer
 62
  256
370
   18
100
AcDbPolyline
 90
    5
 70
    1
 43
0
 10
18.5
 20
-29.49999999999999
 10
19.5
 20
-29.49999999999999
 10
19.5
 20
-29.59999999999999
 10
18.5
 20
-29.59999999999999
 10
18.5
 20
-29.59999999999999
  0
LWPOLYLINE
  5
13F
100
AcDbEntity
  8
D1
  6
ByLayer
 62
  256
370
   18
100
AcDbPolyline
 90
    5
 70
    1
 43
0
 10
18.5
 20
-29.8
 10
19.5
 20
-29.8
 10
19.5
 20
-29.9
 10
18.5
 20
-29.9
 10
18.5
 20
-29.9
  0
LWPOLYLINE
  5
140
100
AcDbEntity
  8
D1
  6
ByLayer
 62
  256
370
   18
100
AcDbPolyline
 90
    6
 70
    1
 43
0
 10
18.5
 20
-27.99999999999999
 10
19.5
 20
-27.99999999999999
 10
19.5
 20
-28.09999999999999
 10
18.5
 20
-28.09999999999999
 10
18.5
 20
-28.09999999999999
 10
18.5
 20
-28.09999999999999
  0
LINE
  5
141
100
AcDbEntity
  8
D1
  6
ByLayer
 62
  256
370
   18
100
AcDbLine
 10
18.6
 20
-26.99999999999999
 11
18.6
 21
-29.99999999999999
  0
LINE
  5
142
100
AcDbEntity
  8
D1
  6
ByLayer
 62
  256
370
   18
100
AcDbLine
 10
19.4
 20
-26.99999999999999
 11
19.4
 21
-29.99999999999999
  0
LWPOLYLINE
  5
143
100
AcDbEntity
  8
D1
  6
ByLayer
 62
  256
370
   18
100
AcDbPolyline
 90
    5
 70
    1
 43
0
 10
18.5
 20
-24.09999999999999
 10
19.5
 20
-24.09999999999999
 10
19.5
 20
-24.2
 10
18.5
 20
-24.2
 10
18.5
 20
-24.2
  0
LWPOLYLINE
  5
144
100
AcDbEntity
  8
D1
  6
ByLayer
 62
  256
370
   18
100
AcDbPolyline
 90
    5
 70
    1
 43
0
 10
18.5
 20
-24.39999999999999
 10
19.5
 20
-24.39999999999999
 10
19.5
 20
-24.49999999999999
 10
18.5
 20
-24.49999999999999
 10
18.5
 20
-24.49999999999999
  0
LWPOLYLINE
  5
145
100
AcDbEntity
  8
D1
  6
ByLayer
 62
  256
370
   18
100
AcDbPolyline
 90
    5
 70
    1
 43
0
 10
18.5
 20
-24.7
 10
19.5
 20
-24.7
 10
19.5
 20
-24.8
 10
18.5
 20
-24.8
 10
18.5
 20
-24.8
  0
LWPOLYLINE
  5
146
100
AcDbEntity
  8
D1
  6
ByLayer
 62
  256
370
   18
100
AcDbPolyline
 90
    5
 70
    1
 43
0
 10
18.5
 20
-25.29999999999999
 10
19.5
 20
-25.29999999999999
 10
19.5
 20
-25.39999999999999
 10
18.5
 20
-25.39999999999999
 10
18.5
 20
-25.39999999999999
  0
LWPOLYLINE
  5
147
100
AcDbEntity
  8
D1
  6
ByLayer
 62
  256
370
   18
100
AcDbPolyline
 90
    5
 70
    1
 43
0
 10
18.5
 20
-25.59999999999999
 10
19.5
 20
-25.59999999999999
 10
19.5
 20
-25.7
 10
18.5
 20
-25.7
 10
18.5
 20
-25.7
  0
LWPOLYLINE
  5
148
100
AcDbEntity
  8
D1
  6
ByLayer
 62
  256
370
   18
100
AcDbPolyline
 90
    5
 70
    1
 43
0
 10
18.5
 20
-25.89999999999999
 10
19.5
 20
-25.89999999999999
 10
19.5
 20
-25.99999999999999
 10
18.5
 20
-25.99999999999999
 10
18.5
 20
-25.99999999999999
  0
LWPOLYLINE
  5
149
100
AcDbEntity
  8
D1
  6
ByLayer
 62
  256
370
   18
100
AcDbPolyline
 90
    5
 70
    1
 43
0
 10
18.5
 20
-26.2
 10
19.5
 20
-26.2
 10
19.5
 20
-26.3
 10
18.5
 20
-26.3
 10
18.5
 20
-26.3
  0
LWPOLYLINE
  5
14A
100
AcDbEntity
  8
D1
  6
ByLayer
 62
  256
370
   18
100
AcDbPolyline
 90
    5
 70
    1
 43
0
 10
18.5
 20
-26.49999999999999
 10
19.5
 20
-26.49999999999999
 10
19.5
 20
-26.59999999999999
 10
18.5
 20
-26.59999999999999
 10
18.5
 20
-26.59999999999999
  0
LWPOLYLINE
  5
14B
100
AcDbEntity
  8
D1
  6
ByLayer
 62
  256
370
   18
100
AcDbPolyline
 90
    5
 70
    1
 43
0
 10
18.5
 20
-26.8
 10
19.5
 20
-26.8
 10
19.5
 20
-26.9
 10
18.5
 20
-26.9
 10
18.5
 20
-26.9
  0
LWPOLYLINE
  5
14C
100
AcDbEntity
  8
D1
  6
ByLayer
 62
  256
370
   18
100
AcDbPolyline
 90
    6
 70
    1
 43
0
 10
18.5
 20
-24.99999999999999
 10
19.5
 20
-24.99999999999999
 10
19.5
 20
-25.09999999999999
 10
18.5
 20
-25.09999999999999
 10
18.5
 20
-25.09999999999999
 10
18.5
 20
-25.09999999999999
  0
LINE
  5
14D
100
AcDbEntity
  8
D1
  6
ByLayer
 62
  256
370
   18
100
AcDbLine
 10
18.6
 20
-23.99999999999999
 11
18.6
 21
-26.99999999999999
  0
LINE
  5
14E
100
AcDbEntity
  8
D1
  6
ByLayer
 62
  256
370
   18
100
AcDbLine
 10
19.4
 20
-23.99999999999999
 11
19.4
 21
-26.99999999999999
  0
LWPOLYLINE
  5
14F
100
AcDbEntity
  8
D1
  6
ByLayer
 62
  256
370
   18
100
AcDbPolyline
 90
    5
 70
    1
 43
0
 10
18.5
 20
-21.09999999999999
 10
19.5
 20
-21.09999999999999
 10
19.5
 20
-21.2
 10
18.5
 20
-21.2
 10
18.5
 20
-21.2
  0
LWPOLYLINE
  5
150
100
AcDbEntity
  8
D1
  6
ByLayer
 62
  256
370
   18
100
AcDbPolyline
 90
    5
 70
    1
 43
0
 10
18.5
 20
-21.39999999999999
 10
19.5
 20
-21.39999999999999
 10
19.5
 20
-21.49999999999999
 10
18.5
 20
-21.49999999999999
 10
18.5
 20
-21.49999999999999
  0
LWPOLYLINE
  5
151
100
AcDbEntity
  8
D1
  6
ByLayer
 62
  256
370
   18
100
AcDbPolyline
 90
    5
 70
    1
 43
0
 10
18.5
 20
-21.7
 10
19.5
 20
-21.7
 10
19.5
 20
-21.8
 10
18.5
 20
-21.8
 10
18.5
 20
-21.8
  0
LWPOLYLINE
  5
152
100
AcDbEntity
  8
D1
  6
ByLayer
 62
  256
370
   18
100
AcDbPolyline
 90
    5
 70
    1
 43
0
 10
18.5
 20
-22.29999999999999
 10
19.5
 20
-22.29999999999999
 10
19.5
 20
-22.39999999999999
 10
18.5
 20
-22.39999999999999
 10
18.5
 20
-22.39999999999999
  0
LWPOLYLINE
  5
153
100
AcDbEntity
  8
D1
  6
ByLayer
 62
  256
370
   18
100
AcDbPolyline
 90
    5
 70
    1
 43
0
 10
18.5
 20
-22.59999999999999
 10
19.5
 20
-22.59999999999999
 10
19.5
 20
-22.7
 10
18.5
 20
-22.7
 10
18.5
 20
-22.7
  0
LWPOLYLINE
  5
154
100
AcDbEntity
  8
D1
  6
ByLayer
 62
  256
370
   18
100
AcDbPolyline
 90
    5
 70
    1
 43
0
 10
18.5
 20
-22.89999999999999
 10
19.5
 20
-22.89999999999999
 10
19.5
 20
-22.99999999999999
 10
18.5
 20
-22.99999999999999
 10
18.5
 20
-22.99999999999999
  0
LWPOLYLINE
  5
155
100
AcDbEntity
  8
D1
  6
ByLayer
 62
  256
370
   18
100
AcDbPolyline
 90
    5
 70
    1
 43
0
 10
18.5
 20
-23.2
 10
19.5
 20
-23.2
 10
19.5
 20
-23.3
 10
18.5
 20
-23.3
 10
18.5
 20
-23.3
  0
LWPOLYLINE
  5
156
100
AcDbEntity
  8
D1
  6
ByLayer
 62
  256
370
   18
100
AcDbPolyline
 90
    5
 70
    1
 43
0
 10
18.5
 20
-23.49999999999999
 10
19.5
 20
-23.49999999999999
 10
19.5
 20
-23.59999999999999
 10
18.5
 20
-23.59999999999999
 10
18.5
 20
-23.59999999999999
  0
LWPOLYLINE
  5
157
100
AcDbEntity
  8
D1
  6
ByLayer
 62
  256
370
   18
100
AcDbPolyline
 90
    5
 70
    1
 43
0
 10
18.5
 20
-23.8
 10
19.5
 20
-23.8
 10
19.5
 20
-23.9
 10
18.5
 20
-23.9
 10
18.5
 20
-23.9
  0
LWPOLYLINE
  5
158
100
AcDbEntity
  8
D1
  6
ByLayer
 62
  256
370
   18
100
AcDbPolyline
 90
    6
 70
    1
 43
0
 10
18.5
 20
-21.99999999999999
 10
19.5
 20
-21.99999999999999
 10
19.5
 20
-22.09999999999999
 10
18.5
 20
-22.09999999999999
 10
18.5
 20
-22.09999999999999
 10
18.5
 20
-22.09999999999999
  0
LINE
  5
159
100
AcDbEntity
  8
D1
  6
ByLayer
 62
  256
370
   18
100
AcDbLine
 10
18.6
 20
-20.99999999999999
 11
18.6
 21
-23.99999999999999
  0
LINE
  5
15A
100
AcDbEntity
  8
D1
  6
ByLayer
 62
  256
370
   18
100
AcDbLine
 10
19.4
 20
-20.99999999999999
 11
19.4
 21
-23.99999999999999
  0
LWPOLYLINE
  5
15B
100
AcDbEntity
  8
D1
  6
ByLayer
 62
  256
370
   18
100
AcDbPolyline
 90
    5
 70
    1
 43
0
 10
18.5
 20
-18.09999999999999
 10
19.5
 20
-18.09999999999999
 10
19.5
 20
-18.2
 10
18.5
 20
-18.2
 10
18.5
 20
-18.2
  0
LWPOLYLINE
  5
15C
100
AcDbEntity
  8
D1
  6
ByLayer
 62
  256
370
   18
100
AcDbPolyline
 90
    5
 70
    1
 43
0
 10
18.5
 20
-18.39999999999999
 10
19.5
 20
-18.39999999999999
 10
19.5
 20
-18.49999999999999
 10
18.5
 20
-18.49999999999999
 10
18.5
 20
-18.49999999999999
  0
LWPOLYLINE
  5
15D
100
AcDbEntity
  8
D1
  6
ByLayer
 62
  256
370
   18
100
AcDbPolyline
 90
    5
 70
    1
 43
0
 10
18.5
 20
-18.7
 10
19.5
 20
-18.7
 10
19.5
 20
-18.8
 10
18.5
 20
-18.8
 10
18.5
 20
-18.8
  0
LWPOLYLINE
  5
15E
100
AcDbEntity
  8
D1
  6
ByLayer
 62
  256
370
   18
100
AcDbPolyline
 90
    5
 70
    1
 43
0
 10
18.5
 20
-19.29999999999999
 10
19.5
 20
-19.29999999999999
 10
19.5
 20
-19.39999999999999
 10
18.5
 20
-19.39999999999999
 10
18.5
 20
-19.39999999999999
  0
LWPOLYLINE
  5
15F
100
AcDbEntity
  8
D1
  6
ByLayer
 62
  256
370
   18
100
AcDbPolyline
 90
    5
 70
    1
 43
0
 10
18.5
 20
-19.59999999999999
 10
19.5
 20
-19.59999999999999
 10
19.5
 20
-19.7
 10
18.5
 20
-19.7
 10
18.5
 20
-19.7
  0
LWPOLYLINE
  5
160
100
AcDbEntity
  8
D1
  6
ByLayer
 62
  256
370
   18
100
AcDbPolyline
 90
    5
 70
    1
 43
0
 10
18.5
 20
-19.89999999999999
 10
19.5
 20
-19.89999999999999
 10
19.5
 20
-19.99999999999999
 10
18.5
 20
-19.99999999999999
 10
18.5
 20
-19.99999999999999
  0
LWPOLYLINE
  5
161
100
AcDbEntity
  8
D1
  6
ByLayer
 62
  256
370
   18
100
AcDbPolyline
 90
    5
 70
    1
 43
0
 10
18.5
 20
-20.2
 10
19.5
 20
-20.2
 10
19.5
 20
-20.3
 10
18.5
 20
-20.3
 10
18.5
 20
-20.3
  0
LWPOLYLINE
  5
162
100
AcDbEntity
  8
D1
  6
ByLayer
 62
  256
370
   18
100
AcDbPolyline
 90
    5
 70
    1
 43
0
 10
18.5
 20
-20.49999999999999
 10
19.5
 20
-20.49999999999999
 10
19.5
 20
-20.59999999999999
 10
18.5
 20
-20.59999999999999
 10
18.5
 20
-20.59999999999999
  0
LWPOLYLINE
  5
163
100
AcDbEntity
  8
D1
  6
ByLayer
 62
  256
370
   18
100
AcDbPolyline
 90
    5
 70
    1
 43
0
 10
18.5
 20
-20.8
 10
19.5
 20
-20.8
 10
19.5
 20
-20.9
 10
18.5
 20
-20.9
 10
18.5
 20
-20.9
  0
LWPOLYLINE
  5
164
100
AcDbEntity
  8
D1
  6
ByLayer
 62
  256
370
   18
100
AcDbPolyline
 90
    6
 70
    1
 43
0
 10
18.5
 20
-18.99999999999999
 10
19.5
 20
-18.99999999999999
 10
19.5
 20
-19.09999999999999
 10
18.5
 20
-19.09999999999999
 10
18.5
 20
-19.09999999999999
 10
18.5
 20
-19.09999999999999
  0
LINE
  5
165
100
AcDbEntity
  8
D1
  6
ByLayer
 62
  256
370
   18
100
AcDbLine
 10
18.6
 20
-17.99999999999999
 11
18.6
 21
-20.99999999999999
  0
LINE
  5
166
100
AcDbEntity
  8
D1
  6
ByLayer
 62
  256
370
   18
100
AcDbLine
 10
19.4
 20
-17.99999999999999
 11
19.4
 21
-20.99999999999999
  0
LWPOLYLINE
  5
167
100
AcDbEntity
  8
D1
  6
ByLayer
 62
  256
370
   18
100
AcDbPolyline
 90
    5
 70
    1
 43
0
 10
18.5
 20
-17.2
 10
19.5
 20
-17.2
 10
19.5
 20
-17.3
 10
18.5
 20
-17.3
 10
18.5
 20
-17.3
  0
LWPOLYLINE
  5
168
100
AcDbEntity
  8
D1
  6
ByLayer
 62
  256
370
   18
100
AcDbPolyline
 90
    5
 70
    1
 43
0
 10
18.5
 20
-17.49999999999999
 10
19.5
 20
-17.49999999999999
 10
19.5
 20
-17.59999999999999
 10
18.5
 20
-17.59999999999999
 10
18.5
 20
-17.59999999999999
  0
LWPOLYLINE
  5
169
100
AcDbEntity
  8
D1
  6
ByLayer
 62
  256
370
   18
100
AcDbPolyline
 90
    5
 70
    1
 43
0
 10
18.5
 20
-17.8
 10
19.5
 20
-17.8
 10
19.5
 20
-17.9
 10
18.5
 20
-17.9
 10
18.5
 20
-17.9
  0
LINE
  5
16A
100
AcDbEntity
  8
D1
  6
ByLayer
 62
  256
370
   18
100
AcDbLine
 10
18.6
 20
-14.99999999999999
 11
18.6
 21
-17.99999999999999
  0
LINE
  5
16B
100
AcDbEntity
  8
D1
  6
ByLayer
 62
  256
370
   18
100
AcDbLine
 10
19.4
 20
-14.99999999999999
 11
19.4
 21
-17.99999999999999
  0
LINE
  5
16C
100
AcDbEntity
  8
D1
  6
ByLayer
 62
  256
370
   18
100
AcDbLine
 10
18.6
 20
-11.99999999999999
 11
18.6
 21
-14.99999999999999
  0
LINE
  5
16D
100
AcDbEntity
  8
D1
  6
ByLayer
 62
  256
370
   18
100
AcDbLine
 10
19.4
 20
-11.99999999999999
 11
19.4
 21
-14.99999999999999
  0
LINE
  5
16E
100
AcDbEntity
  8
D1
  6
ByLayer
 62
  256
370
   18
100
AcDbLine
 10
18.6
 20
-8.999999999999993
 11
18.6
 21
-11.99999999999999
  0
LINE
  5
16F
100
AcDbEntity
  8
D1
  6
ByLayer
 62
  256
370
   18
100
AcDbLine
 10
19.4
 20
-8.999999999999993
 11
19.4
 21
-11.99999999999999
  0
LWPOLYLINE
  5
170
100
AcDbEntity
  8
D1
  6
ByLayer
 62
  256
370
   18
100
AcDbPolyline
 90
    5
 70
    1
 43
0
 10
16.5
 20
-42.09999999999999
 10
17.5
 20
-42.09999999999999
 10
17.5
 20
-42.2
 10
16.5
 20
-42.2
 10
16.5
 20
-42.2
  0
LWPOLYLINE
  5
171
100
AcDbEntity
  8
D1
  6
ByLayer
 62
  256
370
   18
100
AcDbPolyline
 90
    5
 70
    1
 43
0
 10
16.5
 20
-42.39999999999999
 10
17.5
 20
-42.39999999999999
 10
17.5
 20
-42.49999999999999
 10
16.5
 20
-42.49999999999999
 10
16.5
 20
-42.49999999999999
  0
LWPOLYLINE
  5
172
100
AcDbEntity
  8
D1
  6
ByLayer
 62
  256
370
   18
100
AcDbPolyline
 90
    5
 70
    1
 43
0
 10
16.5
 20
-42.7
 10
17.5
 20
-42.7
 10
17.5
 20
-42.8
 10
16.5
 20
-42.8
 10
16.5
 20
-42.8
  0
LWPOLYLINE
  5
173
100
AcDbEntity
  8
D1
  6
ByLayer
 62
  256
370
   18
100
AcDbPolyline
 90
    5
 70
    1
 43
0
 10
16.5
 20
-43.29999999999999
 10
17.5
 20
-43.29999999999999
 10
17.5
 20
-43.39999999999999
 10
16.5
 20
-43.39999999999999
 10
16.5
 20
-43.39999999999999
  0
LWPOLYLINE
  5
174
100
AcDbEntity
  8
D1
  6
ByLayer
 62
  256
370
   18
100
AcDbPolyline
 90
    5
 70
    1
 43
0
 10
16.5
 20
-43.59999999999999
 10
17.5
 20
-43.59999999999999
 10
17.5
 20
-43.7
 10
16.5
 20
-43.7
 10
16.5
 20
-43.7
  0
LWPOLYLINE
  5
175
100
AcDbEntity
  8
D1
  6
ByLayer
 62
  256
370
   18
100
AcDbPolyline
 90
    5
 70
    1
 43
0
 10
16.5
 20
-43.89999999999999
 10
17.5
 20
-43.89999999999999
 10
17.5
 20
-43.99999999999999
 10
16.5
 20
-43.99999999999999
 10
16.5
 20
-43.99999999999999
  0
LWPOLYLINE
  5
176
100
AcDbEntity
  8
D1
  6
ByLayer
 62
  256
370
   18
100
AcDbPolyline
 90
    5
 70
    1
 43
0
 10
16.5
 20
-44.2
 10
17.5
 20
-44.2
 10
17.5
 20
-44.3
 10
16.5
 20
-44.3
 10
16.5
 20
-44.3
  0
LWPOLYLINE
  5
177
100
AcDbEntity
  8
D1
  6
ByLayer
 62
  256
370
   18
100
AcDbPolyline
 90
    5
 70
    1
 43
0
 10
16.5
 20
-44.49999999999999
 10
17.5
 20
-44.49999999999999
 10
17.5
 20
-44.59999999999999
 10
16.5
 20
-44.59999999999999
 10
16.5
 20
-44.59999999999999
  0
LWPOLYLINE
  5
178
100
AcDbEntity
  8
D1
  6
ByLayer
 62
  256
370
   18
100
AcDbPolyline
 90
    5
 70
    1
 43
0
 10
16.5
 20
-44.8
 10
17.5
 20
-44.8
 10
17.5
 20
-44.9
 10
16.5
 20
-44.9
 10
16.5
 20
-44.9
  0
LWPOLYLINE
  5
179
100
AcDbEntity
  8
D1
  6
ByLayer
 62
  256
370
   18
100
AcDbPolyline
 90
    6
 70
    1
 43
0
 10
16.5
 20
-42.99999999999999
 10
17.5
 20
-42.99999999999999
 10
17.5
 20
-43.09999999999999
 10
16.5
 20
-43.09999999999999
 10
16.5
 20
-43.09999999999999
 10
16.5
 20
-43.09999999999999
  0
LINE
  5
17A
100
AcDbEntity
  8
D1
  6
ByLayer
 62
  256
370
   18
100
AcDbLine
 10
16.6
 20
-41.99999999999999
 11
16.6
 21
-44.99999999999999
  0
LINE
  5
17B
100
AcDbEntity
  8
D1
  6
ByLayer
 62
  256
370
   18
100
AcDbLine
 10
17.4
 20
-41.99999999999999
 11
17.4
 21
-44.99999999999999
  0
LWPOLYLINE
  5
17C
100
AcDbEntity
  8
D1
  6
ByLayer
 62
  256
370
   18
100
AcDbPolyline
 90
    5
 70
    1
 43
0
 10
16.5
 20
-39.09999999999999
 10
17.5
 20
-39.09999999999999
 10
17.5
 20
-39.2
 10
16.5
 20
-39.2
 10
16.5
 20
-39.2
  0
LWPOLYLINE
  5
17D
100
AcDbEntity
  8
D1
  6
ByLayer
 62
  256
370
   18
100
AcDbPolyline
 90
    5
 70
    1
 43
0
 10
16.5
 20
-39.39999999999999
 10
17.5
 20
-39.39999999999999
 10
17.5
 20
-39.49999999999999
 10
16.5
 20
-39.49999999999999
 10
16.5
 20
-39.49999999999999
  0
LWPOLYLINE
  5
17E
100
AcDbEntity
  8
D1
  6
ByLayer
 62
  256
370
   18
100
AcDbPolyline
 90
    5
 70
    1
 43
0
 10
16.5
 20
-39.7
 10
17.5
 20
-39.7
 10
17.5
 20
-39.8
 10
16.5
 20
-39.8
 10
16.5
 20
-39.8
  0
LWPOLYLINE
  5
17F
100
AcDbEntity
  8
D1
  6
ByLayer
 62
  256
370
   18
100
AcDbPolyline
 90
    5
 70
    1
 43
0
 10
16.5
 20
-40.29999999999999
 10
17.5
 20
-40.29999999999999
 10
17.5
 20
-40.39999999999999
 10
16.5
 20
-40.39999999999999
 10
16.5
 20
-40.39999999999999
  0
LWPOLYLINE
  5
180
100
AcDbEntity
  8
D1
  6
ByLayer
 62
  256
370
   18
100
AcDbPolyline
 90
    5
 70
    1
 43
0
 10
16.5
 20
-40.59999999999999
 10
17.5
 20
-40.59999999999999
 10
17.5
 20
-40.7
 10
16.5
 20
-40.7
 10
16.5
 20
-40.7
  0
LWPOLYLINE
  5
181
100
AcDbEntity
  8
D1
  6
ByLayer
 62
  256
370
   18
100
AcDbPolyline
 90
    5
 70
    1
 43
0
 10
16.5
 20
-40.89999999999999
 10
17.5
 20
-40.89999999999999
 10
17.5
 20
-40.99999999999999
 10
16.5
 20
-40.99999999999999
 10
16.5
 20
-40.99999999999999
  0
LWPOLYLINE
  5
182
100
AcDbEntity
  8
D1
  6
ByLayer
 62
  256
370
   18
100
AcDbPolyline
 90
    5
 70
    1
 43
0
 10
16.5
 20
-41.2
 10
17.5
 20
-41.2
 10
17.5
 20
-41.3
 10
16.5
 20
-41.3
 10
16.5
 20
-41.3
  0
LWPOLYLINE
  5
183
100
AcDbEntity
  8
D1
  6
ByLayer
 62
  256
370
   18
100
AcDbPolyline
 90
    5
 70
    1
 43
0
 10
16.5
 20
-41.49999999999999
 10
17.5
 20
-41.49999999999999
 10
17.5
 20
-41.59999999999999
 10
16.5
 20
-41.59999999999999
 10
16.5
 20
-41.59999999999999
  0
LWPOLYLINE
  5
184
100
AcDbEntity
  8
D1
  6
ByLayer
 62
  256
370
   18
100
AcDbPolyline
 90
    5
 70
    1
 43
0
 10
16.5
 20
-41.8
 10
17.5
 20
-41.8
 10
17.5
 20
-41.9
 10
16.5
 20
-41.9
 10
16.5
 20
-41.9
  0
LWPOLYLINE
  5
185
100
AcDbEntity
  8
D1
  6
ByLayer
 62
  256
370
   18
100
AcDbPolyline
 90
    6
 70
    1
 43
0
 10
16.5
 20
-39.99999999999999
 10
17.5
 20
-39.99999999999999
 10
17.5
 20
-40.09999999999999
 10
16.5
 20
-40.09999999999999
 10
16.5
 20
-40.09999999999999
 10
16.5
 20
-40.09999999999999
  0
LINE
  5
186
100
AcDbEntity
  8
D1
  6
ByLayer
 62
  256
370
   18
100
AcDbLine
 10
16.6
 20
-38.99999999999999
 11
16.6
 21
-41.99999999999999
  0
LINE
  5
187
100
AcDbEntity
  8
D1
  6
ByLayer
 62
  256
370
   18
100
AcDbLine
 10
17.4
 20
-38.99999999999999
 11
17.4
 21
-41.99999999999999
  0
LWPOLYLINE
  5
188
100
AcDbEntity
  8
D1
  6
ByLayer
 62
  256
370
   18
100
AcDbPolyline
 90
    5
 70
    1
 43
0
 10
16.5
 20
-36.09999999999999
 10
17.5
 20
-36.09999999999999
 10
17.5
 20
-36.2
 10
16.5
 20
-36.2
 10
16.5
 20
-36.2
  0
LWPOLYLINE
  5
189
100
AcDbEntity
  8
D1
  6
ByLayer
 62
  256
370
   18
100
AcDbPolyline
 90
    5
 70
    1
 43
0
 10
16.5
 20
-36.39999999999999
 10
17.5
 20
-36.39999999999999
 10
17.5
 20
-36.49999999999999
 10
16.5
 20
-36.49999999999999
 10
16.5
 20
-36.49999999999999
  0
LWPOLYLINE
  5
18A
100
AcDbEntity
  8
D1
  6
ByLayer
 62
  256
370
   18
100
AcDbPolyline
 90
    5
 70
    1
 43
0
 10
16.5
 20
-36.7
 10
17.5
 20
-36.7
 10
17.5
 20
-36.8
 10
16.5
 20
-36.8
 10
16.5
 20
-36.8
  0
LWPOLYLINE
  5
18B
100
AcDbEntity
  8
D1
  6
ByLayer
 62
  256
370
   18
100
AcDbPolyline
 90
    5
 70
    1
 43
0
 10
16.5
 20
-37.29999999999999
 10
17.5
 20
-37.29999999999999
 10
17.5
 20
-37.39999999999999
 10
16.5
 20
-37.39999999999999
 10
16.5
 20
-37.39999999999999
  0
LWPOLYLINE
  5
18C
100
AcDbEntity
  8
D1
  6
ByLayer
 62
  256
370
   18
100
AcDbPolyline
 90
    5
 70
    1
 43
0
 10
16.5
 20
-37.59999999999999
 10
17.5
 20
-37.59999999999999
 10
17.5
 20
-37.7
 10
16.5
 20
-37.7
 10
16.5
 20
-37.7
  0
LWPOLYLINE
  5
18D
100
AcDbEntity
  8
D1
  6
ByLayer
 62
  256
370
   18
100
AcDbPolyline
 90
    5
 70
    1
 43
0
 10
16.5
 20
-37.89999999999999
 10
17.5
 20
-37.89999999999999
 10
17.5
 20
-37.99999999999999
 10
16.5
 20
-37.99999999999999
 10
16.5
 20
-37.99999999999999
  0
LWPOLYLINE
  5
18E
100
AcDbEntity
  8
D1
  6
ByLayer
 62
  256
370
   18
100
AcDbPolyline
 90
    5
 70
    1
 43
0
 10
16.5
 20
-38.2
 10
17.5
 20
-38.2
 10
17.5
 20
-38.3
 10
16.5
 20
-38.3
 10
16.5
 20
-38.3
  0
LWPOLYLINE
  5
18F
100
AcDbEntity
  8
D1
  6
ByLayer
 62
  256
370
   18
100
AcDbPolyline
 90
    5
 70
    1
 43
0
 10
16.5
 20
-38.49999999999999
 10
17.5
 20
-38.49999999999999
 10
17.5
 20
-38.59999999999999
 10
16.5
 20
-38.59999999999999
 10
16.5
 20
-38.59999999999999
  0
LWPOLYLINE
  5
190
100
AcDbEntity
  8
D1
  6
ByLayer
 62
  256
370
   18
100
AcDbPolyline
 90
    5
 70
    1
 43
0
 10
16.5
 20
-38.8
 10
17.5
 20
-38.8
 10
17.5
 20
-38.9
 10
16.5
 20
-38.9
 10
16.5
 20
-38.9
  0
LWPOLYLINE
  5
191
100
AcDbEntity
  8
D1
  6
ByLayer
 62
  256
370
   18
100
AcDbPolyline
 90
    6
 70
    1
 43
0
 10
16.5
 20
-36.99999999999999
 10
17.5
 20
-36.99999999999999
 10
17.5
 20
-37.09999999999999
 10
16.5
 20
-37.09999999999999
 10
16.5
 20
-37.09999999999999
 10
16.5
 20
-37.09999999999999
  0
LINE
  5
192
100
AcDbEntity
  8
D1
  6
ByLayer
 62
  256
370
   18
100
AcDbLine
 10
16.6
 20
-35.99999999999999
 11
16.6
 21
-38.99999999999999
  0
LINE
  5
193
100
AcDbEntity
  8
D1
  6
ByLayer
 62
  256
370
   18
100
AcDbLine
 10
17.4
 20
-35.99999999999999
 11
17.4
 21
-38.99999999999999
  0
LWPOLYLINE
  5
194
100
AcDbEntity
  8
D1
  6
ByLayer
 62
  256
370
   18
100
AcDbPolyline
 90
    5
 70
    1
 43
0
 10
16.5
 20
-33.09999999999999
 10
17.5
 20
-33.09999999999999
 10
17.5
 20
-33.2
 10
16.5
 20
-33.2
 10
16.5
 20
-33.2
  0
LWPOLYLINE
  5
195
100
AcDbEntity
  8
D1
  6
ByLayer
 62
  256
370
   18
100
AcDbPolyline
 90
    5
 70
    1
 43
0
 10
16.5
 20
-33.39999999999999
 10
17.5
 20
-33.39999999999999
 10
17.5
 20
-33.49999999999999
 10
16.5
 20
-33.49999999999999
 10
16.5
 20
-33.49999999999999
  0
LWPOLYLINE
  5
196
100
AcDbEntity
  8
D1
  6
ByLayer
 62
  256
370
   18
100
AcDbPolyline
 90
    5
 70
    1
 43
0
 10
16.5
 20
-33.7
 10
17.5
 20
-33.7
 10
17.5
 20
-33.8
 10
16.5
 20
-33.8
 10
16.5
 20
-33.8
  0
LWPOLYLINE
  5
197
100
AcDbEntity
  8
D1
  6
ByLayer
 62
  256
370
   18
100
AcDbPolyline
 90
    5
 70
    1
 43
0
 10
16.5
 20
-34.29999999999999
 10
17.5
 20
-34.29999999999999
 10
17.5
 20
-34.39999999999999
 10
16.5
 20
-34.39999999999999
 10
16.5
 20
-34.39999999999999
  0
LWPOLYLINE
  5
198
100
AcDbEntity
  8
D1
  6
ByLayer
 62
  256
370
   18
100
AcDbPolyline
 90
    5
 70
    1
 43
0
 10
16.5
 20
-34.59999999999999
 10
17.5
 20
-34.59999999999999
 10
17.5
 20
-34.7
 10
16.5
 20
-34.7
 10
16.5
 20
-34.7
  0
LWPOLYLINE
  5
199
100
AcDbEntity
  8
D1
  6
ByLayer
 62
  256
370
   18
100
AcDbPolyline
 90
    5
 70
    1
 43
0
 10
16.5
 20
-34.89999999999999
 10
17.5
 20
-34.89999999999999
 10
17.5
 20
-34.99999999999999
 10
16.5
 20
-34.99999999999999
 10
16.5
 20
-34.99999999999999
  0
LWPOLYLINE
  5
19A
100
AcDbEntity
  8
D1
  6
ByLayer
 62
  256
370
   18
100
AcDbPolyline
 90
    5
 70
    1
 43
0
 10
16.5
 20
-35.2
 10
17.5
 20
-35.2
 10
17.5
 20
-35.3
 10
16.5
 20
-35.3
 10
16.5
 20
-35.3
  0
LWPOLYLINE
  5
19B
100
AcDbEntity
  8
D1
  6
ByLayer
 62
  256
370
   18
100
AcDbPolyline
 90
    5
 70
    1
 43
0
 10
16.5
 20
-35.49999999999999
 10
17.5
 20
-35.49999999999999
 10
17.5
 20
-35.59999999999999
 10
16.5
 20
-35.59999999999999
 10
16.5
 20
-35.59999999999999
  0
LWPOLYLINE
  5
19C
100
AcDbEntity
  8
D1
  6
ByLayer
 62
  256
370
   18
100
AcDbPolyline
 90
    5
 70
    1
 43
0
 10
16.5
 20
-35.8
 10
17.5
 20
-35.8
 10
17.5
 20
-35.9
 10
16.5
 20
-35.9
 10
16.5
 20
-35.9
  0
LWPOLYLINE
  5
19D
100
AcDbEntity
  8
D1
  6
ByLayer
 62
  256
370
   18
100
AcDbPolyline
 90
    6
 70
    1
 43
0
 10
16.5
 20
-33.99999999999999
 10
17.5
 20
-33.99999999999999
 10
17.5
 20
-34.09999999999999
 10
16.5
 20
-34.09999999999999
 10
16.5
 20
-34.09999999999999
 10
16.5
 20
-34.09999999999999
  0
LINE
  5
19E
100
AcDbEntity
  8
D1
  6
ByLayer
 62
  256
370
   18
100
AcDbLine
 10
16.6
 20
-32.99999999999999
 11
16.6
 21
-35.99999999999999
  0
LINE
  5
19F
100
AcDbEntity
  8
D1
  6
ByLayer
 62
  256
370
   18
100
AcDbLine
 10
17.4
 20
-32.99999999999999
 11
17.4
 21
-35.99999999999999
  0
LWPOLYLINE
  5
1A0
100
AcDbEntity
  8
D1
  6
ByLayer
 62
  256
370
   18
100
AcDbPolyline
 90
    5
 70
    1
 43
0
 10
16.5
 20
-30.09999999999999
 10
17.5
 20
-30.09999999999999
 10
17.5
 20
-30.2
 10
16.5
 20
-30.2
 10
16.5
 20
-30.2
  0
LWPOLYLINE
  5
1A1
100
AcDbEntity
  8
D1
  6
ByLayer
 62
  256
370
   18
100
AcDbPolyline
 90
    5
 70
    1
 43
0
 10
16.5
 20
-30.39999999999999
 10
17.5
 20
-30.39999999999999
 10
17.5
 20
-30.49999999999999
 10
16.5
 20
-30.49999999999999
 10
16.5
 20
-30.49999999999999
  0
LWPOLYLINE
  5
1A2
100
AcDbEntity
  8
D1
  6
ByLayer
 62
  256
370
   18
100
AcDbPolyline
 90
    5
 70
    1
 43
0
 10
16.5
 20
-30.7
 10
17.5
 20
-30.7
 10
17.5
 20
-30.8
 10
16.5
 20
-30.8
 10
16.5
 20
-30.8
  0
LWPOLYLINE
  5
1A3
100
AcDbEntity
  8
D1
  6
ByLayer
 62
  256
370
   18
100
AcDbPolyline
 90
    5
 70
    1
 43
0
 10
16.5
 20
-31.29999999999999
 10
17.5
 20
-31.29999999999999
 10
17.5
 20
-31.39999999999999
 10
16.5
 20
-31.39999999999999
 10
16.5
 20
-31.39999999999999
  0
LWPOLYLINE
  5
1A4
100
AcDbEntity
  8
D1
  6
ByLayer
 62
  256
370
   18
100
AcDbPolyline
 90
    5
 70
    1
 43
0
 10
16.5
 20
-31.59999999999999
 10
17.5
 20
-31.59999999999999
 10
17.5
 20
-31.7
 10
16.5
 20
-31.7
 10
16.5
 20
-31.7
  0
LWPOLYLINE
  5
1A5
100
AcDbEntity
  8
D1
  6
ByLayer
 62
  256
370
   18
100
AcDbPolyline
 90
    5
 70
    1
 43
0
 10
16.5
 20
-31.89999999999999
 10
17.5
 20
-31.89999999999999
 10
17.5
 20
-31.99999999999999
 10
16.5
 20
-31.99999999999999
 10
16.5
 20
-31.99999999999999
  0
LWPOLYLINE
  5
1A6
100
AcDbEntity
  8
D1
  6
ByLayer
 62
  256
370
   18
100
AcDbPolyline
 90
    5
 70
    1
 43
0
 10
16.5
 20
-32.2
 10
17.5
 20
-32.2
 10
17.5
 20
-32.3
 10
16.5
 20
-32.3
 10
16.5
 20
-32.3
  0
LWPOLYLINE
  5
1A7
100
AcDbEntity
  8
D1
  6
ByLayer
 62
  256
370
   18
100
AcDbPolyline
 90
    5
 70
    1
 43
0
 10
16.5
 20
-32.49999999999999
 10
17.5
 20
-32.49999999999999
 10
17.5
 20
-32.59999999999999
 10
16.5
 20
-32.59999999999999
 10
16.5
 20
-32.59999999999999
  0
LWPOLYLINE
  5
1A8
100
AcDbEntity
  8
D1
  6
ByLayer
 62
  256
370
   18
100
AcDbPolyline
 90
    5
 70
    1
 43
0
 10
16.5
 20
-32.8
 10
17.5
 20
-32.8
 10
17.5
 20
-32.9
 10
16.5
 20
-32.9
 10
16.5
 20
-32.9
  0
LWPOLYLINE
  5
1A9
100
AcDbEntity
  8
D1
  6
ByLayer
 62
  256
370
   18
100
AcDbPolyline
 90
    6
 70
    1
 43
0
 10
16.5
 20
-30.99999999999999
 10
17.5
 20
-30.99999999999999
 10
17.5
 20
-31.09999999999999
 10
16.5
 20
-31.09999999999999
 10
16.5
 20
-31.09999999999999
 10
16.5
 20
-31.09999999999999
  0
LINE
  5
1AA
100
AcDbEntity
  8
D1
  6
ByLayer
 62
  256
370
   18
100
AcDbLine
 10
16.6
 20
-29.99999999999999
 11
16.6
 21
-32.99999999999999
  0
LINE
  5
1AB
100
AcDbEntity
  8
D1
  6
ByLayer
 62
  256
370
   18
100
AcDbLine
 10
17.4
 20
-29.99999999999999
 11
17.4
 21
-32.99999999999999
  0
LWPOLYLINE
  5
1AC
100
AcDbEntity
  8
D1
  6
ByLayer
 62
  256
370
   18
100
AcDbPolyline
 90
    5
 70
    1
 43
0
 10
16.5
 20
-27.09999999999999
 10
17.5
 20
-27.09999999999999
 10
17.5
 20
-27.2
 10
16.5
 20
-27.2
 10
16.5
 20
-27.2
  0
LWPOLYLINE
  5
1AD
100
AcDbEntity
  8
D1
  6
ByLayer
 62
  256
370
   18
100
AcDbPolyline
 90
    5
 70
    1
 43
0
 10
16.5
 20
-27.39999999999999
 10
17.5
 20
-27.39999999999999
 10
17.5
 20
-27.49999999999999
 10
16.5
 20
-27.49999999999999
 10
16.5
 20
-27.49999999999999
  0
LWPOLYLINE
  5
1AE
100
AcDbEntity
  8
D1
  6
ByLayer
 62
  256
370
   18
100
AcDbPolyline
 90
    5
 70
    1
 43
0
 10
16.5
 20
-27.7
 10
17.5
 20
-27.7
 10
17.5
 20
-27.8
 10
16.5
 20
-27.8
 10
16.5
 20
-27.8
  0
LWPOLYLINE
  5
1AF
100
AcDbEntity
  8
D1
  6
ByLayer
 62
  256
370
   18
100
AcDbPolyline
 90
    5
 70
    1
 43
0
 10
16.5
 20
-28.29999999999999
 10
17.5
 20
-28.29999999999999
 10
17.5
 20
-28.39999999999999
 10
16.5
 20
-28.39999999999999
 10
16.5
 20
-28.39999999999999
  0
LWPOLYLINE
  5
1B0
100
AcDbEntity
  8
D1
  6
ByLayer
 62
  256
370
   18
100
AcDbPolyline
 90
    5
 70
    1
 43
0
 10
16.5
 20
-28.59999999999999
 10
17.5
 20
-28.59999999999999
 10
17.5
 20
-28.7
 10
16.5
 20
-28.7
 10
16.5
 20
-28.7
  0
LWPOLYLINE
  5
1B1
100
AcDbEntity
  8
D1
  6
ByLayer
 62
  256
370
   18
100
AcDbPolyline
 90
    5
 70
    1
 43
0
 10
16.5
 20
-28.89999999999999
 10
17.5
 20
-28.89999999999999
 10
17.5
 20
-28.99999999999999
 10
16.5
 20
-28.99999999999999
 10
16.5
 20
-28.99999999999999
  0
LWPOLYLINE
  5
1B2
100
AcDbEntity
  8
D1
  6
ByLayer
 62
  256
370
   18
100
AcDbPolyline
 90
    5
 70
    1
 43
0
 10
16.5
 20
-29.2
 10
17.5
 20
-29.2
 10
17.5
 20
-29.3
 10
16.5
 20
-29.3
 10
16.5
 20
-29.3
  0
LWPOLYLINE
  5
1B3
100
AcDbEntity
  8
D1
  6
ByLayer
 62
  256
370
   18
100
AcDbPolyline
 90
    5
 70
    1
 43
0
 10
16.5
 20
-29.49999999999999
 10
17.5
 20
-29.49999999999999
 10
17.5
 20
-29.59999999999999
 10
16.5
 20
-29.59999999999999
 10
16.5
 20
-29.59999999999999
  0
LWPOLYLINE
  5
1B4
100
AcDbEntity
  8
D1
  6
ByLayer
 62
  256
370
   18
100
AcDbPolyline
 90
    5
 70
    1
 43
0
 10
16.5
 20
-29.8
 10
17.5
 20
-29.8
 10
17.5
 20
-29.9
 10
16.5
 20
-29.9
 10
16.5
 20
-29.9
  0
LWPOLYLINE
  5
1B5
100
AcDbEntity
  8
D1
  6
ByLayer
 62
  256
370
   18
100
AcDbPolyline
 90
    6
 70
    1
 43
0
 10
16.5
 20
-27.99999999999999
 10
17.5
 20
-27.99999999999999
 10
17.5
 20
-28.09999999999999
 10
16.5
 20
-28.09999999999999
 10
16.5
 20
-28.09999999999999
 10
16.5
 20
-28.09999999999999
  0
LINE
  5
1B6
100
AcDbEntity
  8
D1
  6
ByLayer
 62
  256
370
   18
100
AcDbLine
 10
16.6
 20
-26.99999999999999
 11
16.6
 21
-29.99999999999999
  0
LINE
  5
1B7
100
AcDbEntity
  8
D1
  6
ByLayer
 62
  256
370
   18
100
AcDbLine
 10
17.4
 20
-26.99999999999999
 11
17.4
 21
-29.99999999999999
  0
LWPOLYLINE
  5
1B8
100
AcDbEntity
  8
D1
  6
ByLayer
 62
  256
370
   18
100
AcDbPolyline
 90
    5
 70
    1
 43
0
 10
16.5
 20
-24.09999999999999
 10
17.5
 20
-24.09999999999999
 10
17.5
 20
-24.2
 10
16.5
 20
-24.2
 10
16.5
 20
-24.2
  0
LWPOLYLINE
  5
1B9
100
AcDbEntity
  8
D1
  6
ByLayer
 62
  256
370
   18
100
AcDbPolyline
 90
    5
 70
    1
 43
0
 10
16.5
 20
-24.39999999999999
 10
17.5
 20
-24.39999999999999
 10
17.5
 20
-24.49999999999999
 10
16.5
 20
-24.49999999999999
 10
16.5
 20
-24.49999999999999
  0
LWPOLYLINE
  5
1BA
100
AcDbEntity
  8
D1
  6
ByLayer
 62
  256
370
   18
100
AcDbPolyline
 90
    5
 70
    1
 43
0
 10
16.5
 20
-24.7
 10
17.5
 20
-24.7
 10
17.5
 20
-24.8
 10
16.5
 20
-24.8
 10
16.5
 20
-24.8
  0
LWPOLYLINE
  5
1BB
100
AcDbEntity
  8
D1
  6
ByLayer
 62
  256
370
   18
100
AcDbPolyline
 90
    5
 70
    1
 43
0
 10
16.5
 20
-25.29999999999999
 10
17.5
 20
-25.29999999999999
 10
17.5
 20
-25.39999999999999
 10
16.5
 20
-25.39999999999999
 10
16.5
 20
-25.39999999999999
  0
LWPOLYLINE
  5
1BC
100
AcDbEntity
  8
D1
  6
ByLayer
 62
  256
370
   18
100
AcDbPolyline
 90
    5
 70
    1
 43
0
 10
16.5
 20
-25.59999999999999
 10
17.5
 20
-25.59999999999999
 10
17.5
 20
-25.7
 10
16.5
 20
-25.7
 10
16.5
 20
-25.7
  0
LWPOLYLINE
  5
1BD
100
AcDbEntity
  8
D1
  6
ByLayer
 62
  256
370
   18
100
AcDbPolyline
 90
    5
 70
    1
 43
0
 10
16.5
 20
-25.89999999999999
 10
17.5
 20
-25.89999999999999
 10
17.5
 20
-25.99999999999999
 10
16.5
 20
-25.99999999999999
 10
16.5
 20
-25.99999999999999
  0
LWPOLYLINE
  5
1BE
100
AcDbEntity
  8
D1
  6
ByLayer
 62
  256
370
   18
100
AcDbPolyline
 90
    5
 70
    1
 43
0
 10
16.5
 20
-26.2
 10
17.5
 20
-26.2
 10
17.5
 20
-26.3
 10
16.5
 20
-26.3
 10
16.5
 20
-26.3
  0
LWPOLYLINE
  5
1BF
100
AcDbEntity
  8
D1
  6
ByLayer
 62
  256
370
   18
100
AcDbPolyline
 90
    5
 70
    1
 43
0
 10
16.5
 20
-26.49999999999999
 10
17.5
 20
-26.49999999999999
 10
17.5
 20
-26.59999999999999
 10
16.5
 20
-26.59999999999999
 10
16.5
 20
-26.59999999999999
  0
LWPOLYLINE
  5
1C0
100
AcDbEntity
  8
D1
  6
ByLayer
 62
  256
370
   18
100
AcDbPolyline
 90
    5
 70
    1
 43
0
 10
16.5
 20
-26.8
 10
17.5
 20
-26.8
 10
17.5
 20
-26.9
 10
16.5
 20
-26.9
 10
16.5
 20
-26.9
  0
LWPOLYLINE
  5
1C1
100
AcDbEntity
  8
D1
  6
ByLayer
 62
  256
370
   18
100
AcDbPolyline
 90
    6
 70
    1
 43
0
 10
16.5
 20
-24.99999999999999
 10
17.5
 20
-24.99999999999999
 10
17.5
 20
-25.09999999999999
 10
16.5
 20
-25.09999999999999
 10
16.5
 20
-25.09999999999999
 10
16.5
 20
-25.09999999999999
  0
LINE
  5
1C2
100
AcDbEntity
  8
D1
  6
ByLayer
 62
  256
370
   18
100
AcDbLine
 10
16.6
 20
-23.99999999999999
 11
16.6
 21
-26.99999999999999
  0
LINE
  5
1C3
100
AcDbEntity
  8
D1
  6
ByLayer
 62
  256
370
   18
100
AcDbLine
 10
17.4
 20
-23.99999999999999
 11
17.4
 21
-26.99999999999999
  0
LWPOLYLINE
  5
1C4
100
AcDbEntity
  8
D1
  6
ByLayer
 62
  256
370
   18
100
AcDbPolyline
 90
    5
 70
    1
 43
0
 10
16.5
 20
-21.09999999999999
 10
17.5
 20
-21.09999999999999
 10
17.5
 20
-21.2
 10
16.5
 20
-21.2
 10
16.5
 20
-21.2
  0
LWPOLYLINE
  5
1C5
100
AcDbEntity
  8
D1
  6
ByLayer
 62
  256
370
   18
100
AcDbPolyline
 90
    5
 70
    1
 43
0
 10
16.5
 20
-21.39999999999999
 10
17.5
 20
-21.39999999999999
 10
17.5
 20
-21.49999999999999
 10
16.5
 20
-21.49999999999999
 10
16.5
 20
-21.49999999999999
  0
LWPOLYLINE
  5
1C6
100
AcDbEntity
  8
D1
  6
ByLayer
 62
  256
370
   18
100
AcDbPolyline
 90
    5
 70
    1
 43
0
 10
16.5
 20
-21.7
 10
17.5
 20
-21.7
 10
17.5
 20
-21.8
 10
16.5
 20
-21.8
 10
16.5
 20
-21.8
  0
LWPOLYLINE
  5
1C7
100
AcDbEntity
  8
D1
  6
ByLayer
 62
  256
370
   18
100
AcDbPolyline
 90
    5
 70
    1
 43
0
 10
16.5
 20
-22.29999999999999
 10
17.5
 20
-22.29999999999999
 10
17.5
 20
-22.39999999999999
 10
16.5
 20
-22.39999999999999
 10
16.5
 20
-22.39999999999999
  0
LWPOLYLINE
  5
1C8
100
AcDbEntity
  8
D1
  6
ByLayer
 62
  256
370
   18
100
AcDbPolyline
 90
    5
 70
    1
 43
0
 10
16.5
 20
-22.59999999999999
 10
17.5
 20
-22.59999999999999
 10
17.5
 20
-22.7
 10
16.5
 20
-22.7
 10
16.5
 20
-22.7
  0
LWPOLYLINE
  5
1C9
100
AcDbEntity
  8
D1
  6
ByLayer
 62
  256
370
   18
100
AcDbPolyline
 90
    5
 70
    1
 43
0
 10
16.5
 20
-22.89999999999999
 10
17.5
 20
-22.89999999999999
 10
17.5
 20
-22.99999999999999
 10
16.5
 20
-22.99999999999999
 10
16.5
 20
-22.99999999999999
  0
LWPOLYLINE
  5
1CA
100
AcDbEntity
  8
D1
  6
ByLayer
 62
  256
370
   18
100
AcDbPolyline
 90
    5
 70
    1
 43
0
 10
16.5
 20
-23.2
 10
17.5
 20
-23.2
 10
17.5
 20
-23.3
 10
16.5
 20
-23.3
 10
16.5
 20
-23.3
  0
LWPOLYLINE
  5
1CB
100
AcDbEntity
  8
D1
  6
ByLayer
 62
  256
370
   18
100
AcDbPolyline
 90
    5
 70
    1
 43
0
 10
16.5
 20
-23.49999999999999
 10
17.5
 20
-23.49999999999999
 10
17.5
 20
-23.59999999999999
 10
16.5
 20
-23.59999999999999
 10
16.5
 20
-23.59999999999999
  0
LWPOLYLINE
  5
1CC
100
AcDbEntity
  8
D1
  6
ByLayer
 62
  256
370
   18
100
AcDbPolyline
 90
    5
 70
    1
 43
0
 10
16.5
 20
-23.8
 10
17.5
 20
-23.8
 10
17.5
 20
-23.9
 10
16.5
 20
-23.9
 10
16.5
 20
-23.9
  0
LWPOLYLINE
  5
1CD
100
AcDbEntity
  8
D1
  6
ByLayer
 62
  256
370
   18
100
AcDbPolyline
 90
    6
 70
    1
 43
0
 10
16.5
 20
-21.99999999999999
 10
17.5
 20
-21.99999999999999
 10
17.5
 20
-22.09999999999999
 10
16.5
 20
-22.09999999999999
 10
16.5
 20
-22.09999999999999
 10
16.5
 20
-22.09999999999999
  0
LINE
  5
1CE
100
AcDbEntity
  8
D1
  6
ByLayer
 62
  256
370
   18
100
AcDbLine
 10
16.6
 20
-20.99999999999999
 11
16.6
 21
-23.99999999999999
  0
LINE
  5
1CF
100
AcDbEntity
  8
D1
  6
ByLayer
 62
  256
370
   18
100
AcDbLine
 10
17.4
 20
-20.99999999999999
 11
17.4
 21
-23.99999999999999
  0
LWPOLYLINE
  5
1D0
100
AcDbEntity
  8
D1
  6
ByLayer
 62
  256
370
   18
100
AcDbPolyline
 90
    5
 70
    1
 43
0
 10
16.5
 20
-18.09999999999999
 10
17.5
 20
-18.09999999999999
 10
17.5
 20
-18.2
 10
16.5
 20
-18.2
 10
16.5
 20
-18.2
  0
LWPOLYLINE
  5
1D1
100
AcDbEntity
  8
D1
  6
ByLayer
 62
  256
370
   18
100
AcDbPolyline
 90
    5
 70
    1
 43
0
 10
16.5
 20
-18.39999999999999
 10
17.5
 20
-18.39999999999999
 10
17.5
 20
-18.49999999999999
 10
16.5
 20
-18.49999999999999
 10
16.5
 20
-18.49999999999999
  0
LWPOLYLINE
  5
1D2
100
AcDbEntity
  8
D1
  6
ByLayer
 62
  256
370
   18
100
AcDbPolyline
 90
    5
 70
    1
 43
0
 10
16.5
 20
-18.7
 10
17.5
 20
-18.7
 10
17.5
 20
-18.8
 10
16.5
 20
-18.8
 10
16.5
 20
-18.8
  0
LWPOLYLINE
  5
1D3
100
AcDbEntity
  8
D1
  6
ByLayer
 62
  256
370
   18
100
AcDbPolyline
 90
    5
 70
    1
 43
0
 10
16.5
 20
-19.29999999999999
 10
17.5
 20
-19.29999999999999
 10
17.5
 20
-19.39999999999999
 10
16.5
 20
-19.39999999999999
 10
16.5
 20
-19.39999999999999
  0
LWPOLYLINE
  5
1D4
100
AcDbEntity
  8
D1
  6
ByLayer
 62
  256
370
   18
100
AcDbPolyline
 90
    5
 70
    1
 43
0
 10
16.5
 20
-19.59999999999999
 10
17.5
 20
-19.59999999999999
 10
17.5
 20
-19.7
 10
16.5
 20
-19.7
 10
16.5
 20
-19.7
  0
LWPOLYLINE
  5
1D5
100
AcDbEntity
  8
D1
  6
ByLayer
 62
  256
370
   18
100
AcDbPolyline
 90
    5
 70
    1
 43
0
 10
16.5
 20
-19.89999999999999
 10
17.5
 20
-19.89999999999999
 10
17.5
 20
-19.99999999999999
 10
16.5
 20
-19.99999999999999
 10
16.5
 20
-19.99999999999999
  0
LWPOLYLINE
  5
1D6
100
AcDbEntity
  8
D1
  6
ByLayer
 62
  256
370
   18
100
AcDbPolyline
 90
    5
 70
    1
 43
0
 10
16.5
 20
-20.2
 10
17.5
 20
-20.2
 10
17.5
 20
-20.3
 10
16.5
 20
-20.3
 10
16.5
 20
-20.3
  0
LWPOLYLINE
  5
1D7
100
AcDbEntity
  8
D1
  6
ByLayer
 62
  256
370
   18
100
AcDbPolyline
 90
    5
 70
    1
 43
0
 10
16.5
 20
-20.49999999999999
 10
17.5
 20
-20.49999999999999
 10
17.5
 20
-20.59999999999999
 10
16.5
 20
-20.59999999999999
 10
16.5
 20
-20.59999999999999
  0
LWPOLYLINE
  5
1D8
100
AcDbEntity
  8
D1
  6
ByLayer
 62
  256
370
   18
100
AcDbPolyline
 90
    5
 70
    1
 43
0
 10
16.5
 20
-20.8
 10
17.5
 20
-20.8
 10
17.5
 20
-20.9
 10
16.5
 20
-20.9
 10
16.5
 20
-20.9
  0
LWPOLYLINE
  5
1D9
100
AcDbEntity
  8
D1
  6
ByLayer
 62
  256
370
   18
100
AcDbPolyline
 90
    6
 70
    1
 43
0
 10
16.5
 20
-18.99999999999999
 10
17.5
 20
-18.99999999999999
 10
17.5
 20
-19.09999999999999
 10
16.5
 20
-19.09999999999999
 10
16.5
 20
-19.09999999999999
 10
16.5
 20
-19.09999999999999
  0
LINE
  5
1DA
100
AcDbEntity
  8
D1
  6
ByLayer
 62
  256
370
   18
100
AcDbLine
 10
16.6
 20
-17.99999999999999
 11
16.6
 21
-20.99999999999999
  0
LINE
  5
1DB
100
AcDbEntity
  8
D1
  6
ByLayer
 62
  256
370
   18
100
AcDbLine
 10
17.4
 20
-17.99999999999999
 11
17.4
 21
-20.99999999999999
  0
LWPOLYLINE
  5
1DC
100
AcDbEntity
  8
D1
  6
ByLayer
 62
  256
370
   18
100
AcDbPolyline
 90
    5
 70
    1
 43
0
 10
16.5
 20
-15.09999999999999
 10
17.5
 20
-15.09999999999999
 10
17.5
 20
-15.2
 10
16.5
 20
-15.2
 10
16.5
 20
-15.2
  0
LWPOLYLINE
  5
1DD
100
AcDbEntity
  8
D1
  6
ByLayer
 62
  256
370
   18
100
AcDbPolyline
 90
    5
 70
    1
 43
0
 10
16.5
 20
-15.39999999999999
 10
17.5
 20
-15.39999999999999
 10
17.5
 20
-15.49999999999999
 10
16.5
 20
-15.49999999999999
 10
16.5
 20
-15.49999999999999
  0
LWPOLYLINE
  5
1DE
100
AcDbEntity
  8
D1
  6
ByLayer
 62
  256
370
   18
100
AcDbPolyline
 90
    5
 70
    1
 43
0
 10
16.5
 20
-15.7
 10
17.5
 20
-15.7
 10
17.5
 20
-15.8
 10
16.5
 20
-15.8
 10
16.5
 20
-15.8
  0
LWPOLYLINE
  5
1DF
100
AcDbEntity
  8
D1
  6
ByLayer
 62
  256
370
   18
100
AcDbPolyline
 90
    5
 70
    1
 43
0
 10
16.5
 20
-16.29999999999999
 10
17.5
 20
-16.29999999999999
 10
17.5
 20
-16.39999999999999
 10
16.5
 20
-16.39999999999999
 10
16.5
 20
-16.39999999999999
  0
LWPOLYLINE
  5
1E0
100
AcDbEntity
  8
D1
  6
ByLayer
 62
  256
370
   18
100
AcDbPolyline
 90
    5
 70
    1
 43
0
 10
16.5
 20
-16.59999999999999
 10
17.5
 20
-16.59999999999999
 10
17.5
 20
-16.7
 10
16.5
 20
-16.7
 10
16.5
 20
-16.7
  0
LWPOLYLINE
  5
1E1
100
AcDbEntity
  8
D1
  6
ByLayer
 62
  256
370
   18
100
AcDbPolyline
 90
    5
 70
    1
 43
0
 10
16.5
 20
-16.89999999999999
 10
17.5
 20
-16.89999999999999
 10
17.5
 20
-16.99999999999999
 10
16.5
 20
-16.99999999999999
 10
16.5
 20
-16.99999999999999
  0
LWPOLYLINE
  5
1E2
100
AcDbEntity
  8
D1
  6
ByLayer
 62
  256
370
   18
100
AcDbPolyline
 90
    5
 70
    1
 43
0
 10
16.5
 20
-17.2
 10
17.5
 20
-17.2
 10
17.5
 20
-17.3
 10
16.5
 20
-17.3
 10
16.5
 20
-17.3
  0
LWPOLYLINE
  5
1E3
100
AcDbEntity
  8
D1
  6
ByLayer
 62
  256
370
   18
100
AcDbPolyline
 90
    5
 70
    1
 43
0
 10
16.5
 20
-17.49999999999999
 10
17.5
 20
-17.49999999999999
 10
17.5
 20
-17.59999999999999
 10
16.5
 20
-17.59999999999999
 10
16.5
 20
-17.59999999999999
  0
LWPOLYLINE
  5
1E4
100
AcDbEntity
  8
D1
  6
ByLayer
 62
  256
370
   18
100
AcDbPolyline
 90
    5
 70
    1
 43
0
 10
16.5
 20
-17.8
 10
17.5
 20
-17.8
 10
17.5
 20
-17.9
 10
16.5
 20
-17.9
 10
16.5
 20
-17.9
  0
LWPOLYLINE
  5
1E5
100
AcDbEntity
  8
D1
  6
ByLayer
 62
  256
370
   18
100
AcDbPolyline
 90
    6
 70
    1
 43
0
 10
16.5
 20
-15.99999999999999
 10
17.5
 20
-15.99999999999999
 10
17.5
 20
-16.09999999999999
 10
16.5
 20
-16.09999999999999
 10
16.5
 20
-16.09999999999999
 10
16.5
 20
-16.09999999999999
  0
LINE
  5
1E6
100
AcDbEntity
  8
D1
  6
ByLayer
 62
  256
370
   18
100
AcDbLine
 10
16.6
 20
-14.99999999999999
 11
16.6
 21
-17.99999999999999
  0
LINE
  5
1E7
100
AcDbEntity
  8
D1
  6
ByLayer
 62
  256
370
   18
100
AcDbLine
 10
17.4
 20
-14.99999999999999
 11
17.4
 21
-17.99999999999999
  0
LWPOLYLINE
  5
1E8
100
AcDbEntity
  8
D1
  6
ByLayer
 62
  256
370
   18
100
AcDbPolyline
 90
    5
 70
    1
 43
0
 10
16.5
 20
-12.09999999999999
 10
17.5
 20
-12.09999999999999
 10
17.5
 20
-12.2
 10
16.5
 20
-12.2
 10
16.5
 20
-12.2
  0
LWPOLYLINE
  5
1E9
100
AcDbEntity
  8
D1
  6
ByLayer
 62
  256
370
   18
100
AcDbPolyline
 90
    5
 70
    1
 43
0
 10
16.5
 20
-12.39999999999999
 10
17.5
 20
-12.39999999999999
 10
17.5
 20
-12.49999999999999
 10
16.5
 20
-12.49999999999999
 10
16.5
 20
-12.49999999999999
  0
LWPOLYLINE
  5
1EA
100
AcDbEntity
  8
D1
  6
ByLayer
 62
  256
370
   18
100
AcDbPolyline
 90
    5
 70
    1
 43
0
 10
16.5
 20
-12.7
 10
17.5
 20
-12.7
 10
17.5
 20
-12.8
 10
16.5
 20
-12.8
 10
16.5
 20
-12.8
  0
LWPOLYLINE
  5
1EB
100
AcDbEntity
  8
D1
  6
ByLayer
 62
  256
370
   18
100
AcDbPolyline
 90
    5
 70
    1
 43
0
 10
16.5
 20
-13.29999999999999
 10
17.5
 20
-13.29999999999999
 10
17.5
 20
-13.39999999999999
 10
16.5
 20
-13.39999999999999
 10
16.5
 20
-13.39999999999999
  0
LWPOLYLINE
  5
1EC
100
AcDbEntity
  8
D1
  6
ByLayer
 62
  256
370
   18
100
AcDbPolyline
 90
    5
 70
    1
 43
0
 10
16.5
 20
-13.59999999999999
 10
17.5
 20
-13.59999999999999
 10
17.5
 20
-13.7
 10
16.5
 20
-13.7
 10
16.5
 20
-13.7
  0
LWPOLYLINE
  5
1ED
100
AcDbEntity
  8
D1
  6
ByLayer
 62
  256
370
   18
100
AcDbPolyline
 90
    5
 70
    1
 43
0
 10
16.5
 20
-13.89999999999999
 10
17.5
 20
-13.89999999999999
 10
17.5
 20
-13.99999999999999
 10
16.5
 20
-13.99999999999999
 10
16.5
 20
-13.99999999999999
  0
LWPOLYLINE
  5
1EE
100
AcDbEntity
  8
D1
  6
ByLayer
 62
  256
370
   18
100
AcDbPolyline
 90
    5
 70
    1
 43
0
 10
16.5
 20
-14.2
 10
17.5
 20
-14.2
 10
17.5
 20
-14.3
 10
16.5
 20
-14.3
 10
16.5
 20
-14.3
  0
LWPOLYLINE
  5
1EF
100
AcDbEntity
  8
D1
  6
ByLayer
 62
  256
370
   18
100
AcDbPolyline
 90
    5
 70
    1
 43
0
 10
16.5
 20
-14.49999999999999
 10
17.5
 20
-14.49999999999999
 10
17.5
 20
-14.59999999999999
 10
16.5
 20
-14.59999999999999
 10
16.5
 20
-14.59999999999999
  0
LWPOLYLINE
  5
1F0
100
AcDbEntity
  8
D1
  6
ByLayer
 62
  256
370
   18
100
AcDbPolyline
 90
    5
 70
    1
 43
0
 10
16.5
 20
-14.8
 10
17.5
 20
-14.8
 10
17.5
 20
-14.9
 10
16.5
 20
-14.9
 10
16.5
 20
-14.9
  0
LWPOLYLINE
  5
1F1
100
AcDbEntity
  8
D1
  6
ByLayer
 62
  256
370
   18
100
AcDbPolyline
 90
    6
 70
    1
 43
0
 10
16.5
 20
-12.99999999999999
 10
17.5
 20
-12.99999999999999
 10
17.5
 20
-13.09999999999999
 10
16.5
 20
-13.09999999999999
 10
16.5
 20
-13.09999999999999
 10
16.5
 20
-13.09999999999999
  0
LINE
  5
1F2
100
AcDbEntity
  8
D1
  6
ByLayer
 62
  256
370
   18
100
AcDbLine
 10
16.6
 20
-11.99999999999999
 11
16.6
 21
-14.99999999999999
  0
LINE
  5
1F3
100
AcDbEntity
  8
D1
  6
ByLayer
 62
  256
370
   18
100
AcDbLine
 10
17.4
 20
-11.99999999999999
 11
17.4
 21
-14.99999999999999
  0
LWPOLYLINE
  5
1F4
100
AcDbEntity
  8
D1
  6
ByLayer
 62
  256
370
   18
100
AcDbPolyline
 90
    5
 70
    1
 43
0
 10
16.5
 20
-9.099999999999994
 10
17.5
 20
-9.099999999999994
 10
17.5
 20
-9.199999999999996
 10
16.5
 20
-9.199999999999996
 10
16.5
 20
-9.199999999999996
  0
LWPOLYLINE
  5
1F5
100
AcDbEntity
  8
D1
  6
ByLayer
 62
  256
370
   18
100
AcDbPolyline
 90
    5
 70
    1
 43
0
 10
16.5
 20
-9.399999999999991
 10
17.5
 20
-9.399999999999991
 10
17.5
 20
-9.499999999999993
 10
16.5
 20
-9.499999999999993
 10
16.5
 20
-9.499999999999993
  0
LWPOLYLINE
  5
1F6
100
AcDbEntity
  8
D1
  6
ByLayer
 62
  256
370
   18
100
AcDbPolyline
 90
    5
 70
    1
 43
0
 10
16.5
 20
-9.699999999999996
 10
17.5
 20
-9.699999999999996
 10
17.5
 20
-9.799999999999997
 10
16.5
 20
-9.799999999999997
 10
16.5
 20
-9.799999999999997
  0
LWPOLYLINE
  5
1F7
100
AcDbEntity
  8
D1
  6
ByLayer
 62
  256
370
   18
100
AcDbPolyline
 90
    5
 70
    1
 43
0
 10
16.5
 20
-10.29999999999999
 10
17.5
 20
-10.29999999999999
 10
17.5
 20
-10.39999999999999
 10
16.5
 20
-10.39999999999999
 10
16.5
 20
-10.39999999999999
  0
LWPOLYLINE
  5
1F8
100
AcDbEntity
  8
D1
  6
ByLayer
 62
  256
370
   18
100
AcDbPolyline
 90
    5
 70
    1
 43
0
 10
16.5
 20
-10.59999999999999
 10
17.5
 20
-10.59999999999999
 10
17.5
 20
-10.7
 10
16.5
 20
-10.7
 10
16.5
 20
-10.7
  0
LWPOLYLINE
  5
1F9
100
AcDbEntity
  8
D1
  6
ByLayer
 62
  256
370
   18
100
AcDbPolyline
 90
    5
 70
    1
 43
0
 10
16.5
 20
-10.89999999999999
 10
17.5
 20
-10.89999999999999
 10
17.5
 20
-10.99999999999999
 10
16.5
 20
-10.99999999999999
 10
16.5
 20
-10.99999999999999
  0
LWPOLYLINE
  5
1FA
100
AcDbEntity
  8
D1
  6
ByLayer
 62
  256
370
   18
100
AcDbPolyline
 90
    5
 70
    1
 43
0
 10
16.5
 20
-11.2
 10
17.5
 20
-11.2
 10
17.5
 20
-11.3
 10
16.5
 20
-11.3
 10
16.5
 20
-11.3
  0
LWPOLYLINE
  5
1FB
100
AcDbEntity
  8
D1
  6
ByLayer
 62
  256
370
   18
100
AcDbPolyline
 90
    5
 70
    1
 43
0
 10
16.5
 20
-11.49999999999999
 10
17.5
 20
-11.49999999999999
 10
17.5
 20
-11.59999999999999
 10
16.5
 20
-11.59999999999999
 10
16.5
 20
-11.59999999999999
  0
LWPOLYLINE
  5
1FC
100
AcDbEntity
  8
D1
  6
ByLayer
 62
  256
370
   18
100
AcDbPolyline
 90
    5
 70
    1
 43
0
 10
16.5
 20
-11.8
 10
17.5
 20
-11.8
 10
17.5
 20
-11.9
 10
16.5
 20
-11.9
 10
16.5
 20
-11.9
  0
LWPOLYLINE
  5
1FD
100
AcDbEntity
  8
D1
  6
ByLayer
 62
  256
370
   18
100
AcDbPolyline
 90
    6
 70
    1
 43
0
 10
16.5
 20
-9.999999999999993
 10
17.5
 20
-9.999999999999993
 10
17.5
 20
-10.09999999999999
 10
16.5
 20
-10.09999999999999
 10
16.5
 20
-10.09999999999999
 10
16.5
 20
-10.09999999999999
  0
LINE
  5
1FE
100
AcDbEntity
  8
D1
  6
ByLayer
 62
  256
370
   18
100
AcDbLine
 10
16.6
 20
-8.999999999999993
 11
16.6
 21
-11.99999999999999
  0
LINE
  5
1FF
100
AcDbEntity
  8
D1
  6
ByLayer
 62
  256
370
   18
100
AcDbLine
 10
17.4
 20
-8.999999999999993
 11
17.4
 21
-11.99999999999999
  0
LWPOLYLINE
  5
200
100
AcDbEntity
  8
D1
  6
ByLayer
 62
  256
370
   18
100
AcDbPolyline
 90
    5
 70
    1
 43
0
 10
16.5
 20
-7.29999999999999
 10
17.5
 20
-7.29999999999999
 10
17.5
 20
-7.399999999999991
 10
16.5
 20
-7.399999999999991
 10
16.5
 20
-7.399999999999991
  0
LWPOLYLINE
  5
201
100
AcDbEntity
  8
D1
  6
ByLayer
 62
  256
370
   18
100
AcDbPolyline
 90
    5
 70
    1
 43
0
 10
16.5
 20
-7.599999999999994
 10
17.5
 20
-7.599999999999994
 10
17.5
 20
-7.699999999999996
 10
16.5
 20
-7.699999999999996
 10
16.5
 20
-7.699999999999996
  0
LWPOLYLINE
  5
202
100
AcDbEntity
  8
D1
  6
ByLayer
 62
  256
370
   18
100
AcDbPolyline
 90
    5
 70
    1
 43
0
 10
16.5
 20
-7.899999999999991
 10
17.5
 20
-7.899999999999991
 10
17.5
 20
-7.999999999999993
 10
16.5
 20
-7.999999999999993
 10
16.5
 20
-7.999999999999993
  0
LWPOLYLINE
  5
203
100
AcDbEntity
  8
D1
  6
ByLayer
 62
  256
370
   18
100
AcDbPolyline
 90
    5
 70
    1
 43
0
 10
16.5
 20
-8.199999999999996
 10
17.5
 20
-8.199999999999996
 10
17.5
 20
-8.299999999999997
 10
16.5
 20
-8.299999999999997
 10
16.5
 20
-8.299999999999997
  0
LWPOLYLINE
  5
204
100
AcDbEntity
  8
D1
  6
ByLayer
 62
  256
370
   18
100
AcDbPolyline
 90
    5
 70
    1
 43
0
 10
16.5
 20
-8.499999999999993
 10
17.5
 20
-8.499999999999993
 10
17.5
 20
-8.599999999999994
 10
16.5
 20
-8.599999999999994
 10
16.5
 20
-8.599999999999994
  0
LWPOLYLINE
  5
205
100
AcDbEntity
  8
D1
  6
ByLayer
 62
  256
370
   18
100
AcDbPolyline
 90
    5
 70
    1
 43
0
 10
16.5
 20
-8.799999999999997
 10
17.5
 20
-8.799999999999997
 10
17.5
 20
-8.899999999999999
 10
16.5
 20
-8.899999999999999
 10
16.5
 20
-8.899999999999999
  0
LWPOLYLINE
  5
206
100
AcDbEntity
  8
D1
  6
ByLayer
 62
  256
370
   18
100
AcDbPolyline
 90
    6
 70
    1
 43
0
 10
16.5
 20
-6.999999999999993
 10
17.5
 20
-6.999999999999993
 10
17.5
 20
-7.099999999999994
 10
16.5
 20
-7.099999999999994
 10
16.5
 20
-7.099999999999994
 10
16.5
 20
-7.099999999999994
  0
LWPOLYLINE
  5
207
100
AcDbEntity
  8
D1
  6
ByLayer
 62
  256
370
   18
100
AcDbPolyline
 90
    5
 70
    1
 43
0
 10
14
 20
-42.09999999999999
 10
15
 20
-42.09999999999999
 10
15
 20
-42.19999999999999
 10
14
 20
-42.19999999999999
 10
14
 20
-42.19999999999999
  0
LWPOLYLINE
  5
208
100
AcDbEntity
  8
D1
  6
ByLayer
 62
  256
370
   18
100
AcDbPolyline
 90
    5
 70
    1
 43
0
 10
14
 20
-42.39999999999998
 10
15
 20
-42.39999999999998
 10
15
 20
-42.49999999999999
 10
14
 20
-42.49999999999999
 10
14
 20
-42.49999999999999
  0
LWPOLYLINE
  5
209
100
AcDbEntity
  8
D1
  6
ByLayer
 62
  256
370
   18
100
AcDbPolyline
 90
    5
 70
    1
 43
0
 10
14
 20
-42.69999999999999
 10
15
 20
-42.69999999999999
 10
15
 20
-42.79999999999999
 10
14
 20
-42.79999999999999
 10
14
 20
-42.79999999999999
  0
LWPOLYLINE
  5
20A
100
AcDbEntity
  8
D1
  6
ByLayer
 62
  256
370
   18
100
AcDbPolyline
 90
    5
 70
    1
 43
0
 10
14
 20
-43.29999999999998
 10
15
 20
-43.29999999999998
 10
15
 20
-43.39999999999998
 10
14
 20
-43.39999999999998
 10
14
 20
-43.39999999999998
  0
LWPOLYLINE
  5
20B
100
AcDbEntity
  8
D1
  6
ByLayer
 62
  256
370
   18
100
AcDbPolyline
 90
    5
 70
    1
 43
0
 10
14
 20
-43.59999999999999
 10
15
 20
-43.59999999999999
 10
15
 20
-43.69999999999999
 10
14
 20
-43.69999999999999
 10
14
 20
-43.69999999999999
  0
LWPOLYLINE
  5
20C
100
AcDbEntity
  8
D1
  6
ByLayer
 62
  256
370
   18
100
AcDbPolyline
 90
    5
 70
    1
 43
0
 10
14
 20
-43.89999999999998
 10
15
 20
-43.89999999999998
 10
15
 20
-43.99999999999999
 10
14
 20
-43.99999999999999
 10
14
 20
-43.99999999999999
  0
LWPOLYLINE
  5
20D
100
AcDbEntity
  8
D1
  6
ByLayer
 62
  256
370
   18
100
AcDbPolyline
 90
    5
 70
    1
 43
0
 10
14
 20
-44.19999999999999
 10
15
 20
-44.19999999999999
 10
15
 20
-44.29999999999999
 10
14
 20
-44.29999999999999
 10
14
 20
-44.29999999999999
  0
LWPOLYLINE
  5
20E
100
AcDbEntity
  8
D1
  6
ByLayer
 62
  256
370
   18
100
AcDbPolyline
 90
    5
 70
    1
 43
0
 10
14
 20
-44.49999999999999
 10
15
 20
-44.49999999999999
 10
15
 20
-44.59999999999999
 10
14
 20
-44.59999999999999
 10
14
 20
-44.59999999999999
  0
LWPOLYLINE
  5
20F
100
AcDbEntity
  8
D1
  6
ByLayer
 62
  256
370
   18
100
AcDbPolyline
 90
    5
 70
    1
 43
0
 10
14
 20
-44.79999999999999
 10
15
 20
-44.79999999999999
 10
15
 20
-44.89999999999999
 10
14
 20
-44.89999999999999
 10
14
 20
-44.89999999999999
  0
LWPOLYLINE
  5
210
100
AcDbEntity
  8
D1
  6
ByLayer
 62
  256
370
   18
100
AcDbPolyline
 90
    6
 70
    1
 43
0
 10
14
 20
-42.99999999999999
 10
15
 20
-42.99999999999999
 10
15
 20
-43.09999999999999
 10
14
 20
-43.09999999999999
 10
14
 20
-43.09999999999999
 10
14
 20
-43.09999999999999
  0
LINE
  5
211
100
AcDbEntity
  8
D1
  6
ByLayer
 62
  256
370
   18
100
AcDbLine
 10
14.1
 20
-41.99999999999999
 11
14.1
 21
-44.99999999999999
  0
LINE
  5
212
100
AcDbEntity
  8
D1
  6
ByLayer
 62
  256
370
   18
100
AcDbLine
 10
14.9
 20
-41.99999999999999
 11
14.9
 21
-44.99999999999999
  0
LWPOLYLINE
  5
213
100
AcDbEntity
  8
D1
  6
ByLayer
 62
  256
370
   18
100
AcDbPolyline
 90
    5
 70
    1
 43
0
 10
14
 20
-39.09999999999999
 10
15
 20
-39.09999999999999
 10
15
 20
-39.19999999999999
 10
14
 20
-39.19999999999999
 10
14
 20
-39.19999999999999
  0
LWPOLYLINE
  5
214
100
AcDbEntity
  8
D1
  6
ByLayer
 62
  256
370
   18
100
AcDbPolyline
 90
    5
 70
    1
 43
0
 10
14
 20
-39.39999999999998
 10
15
 20
-39.39999999999998
 10
15
 20
-39.49999999999999
 10
14
 20
-39.49999999999999
 10
14
 20
-39.49999999999999
  0
LWPOLYLINE
  5
215
100
AcDbEntity
  8
D1
  6
ByLayer
 62
  256
370
   18
100
AcDbPolyline
 90
    5
 70
    1
 43
0
 10
14
 20
-39.69999999999999
 10
15
 20
-39.69999999999999
 10
15
 20
-39.79999999999999
 10
14
 20
-39.79999999999999
 10
14
 20
-39.79999999999999
  0
LWPOLYLINE
  5
216
100
AcDbEntity
  8
D1
  6
ByLayer
 62
  256
370
   18
100
AcDbPolyline
 90
    5
 70
    1
 43
0
 10
14
 20
-40.29999999999998
 10
15
 20
-40.29999999999998
 10
15
 20
-40.39999999999998
 10
14
 20
-40.39999999999998
 10
14
 20
-40.39999999999998
  0
LWPOLYLINE
  5
217
100
AcDbEntity
  8
D1
  6
ByLayer
 62
  256
370
   18
100
AcDbPolyline
 90
    5
 70
    1
 43
0
 10
14
 20
-40.59999999999999
 10
15
 20
-40.59999999999999
 10
15
 20
-40.69999999999999
 10
14
 20
-40.69999999999999
 10
14
 20
-40.69999999999999
  0
LWPOLYLINE
  5
218
100
AcDbEntity
  8
D1
  6
ByLayer
 62
  256
370
   18
100
AcDbPolyline
 90
    5
 70
    1
 43
0
 10
14
 20
-40.89999999999998
 10
15
 20
-40.89999999999998
 10
15
 20
-40.99999999999999
 10
14
 20
-40.99999999999999
 10
14
 20
-40.99999999999999
  0
LWPOLYLINE
  5
219
100
AcDbEntity
  8
D1
  6
ByLayer
 62
  256
370
   18
100
AcDbPolyline
 90
    5
 70
    1
 43
0
 10
14
 20
-41.19999999999999
 10
15
 20
-41.19999999999999
 10
15
 20
-41.29999999999999
 10
14
 20
-41.29999999999999
 10
14
 20
-41.29999999999999
  0
LWPOLYLINE
  5
21A
100
AcDbEntity
  8
D1
  6
ByLayer
 62
  256
370
   18
100
AcDbPolyline
 90
    5
 70
    1
 43
0
 10
14
 20
-41.49999999999999
 10
15
 20
-41.49999999999999
 10
15
 20
-41.59999999999999
 10
14
 20
-41.59999999999999
 10
14
 20
-41.59999999999999
  0
LWPOLYLINE
  5
21B
100
AcDbEntity
  8
D1
  6
ByLayer
 62
  256
370
   18
100
AcDbPolyline
 90
    5
 70
    1
 43
0
 10
14
 20
-41.79999999999999
 10
15
 20
-41.79999999999999
 10
15
 20
-41.89999999999999
 10
14
 20
-41.89999999999999
 10
14
 20
-41.89999999999999
  0
LWPOLYLINE
  5
21C
100
AcDbEntity
  8
D1
  6
ByLayer
 62
  256
370
   18
100
AcDbPolyline
 90
    6
 70
    1
 43
0
 10
14
 20
-39.99999999999999
 10
15
 20
-39.99999999999999
 10
15
 20
-40.09999999999999
 10
14
 20
-40.09999999999999
 10
14
 20
-40.09999999999999
 10
14
 20
-40.09999999999999
  0
LINE
  5
21D
100
AcDbEntity
  8
D1
  6
ByLayer
 62
  256
370
   18
100
AcDbLine
 10
14.1
 20
-38.99999999999999
 11
14.1
 21
-41.99999999999999
  0
LINE
  5
21E
100
AcDbEntity
  8
D1
  6
ByLayer
 62
  256
370
   18
100
AcDbLine
 10
14.9
 20
-38.99999999999999
 11
14.9
 21
-41.99999999999999
  0
LWPOLYLINE
  5
21F
100
AcDbEntity
  8
D1
  6
ByLayer
 62
  256
370
   18
100
AcDbPolyline
 90
    5
 70
    1
 43
0
 10
14
 20
-36.09999999999999
 10
15
 20
-36.09999999999999
 10
15
 20
-36.19999999999999
 10
14
 20
-36.19999999999999
 10
14
 20
-36.19999999999999
  0
LWPOLYLINE
  5
220
100
AcDbEntity
  8
D1
  6
ByLayer
 62
  256
370
   18
100
AcDbPolyline
 90
    5
 70
    1
 43
0
 10
14
 20
-36.39999999999998
 10
15
 20
-36.39999999999998
 10
15
 20
-36.49999999999999
 10
14
 20
-36.49999999999999
 10
14
 20
-36.49999999999999
  0
LWPOLYLINE
  5
221
100
AcDbEntity
  8
D1
  6
ByLayer
 62
  256
370
   18
100
AcDbPolyline
 90
    5
 70
    1
 43
0
 10
14
 20
-36.69999999999999
 10
15
 20
-36.69999999999999
 10
15
 20
-36.79999999999999
 10
14
 20
-36.79999999999999
 10
14
 20
-36.79999999999999
  0
LWPOLYLINE
  5
222
100
AcDbEntity
  8
D1
  6
ByLayer
 62
  256
370
   18
100
AcDbPolyline
 90
    5
 70
    1
 43
0
 10
14
 20
-37.29999999999998
 10
15
 20
-37.29999999999998
 10
15
 20
-37.39999999999998
 10
14
 20
-37.39999999999998
 10
14
 20
-37.39999999999998
  0
LWPOLYLINE
  5
223
100
AcDbEntity
  8
D1
  6
ByLayer
 62
  256
370
   18
100
AcDbPolyline
 90
    5
 70
    1
 43
0
 10
14
 20
-37.59999999999999
 10
15
 20
-37.59999999999999
 10
15
 20
-37.69999999999999
 10
14
 20
-37.69999999999999
 10
14
 20
-37.69999999999999
  0
LWPOLYLINE
  5
224
100
AcDbEntity
  8
D1
  6
ByLayer
 62
  256
370
   18
100
AcDbPolyline
 90
    5
 70
    1
 43
0
 10
14
 20
-37.89999999999998
 10
15
 20
-37.89999999999998
 10
15
 20
-37.99999999999999
 10
14
 20
-37.99999999999999
 10
14
 20
-37.99999999999999
  0
LWPOLYLINE
  5
225
100
AcDbEntity
  8
D1
  6
ByLayer
 62
  256
370
   18
100
AcDbPolyline
 90
    5
 70
    1
 43
0
 10
14
 20
-38.19999999999999
 10
15
 20
-38.19999999999999
 10
15
 20
-38.29999999999999
 10
14
 20
-38.29999999999999
 10
14
 20
-38.29999999999999
  0
LWPOLYLINE
  5
226
100
AcDbEntity
  8
D1
  6
ByLayer
 62
  256
370
   18
100
AcDbPolyline
 90
    5
 70
    1
 43
0
 10
14
 20
-38.49999999999999
 10
15
 20
-38.49999999999999
 10
15
 20
-38.59999999999999
 10
14
 20
-38.59999999999999
 10
14
 20
-38.59999999999999
  0
LWPOLYLINE
  5
227
100
AcDbEntity
  8
D1
  6
ByLayer
 62
  256
370
   18
100
AcDbPolyline
 90
    5
 70
    1
 43
0
 10
14
 20
-38.79999999999999
 10
15
 20
-38.79999999999999
 10
15
 20
-38.89999999999999
 10
14
 20
-38.89999999999999
 10
14
 20
-38.89999999999999
  0
LWPOLYLINE
  5
228
100
AcDbEntity
  8
D1
  6
ByLayer
 62
  256
370
   18
100
AcDbPolyline
 90
    6
 70
    1
 43
0
 10
14
 20
-36.99999999999999
 10
15
 20
-36.99999999999999
 10
15
 20
-37.09999999999999
 10
14
 20
-37.09999999999999
 10
14
 20
-37.09999999999999
 10
14
 20
-37.09999999999999
  0
LINE
  5
229
100
AcDbEntity
  8
D1
  6
ByLayer
 62
  256
370
   18
100
AcDbLine
 10
14.1
 20
-35.99999999999999
 11
14.1
 21
-38.99999999999999
  0
LINE
  5
22A
100
AcDbEntity
  8
D1
  6
ByLayer
 62
  256
370
   18
100
AcDbLine
 10
14.9
 20
-35.99999999999999
 11
14.9
 21
-38.99999999999999
  0
LWPOLYLINE
  5
22B
100
AcDbEntity
  8
D1
  6
ByLayer
 62
  256
370
   18
100
AcDbPolyline
 90
    5
 70
    1
 43
0
 10
14
 20
-33.09999999999999
 10
15
 20
-33.09999999999999
 10
15
 20
-33.19999999999999
 10
14
 20
-33.19999999999999
 10
14
 20
-33.19999999999999
  0
LWPOLYLINE
  5
22C
100
AcDbEntity
  8
D1
  6
ByLayer
 62
  256
370
   18
100
AcDbPolyline
 90
    5
 70
    1
 43
0
 10
14
 20
-33.39999999999998
 10
15
 20
-33.39999999999998
 10
15
 20
-33.49999999999999
 10
14
 20
-33.49999999999999
 10
14
 20
-33.49999999999999
  0
LWPOLYLINE
  5
22D
100
AcDbEntity
  8
D1
  6
ByLayer
 62
  256
370
   18
100
AcDbPolyline
 90
    5
 70
    1
 43
0
 10
14
 20
-33.69999999999999
 10
15
 20
-33.69999999999999
 10
15
 20
-33.79999999999999
 10
14
 20
-33.79999999999999
 10
14
 20
-33.79999999999999
  0
LWPOLYLINE
  5
22E
100
AcDbEntity
  8
D1
  6
ByLayer
 62
  256
370
   18
100
AcDbPolyline
 90
    5
 70
    1
 43
0
 10
14
 20
-34.29999999999998
 10
15
 20
-34.29999999999998
 10
15
 20
-34.39999999999998
 10
14
 20
-34.39999999999998
 10
14
 20
-34.39999999999998
  0
LWPOLYLINE
  5
22F
100
AcDbEntity
  8
D1
  6
ByLayer
 62
  256
370
   18
100
AcDbPolyline
 90
    5
 70
    1
 43
0
 10
14
 20
-34.59999999999999
 10
15
 20
-34.59999999999999
 10
15
 20
-34.69999999999999
 10
14
 20
-34.69999999999999
 10
14
 20
-34.69999999999999
  0
LWPOLYLINE
  5
230
100
AcDbEntity
  8
D1
  6
ByLayer
 62
  256
370
   18
100
AcDbPolyline
 90
    5
 70
    1
 43
0
 10
14
 20
-34.89999999999998
 10
15
 20
-34.89999999999998
 10
15
 20
-34.99999999999999
 10
14
 20
-34.99999999999999
 10
14
 20
-34.99999999999999
  0
LWPOLYLINE
  5
231
100
AcDbEntity
  8
D1
  6
ByLayer
 62
  256
370
   18
100
AcDbPolyline
 90
    5
 70
    1
 43
0
 10
14
 20
-35.19999999999999
 10
15
 20
-35.19999999999999
 10
15
 20
-35.29999999999999
 10
14
 20
-35.29999999999999
 10
14
 20
-35.29999999999999
  0
LWPOLYLINE
  5
232
100
AcDbEntity
  8
D1
  6
ByLayer
 62
  256
370
   18
100
AcDbPolyline
 90
    5
 70
    1
 43
0
 10
14
 20
-35.49999999999999
 10
15
 20
-35.49999999999999
 10
15
 20
-35.59999999999999
 10
14
 20
-35.59999999999999
 10
14
 20
-35.59999999999999
  0
LWPOLYLINE
  5
233
100
AcDbEntity
  8
D1
  6
ByLayer
 62
  256
370
   18
100
AcDbPolyline
 90
    5
 70
    1
 43
0
 10
14
 20
-35.79999999999999
 10
15
 20
-35.79999999999999
 10
15
 20
-35.89999999999999
 10
14
 20
-35.89999999999999
 10
14
 20
-35.89999999999999
  0
LWPOLYLINE
  5
234
100
AcDbEntity
  8
D1
  6
ByLayer
 62
  256
370
   18
100
AcDbPolyline
 90
    6
 70
    1
 43
0
 10
14
 20
-33.99999999999999
 10
15
 20
-33.99999999999999
 10
15
 20
-34.09999999999999
 10
14
 20
-34.09999999999999
 10
14
 20
-34.09999999999999
 10
14
 20
-34.09999999999999
  0
LINE
  5
235
100
AcDbEntity
  8
D1
  6
ByLayer
 62
  256
370
   18
100
AcDbLine
 10
14.1
 20
-32.99999999999999
 11
14.1
 21
-35.99999999999999
  0
LINE
  5
236
100
AcDbEntity
  8
D1
  6
ByLayer
 62
  256
370
   18
100
AcDbLine
 10
14.9
 20
-32.99999999999999
 11
14.9
 21
-35.99999999999999
  0
LWPOLYLINE
  5
237
100
AcDbEntity
  8
D1
  6
ByLayer
 62
  256
370
   18
100
AcDbPolyline
 90
    5
 70
    1
 43
0
 10
14
 20
-30.09999999999999
 10
15
 20
-30.09999999999999
 10
15
 20
-30.19999999999999
 10
14
 20
-30.19999999999999
 10
14
 20
-30.19999999999999
  0
LWPOLYLINE
  5
238
100
AcDbEntity
  8
D1
  6
ByLayer
 62
  256
370
   18
100
AcDbPolyline
 90
    5
 70
    1
 43
0
 10
14
 20
-30.39999999999998
 10
15
 20
-30.39999999999998
 10
15
 20
-30.49999999999999
 10
14
 20
-30.49999999999999
 10
14
 20
-30.49999999999999
  0
LWPOLYLINE
  5
239
100
AcDbEntity
  8
D1
  6
ByLayer
 62
  256
370
   18
100
AcDbPolyline
 90
    5
 70
    1
 43
0
 10
14
 20
-30.69999999999999
 10
15
 20
-30.69999999999999
 10
15
 20
-30.79999999999999
 10
14
 20
-30.79999999999999
 10
14
 20
-30.79999999999999
  0
LWPOLYLINE
  5
23A
100
AcDbEntity
  8
D1
  6
ByLayer
 62
  256
370
   18
100
AcDbPolyline
 90
    5
 70
    1
 43
0
 10
14
 20
-31.29999999999998
 10
15
 20
-31.29999999999998
 10
15
 20
-31.39999999999998
 10
14
 20
-31.39999999999998
 10
14
 20
-31.39999999999998
  0
LWPOLYLINE
  5
23B
100
AcDbEntity
  8
D1
  6
ByLayer
 62
  256
370
   18
100
AcDbPolyline
 90
    5
 70
    1
 43
0
 10
14
 20
-31.59999999999999
 10
15
 20
-31.59999999999999
 10
15
 20
-31.69999999999999
 10
14
 20
-31.69999999999999
 10
14
 20
-31.69999999999999
  0
LWPOLYLINE
  5
23C
100
AcDbEntity
  8
D1
  6
ByLayer
 62
  256
370
   18
100
AcDbPolyline
 90
    5
 70
    1
 43
0
 10
14
 20
-31.89999999999998
 10
15
 20
-31.89999999999998
 10
15
 20
-31.99999999999999
 10
14
 20
-31.99999999999999
 10
14
 20
-31.99999999999999
  0
LWPOLYLINE
  5
23D
100
AcDbEntity
  8
D1
  6
ByLayer
 62
  256
370
   18
100
AcDbPolyline
 90
    5
 70
    1
 43
0
 10
14
 20
-32.19999999999999
 10
15
 20
-32.19999999999999
 10
15
 20
-32.29999999999999
 10
14
 20
-32.29999999999999
 10
14
 20
-32.29999999999999
  0
LWPOLYLINE
  5
23E
100
AcDbEntity
  8
D1
  6
ByLayer
 62
  256
370
   18
100
AcDbPolyline
 90
    5
 70
    1
 43
0
 10
14
 20
-32.49999999999999
 10
15
 20
-32.49999999999999
 10
15
 20
-32.59999999999999
 10
14
 20
-32.59999999999999
 10
14
 20
-32.59999999999999
  0
LWPOLYLINE
  5
23F
100
AcDbEntity
  8
D1
  6
ByLayer
 62
  256
370
   18
100
AcDbPolyline
 90
    5
 70
    1
 43
0
 10
14
 20
-32.79999999999999
 10
15
 20
-32.79999999999999
 10
15
 20
-32.89999999999999
 10
14
 20
-32.89999999999999
 10
14
 20
-32.89999999999999
  0
LWPOLYLINE
  5
240
100
AcDbEntity
  8
D1
  6
ByLayer
 62
  256
370
   18
100
AcDbPolyline
 90
    6
 70
    1
 43
0
 10
14
 20
-30.99999999999999
 10
15
 20
-30.99999999999999
 10
15
 20
-31.09999999999999
 10
14
 20
-31.09999999999999
 10
14
 20
-31.09999999999999
 10
14
 20
-31.09999999999999
  0
LINE
  5
241
100
AcDbEntity
  8
D1
  6
ByLayer
 62
  256
370
   18
100
AcDbLine
 10
14.1
 20
-29.99999999999999
 11
14.1
 21
-32.99999999999999
  0
LINE
  5
242
100
AcDbEntity
  8
D1
  6
ByLayer
 62
  256
370
   18
100
AcDbLine
 10
14.9
 20
-29.99999999999999
 11
14.9
 21
-32.99999999999999
  0
LWPOLYLINE
  5
243
100
AcDbEntity
  8
D1
  6
ByLayer
 62
  256
370
   18
100
AcDbPolyline
 90
    5
 70
    1
 43
0
 10
14
 20
-27.09999999999999
 10
15
 20
-27.09999999999999
 10
15
 20
-27.19999999999999
 10
14
 20
-27.19999999999999
 10
14
 20
-27.19999999999999
  0
LWPOLYLINE
  5
244
100
AcDbEntity
  8
D1
  6
ByLayer
 62
  256
370
   18
100
AcDbPolyline
 90
    5
 70
    1
 43
0
 10
14
 20
-27.39999999999998
 10
15
 20
-27.39999999999998
 10
15
 20
-27.49999999999999
 10
14
 20
-27.49999999999999
 10
14
 20
-27.49999999999999
  0
LWPOLYLINE
  5
245
100
AcDbEntity
  8
D1
  6
ByLayer
 62
  256
370
   18
100
AcDbPolyline
 90
    5
 70
    1
 43
0
 10
14
 20
-27.69999999999999
 10
15
 20
-27.69999999999999
 10
15
 20
-27.79999999999999
 10
14
 20
-27.79999999999999
 10
14
 20
-27.79999999999999
  0
LWPOLYLINE
  5
246
100
AcDbEntity
  8
D1
  6
ByLayer
 62
  256
370
   18
100
AcDbPolyline
 90
    5
 70
    1
 43
0
 10
14
 20
-28.29999999999998
 10
15
 20
-28.29999999999998
 10
15
 20
-28.39999999999998
 10
14
 20
-28.39999999999998
 10
14
 20
-28.39999999999998
  0
LWPOLYLINE
  5
247
100
AcDbEntity
  8
D1
  6
ByLayer
 62
  256
370
   18
100
AcDbPolyline
 90
    5
 70
    1
 43
0
 10
14
 20
-28.59999999999999
 10
15
 20
-28.59999999999999
 10
15
 20
-28.69999999999999
 10
14
 20
-28.69999999999999
 10
14
 20
-28.69999999999999
  0
LWPOLYLINE
  5
248
100
AcDbEntity
  8
D1
  6
ByLayer
 62
  256
370
   18
100
AcDbPolyline
 90
    5
 70
    1
 43
0
 10
14
 20
-28.89999999999998
 10
15
 20
-28.89999999999998
 10
15
 20
-28.99999999999999
 10
14
 20
-28.99999999999999
 10
14
 20
-28.99999999999999
  0
LWPOLYLINE
  5
249
100
AcDbEntity
  8
D1
  6
ByLayer
 62
  256
370
   18
100
AcDbPolyline
 90
    5
 70
    1
 43
0
 10
14
 20
-29.19999999999999
 10
15
 20
-29.19999999999999
 10
15
 20
-29.29999999999999
 10
14
 20
-29.29999999999999
 10
14
 20
-29.29999999999999
  0
LWPOLYLINE
  5
24A
100
AcDbEntity
  8
D1
  6
ByLayer
 62
  256
370
   18
100
AcDbPolyline
 90
    5
 70
    1
 43
0
 10
14
 20
-29.49999999999999
 10
15
 20
-29.49999999999999
 10
15
 20
-29.59999999999999
 10
14
 20
-29.59999999999999
 10
14
 20
-29.59999999999999
  0
LWPOLYLINE
  5
24B
100
AcDbEntity
  8
D1
  6
ByLayer
 62
  256
370
   18
100
AcDbPolyline
 90
    5
 70
    1
 43
0
 10
14
 20
-29.79999999999999
 10
15
 20
-29.79999999999999
 10
15
 20
-29.89999999999999
 10
14
 20
-29.89999999999999
 10
14
 20
-29.89999999999999
  0
LWPOLYLINE
  5
24C
100
AcDbEntity
  8
D1
  6
ByLayer
 62
  256
370
   18
100
AcDbPolyline
 90
    6
 70
    1
 43
0
 10
14
 20
-27.99999999999999
 10
15
 20
-27.99999999999999
 10
15
 20
-28.09999999999999
 10
14
 20
-28.09999999999999
 10
14
 20
-28.09999999999999
 10
14
 20
-28.09999999999999
  0
LINE
  5
24D
100
AcDbEntity
  8
D1
  6
ByLayer
 62
  256
370
   18
100
AcDbLine
 10
14.1
 20
-26.99999999999999
 11
14.1
 21
-29.99999999999999
  0
LINE
  5
24E
100
AcDbEntity
  8
D1
  6
ByLayer
 62
  256
370
   18
100
AcDbLine
 10
14.9
 20
-26.99999999999999
 11
14.9
 21
-29.99999999999999
  0
LWPOLYLINE
  5
24F
100
AcDbEntity
  8
D1
  6
ByLayer
 62
  256
370
   18
100
AcDbPolyline
 90
    5
 70
    1
 43
0
 10
14
 20
-24.09999999999999
 10
15
 20
-24.09999999999999
 10
15
 20
-24.19999999999999
 10
14
 20
-24.19999999999999
 10
14
 20
-24.19999999999999
  0
LWPOLYLINE
  5
250
100
AcDbEntity
  8
D1
  6
ByLayer
 62
  256
370
   18
100
AcDbPolyline
 90
    5
 70
    1
 43
0
 10
14
 20
-24.39999999999998
 10
15
 20
-24.39999999999998
 10
15
 20
-24.49999999999999
 10
14
 20
-24.49999999999999
 10
14
 20
-24.49999999999999
  0
LWPOLYLINE
  5
251
100
AcDbEntity
  8
D1
  6
ByLayer
 62
  256
370
   18
100
AcDbPolyline
 90
    5
 70
    1
 43
0
 10
14
 20
-24.69999999999999
 10
15
 20
-24.69999999999999
 10
15
 20
-24.79999999999999
 10
14
 20
-24.79999999999999
 10
14
 20
-24.79999999999999
  0
LWPOLYLINE
  5
252
100
AcDbEntity
  8
D1
  6
ByLayer
 62
  256
370
   18
100
AcDbPolyline
 90
    5
 70
    1
 43
0
 10
14
 20
-25.29999999999998
 10
15
 20
-25.29999999999998
 10
15
 20
-25.39999999999998
 10
14
 20
-25.39999999999998
 10
14
 20
-25.39999999999998
  0
LWPOLYLINE
  5
253
100
AcDbEntity
  8
D1
  6
ByLayer
 62
  256
370
   18
100
AcDbPolyline
 90
    5
 70
    1
 43
0
 10
14
 20
-25.59999999999999
 10
15
 20
-25.59999999999999
 10
15
 20
-25.69999999999999
 10
14
 20
-25.69999999999999
 10
14
 20
-25.69999999999999
  0
LWPOLYLINE
  5
254
100
AcDbEntity
  8
D1
  6
ByLayer
 62
  256
370
   18
100
AcDbPolyline
 90
    5
 70
    1
 43
0
 10
14
 20
-25.89999999999998
 10
15
 20
-25.89999999999998
 10
15
 20
-25.99999999999999
 10
14
 20
-25.99999999999999
 10
14
 20
-25.99999999999999
  0
LWPOLYLINE
  5
255
100
AcDbEntity
  8
D1
  6
ByLayer
 62
  256
370
   18
100
AcDbPolyline
 90
    5
 70
    1
 43
0
 10
14
 20
-26.19999999999999
 10
15
 20
-26.19999999999999
 10
15
 20
-26.29999999999999
 10
14
 20
-26.29999999999999
 10
14
 20
-26.29999999999999
  0
LWPOLYLINE
  5
256
100
AcDbEntity
  8
D1
  6
ByLayer
 62
  256
370
   18
100
AcDbPolyline
 90
    5
 70
    1
 43
0
 10
14
 20
-26.49999999999999
 10
15
 20
-26.49999999999999
 10
15
 20
-26.59999999999999
 10
14
 20
-26.59999999999999
 10
14
 20
-26.59999999999999
  0
LWPOLYLINE
  5
257
100
AcDbEntity
  8
D1
  6
ByLayer
 62
  256
370
   18
100
AcDbPolyline
 90
    5
 70
    1
 43
0
 10
14
 20
-26.79999999999999
 10
15
 20
-26.79999999999999
 10
15
 20
-26.89999999999999
 10
14
 20
-26.89999999999999
 10
14
 20
-26.89999999999999
  0
LWPOLYLINE
  5
258
100
AcDbEntity
  8
D1
  6
ByLayer
 62
  256
370
   18
100
AcDbPolyline
 90
    6
 70
    1
 43
0
 10
14
 20
-24.99999999999999
 10
15
 20
-24.99999999999999
 10
15
 20
-25.09999999999999
 10
14
 20
-25.09999999999999
 10
14
 20
-25.09999999999999
 10
14
 20
-25.09999999999999
  0
LINE
  5
259
100
AcDbEntity
  8
D1
  6
ByLayer
 62
  256
370
   18
100
AcDbLine
 10
14.1
 20
-23.99999999999999
 11
14.1
 21
-26.99999999999999
  0
LINE
  5
25A
100
AcDbEntity
  8
D1
  6
ByLayer
 62
  256
370
   18
100
AcDbLine
 10
14.9
 20
-23.99999999999999
 11
14.9
 21
-26.99999999999999
  0
LWPOLYLINE
  5
25B
100
AcDbEntity
  8
D1
  6
ByLayer
 62
  256
370
   18
100
AcDbPolyline
 90
    5
 70
    1
 43
0
 10
14
 20
-21.09999999999999
 10
15
 20
-21.09999999999999
 10
15
 20
-21.19999999999999
 10
14
 20
-21.19999999999999
 10
14
 20
-21.19999999999999
  0
LWPOLYLINE
  5
25C
100
AcDbEntity
  8
D1
  6
ByLayer
 62
  256
370
   18
100
AcDbPolyline
 90
    5
 70
    1
 43
0
 10
14
 20
-21.39999999999998
 10
15
 20
-21.39999999999998
 10
15
 20
-21.49999999999999
 10
14
 20
-21.49999999999999
 10
14
 20
-21.49999999999999
  0
LWPOLYLINE
  5
25D
100
AcDbEntity
  8
D1
  6
ByLayer
 62
  256
370
   18
100
AcDbPolyline
 90
    5
 70
    1
 43
0
 10
14
 20
-21.69999999999999
 10
15
 20
-21.69999999999999
 10
15
 20
-21.79999999999999
 10
14
 20
-21.79999999999999
 10
14
 20
-21.79999999999999
  0
LWPOLYLINE
  5
25E
100
AcDbEntity
  8
D1
  6
ByLayer
 62
  256
370
   18
100
AcDbPolyline
 90
    5
 70
    1
 43
0
 10
14
 20
-22.29999999999998
 10
15
 20
-22.29999999999998
 10
15
 20
-22.39999999999998
 10
14
 20
-22.39999999999998
 10
14
 20
-22.39999999999998
  0
LWPOLYLINE
  5
25F
100
AcDbEntity
  8
D1
  6
ByLayer
 62
  256
370
   18
100
AcDbPolyline
 90
    5
 70
    1
 43
0
 10
14
 20
-22.59999999999999
 10
15
 20
-22.59999999999999
 10
15
 20
-22.69999999999999
 10
14
 20
-22.69999999999999
 10
14
 20
-22.69999999999999
  0
LWPOLYLINE
  5
260
100
AcDbEntity
  8
D1
  6
ByLayer
 62
  256
370
   18
100
AcDbPolyline
 90
    5
 70
    1
 43
0
 10
14
 20
-22.89999999999998
 10
15
 20
-22.89999999999998
 10
15
 20
-22.99999999999999
 10
14
 20
-22.99999999999999
 10
14
 20
-22.99999999999999
  0
LWPOLYLINE
  5
261
100
AcDbEntity
  8
D1
  6
ByLayer
 62
  256
370
   18
100
AcDbPolyline
 90
    5
 70
    1
 43
0
 10
14
 20
-23.19999999999999
 10
15
 20
-23.19999999999999
 10
15
 20
-23.29999999999999
 10
14
 20
-23.29999999999999
 10
14
 20
-23.29999999999999
  0
LWPOLYLINE
  5
262
100
AcDbEntity
  8
D1
  6
ByLayer
 62
  256
370
   18
100
AcDbPolyline
 90
    5
 70
    1
 43
0
 10
14
 20
-23.49999999999999
 10
15
 20
-23.49999999999999
 10
15
 20
-23.59999999999999
 10
14
 20
-23.59999999999999
 10
14
 20
-23.59999999999999
  0
LWPOLYLINE
  5
263
100
AcDbEntity
  8
D1
  6
ByLayer
 62
  256
370
   18
100
AcDbPolyline
 90
    5
 70
    1
 43
0
 10
14
 20
-23.79999999999999
 10
15
 20
-23.79999999999999
 10
15
 20
-23.89999999999999
 10
14
 20
-23.89999999999999
 10
14
 20
-23.89999999999999
  0
LWPOLYLINE
  5
264
100
AcDbEntity
  8
D1
  6
ByLayer
 62
  256
370
   18
100
AcDbPolyline
 90
    6
 70
    1
 43
0
 10
14
 20
-21.99999999999999
 10
15
 20
-21.99999999999999
 10
15
 20
-22.09999999999999
 10
14
 20
-22.09999999999999
 10
14
 20
-22.09999999999999
 10
14
 20
-22.09999999999999
  0
LINE
  5
265
100
AcDbEntity
  8
D1
  6
ByLayer
 62
  256
370
   18
100
AcDbLine
 10
14.1
 20
-20.99999999999999
 11
14.1
 21
-23.99999999999999
  0
LINE
  5
266
100
AcDbEntity
  8
D1
  6
ByLayer
 62
  256
370
   18
100
AcDbLine
 10
14.9
 20
-20.99999999999999
 11
14.9
 21
-23.99999999999999
  0
LWPOLYLINE
  5
267
100
AcDbEntity
  8
D1
  6
ByLayer
 62
  256
370
   18
100
AcDbPolyline
 90
    5
 70
    1
 43
0
 10
14
 20
-18.09999999999999
 10
15
 20
-18.09999999999999
 10
15
 20
-18.19999999999999
 10
14
 20
-18.19999999999999
 10
14
 20
-18.19999999999999
  0
LWPOLYLINE
  5
268
100
AcDbEntity
  8
D1
  6
ByLayer
 62
  256
370
   18
100
AcDbPolyline
 90
    5
 70
    1
 43
0
 10
14
 20
-18.39999999999998
 10
15
 20
-18.39999999999998
 10
15
 20
-18.49999999999999
 10
14
 20
-18.49999999999999
 10
14
 20
-18.49999999999999
  0
LWPOLYLINE
  5
269
100
AcDbEntity
  8
D1
  6
ByLayer
 62
  256
370
   18
100
AcDbPolyline
 90
    5
 70
    1
 43
0
 10
14
 20
-18.69999999999999
 10
15
 20
-18.69999999999999
 10
15
 20
-18.79999999999999
 10
14
 20
-18.79999999999999
 10
14
 20
-18.79999999999999
  0
LWPOLYLINE
  5
26A
100
AcDbEntity
  8
D1
  6
ByLayer
 62
  256
370
   18
100
AcDbPolyline
 90
    5
 70
    1
 43
0
 10
14
 20
-19.29999999999998
 10
15
 20
-19.29999999999998
 10
15
 20
-19.39999999999998
 10
14
 20
-19.39999999999998
 10
14
 20
-19.39999999999998
  0
LWPOLYLINE
  5
26B
100
AcDbEntity
  8
D1
  6
ByLayer
 62
  256
370
   18
100
AcDbPolyline
 90
    5
 70
    1
 43
0
 10
14
 20
-19.59999999999999
 10
15
 20
-19.59999999999999
 10
15
 20
-19.69999999999999
 10
14
 20
-19.69999999999999
 10
14
 20
-19.69999999999999
  0
LWPOLYLINE
  5
26C
100
AcDbEntity
  8
D1
  6
ByLayer
 62
  256
370
   18
100
AcDbPolyline
 90
    5
 70
    1
 43
0
 10
14
 20
-19.89999999999998
 10
15
 20
-19.89999999999998
 10
15
 20
-19.99999999999999
 10
14
 20
-19.99999999999999
 10
14
 20
-19.99999999999999
  0
LWPOLYLINE
  5
26D
100
AcDbEntity
  8
D1
  6
ByLayer
 62
  256
370
   18
100
AcDbPolyline
 90
    5
 70
    1
 43
0
 10
14
 20
-20.19999999999999
 10
15
 20
-20.19999999999999
 10
15
 20
-20.29999999999999
 10
14
 20
-20.29999999999999
 10
14
 20
-20.29999999999999
  0
LWPOLYLINE
  5
26E
100
AcDbEntity
  8
D1
  6
ByLayer
 62
  256
370
   18
100
AcDbPolyline
 90
    5
 70
    1
 43
0
 10
14
 20
-20.49999999999999
 10
15
 20
-20.49999999999999
 10
15
 20
-20.59999999999999
 10
14
 20
-20.59999999999999
 10
14
 20
-20.59999999999999
  0
LWPOLYLINE
  5
26F
100
AcDbEntity
  8
D1
  6
ByLayer
 62
  256
370
   18
100
AcDbPolyline
 90
    5
 70
    1
 43
0
 10
14
 20
-20.79999999999999
 10
15
 20
-20.79999999999999
 10
15
 20
-20.89999999999999
 10
14
 20
-20.89999999999999
 10
14
 20
-20.89999999999999
  0
LWPOLYLINE
  5
270
100
AcDbEntity
  8
D1
  6
ByLayer
 62
  256
370
   18
100
AcDbPolyline
 90
    6
 70
    1
 43
0
 10
14
 20
-18.99999999999999
 10
15
 20
-18.99999999999999
 10
15
 20
-19.09999999999999
 10
14
 20
-19.09999999999999
 10
14
 20
-19.09999999999999
 10
14
 20
-19.09999999999999
  0
LINE
  5
271
100
AcDbEntity
  8
D1
  6
ByLayer
 62
  256
370
   18
100
AcDbLine
 10
14.1
 20
-17.99999999999999
 11
14.1
 21
-20.99999999999999
  0
LINE
  5
272
100
AcDbEntity
  8
D1
  6
ByLayer
 62
  256
370
   18
100
AcDbLine
 10
14.9
 20
-17.99999999999999
 11
14.9
 21
-20.99999999999999
  0
LWPOLYLINE
  5
273
100
AcDbEntity
  8
D1
  6
ByLayer
 62
  256
370
   18
100
AcDbPolyline
 90
    5
 70
    1
 43
0
 10
14
 20
-15.09999999999999
 10
15
 20
-15.09999999999999
 10
15
 20
-15.19999999999999
 10
14
 20
-15.19999999999999
 10
14
 20
-15.19999999999999
  0
LWPOLYLINE
  5
274
100
AcDbEntity
  8
D1
  6
ByLayer
 62
  256
370
   18
100
AcDbPolyline
 90
    5
 70
    1
 43
0
 10
14
 20
-15.39999999999998
 10
15
 20
-15.39999999999998
 10
15
 20
-15.49999999999999
 10
14
 20
-15.49999999999999
 10
14
 20
-15.49999999999999
  0
LWPOLYLINE
  5
275
100
AcDbEntity
  8
D1
  6
ByLayer
 62
  256
370
   18
100
AcDbPolyline
 90
    5
 70
    1
 43
0
 10
14
 20
-15.69999999999999
 10
15
 20
-15.69999999999999
 10
15
 20
-15.79999999999999
 10
14
 20
-15.79999999999999
 10
14
 20
-15.79999999999999
  0
LWPOLYLINE
  5
276
100
AcDbEntity
  8
D1
  6
ByLayer
 62
  256
370
   18
100
AcDbPolyline
 90
    5
 70
    1
 43
0
 10
14
 20
-16.29999999999998
 10
15
 20
-16.29999999999998
 10
15
 20
-16.39999999999998
 10
14
 20
-16.39999999999998
 10
14
 20
-16.39999999999998
  0
LWPOLYLINE
  5
277
100
AcDbEntity
  8
D1
  6
ByLayer
 62
  256
370
   18
100
AcDbPolyline
 90
    5
 70
    1
 43
0
 10
14
 20
-16.59999999999999
 10
15
 20
-16.59999999999999
 10
15
 20
-16.69999999999999
 10
14
 20
-16.69999999999999
 10
14
 20
-16.69999999999999
  0
LWPOLYLINE
  5
278
100
AcDbEntity
  8
D1
  6
ByLayer
 62
  256
370
   18
100
AcDbPolyline
 90
    5
 70
    1
 43
0
 10
14
 20
-16.89999999999998
 10
15
 20
-16.89999999999998
 10
15
 20
-16.99999999999999
 10
14
 20
-16.99999999999999
 10
14
 20
-16.99999999999999
  0
LWPOLYLINE
  5
279
100
AcDbEntity
  8
D1
  6
ByLayer
 62
  256
370
   18
100
AcDbPolyline
 90
    5
 70
    1
 43
0
 10
14
 20
-17.19999999999999
 10
15
 20
-17.19999999999999
 10
15
 20
-17.29999999999999
 10
14
 20
-17.29999999999999
 10
14
 20
-17.29999999999999
  0
LWPOLYLINE
  5
27A
100
AcDbEntity
  8
D1
  6
ByLayer
 62
  256
370
   18
100
AcDbPolyline
 90
    5
 70
    1
 43
0
 10
14
 20
-17.49999999999999
 10
15
 20
-17.49999999999999
 10
15
 20
-17.59999999999999
 10
14
 20
-17.59999999999999
 10
14
 20
-17.59999999999999
  0
LWPOLYLINE
  5
27B
100
AcDbEntity
  8
D1
  6
ByLayer
 62
  256
370
   18
100
AcDbPolyline
 90
    5
 70
    1
 43
0
 10
14
 20
-17.79999999999999
 10
15
 20
-17.79999999999999
 10
15
 20
-17.89999999999999
 10
14
 20
-17.89999999999999
 10
14
 20
-17.89999999999999
  0
LWPOLYLINE
  5
27C
100
AcDbEntity
  8
D1
  6
ByLayer
 62
  256
370
   18
100
AcDbPolyline
 90
    6
 70
    1
 43
0
 10
14
 20
-15.99999999999999
 10
15
 20
-15.99999999999999
 10
15
 20
-16.09999999999999
 10
14
 20
-16.09999999999999
 10
14
 20
-16.09999999999999
 10
14
 20
-16.09999999999999
  0
LINE
  5
27D
100
AcDbEntity
  8
D1
  6
ByLayer
 62
  256
370
   18
100
AcDbLine
 10
14.1
 20
-14.99999999999999
 11
14.1
 21
-17.99999999999999
  0
LINE
  5
27E
100
AcDbEntity
  8
D1
  6
ByLayer
 62
  256
370
   18
100
AcDbLine
 10
14.9
 20
-14.99999999999999
 11
14.9
 21
-17.99999999999999
  0
LWPOLYLINE
  5
27F
100
AcDbEntity
  8
D1
  6
ByLayer
 62
  256
370
   18
100
AcDbPolyline
 90
    5
 70
    1
 43
0
 10
14
 20
-12.09999999999999
 10
15
 20
-12.09999999999999
 10
15
 20
-12.19999999999999
 10
14
 20
-12.19999999999999
 10
14
 20
-12.19999999999999
  0
LWPOLYLINE
  5
280
100
AcDbEntity
  8
D1
  6
ByLayer
 62
  256
370
   18
100
AcDbPolyline
 90
    5
 70
    1
 43
0
 10
14
 20
-12.39999999999998
 10
15
 20
-12.39999999999998
 10
15
 20
-12.49999999999999
 10
14
 20
-12.49999999999999
 10
14
 20
-12.49999999999999
  0
LWPOLYLINE
  5
281
100
AcDbEntity
  8
D1
  6
ByLayer
 62
  256
370
   18
100
AcDbPolyline
 90
    5
 70
    1
 43
0
 10
14
 20
-12.69999999999999
 10
15
 20
-12.69999999999999
 10
15
 20
-12.79999999999999
 10
14
 20
-12.79999999999999
 10
14
 20
-12.79999999999999
  0
LWPOLYLINE
  5
282
100
AcDbEntity
  8
D1
  6
ByLayer
 62
  256
370
   18
100
AcDbPolyline
 90
    5
 70
    1
 43
0
 10
14
 20
-13.29999999999998
 10
15
 20
-13.29999999999998
 10
15
 20
-13.39999999999998
 10
14
 20
-13.39999999999998
 10
14
 20
-13.39999999999998
  0
LWPOLYLINE
  5
283
100
AcDbEntity
  8
D1
  6
ByLayer
 62
  256
370
   18
100
AcDbPolyline
 90
    5
 70
    1
 43
0
 10
14
 20
-13.59999999999999
 10
15
 20
-13.59999999999999
 10
15
 20
-13.69999999999999
 10
14
 20
-13.69999999999999
 10
14
 20
-13.69999999999999
  0
LWPOLYLINE
  5
284
100
AcDbEntity
  8
D1
  6
ByLayer
 62
  256
370
   18
100
AcDbPolyline
 90
    5
 70
    1
 43
0
 10
14
 20
-13.89999999999998
 10
15
 20
-13.89999999999998
 10
15
 20
-13.99999999999999
 10
14
 20
-13.99999999999999
 10
14
 20
-13.99999999999999
  0
LWPOLYLINE
  5
285
100
AcDbEntity
  8
D1
  6
ByLayer
 62
  256
370
   18
100
AcDbPolyline
 90
    5
 70
    1
 43
0
 10
14
 20
-14.19999999999999
 10
15
 20
-14.19999999999999
 10
15
 20
-14.29999999999999
 10
14
 20
-14.29999999999999
 10
14
 20
-14.29999999999999
  0
LWPOLYLINE
  5
286
100
AcDbEntity
  8
D1
  6
ByLayer
 62
  256
370
   18
100
AcDbPolyline
 90
    5
 70
    1
 43
0
 10
14
 20
-14.49999999999999
 10
15
 20
-14.49999999999999
 10
15
 20
-14.59999999999999
 10
14
 20
-14.59999999999999
 10
14
 20
-14.59999999999999
  0
LWPOLYLINE
  5
287
100
AcDbEntity
  8
D1
  6
ByLayer
 62
  256
370
   18
100
AcDbPolyline
 90
    5
 70
    1
 43
0
 10
14
 20
-14.79999999999999
 10
15
 20
-14.79999999999999
 10
15
 20
-14.89999999999999
 10
14
 20
-14.89999999999999
 10
14
 20
-14.89999999999999
  0
LWPOLYLINE
  5
288
100
AcDbEntity
  8
D1
  6
ByLayer
 62
  256
370
   18
100
AcDbPolyline
 90
    6
 70
    1
 43
0
 10
14
 20
-12.99999999999999
 10
15
 20
-12.99999999999999
 10
15
 20
-13.09999999999999
 10
14
 20
-13.09999999999999
 10
14
 20
-13.09999999999999
 10
14
 20
-13.09999999999999
  0
LINE
  5
289
100
AcDbEntity
  8
D1
  6
ByLayer
 62
  256
370
   18
100
AcDbLine
 10
14.1
 20
-11.99999999999999
 11
14.1
 21
-14.99999999999999
  0
LINE
  5
28A
100
AcDbEntity
  8
D1
  6
ByLayer
 62
  256
370
   18
100
AcDbLine
 10
14.9
 20
-11.99999999999999
 11
14.9
 21
-14.99999999999999
  0
LWPOLYLINE
  5
28B
100
AcDbEntity
  8
D1
  6
ByLayer
 62
  256
370
   18
100
AcDbPolyline
 90
    5
 70
    1
 43
0
 10
14
 20
-9.099999999999987
 10
15
 20
-9.099999999999987
 10
15
 20
-9.199999999999989
 10
14
 20
-9.199999999999989
 10
14
 20
-9.199999999999989
  0
LWPOLYLINE
  5
28C
100
AcDbEntity
  8
D1
  6
ByLayer
 62
  256
370
   18
100
AcDbPolyline
 90
    5
 70
    1
 43
0
 10
14
 20
-9.399999999999984
 10
15
 20
-9.399999999999984
 10
15
 20
-9.499999999999986
 10
14
 20
-9.499999999999986
 10
14
 20
-9.499999999999986
  0
LWPOLYLINE
  5
28D
100
AcDbEntity
  8
D1
  6
ByLayer
 62
  256
370
   18
100
AcDbPolyline
 90
    5
 70
    1
 43
0
 10
14
 20
-9.699999999999989
 10
15
 20
-9.699999999999989
 10
15
 20
-9.79999999999999
 10
14
 20
-9.79999999999999
 10
14
 20
-9.79999999999999
  0
LWPOLYLINE
  5
28E
100
AcDbEntity
  8
D1
  6
ByLayer
 62
  256
370
   18
100
AcDbPolyline
 90
    5
 70
    1
 43
0
 10
14
 20
-10.29999999999998
 10
15
 20
-10.29999999999998
 10
15
 20
-10.39999999999998
 10
14
 20
-10.39999999999998
 10
14
 20
-10.39999999999998
  0
LWPOLYLINE
  5
28F
100
AcDbEntity
  8
D1
  6
ByLayer
 62
  256
370
   18
100
AcDbPolyline
 90
    5
 70
    1
 43
0
 10
14
 20
-10.59999999999999
 10
15
 20
-10.59999999999999
 10
15
 20
-10.69999999999999
 10
14
 20
-10.69999999999999
 10
14
 20
-10.69999999999999
  0
LWPOLYLINE
  5
290
100
AcDbEntity
  8
D1
  6
ByLayer
 62
  256
370
   18
100
AcDbPolyline
 90
    5
 70
    1
 43
0
 10
14
 20
-10.89999999999998
 10
15
 20
-10.89999999999998
 10
15
 20
-10.99999999999999
 10
14
 20
-10.99999999999999
 10
14
 20
-10.99999999999999
  0
LWPOLYLINE
  5
291
100
AcDbEntity
  8
D1
  6
ByLayer
 62
  256
370
   18
100
AcDbPolyline
 90
    5
 70
    1
 43
0
 10
14
 20
-11.19999999999999
 10
15
 20
-11.19999999999999
 10
15
 20
-11.29999999999999
 10
14
 20
-11.29999999999999
 10
14
 20
-11.29999999999999
  0
LWPOLYLINE
  5
292
100
AcDbEntity
  8
D1
  6
ByLayer
 62
  256
370
   18
100
AcDbPolyline
 90
    5
 70
    1
 43
0
 10
14
 20
-11.49999999999999
 10
15
 20
-11.49999999999999
 10
15
 20
-11.59999999999999
 10
14
 20
-11.59999999999999
 10
14
 20
-11.59999999999999
  0
LWPOLYLINE
  5
293
100
AcDbEntity
  8
D1
  6
ByLayer
 62
  256
370
   18
100
AcDbPolyline
 90
    5
 70
    1
 43
0
 10
14
 20
-11.79999999999999
 10
15
 20
-11.79999999999999
 10
15
 20
-11.89999999999999
 10
14
 20
-11.89999999999999
 10
14
 20
-11.89999999999999
  0
LWPOLYLINE
  5
294
100
AcDbEntity
  8
D1
  6
ByLayer
 62
  256
370
   18
100
AcDbPolyline
 90
    6
 70
    1
 43
0
 10
14
 20
-9.999999999999986
 10
15
 20
-9.999999999999986
 10
15
 20
-10.09999999999999
 10
14
 20
-10.09999999999999
 10
14
 20
-10.09999999999999
 10
14
 20
-10.09999999999999
  0
LINE
  5
295
100
AcDbEntity
  8
D1
  6
ByLayer
 62
  256
370
   18
100
AcDbLine
 10
14.1
 20
-8.999999999999986
 11
14.1
 21
-11.99999999999999
  0
LINE
  5
296
100
AcDbEntity
  8
D1
  6
ByLayer
 62
  256
370
   18
100
AcDbLine
 10
14.9
 20
-8.999999999999986
 11
14.9
 21
-11.99999999999999
  0
LWPOLYLINE
  5
297
100
AcDbEntity
  8
D1
  6
ByLayer
 62
  256
370
   18
100
AcDbPolyline
 90
    5
 70
    1
 43
0
 10
14
 20
-7.299999999999983
 10
15
 20
-7.299999999999983
 10
15
 20
-7.399999999999984
 10
14
 20
-7.399999999999984
 10
14
 20
-7.399999999999984
  0
LWPOLYLINE
  5
298
100
AcDbEntity
  8
D1
  6
ByLayer
 62
  256
370
   18
100
AcDbPolyline
 90
    5
 70
    1
 43
0
 10
14
 20
-7.599999999999987
 10
15
 20
-7.599999999999987
 10
15
 20
-7.699999999999989
 10
14
 20
-7.699999999999989
 10
14
 20
-7.699999999999989
  0
LWPOLYLINE
  5
299
100
AcDbEntity
  8
D1
  6
ByLayer
 62
  256
370
   18
100
AcDbPolyline
 90
    5
 70
    1
 43
0
 10
14
 20
-7.899999999999984
 10
15
 20
-7.899999999999984
 10
15
 20
-7.999999999999986
 10
14
 20
-7.999999999999986
 10
14
 20
-7.999999999999986
  0
LWPOLYLINE
  5
29A
100
AcDbEntity
  8
D1
  6
ByLayer
 62
  256
370
   18
100
AcDbPolyline
 90
    5
 70
    1
 43
0
 10
14
 20
-8.199999999999989
 10
15
 20
-8.199999999999989
 10
15
 20
-8.29999999999999
 10
14
 20
-8.29999999999999
 10
14
 20
-8.29999999999999
  0
LWPOLYLINE
  5
29B
100
AcDbEntity
  8
D1
  6
ByLayer
 62
  256
370
   18
100
AcDbPolyline
 90
    5
 70
    1
 43
0
 10
14
 20
-8.499999999999986
 10
15
 20
-8.499999999999986
 10
15
 20
-8.599999999999987
 10
14
 20
-8.599999999999987
 10
14
 20
-8.599999999999987
  0
LWPOLYLINE
  5
29C
100
AcDbEntity
  8
D1
  6
ByLayer
 62
  256
370
   18
100
AcDbPolyline
 90
    5
 70
    1
 43
0
 10
14
 20
-8.79999999999999
 10
15
 20
-8.79999999999999
 10
15
 20
-8.899999999999991
 10
14
 20
-8.899999999999991
 10
14
 20
-8.899999999999991
  0
LWPOLYLINE
  5
29D
100
AcDbEntity
  8
D1
  6
ByLayer
 62
  256
370
   18
100
AcDbPolyline
 90
    6
 70
    1
 43
0
 10
14
 20
-6.999999999999986
 10
15
 20
-6.999999999999986
 10
15
 20
-7.099999999999987
 10
14
 20
-7.099999999999987
 10
14
 20
-7.099999999999987
 10
14
 20
-7.099999999999987
  0
LWPOLYLINE
  5
29E
100
AcDbEntity
  8
D1
  6
ByLayer
 62
  256
370
   18
100
AcDbPolyline
 90
    5
 70
    1
 43
0
 10
18.5
 20
-15.09999999999999
 10
19.5
 20
-15.09999999999999
 10
19.5
 20
-15.2
 10
18.5
 20
-15.2
 10
18.5
 20
-15.2
  0
LWPOLYLINE
  5
29F
100
AcDbEntity
  8
D1
  6
ByLayer
 62
  256
370
   18
100
AcDbPolyline
 90
    5
 70
    1
 43
0
 10
18.5
 20
-15.39999999999999
 10
19.5
 20
-15.39999999999999
 10
19.5
 20
-15.49999999999999
 10
18.5
 20
-15.49999999999999
 10
18.5
 20
-15.49999999999999
  0
LWPOLYLINE
  5
2A0
100
AcDbEntity
  8
D1
  6
ByLayer
 62
  256
370
   18
100
AcDbPolyline
 90
    5
 70
    1
 43
0
 10
18.5
 20
-15.7
 10
19.5
 20
-15.7
 10
19.5
 20
-15.8
 10
18.5
 20
-15.8
 10
18.5
 20
-15.8
  0
LWPOLYLINE
  5
2A1
100
AcDbEntity
  8
D1
  6
ByLayer
 62
  256
370
   18
100
AcDbPolyline
 90
    5
 70
    1
 43
0
 10
18.5
 20
-16.29999999999999
 10
19.5
 20
-16.29999999999999
 10
19.5
 20
-16.39999999999999
 10
18.5
 20
-16.39999999999999
 10
18.5
 20
-16.39999999999999
  0
LWPOLYLINE
  5
2A2
100
AcDbEntity
  8
D1
  6
ByLayer
 62
  256
370
   18
100
AcDbPolyline
 90
    5
 70
    1
 43
0
 10
18.5
 20
-16.59999999999999
 10
19.5
 20
-16.59999999999999
 10
19.5
 20
-16.7
 10
18.5
 20
-16.7
 10
18.5
 20
-16.7
  0
LWPOLYLINE
  5
2A3
100
AcDbEntity
  8
D1
  6
ByLayer
 62
  256
370
   18
100
AcDbPolyline
 90
    5
 70
    1
 43
0
 10
18.5
 20
-16.89999999999999
 10
19.5
 20
-16.89999999999999
 10
19.5
 20
-16.99999999999999
 10
18.5
 20
-16.99999999999999
 10
18.5
 20
-16.99999999999999
  0
LWPOLYLINE
  5
2A4
100
AcDbEntity
  8
D1
  6
ByLayer
 62
  256
370
   18
100
AcDbPolyline
 90
    6
 70
    1
 43
0
 10
18.5
 20
-15.99999999999999
 10
19.5
 20
-15.99999999999999
 10
19.5
 20
-16.09999999999999
 10
18.5
 20
-16.09999999999999
 10
18.5
 20
-16.09999999999999
 10
18.5
 20
-16.09999999999999
  0
LWPOLYLINE
  5
2A5
100
AcDbEntity
  8
D1
  6
ByLayer
 62
  256
370
   18
100
AcDbPolyline
 90
    5
 70
    1
 43
0
 10
18.5
 20
-12.09999999999999
 10
19.5
 20
-12.09999999999999
 10
19.5
 20
-12.2
 10
18.5
 20
-12.2
 10
18.5
 20
-12.2
  0
LWPOLYLINE
  5
2A6
100
AcDbEntity
  8
D1
  6
ByLayer
 62
  256
370
   18
100
AcDbPolyline
 90
    5
 70
    1
 43
0
 10
18.5
 20
-12.39999999999999
 10
19.5
 20
-12.39999999999999
 10
19.5
 20
-12.49999999999999
 10
18.5
 20
-12.49999999999999
 10
18.5
 20
-12.49999999999999
  0
LWPOLYLINE
  5
2A7
100
AcDbEntity
  8
D1
  6
ByLayer
 62
  256
370
   18
100
AcDbPolyline
 90
    5
 70
    1
 43
0
 10
18.5
 20
-12.7
 10
19.5
 20
-12.7
 10
19.5
 20
-12.8
 10
18.5
 20
-12.8
 10
18.5
 20
-12.8
  0
LWPOLYLINE
  5
2A8
100
AcDbEntity
  8
D1
  6
ByLayer
 62
  256
370
   18
100
AcDbPolyline
 90
    5
 70
    1
 43
0
 10
18.5
 20
-13.29999999999999
 10
19.5
 20
-13.29999999999999
 10
19.5
 20
-13.39999999999999
 10
18.5
 20
-13.39999999999999
 10
18.5
 20
-13.39999999999999
  0
LWPOLYLINE
  5
2A9
100
AcDbEntity
  8
D1
  6
ByLayer
 62
  256
370
   18
100
AcDbPolyline
 90
    5
 70
    1
 43
0
 10
18.5
 20
-13.59999999999999
 10
19.5
 20
-13.59999999999999
 10
19.5
 20
-13.7
 10
18.5
 20
-13.7
 10
18.5
 20
-13.7
  0
LWPOLYLINE
  5
2AA
100
AcDbEntity
  8
D1
  6
ByLayer
 62
  256
370
   18
100
AcDbPolyline
 90
    5
 70
    1
 43
0
 10
18.5
 20
-13.89999999999999
 10
19.5
 20
-13.89999999999999
 10
19.5
 20
-13.99999999999999
 10
18.5
 20
-13.99999999999999
 10
18.5
 20
-13.99999999999999
  0
LWPOLYLINE
  5
2AB
100
AcDbEntity
  8
D1
  6
ByLayer
 62
  256
370
   18
100
AcDbPolyline
 90
    5
 70
    1
 43
0
 10
18.5
 20
-14.2
 10
19.5
 20
-14.2
 10
19.5
 20
-14.3
 10
18.5
 20
-14.3
 10
18.5
 20
-14.3
  0
LWPOLYLINE
  5
2AC
100
AcDbEntity
  8
D1
  6
ByLayer
 62
  256
370
   18
100
AcDbPolyline
 90
    5
 70
    1
 43
0
 10
18.5
 20
-14.49999999999999
 10
19.5
 20
-14.49999999999999
 10
19.5
 20
-14.59999999999999
 10
18.5
 20
-14.59999999999999
 10
18.5
 20
-14.59999999999999
  0
LWPOLYLINE
  5
2AD
100
AcDbEntity
  8
D1
  6
ByLayer
 62
  256
370
   18
100
AcDbPolyline
 90
    5
 70
    1
 43
0
 10
18.5
 20
-14.8
 10
19.5
 20
-14.8
 10
19.5
 20
-14.9
 10
18.5
 20
-14.9
 10
18.5
 20
-14.9
  0
LWPOLYLINE
  5
2AE
100
AcDbEntity
  8
D1
  6
ByLayer
 62
  256
370
   18
100
AcDbPolyline
 90
    6
 70
    1
 43
0
 10
18.5
 20
-12.99999999999999
 10
19.5
 20
-12.99999999999999
 10
19.5
 20
-13.09999999999999
 10
18.5
 20
-13.09999999999999
 10
18.5
 20
-13.09999999999999
 10
18.5
 20
-13.09999999999999
  0
LWPOLYLINE
  5
2AF
100
AcDbEntity
  8
D1
  6
ByLayer
 62
  256
370
   18
100
AcDbPolyline
 90
    5
 70
    1
 43
0
 10
18.5
 20
-9.099999999999994
 10
19.5
 20
-9.099999999999994
 10
19.5
 20
-9.199999999999996
 10
18.5
 20
-9.199999999999996
 10
18.5
 20
-9.199999999999996
  0
LWPOLYLINE
  5
2B0
100
AcDbEntity
  8
D1
  6
ByLayer
 62
  256
370
   18
100
AcDbPolyline
 90
    5
 70
    1
 43
0
 10
18.5
 20
-9.399999999999991
 10
19.5
 20
-9.399999999999991
 10
19.5
 20
-9.499999999999993
 10
18.5
 20
-9.499999999999993
 10
18.5
 20
-9.499999999999993
  0
LWPOLYLINE
  5
2B1
100
AcDbEntity
  8
D1
  6
ByLayer
 62
  256
370
   18
100
AcDbPolyline
 90
    5
 70
    1
 43
0
 10
18.5
 20
-9.699999999999996
 10
19.5
 20
-9.699999999999996
 10
19.5
 20
-9.799999999999997
 10
18.5
 20
-9.799999999999997
 10
18.5
 20
-9.799999999999997
  0
LWPOLYLINE
  5
2B2
100
AcDbEntity
  8
D1
  6
ByLayer
 62
  256
370
   18
100
AcDbPolyline
 90
    5
 70
    1
 43
0
 10
18.5
 20
-10.29999999999999
 10
19.5
 20
-10.29999999999999
 10
19.5
 20
-10.39999999999999
 10
18.5
 20
-10.39999999999999
 10
18.5
 20
-10.39999999999999
  0
LWPOLYLINE
  5
2B3
100
AcDbEntity
  8
D1
  6
ByLayer
 62
  256
370
   18
100
AcDbPolyline
 90
    5
 70
    1
 43
0
 10
18.5
 20
-10.59999999999999
 10
19.5
 20
-10.59999999999999
 10
19.5
 20
-10.7
 10
18.5
 20
-10.7
 10
18.5
 20
-10.7
  0
LWPOLYLINE
  5
2B4
100
AcDbEntity
  8
D1
  6
ByLayer
 62
  256
370
   18
100
AcDbPolyline
 90
    5
 70
    1
 43
0
 10
18.5
 20
-10.89999999999999
 10
19.5
 20
-10.89999999999999
 10
19.5
 20
-10.99999999999999
 10
18.5
 20
-10.99999999999999
 10
18.5
 20
-10.99999999999999
  0
LWPOLYLINE
  5
2B5
100
AcDbEntity
  8
D1
  6
ByLayer
 62
  256
370
   18
100
AcDbPolyline
 90
    5
 70
    1
 43
0
 10
18.5
 20
-11.2
 10
19.5
 20
-11.2
 10
19.5
 20
-11.3
 10
18.5
 20
-11.3
 10
18.5
 20
-11.3
  0
LWPOLYLINE
  5
2B6
100
AcDbEntity
  8
D1
  6
ByLayer
 62
  256
370
   18
100
AcDbPolyline
 90
    5
 70
    1
 43
0
 10
18.5
 20
-11.49999999999999
 10
19.5
 20
-11.49999999999999
 10
19.5
 20
-11.59999999999999
 10
18.5
 20
-11.59999999999999
 10
18.5
 20
-11.59999999999999
  0
LWPOLYLINE
  5
2B7
100
AcDbEntity
  8
D1
  6
ByLayer
 62
  256
370
   18
100
AcDbPolyline
 90
    5
 70
    1
 43
0
 10
18.5
 20
-11.8
 10
19.5
 20
-11.8
 10
19.5
 20
-11.9
 10
18.5
 20
-11.9
 10
18.5
 20
-11.9
  0
LWPOLYLINE
  5
2B8
100
AcDbEntity
  8
D1
  6
ByLayer
 62
  256
370
   18
100
AcDbPolyline
 90
    6
 70
    1
 43
0
 10
18.5
 20
-9.999999999999993
 10
19.5
 20
-9.999999999999993
 10
19.5
 20
-10.09999999999999
 10
18.5
 20
-10.09999999999999
 10
18.5
 20
-10.09999999999999
 10
18.5
 20
-10.09999999999999
  0
LWPOLYLINE
  5
2B9
100
AcDbEntity
  8
D1
  6
ByLayer
 62
  256
370
   18
100
AcDbPolyline
 90
    5
 70
    1
 43
0
 10
18.5
 20
-7.29999999999999
 10
19.5
 20
-7.29999999999999
 10
19.5
 20
-7.399999999999991
 10
18.5
 20
-7.399999999999991
 10
18.5
 20
-7.399999999999991
  0
LWPOLYLINE
  5
2BA
100
AcDbEntity
  8
D1
  6
ByLayer
 62
  256
370
   18
100
AcDbPolyline
 90
    5
 70
    1
 43
0
 10
18.5
 20
-7.599999999999994
 10
19.5
 20
-7.599999999999994
 10
19.5
 20
-7.699999999999996
 10
18.5
 20
-7.699999999999996
 10
18.5
 20
-7.699999999999996
  0
LWPOLYLINE
  5
2BB
100
AcDbEntity
  8
D1
  6
ByLayer
 62
  256
370
   18
100
AcDbPolyline
 90
    5
 70
    1
 43
0
 10
18.5
 20
-7.899999999999991
 10
19.5
 20
-7.899999999999991
 10
19.5
 20
-7.999999999999993
 10
18.5
 20
-7.999999999999993
 10
18.5
 20
-7.999999999999993
  0
LWPOLYLINE
  5
2BC
100
AcDbEntity
  8
D1
  6
ByLayer
 62
  256
370
   18
100
AcDbPolyline
 90
    5
 70
    1
 43
0
 10
18.5
 20
-8.199999999999996
 10
19.5
 20
-8.199999999999996
 10
19.5
 20
-8.299999999999997
 10
18.5
 20
-8.299999999999997
 10
18.5
 20
-8.299999999999997
  0
LWPOLYLINE
  5
2BD
100
AcDbEntity
  8
D1
  6
ByLayer
 62
  256
370
   18
100
AcDbPolyline
 90
    5
 70
    1
 43
0
 10
18.5
 20
-8.499999999999993
 10
19.5
 20
-8.499999999999993
 10
19.5
 20
-8.599999999999994
 10
18.5
 20
-8.599999999999994
 10
18.5
 20
-8.599999999999994
  0
LWPOLYLINE
  5
2BE
100
AcDbEntity
  8
D1
  6
ByLayer
 62
  256
370
   18
100
AcDbPolyline
 90
    5
 70
    1
 43
0
 10
18.5
 20
-8.799999999999997
 10
19.5
 20
-8.799999999999997
 10
19.5
 20
-8.899999999999999
 10
18.5
 20
-8.899999999999999
 10
18.5
 20
-8.899999999999999
  0
LWPOLYLINE
  5
2BF
100
AcDbEntity
  8
D1
  6
ByLayer
 62
  256
370
   18
100
AcDbPolyline
 90
    6
 70
    1
 43
0
 10
18.5
 20
-6.999999999999993
 10
19.5
 20
-6.999999999999993
 10
19.5
 20
-7.099999999999994
 10
18.5
 20
-7.099999999999994
 10
18.5
 20
-7.099999999999994
 10
18.5
 20
-7.099999999999994
  0
LINE
  5
2C0
100
AcDbEntity
  8
D1
  6
ByLayer
 62
  256
370
   18
100
AcDbLine
 10
18.6
 20
-5.999999999999993
 11
18.6
 21
-8.999999999999993
  0
LINE
  5
2C1
100
AcDbEntity
  8
D1
  6
ByLayer
 62
  256
370
   18
100
AcDbLine
 10
19.4
 20
-5.999999999999993
 11
19.4
 21
-8.999999999999993
  0
LWPOLYLINE
  5
2C2
100
AcDbEntity
  8
D1
  6
ByLayer
 62
  256
370
   18
100
AcDbPolyline
 90
    5
 70
    1
 43
0
 10
16.5
 20
-6.399999999999991
 10
17.5
 20
-6.399999999999991
 10
17.5
 20
-6.499999999999993
 10
16.5
 20
-6.499999999999993
 10
16.5
 20
-6.499999999999993
  0
LWPOLYLINE
  5
2C3
100
AcDbEntity
  8
D1
  6
ByLayer
 62
  256
370
   18
100
AcDbPolyline
 90
    5
 70
    1
 43
0
 10
16.5
 20
-6.699999999999996
 10
17.5
 20
-6.699999999999996
 10
17.5
 20
-6.799999999999997
 10
16.5
 20
-6.799999999999997
 10
16.5
 20
-6.799999999999997
  0
LINE
  5
2C4
100
AcDbEntity
  8
D1
  6
ByLayer
 62
  256
370
   18
100
AcDbLine
 10
16.6
 20
-5.999999999999993
 11
16.6
 21
-8.999999999999993
  0
LINE
  5
2C5
100
AcDbEntity
  8
D1
  6
ByLayer
 62
  256
370
   18
100
AcDbLine
 10
17.4
 20
-5.999999999999993
 11
17.4
 21
-8.999999999999993
  0
LWPOLYLINE
  5
2C6
100
AcDbEntity
  8
D1
  6
ByLayer
 62
  256
370
   18
100
AcDbPolyline
 90
    5
 70
    1
 43
0
 10
14
 20
-6.399999999999984
 10
15
 20
-6.399999999999984
 10
15
 20
-6.499999999999986
 10
14
 20
-6.499999999999986
 10
14
 20
-6.499999999999986
  0
LWPOLYLINE
  5
2C7
100
AcDbEntity
  8
D1
  6
ByLayer
 62
  256
370
   18
100
AcDbPolyline
 90
    5
 70
    1
 43
0
 10
14
 20
-6.699999999999989
 10
15
 20
-6.699999999999989
 10
15
 20
-6.79999999999999
 10
14
 20
-6.79999999999999
 10
14
 20
-6.79999999999999
  0
LINE
  5
2C8
100
AcDbEntity
  8
D1
  6
ByLayer
 62
  256
370
   18
100
AcDbLine
 10
14.1
 20
-5.999999999999986
 11
14.1
 21
-8.999999999999986
  0
LINE
  5
2C9
100
AcDbEntity
  8
D1
  6
ByLayer
 62
  256
370
   18
100
AcDbLine
 10
14.9
 20
-5.999999999999986
 11
14.9
 21
-8.999999999999986
  0
LWPOLYLINE
  5
2CA
100
AcDbEntity
  8
D1
  6
ByLayer
 62
  256
370
   18
100
AcDbPolyline
 90
    5
 70
    1
 43
0
 10
18.5
 20
-6.399999999999991
 10
19.5
 20
-6.399999999999991
 10
19.5
 20
-6.499999999999993
 10
18.5
 20
-6.499999999999993
 10
18.5
 20
-6.499999999999993
  0
LWPOLYLINE
  5
2CB
100
AcDbEntity
  8
D1
  6
ByLayer
 62
  256
370
   18
100
AcDbPolyline
 90
    5
 70
    1
 43
0
 10
18.5
 20
-6.699999999999996
 10
19.5
 20
-6.699999999999996
 10
19.5
 20
-6.799999999999997
 10
18.5
 20
-6.799999999999997
 10
18.5
 20
-6.799999999999997
  0
ENDSEC
  0
SECTION
  2
OBJECTS
  0
DICTIONARY
  5
C
330
0
100
AcDbDictionary
281
    1
  3
ACAD_GROUP
350
D
  0
DICTIONARY
  5
D
330
C
100
AcDbDictionary
281
    1
  0
ENDSEC
  0
EOF
