999
dxfrw 0.6.3
  0
SECTION
  2
HEADER
  9
$ACADVER
  1
AC1021
  9
$DWGCODEPAGE
  3
ANSI_1252
  9
$INSBASE
 10
0
 20
0
 30
0
  9
$EXTMIN
 10
-13
 20
-10
 30
0
  9
$EXTMAX
 10
113.8883914038246
 20
80
 30
0
  9
$LIMMIN
 10
0
 20
0
  9
$LIMMAX
 10
420
 20
297
  9
$ORTHOMODE
 70
    0
  9
$REGENMODE
 70
    1
  9
$FILLMODE
 70
    1
  9
$QTEXTMODE
 70
    0
  9
$MIRRTEXT
 70
    0
  9
$LTSCALE
 40
1
  9
$ATTMODE
 70
    0
  9
$TEXTSIZE
 40
1
  9
$TRACEWID
 40
15.68
  9
$TEXTSTYLE
  7
Standard
  9
$CLAYER
  8
0
  9
$CELTYPE
  6
ByLayer
  9
$CECOLOR
 62
  256
  9
$CELTSCALE
 40
1
  9
$DISPSILH
 70
    0
  9
$DIMSCALE
 40
1
  9
$DIMASZ
 40
2.5
  9
$DIMEXO
 40
0.625
  9
$DIMDLI
 40
3.75
  9
$DIMRND
 40
0
  9
$DIMDLE
 40
0
  9
$DIMEXE
 40
1.25
  9
$DIMTP
 40
0
  9
$DIMTM
 40
0
  9
$DIMTXT
 40
0.0082021
  9
$DIMCEN
 40
2.5
  9
$DIMTSZ
 40
0
  9
$DIMTOL
 70
    0
  9
$DIMLIM
 70
    0
  9
$DIMTIH
 70
    0
  9
$DIMTOH
 70
    0
  9
$DIMSE1
 70
    0
  9
$DIMSE2
 70
    0
  9
$DIMTAD
 70
    1
  9
$DIMZIN
 70
    1
  9
$DIMBLK
  1

  9
$DIMASO
 70
    1
  9
$DIMSHO
 70
    1
  9
$DIMPOST
  1

  9
$DIMAPOST
  1

  9
$DIMALT
 70
    0
  9
$DIMALTD
 70
    3
  9
$DIMALTF
 40
0.03937
  9
$DIMLFAC
 40
1
  9
$DIMTOFL
 70
    1
  9
$DIMTVP
 40
0
  9
$DIMTIX
 70
    0
  9
$DIMSOXD
 70
    0
  9
$DIMSAH
 70
    0
  9
$DIMBLK1
  1

  9
$DIMBLK2
  1

  9
$DIMSTYLE
  2
Standard
  9
$DIMCLRD
 70
    0
  9
$DIMCLRE
 70
    0
  9
$DIMCLRT
 70
    0
  9
$DIMTFAC
 40
1
  9
$DIMGAP
 40
0.625
  9
$DIMJUST
 70
    0
  9
$DIMSD1
 70
    0
  9
$DIMSD2
 70
    0
  9
$DIMTOLJ
 70
    0
  9
$DIMTZIN
 70
    8
  9
$DIMALTZ
 70
    0
  9
$DIMALTTZ
 70
    0
  9
$DIMUPT
 70
    0
  9
$DIMDEC
 70
    4
  9
$DIMTDEC
 70
    2
  9
$DIMALTU
 70
    2
  9
$DIMALTTD
 70
    3
  9
$DIMTXSTY
  7
Standard
  9
$DIMAUNIT
 70
    0
  9
$DIMADEC
 70
    0
  9
$DIMALTRND
 40
0
  9
$DIMAZIN
 70
    0
  9
$DIMDSEP
 70
   44
  9
$DIMATFIT
 70
    3
  9
$DIMFRAC
 70
    0
  9
$DIMLDRBLK
  1

  9
$DIMLUNIT
 70
    2
  9
$DIMLWD
 70
   -2
  9
$DIMLWE
 70
   -2
  9
$DIMTMOVE
 70
    0
  9
$DIMFXL
 40
1
  9
$DIMFXLON
 70
    0
  9
$DIMJOGANG
 40
0.7853981633974483
  9
$DIMTFILL
 70
    0
  9
$DIMTFILLCLR
 70
    0
  9
$DIMARCSYM
 70
    0
  9
$DIMLTYPE
  6

  9
$DIMLTEX1
  6

  9
$DIMLTEX2
  6

  9
$LUNITS
 70
    2
  9
$LUPREC
 70
    4
  9
$SKETCHINC
 40
1
  9
$FILLETRAD
 40
0
  9
$AUNITS
 70
    0
  9
$AUPREC
 70
    2
  9
$MENU
  1
.
  9
$ELEVATION
 40
0
  9
$PELEVATION
 40
0
  9
$THICKNESS
 40
0
  9
$LIMCHECK
 70
    0
  9
$CHAMFERA
 40
0
  9
$CHAMFERB
 40
0
  9
$CHAMFERC
 40
0
  9
$CHAMFERD
 40
0
  9
$SKPOLY
 70
    0
  9
$USRTIMER
 70
    1
  9
$ANGBASE
 50
0
  9
$ANGDIR
 70
    0
  9
$PDMODE
 70
   34
  9
$PDSIZE
 40
0
  9
$PLINEWID
 40
0
  9
$SPLFRAME
 70
    0
  9
$SPLINETYPE
 70
    6
  9
$SPLINESEGS
 70
    8
  9
$HANDSEED
  5
20000
  9
$SURFTAB1
 70
    6
  9
$SURFTAB2
 70
    6
  9
$SURFTYPE
 70
    6
  9
$SURFU
 70
    6
  9
$SURFV
 70
    6
  9
$UCSBASE
  2

  9
$UCSNAME
  2

  9
$UCSORG
 10
0
 20
0
 30
0
  9
$UCSXDIR
 10
1
 20
0
 30
0
  9
$UCSYDIR
 10
0
 20
1
 30
0
  9
$UCSORTHOREF
  2

  9
$UCSORTHOVIEW
 70
    0
  9
$UCSORGTOP
 10
0
 20
0
 30
0
  9
$UCSORGBOTTOM
 10
0
 20
0
 30
0
  9
$UCSORGLEFT
 10
0
 20
0
 30
0
  9
$UCSORGRIGHT
 10
0
 20
0
 30
0
  9
$UCSORGFRONT
 10
0
 20
0
 30
0
  9
$UCSORGBACK
 10
0
 20
0
 30
0
  9
$PUCSBASE
  2

  9
$PUCSNAME
  2

  9
$PUCSORG
 10
0
 20
0
 30
0
  9
$PUCSXDIR
 10
1
 20
0
 30
0
  9
$PUCSYDIR
 10
0
 20
1
 30
0
  9
$PUCSORTHOREF
  2

  9
$PUCSORTHOVIEW
 70
    0
  9
$PUCSORGTOP
 10
0
 20
0
 30
0
  9
$PUCSORGBOTTOM
 10
0
 20
0
 30
0
  9
$PUCSORGLEFT
 10
0
 20
0
 30
0
  9
$PUCSORGRIGHT
 10
0
 20
0
 30
0
  9
$PUCSORGFRONT
 10
0
 20
0
 30
0
  9
$PUCSORGBACK
 10
0
 20
0
 30
0
  9
$USERI1
 70
    0
  9
$USERI2
 70
    0
  9
$USERI3
 70
    0
  9
$USERI4
 70
    0
  9
$USERI5
 70
    0
  9
$USERR1
 40
0
  9
$USERR2
 40
0
  9
$USERR3
 40
0
  9
$USERR4
 40
0
  9
$USERR5
 40
0
  9
$WORLDVIEW
 70
    1
  9
$SHADEDGE
 70
    3
  9
$SHADEDIF
 70
   70
  9
$TILEMODE
 70
    1
  9
$MAXACTVP
 70
   64
  9
$PINSBASE
 10
57.52068950777564
 20
50.16710898279699
 30
0
  9
$PLIMCHECK
 70
    0
  9
$PEXTMIN
 10
0
 20
0
 30
0
  9
$PEXTMAX
 10
0
 20
0
 30
0
  9
$GRIDMODE
 70
    0
  9
$SNAPSTYLE
 70
    0
  9
$PLIMMIN
 10
-20
 20
-7.5
  9
$PLIMMAX
 10
277
 20
202.5
  9
$UNITMODE
 70
    0
  9
$VISRETAIN
 70
    1
  9
$PLINEGEN
 70
    0
  9
$PSLTSCALE
 70
    1
  9
$TREEDEPTH
 70
 3020
  9
$CMLSTYLE
  2
Standard
  9
$CMLJUST
 70
    0
  9
$CMLSCALE
 40
20
  9
$PROXYGRAPHICS
 70
    1
  9
$MEASUREMENT
 70
    1
  9
$CELWEIGHT
370
   -1
  9
$ENDCAPS
280
    0
  9
$JOINSTYLE
280
    0
  9
$LWDISPLAY
290
    0
  9
$INSUNITS
 70
    0
  9
$HYPERLINKBASE
  1

  9
$STYLESHEET
  1

  9
$XEDIT
290
    1
  9
$CEPSNTYPE
380
    0
  9
$PSTYLEMODE
290
    1
  9
$EXTNAMES
290
    1
  9
$PSVPSCALE
 40
0
  9
$OLESTARTUP
290
    0
  9
$SORTENTS
280
  127
  9
$INDEXCTL
280
    0
  9
$HIDETEXT
280
    1
  9
$XCLIPFRAME
290
    2
  9
$HALOGAP
280
    0
  9
$OBSCOLOR
 70
  257
  9
$OBSLTYPE
280
    0
  9
$INTERSECTIONDISPLAY
280
    0
  9
$INTERSECTIONCOLOR
 70
  257
  9
$DIMASSOC
280
    2
  9
$PROJECTNAME
  1

  9
$CAMERADISPLAY
290
    0
  9
$LENSLENGTH
 40
50
  9
$CAMERAHEIGHT
 40
0
  9
$STEPSPERSEC
 40
2
  9
$STEPSIZE
 40
6
  9
$3DDWFPREC
 40
2
  9
$PSOLWIDTH
 40
0.25
  9
$PSOLHEIGHT
 40
4
  9
$LOFTANG1
 40
1.570796326794897
  9
$LOFTANG2
 40
1.570796326794897
  9
$LOFTMAG1
 40
0
  9
$LOFTMAG2
 40
0
  9
$LOFTPARAM
 70
    7
  9
$LOFTNORMALS
280
    1
  9
$LATITUDE
 40
37.795
  9
$LONGITUDE
 40
-122.394
  9
$NORTHDIRECTION
 40
0
  9
$TIMEZONE
 70
-8000
  9
$LIGHTGLYPHDISPLAY
280
    1
  9
$TILEMODELIGHTSYNCH
280
    1
  9
$SOLIDHIST
280
    0
  9
$SHOWHIST
280
    1
  9
$DWFFRAME
280
    2
  9
$DGNFRAME
280
    2
  9
$REALWORLDSCALE
290
    1
  9
$INTERFERECOLOR
 62
  256
  9
$CSHADOW
280
    0
  9
$SHADOWPLANELOCATION
 40
0
  0
ENDSEC
  0
SECTION
  2
CLASSES
  0
ENDSEC
  0
SECTION
  2
TABLES
  0
TABLE
  2
VPORT
  5
8
330
0
100
AcDbSymbolTable
 70
    1
  0
VPORT
  5
31
330
2
100
AcDbSymbolTableRecord
100
AcDbViewportTableRecord
  2
*ACTIVE
 70
    0
 10
0
 20
0
 11
1
 21
1
 12
84.580085760914
 22
51.55043563595668
 13
0
 23
0
 14
10
 24
10
 15
10
 25
10
 16
0
 26
0
 36
1
 17
0
 27
0
 37
0
 40
130.9095284486661
 41
1.696893366918556
 42
50
 43
0
 44
0
 50
0
 51
0
 71
    0
 72
  100
 73
    1
 74
    3
 75
    0
 76
    0
 77
    0
 78
    0
281
    0
 65
    1
110
0
120
0
130
0
111
1
121
0
131
0
112
0
122
1
132
0
 79
    0
146
0
348
10020
 60
    7
 61
    5
292
1
282
    1
141
0
142
0
 63
  250
421
3358443
  0
ENDTAB
  0
TABLE
  2
LTYPE
  5
5
330
0
100
AcDbSymbolTable
 70
    4
  0
LTYPE
  5
14
330
5
100
AcDbSymbolTableRecord
100
AcDbLinetypeTableRecord
  2
ByBlock
 70
    0
  3

 72
   65
 73
    0
 40
0
  0
LTYPE
  5
15
330
5
100
AcDbSymbolTableRecord
100
AcDbLinetypeTableRecord
  2
ByLayer
 70
    0
  3

 72
   65
 73
    0
 40
0
  0
LTYPE
  5
16
330
5
100
AcDbSymbolTableRecord
100
AcDbLinetypeTableRecord
  2
Continuous
 70
    0
  3
Solid line
 72
   65
 73
    0
 40
0
  0
LTYPE
  5
32
330
5
100
AcDbSymbolTableRecord
100
AcDbLinetypeTableRecord
  2
DOT
 70
    0
  3
Dot . . . . . . . . . . . . . . . . . . . . . .
 72
   65
 73
    2
 40
6.35
 49
0
 74
    0
 49
-6.35
 74
    0
  0
LTYPE
  5
33
330
5
100
AcDbSymbolTableRecord
100
AcDbLinetypeTableRecord
  2
DOTTINY
 70
    0
  3
Dot (.15x) .....................................
 72
   65
 73
    2
 40
0.9525
 49
0
 74
    0
 49
-0.9525
 74
    0
  0
LTYPE
  5
34
330
5
100
AcDbSymbolTableRecord
100
AcDbLinetypeTableRecord
  2
DOT2
 70
    0
  3
Dot (.5x) .....................................
 72
   65
 73
    2
 40
3.175
 49
0
 74
    0
 49
-3.175
 74
    0
  0
LTYPE
  5
35
330
5
100
AcDbSymbolTableRecord
100
AcDbLinetypeTableRecord
  2
DOTX2
 70
    0
  3
Dot (2x) .  .  .  .  .  .  .  .  .  .  .  .  .
 72
   65
 73
    2
 40
12.7
 49
0
 74
    0
 49
-12.7
 74
    0
  0
LTYPE
  5
36
330
5
100
AcDbSymbolTableRecord
100
AcDbLinetypeTableRecord
  2
DASHED
 70
    0
  3
Dashed _ _ _ _ _ _ _ _ _ _ _ _ _ _ _ _ _
 72
   65
 73
    2
 40
19.05
 49
12.7
 74
    0
 49
-6.35
 74
    0
  0
LTYPE
  5
37
330
5
100
AcDbSymbolTableRecord
100
AcDbLinetypeTableRecord
  2
DASHEDTINY
 70
    0
  3
Dashed (.15x) _ _ _ _ _ _ _ _ _ _ _ _ _ _ _ _ _
 72
   65
 73
    2
 40
2.8575
 49
1.905
 74
    0
 49
-0.9525
 74
    0
  0
LTYPE
  5
38
330
5
100
AcDbSymbolTableRecord
100
AcDbLinetypeTableRecord
  2
DASHED2
 70
    0
  3
Dashed (.5x) _ _ _ _ _ _ _ _ _ _ _ _ _ _ _ _ _
 72
   65
 73
    2
 40
9.524999999999999
 49
6.35
 74
    0
 49
-3.175
 74
    0
  0
LTYPE
  5
39
330
5
100
AcDbSymbolTableRecord
100
AcDbLinetypeTableRecord
  2
DASHEDX2
 70
    0
  3
Dashed (2x) ____  ____  ____  ____  ____  ___
 72
   65
 73
    2
 40
38.09999999999999
 49
25.4
 74
    0
 49
-12.7
 74
    0
  0
LTYPE
  5
3A
330
5
100
AcDbSymbolTableRecord
100
AcDbLinetypeTableRecord
  2
DASHDOT
 70
    0
  3
Dash dot __ . __ . __ . __ . __ . __ . __ . __
 72
   65
 73
    4
 40
25.4
 49
12.7
 74
    0
 49
-6.35
 74
    0
 49
0
 74
    0
 49
-6.35
 74
    0
  0
LTYPE
  5
3B
330
5
100
AcDbSymbolTableRecord
100
AcDbLinetypeTableRecord
  2
DASHDOTTINY
 70
    0
  3
Dash dot (.15x) _._._._._._._._._._._._._._._.
 72
   65
 73
    4
 40
3.81
 49
1.905
 74
    0
 49
-0.9525
 74
    0
 49
0
 74
    0
 49
-0.9525
 74
    0
  0
LTYPE
  5
3C
330
5
100
AcDbSymbolTableRecord
100
AcDbLinetypeTableRecord
  2
DASHDOT2
 70
    0
  3
Dash dot (.5x) _._._._._._._._._._._._._._._.
 72
   65
 73
    4
 40
12.7
 49
6.35
 74
    0
 49
-3.175
 74
    0
 49
0
 74
    0
 49
-3.175
 74
    0
  0
LTYPE
  5
3D
330
5
100
AcDbSymbolTableRecord
100
AcDbLinetypeTableRecord
  2
DASHDOTX2
 70
    0
  3
Dash dot (2x) ____  .  ____  .  ____  .  ___
 72
   65
 73
    4
 40
50.8
 49
25.4
 74
    0
 49
-12.7
 74
    0
 49
0
 74
    0
 49
-12.7
 74
    0
  0
LTYPE
  5
3E
330
5
100
AcDbSymbolTableRecord
100
AcDbLinetypeTableRecord
  2
DIVIDE
 70
    0
  3
Divide ____ . . ____ . . ____ . . ____ . . ____
 72
   65
 73
    6
 40
31.75
 49
12.7
 74
    0
 49
-6.35
 74
    0
 49
0
 74
    0
 49
-6.35
 74
    0
 49
0
 74
    0
 49
-6.35
 74
    0
  0
LTYPE
  5
3F
330
5
100
AcDbSymbolTableRecord
100
AcDbLinetypeTableRecord
  2
DIVIDETINY
 70
    0
  3
Divide (.15x) __..__..__..__..__..__..__..__.._
 72
   65
 73
    6
 40
4.7625
 49
1.905
 74
    0
 49
-0.9525
 74
    0
 49
0
 74
    0
 49
-0.9525
 74
    0
 49
0
 74
    0
 49
-0.9525
 74
    0
  0
LTYPE
  5
40
330
5
100
AcDbSymbolTableRecord
100
AcDbLinetypeTableRecord
  2
DIVIDE2
 70
    0
  3
Divide (.5x) __..__..__..__..__..__..__..__.._
 72
   65
 73
    6
 40
15.875
 49
6.35
 74
    0
 49
-3.175
 74
    0
 49
0
 74
    0
 49
-3.175
 74
    0
 49
0
 74
    0
 49
-3.175
 74
    0
  0
LTYPE
  5
41
330
5
100
AcDbSymbolTableRecord
100
AcDbLinetypeTableRecord
  2
DIVIDEX2
 70
    0
  3
Divide (2x) ________  .  .  ________  .  .  _
 72
   65
 73
    6
 40
63.5
 49
25.4
 74
    0
 49
-12.7
 74
    0
 49
0
 74
    0
 49
-12.7
 74
    0
 49
0
 74
    0
 49
-12.7
 74
    0
  0
LTYPE
  5
42
330
5
100
AcDbSymbolTableRecord
100
AcDbLinetypeTableRecord
  2
BORDER
 70
    0
  3
Border __ __ . __ __ . __ __ . __ __ . __ __ .
 72
   65
 73
    6
 40
44.45
 49
12.7
 74
    0
 49
-6.35
 74
    0
 49
12.7
 74
    0
 49
-6.35
 74
    0
 49
0
 74
    0
 49
-6.35
 74
    0
  0
LTYPE
  5
43
330
5
100
AcDbSymbolTableRecord
100
AcDbLinetypeTableRecord
  2
BORDERTINY
 70
    0
  3
Border (.15x) __.__.__.__.__.__.__.__.__.__.__.
 72
   65
 73
    6
 40
6.6675
 49
1.905
 74
    0
 49
-0.9525
 74
    0
 49
1.905
 74
    0
 49
-0.9525
 74
    0
 49
0
 74
    0
 49
-0.9525
 74
    0
  0
LTYPE
  5
44
330
5
100
AcDbSymbolTableRecord
100
AcDbLinetypeTableRecord
  2
BORDER2
 70
    0
  3
Border (.5x) __.__.__.__.__.__.__.__.__.__.__.
 72
   65
 73
    6
 40
22.225
 49
6.35
 74
    0
 49
-3.175
 74
    0
 49
6.35
 74
    0
 49
-3.175
 74
    0
 49
0
 74
    0
 49
-3.175
 74
    0
  0
LTYPE
  5
45
330
5
100
AcDbSymbolTableRecord
100
AcDbLinetypeTableRecord
  2
BORDERX2
 70
    0
  3
Border (2x) ____  ____  .  ____  ____  .  ___
 72
   65
 73
    6
 40
88.89999999999999
 49
25.4
 74
    0
 49
-12.7
 74
    0
 49
25.4
 74
    0
 49
-12.7
 74
    0
 49
0
 74
    0
 49
-12.7
 74
    0
  0
LTYPE
  5
46
330
5
100
AcDbSymbolTableRecord
100
AcDbLinetypeTableRecord
  2
CENTER
 70
    0
  3
Center ____ _ ____ _ ____ _ ____ _ ____ _ ____
 72
   65
 73
    4
 40
50.8
 49
31.75
 74
    0
 49
-6.35
 74
    0
 49
6.35
 74
    0
 49
-6.35
 74
    0
  0
LTYPE
  5
47
330
5
100
AcDbSymbolTableRecord
100
AcDbLinetypeTableRecord
  2
CENTERTINY
 70
    0
  3
Center (.15x) ___ _ ___ _ ___ _ ___ _ ___ _ ___
 72
   65
 73
    4
 40
7.62
 49
4.7625
 74
    0
 49
-0.9525
 74
    0
 49
0.9525
 74
    0
 49
-0.9525
 74
    0
  0
LTYPE
  5
48
330
5
100
AcDbSymbolTableRecord
100
AcDbLinetypeTableRecord
  2
CENTER2
 70
    0
  3
Center (.5x) ___ _ ___ _ ___ _ ___ _ ___ _ ___
 72
   65
 73
    4
 40
28.575
 49
19.05
 74
    0
 49
-3.175
 74
    0
 49
3.175
 74
    0
 49
-3.175
 74
    0
  0
LTYPE
  5
49
330
5
100
AcDbSymbolTableRecord
100
AcDbLinetypeTableRecord
  2
CENTERX2
 70
    0
  3
Center (2x) ________  __  ________  __  _____
 72
   65
 73
    4
 40
101.6
 49
63.5
 74
    0
 49
-12.7
 74
    0
 49
12.7
 74
    0
 49
-12.7
 74
    0
  0
ENDTAB
  0
TABLE
  2
LAYER
  5
2
330
0
100
AcDbSymbolTable
 70
    1
  0
LAYER
  5
10
330
2
100
AcDbSymbolTableRecord
100
AcDbLayerTableRecord
  2
0
 70
    0
 62
    7
  6
CONTINUOUS
370
    0
390
F
  0
ENDTAB
  0
TABLE
  2
STYLE
  5
3
330
0
100
AcDbSymbolTable
 70
    3
  0
STYLE
  5
4A
330
2
100
AcDbSymbolTableRecord
100
AcDbTextStyleTableRecord
  2
textstyle36
 70
    0
 40
0
 41
1
 50
0
 71
    0
 42
1
  3
textstyle36
  4

  0
STYLE
  5
4B
330
2
100
AcDbSymbolTableRecord
100
AcDbTextStyleTableRecord
  2
textstyle29
 70
    0
 40
0
 41
1
 50
0
 71
    0
 42
1
  3
textstyle29
  4

  0
STYLE
  5
4C
330
2
100
AcDbSymbolTableRecord
100
AcDbTextStyleTableRecord
  2
textstyle37
 70
    0
 40
0
 41
1
 50
0
 71
    0
 42
1
  3
textstyle37
  4

  0
STYLE
  5
4D
330
2
100
AcDbSymbolTableRecord
100
AcDbTextStyleTableRecord
  2
textstyle33
 70
    0
 40
0
 41
1
 50
0
 71
    0
 42
1
  3
textstyle33
  4

  0
STYLE
  5
4E
330
2
100
AcDbSymbolTableRecord
100
AcDbTextStyleTableRecord
  2
textstyle15
 70
    0
 40
0
 41
1
 50
0
 71
    0
 42
1
  3
textstyle15
  4

  0
STYLE
  5
4F
330
2
100
AcDbSymbolTableRecord
100
AcDbTextStyleTableRecord
  2
textstyle55
 70
    0
 40
0
 41
1
 50
0
 71
    0
 42
1
  3
textstyle55
  4

  0
STYLE
  5
50
330
2
100
AcDbSymbolTableRecord
100
AcDbTextStyleTableRecord
  2
textstyle59
 70
    0
 40
0
 41
1
 50
0
 71
    0
 42
1
  3
textstyle59
  4

  0
STYLE
  5
51
330
2
100
AcDbSymbolTableRecord
100
AcDbTextStyleTableRecord
  2
textstyle32
 70
    0
 40
0
 41
1
 50
0
 71
    0
 42
1
  3
textstyle32
  4

  0
STYLE
  5
52
330
2
100
AcDbSymbolTableRecord
100
AcDbTextStyleTableRecord
  2
textstyle41
 70
    0
 40
0
 41
1
 50
0
 71
    0
 42
1
  3
textstyle41
  4

  0
STYLE
  5
53
330
2
100
AcDbSymbolTableRecord
100
AcDbTextStyleTableRecord
  2
textstyle53
 70
    0
 40
0
 41
1
 50
0
 71
    0
 42
1
  3
textstyle53
  4

  0
STYLE
  5
54
330
2
100
AcDbSymbolTableRecord
100
AcDbTextStyleTableRecord
  2
textstyle42
 70
    0
 40
0
 41
1
 50
0
 71
    0
 42
1
  3
textstyle42
  4

  0
STYLE
  5
55
330
2
100
AcDbSymbolTableRecord
100
AcDbTextStyleTableRecord
  2
textstyle34
 70
    0
 40
0
 41
1
 50
0
 71
    0
 42
1
  3
textstyle34
  4

  0
STYLE
  5
56
330
2
100
AcDbSymbolTableRecord
100
AcDbTextStyleTableRecord
  2
textstyle16
 70
    0
 40
0
 41
1
 50
0
 71
    0
 42
1
  3
textstyle16
  4

  0
STYLE
  5
57
330
2
100
AcDbSymbolTableRecord
100
AcDbTextStyleTableRecord
  2
textstyle38
 70
    0
 40
0
 41
1
 50
0
 71
    0
 42
1
  3
textstyle38
  4

  0
STYLE
  5
58
330
2
100
AcDbSymbolTableRecord
100
AcDbTextStyleTableRecord
  2
textstyle17
 70
    0
 40
0
 41
1
 50
0
 71
    0
 42
1
  3
textstyle17
  4

  0
STYLE
  5
59
330
2
100
AcDbSymbolTableRecord
100
AcDbTextStyleTableRecord
  2
textstyle30
 70
    0
 40
0
 41
1
 50
0
 71
    0
 42
1
  3
textstyle30
  4

  0
STYLE
  5
5A
330
2
100
AcDbSymbolTableRecord
100
AcDbTextStyleTableRecord
  2
textstyle39
 70
    0
 40
0
 41
1
 50
0
 71
    0
 42
1
  3
textstyle39
  4

  0
STYLE
  5
5B
330
2
100
AcDbSymbolTableRecord
100
AcDbTextStyleTableRecord
  2
textstyle58
 70
    0
 40
0
 41
1
 50
0
 71
    0
 42
1
  3
textstyle58
  4

  0
STYLE
  5
5C
330
2
100
AcDbSymbolTableRecord
100
AcDbTextStyleTableRecord
  2
textstyle63
 70
    0
 40
0
 41
1
 50
0
 71
    0
 42
1
  3
textstyle63
  4

  0
STYLE
  5
5D
330
2
100
AcDbSymbolTableRecord
100
AcDbTextStyleTableRecord
  2
textstyle24
 70
    0
 40
0
 41
1
 50
0
 71
    0
 42
1
  3
textstyle24
  4

  0
STYLE
  5
5E
330
2
100
AcDbSymbolTableRecord
100
AcDbTextStyleTableRecord
  2
textstyle56
 70
    0
 40
0
 41
1
 50
0
 71
    0
 42
1
  3
textstyle56
  4

  0
STYLE
  5
5F
330
2
100
AcDbSymbolTableRecord
100
AcDbTextStyleTableRecord
  2
textstyle26
 70
    0
 40
0
 41
1
 50
0
 71
    0
 42
1
  3
textstyle26
  4

  0
STYLE
  5
60
330
2
100
AcDbSymbolTableRecord
100
AcDbTextStyleTableRecord
  2
textstyle60
 70
    0
 40
0
 41
1
 50
0
 71
    0
 42
1
  3
textstyle60
  4

  0
STYLE
  5
61
330
2
100
AcDbSymbolTableRecord
100
AcDbTextStyleTableRecord
  2
textstyle18
 70
    0
 40
0
 41
1
 50
0
 71
    0
 42
1
  3
textstyle18
  4

  0
STYLE
  5
62
330
2
100
AcDbSymbolTableRecord
100
AcDbTextStyleTableRecord
  2
textstyle54
 70
    0
 40
0
 41
1
 50
0
 71
    0
 42
1
  3
textstyle54
  4

  0
STYLE
  5
63
330
2
100
AcDbSymbolTableRecord
100
AcDbTextStyleTableRecord
  2
textstyle40
 70
    0
 40
0
 41
1
 50
0
 71
    0
 42
1
  3
textstyle40
  4

  0
STYLE
  5
64
330
2
100
AcDbSymbolTableRecord
100
AcDbTextStyleTableRecord
  2
textstyle48
 70
    0
 40
0
 41
1
 50
0
 71
    0
 42
1
  3
textstyle48
  4

  0
STYLE
  5
65
330
2
100
AcDbSymbolTableRecord
100
AcDbTextStyleTableRecord
  2
textstyle49
 70
    0
 40
0
 41
1
 50
0
 71
    0
 42
1
  3
textstyle49
  4

  0
STYLE
  5
66
330
2
100
AcDbSymbolTableRecord
100
AcDbTextStyleTableRecord
  2
textstyle50
 70
    0
 40
0
 41
1
 50
0
 71
    0
 42
1
  3
textstyle50
  4

  0
STYLE
  5
67
330
2
100
AcDbSymbolTableRecord
100
AcDbTextStyleTableRecord
  2
textstyle46
 70
    0
 40
0
 41
1
 50
0
 71
    0
 42
1
  3
textstyle46
  4

  0
STYLE
  5
68
330
2
100
AcDbSymbolTableRecord
100
AcDbTextStyleTableRecord
  2
textstyle57
 70
    0
 40
0
 41
1
 50
0
 71
    0
 42
1
  3
textstyle57
  4

  0
STYLE
  5
69
330
2
100
AcDbSymbolTableRecord
100
AcDbTextStyleTableRecord
  2
textstyle61
 70
    0
 40
0
 41
1
 50
0
 71
    0
 42
1
  3
textstyle61
  4

  0
STYLE
  5
6A
330
2
100
AcDbSymbolTableRecord
100
AcDbTextStyleTableRecord
  2
textstyle25
 70
    0
 40
0
 41
1
 50
0
 71
    0
 42
1
  3
textstyle25
  4

  0
STYLE
  5
6B
330
2
100
AcDbSymbolTableRecord
100
AcDbTextStyleTableRecord
  2
textstyle12
 70
    0
 40
0
 41
1
 50
0
 71
    0
 42
1
  3
textstyle12
  4

  0
STYLE
  5
6C
330
2
100
AcDbSymbolTableRecord
100
AcDbTextStyleTableRecord
  2
textstyle51
 70
    0
 40
0
 41
1
 50
0
 71
    0
 42
1
  3
textstyle51
  4

  0
STYLE
  5
6D
330
2
100
AcDbSymbolTableRecord
100
AcDbTextStyleTableRecord
  2
textstyle44
 70
    0
 40
0
 41
1
 50
0
 71
    0
 42
1
  3
textstyle44
  4

  0
STYLE
  5
6E
330
2
100
AcDbSymbolTableRecord
100
AcDbTextStyleTableRecord
  2
textstyle13
 70
    0
 40
0
 41
1
 50
0
 71
    0
 42
1
  3
textstyle13
  4

  0
STYLE
  5
6F
330
2
100
AcDbSymbolTableRecord
100
AcDbTextStyleTableRecord
  2
textstyle31
 70
    0
 40
0
 41
1
 50
0
 71
    0
 42
1
  3
textstyle31
  4

  0
STYLE
  5
70
330
2
100
AcDbSymbolTableRecord
100
AcDbTextStyleTableRecord
  2
textstyle43
 70
    0
 40
0
 41
1
 50
0
 71
    0
 42
1
  3
textstyle43
  4

  0
STYLE
  5
71
330
2
100
AcDbSymbolTableRecord
100
AcDbTextStyleTableRecord
  2
textstyle22
 70
    0
 40
0
 41
1
 50
0
 71
    0
 42
1
  3
textstyle22
  4

  0
STYLE
  5
72
330
2
100
AcDbSymbolTableRecord
100
AcDbTextStyleTableRecord
  2
textstyle28
 70
    0
 40
0
 41
1
 50
0
 71
    0
 42
1
  3
textstyle28
  4

  0
STYLE
  5
73
330
2
100
AcDbSymbolTableRecord
100
AcDbTextStyleTableRecord
  2
textstyle11
 70
    0
 40
0
 41
1
 50
0
 71
    0
 42
1
  3
textstyle11
  4

  0
STYLE
  5
74
330
2
100
AcDbSymbolTableRecord
100
AcDbTextStyleTableRecord
  2
textstyle27
 70
    0
 40
0
 41
1
 50
0
 71
    0
 42
1
  3
textstyle27
  4

  0
STYLE
  5
75
330
2
100
AcDbSymbolTableRecord
100
AcDbTextStyleTableRecord
  2
textstyle62
 70
    0
 40
0
 41
1
 50
0
 71
    0
 42
1
  3
textstyle62
  4

  0
STYLE
  5
76
330
2
100
AcDbSymbolTableRecord
100
AcDbTextStyleTableRecord
  2
textstyle14
 70
    0
 40
0
 41
1
 50
0
 71
    0
 42
1
  3
textstyle14
  4

  0
STYLE
  5
77
330
2
100
AcDbSymbolTableRecord
100
AcDbTextStyleTableRecord
  2
textstyle21
 70
    0
 40
0
 41
1
 50
0
 71
    0
 42
1
  3
textstyle21
  4

  0
STYLE
  5
78
330
2
100
AcDbSymbolTableRecord
100
AcDbTextStyleTableRecord
  2
textstyle45
 70
    0
 40
0
 41
1
 50
0
 71
    0
 42
1
  3
textstyle45
  4

  0
STYLE
  5
79
330
2
100
AcDbSymbolTableRecord
100
AcDbTextStyleTableRecord
  2
textstyle19
 70
    0
 40
0
 41
1
 50
0
 71
    0
 42
1
  3
textstyle19
  4

  0
STYLE
  5
7A
330
2
100
AcDbSymbolTableRecord
100
AcDbTextStyleTableRecord
  2
textstyle52
 70
    0
 40
0
 41
1
 50
0
 71
    0
 42
1
  3
textstyle52
  4

  0
STYLE
  5
7B
330
2
100
AcDbSymbolTableRecord
100
AcDbTextStyleTableRecord
  2
textstyle47
 70
    0
 40
0
 41
1
 50
0
 71
    0
 42
1
  3
textstyle47
  4

  0
STYLE
  5
7C
330
2
100
AcDbSymbolTableRecord
100
AcDbTextStyleTableRecord
  2
textstyle20
 70
    0
 40
0
 41
1
 50
0
 71
    0
 42
1
  3
textstyle20
  4

  0
STYLE
  5
7D
330
2
100
AcDbSymbolTableRecord
100
AcDbTextStyleTableRecord
  2
textstyle35
 70
    0
 40
0
 41
1
 50
0
 71
    0
 42
1
  3
textstyle35
  4

  0
STYLE
  5
7E
330
2
100
AcDbSymbolTableRecord
100
AcDbTextStyleTableRecord
  2
textstyle23
 70
    0
 40
0
 41
1
 50
0
 71
    0
 42
1
  3
textstyle23
  4

  0
STYLE
  5
7F
330
2
100
AcDbSymbolTableRecord
100
AcDbTextStyleTableRecord
  2
Standard
 70
    0
 40
0
 41
1
 50
0
 71
    0
 42
1
  3
txt
  4

  0
ENDTAB
  0
TABLE
  2
VIEW
  5
6
330
0
100
AcDbSymbolTable
 70
    0
  0
ENDTAB
  0
TABLE
  2
UCS
  5
7
330
0
100
AcDbSymbolTable
 70
    0
  0
ENDTAB
  0
TABLE
  2
APPID
  5
9
330
0
100
AcDbSymbolTable
 70
    1
  0
APPID
  5
12
330
9
100
AcDbSymbolTableRecord
100
AcDbRegAppTableRecord
  2
ACAD
 70
    0
  0
APPID
  5
80
330
9
100
AcDbSymbolTableRecord
100
AcDbRegAppTableRecord
  2
LibreCad
 70
    0
  0
ENDTAB
  0
TABLE
  2
DIMSTYLE
  5
A
330
0
100
AcDbSymbolTable
 70
    1
100
AcDbDimStyleTable
 71
    1
  0
DIMSTYLE
105
81
330
A
100
AcDbSymbolTableRecord
100
AcDbDimStyleTableRecord
  2
Standard
 70
    0
 40
1
 41
2.5
 42
0.625
 43
0.38
 44
1.25
 45
0
 46
0
 47
0
 48
0
 49
1
140
0.0082021
141
0.09
142
0
143
25.4
144
1
145
0
146
1
147
0.625
148
0
 71
    0
 72
    0
 73
    0
 74
    1
 75
    0
 76
    0
 77
    0
 78
    1
 79
    0
170
    0
171
    2
172
    0
173
    0
174
    0
175
    0
176
    0
177
    0
178
    0
179
    0
271
    4
272
    4
273
    2
274
    2
275
    0
276
    0
277
    2
278
   44
279
    0
280
    0
281
    0
282
    0
283
    1
284
    0
285
    0
286
    0
288
    0
289
    3
340
Standard
341

371
   -2
372
   -2
  0
ENDTAB
  0
TABLE
  2
BLOCK_RECORD
  5
1
330
0
100
AcDbSymbolTable
 70
    2
  0
BLOCK_RECORD
  5
1F
330
1
100
AcDbSymbolTableRecord
100
AcDbBlockTableRecord
  2
*Model_Space
 70
    0
280
    1
281
    0
  0
BLOCK_RECORD
  5
1E
330
1
100
AcDbSymbolTableRecord
100
AcDbBlockTableRecord
  2
*Paper_Space
 70
    0
280
    1
281
    0
  0
BLOCK_RECORD
  5
82
330
1
100
AcDbSymbolTableRecord
100
AcDbBlockTableRecord
  2
Connector1
 70
    0
280
    1
281
    0
  0
BLOCK_RECORD
  5
85
330
1
100
AcDbSymbolTableRecord
100
AcDbBlockTableRecord
  2
Connector1-0
 70
    0
280
    1
281
    0
  0
BLOCK_RECORD
  5
88
330
1
100
AcDbSymbolTableRecord
100
AcDbBlockTableRecord
  2
Connector1-1
 70
    0
280
    1
281
    0
  0
BLOCK_RECORD
  5
8B
330
1
100
AcDbSymbolTableRecord
100
AcDbBlockTableRecord
  2
Connector1-2
 70
    0
280
    1
281
    0
  0
BLOCK_RECORD
  5
8E
330
1
100
AcDbSymbolTableRecord
100
AcDbBlockTableRecord
  2
Connector1-3
 70
    0
280
    1
281
    0
  0
BLOCK_RECORD
  5
91
330
1
100
AcDbSymbolTableRecord
100
AcDbBlockTableRecord
  2
Connector1-4
 70
    0
280
    1
281
    0
  0
BLOCK_RECORD
  5
94
330
1
100
AcDbSymbolTableRecord
100
AcDbBlockTableRecord
  2
Connector1-5
 70
    0
280
    1
281
    0
  0
BLOCK_RECORD
  5
97
330
1
100
AcDbSymbolTableRecord
100
AcDbBlockTableRecord
  2
Connector1-6
 70
    0
280
    1
281
    0
  0
BLOCK_RECORD
  5
9A
330
1
100
AcDbSymbolTableRecord
100
AcDbBlockTableRecord
  2
Connector1-7
 70
    0
280
    1
281
    0
  0
BLOCK_RECORD
  5
9D
330
1
100
AcDbSymbolTableRecord
100
AcDbBlockTableRecord
  2
Connector1-8
 70
    0
280
    1
281
    0
  0
BLOCK_RECORD
  5
A0
330
1
100
AcDbSymbolTableRecord
100
AcDbBlockTableRecord
  2
Connector1-9
 70
    0
280
    1
281
    0
  0
BLOCK_RECORD
  5
A3
330
1
100
AcDbSymbolTableRecord
100
AcDbBlockTableRecord
  2
Connector1-10
 70
    0
280
    1
281
    0
  0
BLOCK_RECORD
  5
A6
330
1
100
AcDbSymbolTableRecord
100
AcDbBlockTableRecord
  2
Connector1-11
 70
    0
280
    1
281
    0
  0
BLOCK_RECORD
  5
A9
330
1
100
AcDbSymbolTableRecord
100
AcDbBlockTableRecord
  2
Connector1-12
 70
    0
280
    1
281
    0
  0
BLOCK_RECORD
  5
AC
330
1
100
AcDbSymbolTableRecord
100
AcDbBlockTableRecord
  2
Connector1-13
 70
    0
280
    1
281
    0
  0
BLOCK_RECORD
  5
AF
330
1
100
AcDbSymbolTableRecord
100
AcDbBlockTableRecord
  2
Connector1-14
 70
    0
280
    1
281
    0
  0
BLOCK_RECORD
  5
B2
330
1
100
AcDbSymbolTableRecord
100
AcDbBlockTableRecord
  2
Connector1-15
 70
    0
280
    1
281
    0
  0
BLOCK_RECORD
  5
B5
330
1
100
AcDbSymbolTableRecord
100
AcDbBlockTableRecord
  2
Connector1-16
 70
    0
280
    1
281
    0
  0
BLOCK_RECORD
  5
B8
330
1
100
AcDbSymbolTableRecord
100
AcDbBlockTableRecord
  2
D-3 Basic Frame
 70
    0
280
    1
281
    0
  0
ENDTAB
  0
ENDSEC
  0
SECTION
  2
BLOCKS
  0
BLOCK
  5
20
330
1F
100
AcDbEntity
  8
0
100
AcDbBlockBegin
  2
*Model_Space
 70
    0
 10
0
 20
0
 30
0
  3
*Model_Space
  1

  0
ENDBLK
  5
21
330
1F
100
AcDbEntity
  8
0
100
AcDbBlockEnd
  0
BLOCK
  5
1C
330
1B
100
AcDbEntity
  8
0
100
AcDbBlockBegin
  2
*Paper_Space
 70
    0
 10
0
 20
0
 30
0
  3
*Paper_Space
  1

  0
ENDBLK
  5
1D
330
1F
100
AcDbEntity
  8
0
100
AcDbBlockEnd
  0
BLOCK
  5
83
330
82
100
AcDbEntity
  8
0
100
AcDbBlockBegin
  2
Connector1
 70
    0
 10
0
 20
0
  3
Connector1
  1

  0
LWPOLYLINE
  5
BB
100
AcDbEntity
  8
0
  6
ByLayer
 62
  256
370
   -1
100
AcDbPolyline
 90
    4
 70
    1
 43
0
 10
-0.1000000000000014
 20
0
 10
2.899999999999999
 20
0
 10
2.899999999999999
 20
-3
 10
-0.1000000000000014
 20
-3
  0
LINE
  5
BC
100
AcDbEntity
  8
0
  6
ByLayer
 62
  256
370
   -1
100
AcDbLine
 10
1.399999999999999
 20
0
 11
1.399999999999999
 21
-0.2999999999999989
  0
LINE
  5
BD
100
AcDbEntity
  8
0
  6
ByLayer
 62
  256
370
   -1
100
AcDbLine
 10
1.399999999999999
 20
-0.2999999999999989
 11
0.1999999999999993
 21
-0.2999999999999989
  0
LINE
  5
BE
100
AcDbEntity
  8
0
  6
ByLayer
 62
  256
370
   -1
100
AcDbLine
 10
0.1999999999999993
 20
-0.2999999999999989
 11
0.1999999999999993
 21
-2.699999999999999
  0
LINE
  5
BF
100
AcDbEntity
  8
0
  6
ByLayer
 62
  256
370
   -1
100
AcDbLine
 10
0.1999999999999993
 20
-2.699999999999999
 11
1.399999999999999
 21
-2.699999999999999
  0
LINE
  5
C0
100
AcDbEntity
  8
0
  6
ByLayer
 62
  256
370
   -1
100
AcDbLine
 10
1.399999999999999
 20
-2.699999999999999
 11
1.399999999999999
 21
-3
  0
LWPOLYLINE
  5
C1
100
AcDbEntity
  8
0
  6
ByLayer
 62
  256
370
   -1
100
AcDbPolyline
 90
    4
 70
    1
 43
0
 10
1.5
 20
-0.5
 10
2.599999999999998
 20
-0.5
 10
2.599999999999998
 20
-2.5
 10
1.5
 20
-2.5
  0
ENDBLK
  5
84
330
82
100
AcDbEntity
  8
0
100
AcDbBlockEnd
  0
BLOCK
  5
86
330
85
100
AcDbEntity
  8
0
100
AcDbBlockBegin
  2
Connector1-0
 70
    0
 10
0
 20
0
  3
Connector1-0
  1

  0
LWPOLYLINE
  5
C2
100
AcDbEntity
  8
0
  6
ByLayer
 62
  256
370
   -1
100
AcDbPolyline
 90
    4
 70
    1
 43
0
 10
-0.1000000000000014
 20
0
 10
2.899999999999999
 20
0
 10
2.899999999999999
 20
-3
 10
-0.1000000000000014
 20
-3
  0
LINE
  5
C3
100
AcDbEntity
  8
0
  6
ByLayer
 62
  256
370
   -1
100
AcDbLine
 10
1.399999999999999
 20
0
 11
1.399999999999999
 21
-0.2999999999999989
  0
LINE
  5
C4
100
AcDbEntity
  8
0
  6
ByLayer
 62
  256
370
   -1
100
AcDbLine
 10
1.399999999999999
 20
-0.2999999999999989
 11
0.1999999999999993
 21
-0.2999999999999989
  0
LINE
  5
C5
100
AcDbEntity
  8
0
  6
ByLayer
 62
  256
370
   -1
100
AcDbLine
 10
0.1999999999999993
 20
-0.2999999999999989
 11
0.1999999999999993
 21
-2.699999999999999
  0
LINE
  5
C6
100
AcDbEntity
  8
0
  6
ByLayer
 62
  256
370
   -1
100
AcDbLine
 10
0.1999999999999993
 20
-2.699999999999999
 11
1.399999999999999
 21
-2.699999999999999
  0
LINE
  5
C7
100
AcDbEntity
  8
0
  6
ByLayer
 62
  256
370
   -1
100
AcDbLine
 10
1.399999999999999
 20
-2.699999999999999
 11
1.399999999999999
 21
-3
  0
LWPOLYLINE
  5
C8
100
AcDbEntity
  8
0
  6
ByLayer
 62
  256
370
   -1
100
AcDbPolyline
 90
    4
 70
    1
 43
0
 10
1.5
 20
-0.5
 10
2.599999999999998
 20
-0.5
 10
2.599999999999998
 20
-2.5
 10
1.5
 20
-2.5
  0
ENDBLK
  5
87
330
85
100
AcDbEntity
  8
0
100
AcDbBlockEnd
  0
BLOCK
  5
89
330
88
100
AcDbEntity
  8
0
100
AcDbBlockBegin
  2
Connector1-1
 70
    0
 10
0
 20
0
  3
Connector1-1
  1

  0
LWPOLYLINE
  5
C9
100
AcDbEntity
  8
0
  6
ByLayer
 62
  256
370
   -1
100
AcDbPolyline
 90
    4
 70
    1
 43
0
 10
-0.1000000000000014
 20
0
 10
2.899999999999999
 20
0
 10
2.899999999999999
 20
-3
 10
-0.1000000000000014
 20
-3
  0
LINE
  5
CA
100
AcDbEntity
  8
0
  6
ByLayer
 62
  256
370
   -1
100
AcDbLine
 10
1.399999999999999
 20
0
 11
1.399999999999999
 21
-0.2999999999999989
  0
LINE
  5
CB
100
AcDbEntity
  8
0
  6
ByLayer
 62
  256
370
   -1
100
AcDbLine
 10
1.399999999999999
 20
-0.2999999999999989
 11
0.1999999999999993
 21
-0.2999999999999989
  0
LINE
  5
CC
100
AcDbEntity
  8
0
  6
ByLayer
 62
  256
370
   -1
100
AcDbLine
 10
0.1999999999999993
 20
-0.2999999999999989
 11
0.1999999999999993
 21
-2.699999999999999
  0
LINE
  5
CD
100
AcDbEntity
  8
0
  6
ByLayer
 62
  256
370
   -1
100
AcDbLine
 10
0.1999999999999993
 20
-2.699999999999999
 11
1.399999999999999
 21
-2.699999999999999
  0
LINE
  5
CE
100
AcDbEntity
  8
0
  6
ByLayer
 62
  256
370
   -1
100
AcDbLine
 10
1.399999999999999
 20
-2.699999999999999
 11
1.399999999999999
 21
-3
  0
LWPOLYLINE
  5
CF
100
AcDbEntity
  8
0
  6
ByLayer
 62
  256
370
   -1
100
AcDbPolyline
 90
    4
 70
    1
 43
0
 10
1.5
 20
-0.5
 10
2.599999999999998
 20
-0.5
 10
2.599999999999998
 20
-2.5
 10
1.5
 20
-2.5
  0
ENDBLK
  5
8A
330
88
100
AcDbEntity
  8
0
100
AcDbBlockEnd
  0
BLOCK
  5
8C
330
8B
100
AcDbEntity
  8
0
100
AcDbBlockBegin
  2
Connector1-2
 70
    0
 10
0
 20
0
  3
Connector1-2
  1

  0
LWPOLYLINE
  5
D0
100
AcDbEntity
  8
0
  6
ByLayer
 62
  256
370
   -1
100
AcDbPolyline
 90
    4
 70
    1
 43
0
 10
-0.1000000000000014
 20
0
 10
2.899999999999999
 20
0
 10
2.899999999999999
 20
-3
 10
-0.1000000000000014
 20
-3
  0
LINE
  5
D1
100
AcDbEntity
  8
0
  6
ByLayer
 62
  256
370
   -1
100
AcDbLine
 10
1.399999999999999
 20
0
 11
1.399999999999999
 21
-0.2999999999999989
  0
LINE
  5
D2
100
AcDbEntity
  8
0
  6
ByLayer
 62
  256
370
   -1
100
AcDbLine
 10
1.399999999999999
 20
-0.2999999999999989
 11
0.1999999999999993
 21
-0.2999999999999989
  0
LINE
  5
D3
100
AcDbEntity
  8
0
  6
ByLayer
 62
  256
370
   -1
100
AcDbLine
 10
0.1999999999999993
 20
-0.2999999999999989
 11
0.1999999999999993
 21
-2.699999999999999
  0
LINE
  5
D4
100
AcDbEntity
  8
0
  6
ByLayer
 62
  256
370
   -1
100
AcDbLine
 10
0.1999999999999993
 20
-2.699999999999999
 11
1.399999999999999
 21
-2.699999999999999
  0
LINE
  5
D5
100
AcDbEntity
  8
0
  6
ByLayer
 62
  256
370
   -1
100
AcDbLine
 10
1.399999999999999
 20
-2.699999999999999
 11
1.399999999999999
 21
-3
  0
LWPOLYLINE
  5
D6
100
AcDbEntity
  8
0
  6
ByLayer
 62
  256
370
   -1
100
AcDbPolyline
 90
    4
 70
    1
 43
0
 10
1.5
 20
-0.5
 10
2.599999999999998
 20
-0.5
 10
2.599999999999998
 20
-2.5
 10
1.5
 20
-2.5
  0
ENDBLK
  5
8D
330
8B
100
AcDbEntity
  8
0
100
AcDbBlockEnd
  0
BLOCK
  5
8F
330
8E
100
AcDbEntity
  8
0
100
AcDbBlockBegin
  2
Connector1-3
 70
    0
 10
0
 20
0
  3
Connector1-3
  1

  0
LWPOLYLINE
  5
D7
100
AcDbEntity
  8
0
  6
ByLayer
 62
  256
370
   -1
100
AcDbPolyline
 90
    4
 70
    1
 43
0
 10
-0.1000000000000014
 20
0
 10
2.899999999999999
 20
0
 10
2.899999999999999
 20
-3
 10
-0.1000000000000014
 20
-3
  0
LINE
  5
D8
100
AcDbEntity
  8
0
  6
ByLayer
 62
  256
370
   -1
100
AcDbLine
 10
1.399999999999999
 20
0
 11
1.399999999999999
 21
-0.2999999999999989
  0
LINE
  5
D9
100
AcDbEntity
  8
0
  6
ByLayer
 62
  256
370
   -1
100
AcDbLine
 10
1.399999999999999
 20
-0.2999999999999989
 11
0.1999999999999993
 21
-0.2999999999999989
  0
LINE
  5
DA
100
AcDbEntity
  8
0
  6
ByLayer
 62
  256
370
   -1
100
AcDbLine
 10
0.1999999999999993
 20
-0.2999999999999989
 11
0.1999999999999993
 21
-2.699999999999999
  0
LINE
  5
DB
100
AcDbEntity
  8
0
  6
ByLayer
 62
  256
370
   -1
100
AcDbLine
 10
0.1999999999999993
 20
-2.699999999999999
 11
1.399999999999999
 21
-2.699999999999999
  0
LINE
  5
DC
100
AcDbEntity
  8
0
  6
ByLayer
 62
  256
370
   -1
100
AcDbLine
 10
1.399999999999999
 20
-2.699999999999999
 11
1.399999999999999
 21
-3
  0
LWPOLYLINE
  5
DD
100
AcDbEntity
  8
0
  6
ByLayer
 62
  256
370
   -1
100
AcDbPolyline
 90
    4
 70
    1
 43
0
 10
1.5
 20
-0.5
 10
2.599999999999998
 20
-0.5
 10
2.599999999999998
 20
-2.5
 10
1.5
 20
-2.5
  0
ENDBLK
  5
90
330
8E
100
AcDbEntity
  8
0
100
AcDbBlockEnd
  0
BLOCK
  5
92
330
91
100
AcDbEntity
  8
0
100
AcDbBlockBegin
  2
Connector1-4
 70
    0
 10
0
 20
0
  3
Connector1-4
  1

  0
LWPOLYLINE
  5
DE
100
AcDbEntity
  8
0
  6
ByLayer
 62
  256
370
   -1
100
AcDbPolyline
 90
    4
 70
    1
 43
0
 10
-0.1000000000000014
 20
0
 10
2.899999999999999
 20
0
 10
2.899999999999999
 20
-3
 10
-0.1000000000000014
 20
-3
  0
LINE
  5
DF
100
AcDbEntity
  8
0
  6
ByLayer
 62
  256
370
   -1
100
AcDbLine
 10
1.399999999999999
 20
0
 11
1.399999999999999
 21
-0.2999999999999989
  0
LINE
  5
E0
100
AcDbEntity
  8
0
  6
ByLayer
 62
  256
370
   -1
100
AcDbLine
 10
1.399999999999999
 20
-0.2999999999999989
 11
0.1999999999999993
 21
-0.2999999999999989
  0
LINE
  5
E1
100
AcDbEntity
  8
0
  6
ByLayer
 62
  256
370
   -1
100
AcDbLine
 10
0.1999999999999993
 20
-0.2999999999999989
 11
0.1999999999999993
 21
-2.699999999999999
  0
LINE
  5
E2
100
AcDbEntity
  8
0
  6
ByLayer
 62
  256
370
   -1
100
AcDbLine
 10
0.1999999999999993
 20
-2.699999999999999
 11
1.399999999999999
 21
-2.699999999999999
  0
LINE
  5
E3
100
AcDbEntity
  8
0
  6
ByLayer
 62
  256
370
   -1
100
AcDbLine
 10
1.399999999999999
 20
-2.699999999999999
 11
1.399999999999999
 21
-3
  0
LWPOLYLINE
  5
E4
100
AcDbEntity
  8
0
  6
ByLayer
 62
  256
370
   -1
100
AcDbPolyline
 90
    4
 70
    1
 43
0
 10
1.5
 20
-0.5
 10
2.599999999999998
 20
-0.5
 10
2.599999999999998
 20
-2.5
 10
1.5
 20
-2.5
  0
ENDBLK
  5
93
330
91
100
AcDbEntity
  8
0
100
AcDbBlockEnd
  0
BLOCK
  5
95
330
94
100
AcDbEntity
  8
0
100
AcDbBlockBegin
  2
Connector1-5
 70
    0
 10
0
 20
0
  3
Connector1-5
  1

  0
LWPOLYLINE
  5
E5
100
AcDbEntity
  8
0
  6
ByLayer
 62
  256
370
   -1
100
AcDbPolyline
 90
    4
 70
    1
 43
0
 10
-0.1000000000000014
 20
0
 10
2.899999999999999
 20
0
 10
2.899999999999999
 20
-3
 10
-0.1000000000000014
 20
-3
  0
LINE
  5
E6
100
AcDbEntity
  8
0
  6
ByLayer
 62
  256
370
   -1
100
AcDbLine
 10
1.399999999999999
 20
0
 11
1.399999999999999
 21
-0.2999999999999989
  0
LINE
  5
E7
100
AcDbEntity
  8
0
  6
ByLayer
 62
  256
370
   -1
100
AcDbLine
 10
1.399999999999999
 20
-0.2999999999999989
 11
0.1999999999999993
 21
-0.2999999999999989
  0
LINE
  5
E8
100
AcDbEntity
  8
0
  6
ByLayer
 62
  256
370
   -1
100
AcDbLine
 10
0.1999999999999993
 20
-0.2999999999999989
 11
0.1999999999999993
 21
-2.699999999999999
  0
LINE
  5
E9
100
AcDbEntity
  8
0
  6
ByLayer
 62
  256
370
   -1
100
AcDbLine
 10
0.1999999999999993
 20
-2.699999999999999
 11
1.399999999999999
 21
-2.699999999999999
  0
LINE
  5
EA
100
AcDbEntity
  8
0
  6
ByLayer
 62
  256
370
   -1
100
AcDbLine
 10
1.399999999999999
 20
-2.699999999999999
 11
1.399999999999999
 21
-3
  0
LWPOLYLINE
  5
EB
100
AcDbEntity
  8
0
  6
ByLayer
 62
  256
370
   -1
100
AcDbPolyline
 90
    4
 70
    1
 43
0
 10
1.5
 20
-0.5
 10
2.599999999999998
 20
-0.5
 10
2.599999999999998
 20
-2.5
 10
1.5
 20
-2.5
  0
ENDBLK
  5
96
330
94
100
AcDbEntity
  8
0
100
AcDbBlockEnd
  0
BLOCK
  5
98
330
97
100
AcDbEntity
  8
0
100
AcDbBlockBegin
  2
Connector1-6
 70
    0
 10
0
 20
0
  3
Connector1-6
  1

  0
LWPOLYLINE
  5
EC
100
AcDbEntity
  8
0
  6
ByLayer
 62
  256
370
   -1
100
AcDbPolyline
 90
    4
 70
    1
 43
0
 10
-0.1000000000000014
 20
0
 10
2.899999999999999
 20
0
 10
2.899999999999999
 20
-3
 10
-0.1000000000000014
 20
-3
  0
LINE
  5
ED
100
AcDbEntity
  8
0
  6
ByLayer
 62
  256
370
   -1
100
AcDbLine
 10
1.399999999999999
 20
0
 11
1.399999999999999
 21
-0.2999999999999989
  0
LINE
  5
EE
100
AcDbEntity
  8
0
  6
ByLayer
 62
  256
370
   -1
100
AcDbLine
 10
1.399999999999999
 20
-0.2999999999999989
 11
0.1999999999999993
 21
-0.2999999999999989
  0
LINE
  5
EF
100
AcDbEntity
  8
0
  6
ByLayer
 62
  256
370
   -1
100
AcDbLine
 10
0.1999999999999993
 20
-0.2999999999999989
 11
0.1999999999999993
 21
-2.699999999999999
  0
LINE
  5
F0
100
AcDbEntity
  8
0
  6
ByLayer
 62
  256
370
   -1
100
AcDbLine
 10
0.1999999999999993
 20
-2.699999999999999
 11
1.399999999999999
 21
-2.699999999999999
  0
LINE
  5
F1
100
AcDbEntity
  8
0
  6
ByLayer
 62
  256
370
   -1
100
AcDbLine
 10
1.399999999999999
 20
-2.699999999999999
 11
1.399999999999999
 21
-3
  0
LWPOLYLINE
  5
F2
100
AcDbEntity
  8
0
  6
ByLayer
 62
  256
370
   -1
100
AcDbPolyline
 90
    4
 70
    1
 43
0
 10
1.5
 20
-0.5
 10
2.599999999999998
 20
-0.5
 10
2.599999999999998
 20
-2.5
 10
1.5
 20
-2.5
  0
ENDBLK
  5
99
330
97
100
AcDbEntity
  8
0
100
AcDbBlockEnd
  0
BLOCK
  5
9B
330
9A
100
AcDbEntity
  8
0
100
AcDbBlockBegin
  2
Connector1-7
 70
    0
 10
0
 20
0
  3
Connector1-7
  1

  0
LWPOLYLINE
  5
F3
100
AcDbEntity
  8
0
  6
ByLayer
 62
  256
370
   -1
100
AcDbPolyline
 90
    4
 70
    1
 43
0
 10
-0.1000000000000014
 20
0
 10
2.899999999999999
 20
0
 10
2.899999999999999
 20
-3
 10
-0.1000000000000014
 20
-3
  0
LINE
  5
F4
100
AcDbEntity
  8
0
  6
ByLayer
 62
  256
370
   -1
100
AcDbLine
 10
1.399999999999999
 20
0
 11
1.399999999999999
 21
-0.2999999999999989
  0
LINE
  5
F5
100
AcDbEntity
  8
0
  6
ByLayer
 62
  256
370
   -1
100
AcDbLine
 10
1.399999999999999
 20
-0.2999999999999989
 11
0.1999999999999993
 21
-0.2999999999999989
  0
LINE
  5
F6
100
AcDbEntity
  8
0
  6
ByLayer
 62
  256
370
   -1
100
AcDbLine
 10
0.1999999999999993
 20
-0.2999999999999989
 11
0.1999999999999993
 21
-2.699999999999999
  0
LINE
  5
F7
100
AcDbEntity
  8
0
  6
ByLayer
 62
  256
370
   -1
100
AcDbLine
 10
0.1999999999999993
 20
-2.699999999999999
 11
1.399999999999999
 21
-2.699999999999999
  0
LINE
  5
F8
100
AcDbEntity
  8
0
  6
ByLayer
 62
  256
370
   -1
100
AcDbLine
 10
1.399999999999999
 20
-2.699999999999999
 11
1.399999999999999
 21
-3
  0
LWPOLYLINE
  5
F9
100
AcDbEntity
  8
0
  6
ByLayer
 62
  256
370
   -1
100
AcDbPolyline
 90
    4
 70
    1
 43
0
 10
1.5
 20
-0.5
 10
2.599999999999998
 20
-0.5
 10
2.599999999999998
 20
-2.5
 10
1.5
 20
-2.5
  0
ENDBLK
  5
9C
330
9A
100
AcDbEntity
  8
0
100
AcDbBlockEnd
  0
BLOCK
  5
9E
330
9D
100
AcDbEntity
  8
0
100
AcDbBlockBegin
  2
Connector1-8
 70
    0
 10
0
 20
0
  3
Connector1-8
  1

  0
LWPOLYLINE
  5
FA
100
AcDbEntity
  8
0
  6
ByLayer
 62
  256
370
   -1
100
AcDbPolyline
 90
    4
 70
    1
 43
0
 10
-0.1000000000000014
 20
0
 10
2.899999999999999
 20
0
 10
2.899999999999999
 20
-3
 10
-0.1000000000000014
 20
-3
  0
LINE
  5
FB
100
AcDbEntity
  8
0
  6
ByLayer
 62
  256
370
   -1
100
AcDbLine
 10
1.399999999999999
 20
0
 11
1.399999999999999
 21
-0.2999999999999989
  0
LINE
  5
FC
100
AcDbEntity
  8
0
  6
ByLayer
 62
  256
370
   -1
100
AcDbLine
 10
1.399999999999999
 20
-0.2999999999999989
 11
0.1999999999999993
 21
-0.2999999999999989
  0
LINE
  5
FD
100
AcDbEntity
  8
0
  6
ByLayer
 62
  256
370
   -1
100
AcDbLine
 10
0.1999999999999993
 20
-0.2999999999999989
 11
0.1999999999999993
 21
-2.699999999999999
  0
LINE
  5
FE
100
AcDbEntity
  8
0
  6
ByLayer
 62
  256
370
   -1
100
AcDbLine
 10
0.1999999999999993
 20
-2.699999999999999
 11
1.399999999999999
 21
-2.699999999999999
  0
LINE
  5
FF
100
AcDbEntity
  8
0
  6
ByLayer
 62
  256
370
   -1
100
AcDbLine
 10
1.399999999999999
 20
-2.699999999999999
 11
1.399999999999999
 21
-3
  0
LWPOLYLINE
  5
100
100
AcDbEntity
  8
0
  6
ByLayer
 62
  256
370
   -1
100
AcDbPolyline
 90
    4
 70
    1
 43
0
 10
1.5
 20
-0.5
 10
2.599999999999998
 20
-0.5
 10
2.599999999999998
 20
-2.5
 10
1.5
 20
-2.5
  0
ENDBLK
  5
9F
330
9D
100
AcDbEntity
  8
0
100
AcDbBlockEnd
  0
BLOCK
  5
A1
330
A0
100
AcDbEntity
  8
0
100
AcDbBlockBegin
  2
Connector1-9
 70
    0
 10
0
 20
0
  3
Connector1-9
  1

  0
LWPOLYLINE
  5
101
100
AcDbEntity
  8
0
  6
ByLayer
 62
  256
370
   -1
100
AcDbPolyline
 90
    4
 70
    1
 43
0
 10
-0.1000000000000014
 20
0
 10
2.899999999999999
 20
0
 10
2.899999999999999
 20
-3
 10
-0.1000000000000014
 20
-3
  0
LINE
  5
102
100
AcDbEntity
  8
0
  6
ByLayer
 62
  256
370
   -1
100
AcDbLine
 10
1.399999999999999
 20
0
 11
1.399999999999999
 21
-0.2999999999999989
  0
LINE
  5
103
100
AcDbEntity
  8
0
  6
ByLayer
 62
  256
370
   -1
100
AcDbLine
 10
1.399999999999999
 20
-0.2999999999999989
 11
0.1999999999999993
 21
-0.2999999999999989
  0
LINE
  5
104
100
AcDbEntity
  8
0
  6
ByLayer
 62
  256
370
   -1
100
AcDbLine
 10
0.1999999999999993
 20
-0.2999999999999989
 11
0.1999999999999993
 21
-2.699999999999999
  0
LINE
  5
105
100
AcDbEntity
  8
0
  6
ByLayer
 62
  256
370
   -1
100
AcDbLine
 10
0.1999999999999993
 20
-2.699999999999999
 11
1.399999999999999
 21
-2.699999999999999
  0
LINE
  5
106
100
AcDbEntity
  8
0
  6
ByLayer
 62
  256
370
   -1
100
AcDbLine
 10
1.399999999999999
 20
-2.699999999999999
 11
1.399999999999999
 21
-3
  0
LWPOLYLINE
  5
107
100
AcDbEntity
  8
0
  6
ByLayer
 62
  256
370
   -1
100
AcDbPolyline
 90
    4
 70
    1
 43
0
 10
1.5
 20
-0.5
 10
2.599999999999998
 20
-0.5
 10
2.599999999999998
 20
-2.5
 10
1.5
 20
-2.5
  0
ENDBLK
  5
A2
330
A0
100
AcDbEntity
  8
0
100
AcDbBlockEnd
  0
BLOCK
  5
A4
330
A3
100
AcDbEntity
  8
0
100
AcDbBlockBegin
  2
Connector1-10
 70
    0
 10
0
 20
0
  3
Connector1-10
  1

  0
LWPOLYLINE
  5
108
100
AcDbEntity
  8
0
  6
ByLayer
 62
  256
370
   -1
100
AcDbPolyline
 90
    4
 70
    1
 43
0
 10
-0.1000000000000014
 20
0
 10
2.899999999999999
 20
0
 10
2.899999999999999
 20
-3
 10
-0.1000000000000014
 20
-3
  0
LINE
  5
109
100
AcDbEntity
  8
0
  6
ByLayer
 62
  256
370
   -1
100
AcDbLine
 10
1.399999999999999
 20
0
 11
1.399999999999999
 21
-0.2999999999999989
  0
LINE
  5
10A
100
AcDbEntity
  8
0
  6
ByLayer
 62
  256
370
   -1
100
AcDbLine
 10
1.399999999999999
 20
-0.2999999999999989
 11
0.1999999999999993
 21
-0.2999999999999989
  0
LINE
  5
10B
100
AcDbEntity
  8
0
  6
ByLayer
 62
  256
370
   -1
100
AcDbLine
 10
0.1999999999999993
 20
-0.2999999999999989
 11
0.1999999999999993
 21
-2.699999999999999
  0
LINE
  5
10C
100
AcDbEntity
  8
0
  6
ByLayer
 62
  256
370
   -1
100
AcDbLine
 10
0.1999999999999993
 20
-2.699999999999999
 11
1.399999999999999
 21
-2.699999999999999
  0
LINE
  5
10D
100
AcDbEntity
  8
0
  6
ByLayer
 62
  256
370
   -1
100
AcDbLine
 10
1.399999999999999
 20
-2.699999999999999
 11
1.399999999999999
 21
-3
  0
LWPOLYLINE
  5
10E
100
AcDbEntity
  8
0
  6
ByLayer
 62
  256
370
   -1
100
AcDbPolyline
 90
    4
 70
    1
 43
0
 10
1.5
 20
-0.5
 10
2.599999999999998
 20
-0.5
 10
2.599999999999998
 20
-2.5
 10
1.5
 20
-2.5
  0
ENDBLK
  5
A5
330
A3
100
AcDbEntity
  8
0
100
AcDbBlockEnd
  0
BLOCK
  5
A7
330
A6
100
AcDbEntity
  8
0
100
AcDbBlockBegin
  2
Connector1-11
 70
    0
 10
0
 20
0
  3
Connector1-11
  1

  0
LWPOLYLINE
  5
10F
100
AcDbEntity
  8
0
  6
ByLayer
 62
  256
370
   -1
100
AcDbPolyline
 90
    4
 70
    1
 43
0
 10
-0.1000000000000014
 20
0
 10
2.899999999999999
 20
0
 10
2.899999999999999
 20
-3
 10
-0.1000000000000014
 20
-3
  0
LINE
  5
110
100
AcDbEntity
  8
0
  6
ByLayer
 62
  256
370
   -1
100
AcDbLine
 10
1.399999999999999
 20
0
 11
1.399999999999999
 21
-0.2999999999999989
  0
LINE
  5
111
100
AcDbEntity
  8
0
  6
ByLayer
 62
  256
370
   -1
100
AcDbLine
 10
1.399999999999999
 20
-0.2999999999999989
 11
0.1999999999999993
 21
-0.2999999999999989
  0
LINE
  5
112
100
AcDbEntity
  8
0
  6
ByLayer
 62
  256
370
   -1
100
AcDbLine
 10
0.1999999999999993
 20
-0.2999999999999989
 11
0.1999999999999993
 21
-2.699999999999999
  0
LINE
  5
113
100
AcDbEntity
  8
0
  6
ByLayer
 62
  256
370
   -1
100
AcDbLine
 10
0.1999999999999993
 20
-2.699999999999999
 11
1.399999999999999
 21
-2.699999999999999
  0
LINE
  5
114
100
AcDbEntity
  8
0
  6
ByLayer
 62
  256
370
   -1
100
AcDbLine
 10
1.399999999999999
 20
-2.699999999999999
 11
1.399999999999999
 21
-3
  0
LWPOLYLINE
  5
115
100
AcDbEntity
  8
0
  6
ByLayer
 62
  256
370
   -1
100
AcDbPolyline
 90
    4
 70
    1
 43
0
 10
1.5
 20
-0.5
 10
2.599999999999998
 20
-0.5
 10
2.599999999999998
 20
-2.5
 10
1.5
 20
-2.5
  0
ENDBLK
  5
A8
330
A6
100
AcDbEntity
  8
0
100
AcDbBlockEnd
  0
BLOCK
  5
AA
330
A9
100
AcDbEntity
  8
0
100
AcDbBlockBegin
  2
Connector1-12
 70
    0
 10
0
 20
0
  3
Connector1-12
  1

  0
LWPOLYLINE
  5
116
100
AcDbEntity
  8
0
  6
ByLayer
 62
  256
370
   -1
100
AcDbPolyline
 90
    4
 70
    1
 43
0
 10
-0.1000000000000014
 20
0
 10
2.899999999999999
 20
0
 10
2.899999999999999
 20
-3
 10
-0.1000000000000014
 20
-3
  0
LINE
  5
117
100
AcDbEntity
  8
0
  6
ByLayer
 62
  256
370
   -1
100
AcDbLine
 10
1.399999999999999
 20
0
 11
1.399999999999999
 21
-0.2999999999999989
  0
LINE
  5
118
100
AcDbEntity
  8
0
  6
ByLayer
 62
  256
370
   -1
100
AcDbLine
 10
1.399999999999999
 20
-0.2999999999999989
 11
0.1999999999999993
 21
-0.2999999999999989
  0
LINE
  5
119
100
AcDbEntity
  8
0
  6
ByLayer
 62
  256
370
   -1
100
AcDbLine
 10
0.1999999999999993
 20
-0.2999999999999989
 11
0.1999999999999993
 21
-2.699999999999999
  0
LINE
  5
11A
100
AcDbEntity
  8
0
  6
ByLayer
 62
  256
370
   -1
100
AcDbLine
 10
0.1999999999999993
 20
-2.699999999999999
 11
1.399999999999999
 21
-2.699999999999999
  0
LINE
  5
11B
100
AcDbEntity
  8
0
  6
ByLayer
 62
  256
370
   -1
100
AcDbLine
 10
1.399999999999999
 20
-2.699999999999999
 11
1.399999999999999
 21
-3
  0
LWPOLYLINE
  5
11C
100
AcDbEntity
  8
0
  6
ByLayer
 62
  256
370
   -1
100
AcDbPolyline
 90
    4
 70
    1
 43
0
 10
1.5
 20
-0.5
 10
2.599999999999998
 20
-0.5
 10
2.599999999999998
 20
-2.5
 10
1.5
 20
-2.5
  0
ENDBLK
  5
AB
330
A9
100
AcDbEntity
  8
0
100
AcDbBlockEnd
  0
BLOCK
  5
AD
330
AC
100
AcDbEntity
  8
0
100
AcDbBlockBegin
  2
Connector1-13
 70
    0
 10
0
 20
0
  3
Connector1-13
  1

  0
LWPOLYLINE
  5
11D
100
AcDbEntity
  8
0
  6
ByLayer
 62
  256
370
   -1
100
AcDbPolyline
 90
    4
 70
    1
 43
0
 10
-0.1000000000000014
 20
0
 10
2.899999999999999
 20
0
 10
2.899999999999999
 20
-3
 10
-0.1000000000000014
 20
-3
  0
LINE
  5
11E
100
AcDbEntity
  8
0
  6
ByLayer
 62
  256
370
   -1
100
AcDbLine
 10
1.399999999999999
 20
0
 11
1.399999999999999
 21
-0.2999999999999989
  0
LINE
  5
11F
100
AcDbEntity
  8
0
  6
ByLayer
 62
  256
370
   -1
100
AcDbLine
 10
1.399999999999999
 20
-0.2999999999999989
 11
0.1999999999999993
 21
-0.2999999999999989
  0
LINE
  5
120
100
AcDbEntity
  8
0
  6
ByLayer
 62
  256
370
   -1
100
AcDbLine
 10
0.1999999999999993
 20
-0.2999999999999989
 11
0.1999999999999993
 21
-2.699999999999999
  0
LINE
  5
121
100
AcDbEntity
  8
0
  6
ByLayer
 62
  256
370
   -1
100
AcDbLine
 10
0.1999999999999993
 20
-2.699999999999999
 11
1.399999999999999
 21
-2.699999999999999
  0
LINE
  5
122
100
AcDbEntity
  8
0
  6
ByLayer
 62
  256
370
   -1
100
AcDbLine
 10
1.399999999999999
 20
-2.699999999999999
 11
1.399999999999999
 21
-3
  0
LWPOLYLINE
  5
123
100
AcDbEntity
  8
0
  6
ByLayer
 62
  256
370
   -1
100
AcDbPolyline
 90
    4
 70
    1
 43
0
 10
1.5
 20
-0.5
 10
2.599999999999998
 20
-0.5
 10
2.599999999999998
 20
-2.5
 10
1.5
 20
-2.5
  0
ENDBLK
  5
AE
330
AC
100
AcDbEntity
  8
0
100
AcDbBlockEnd
  0
BLOCK
  5
B0
330
AF
100
AcDbEntity
  8
0
100
AcDbBlockBegin
  2
Connector1-14
 70
    0
 10
0
 20
0
  3
Connector1-14
  1

  0
LWPOLYLINE
  5
124
100
AcDbEntity
  8
0
  6
ByLayer
 62
  256
370
   -1
100
AcDbPolyline
 90
    4
 70
    1
 43
0
 10
-0.1000000000000014
 20
0
 10
2.899999999999999
 20
0
 10
2.899999999999999
 20
-3
 10
-0.1000000000000014
 20
-3
  0
LINE
  5
125
100
AcDbEntity
  8
0
  6
ByLayer
 62
  256
370
   -1
100
AcDbLine
 10
1.399999999999999
 20
0
 11
1.399999999999999
 21
-0.2999999999999989
  0
LINE
  5
126
100
AcDbEntity
  8
0
  6
ByLayer
 62
  256
370
   -1
100
AcDbLine
 10
1.399999999999999
 20
-0.2999999999999989
 11
0.1999999999999993
 21
-0.2999999999999989
  0
LINE
  5
127
100
AcDbEntity
  8
0
  6
ByLayer
 62
  256
370
   -1
100
AcDbLine
 10
0.1999999999999993
 20
-0.2999999999999989
 11
0.1999999999999993
 21
-2.699999999999999
  0
LINE
  5
128
100
AcDbEntity
  8
0
  6
ByLayer
 62
  256
370
   -1
100
AcDbLine
 10
0.1999999999999993
 20
-2.699999999999999
 11
1.399999999999999
 21
-2.699999999999999
  0
LINE
  5
129
100
AcDbEntity
  8
0
  6
ByLayer
 62
  256
370
   -1
100
AcDbLine
 10
1.399999999999999
 20
-2.699999999999999
 11
1.399999999999999
 21
-3
  0
LWPOLYLINE
  5
12A
100
AcDbEntity
  8
0
  6
ByLayer
 62
  256
370
   -1
100
AcDbPolyline
 90
    4
 70
    1
 43
0
 10
1.5
 20
-0.5
 10
2.599999999999998
 20
-0.5
 10
2.599999999999998
 20
-2.5
 10
1.5
 20
-2.5
  0
ENDBLK
  5
B1
330
AF
100
AcDbEntity
  8
0
100
AcDbBlockEnd
  0
BLOCK
  5
B3
330
B2
100
AcDbEntity
  8
0
100
AcDbBlockBegin
  2
Connector1-15
 70
    0
 10
0
 20
0
  3
Connector1-15
  1

  0
LWPOLYLINE
  5
12B
100
AcDbEntity
  8
0
  6
ByLayer
 62
  256
370
   -1
100
AcDbPolyline
 90
    4
 70
    1
 43
0
 10
-0.1000000000000014
 20
0
 10
2.899999999999999
 20
0
 10
2.899999999999999
 20
-3
 10
-0.1000000000000014
 20
-3
  0
LINE
  5
12C
100
AcDbEntity
  8
0
  6
ByLayer
 62
  256
370
   -1
100
AcDbLine
 10
1.399999999999999
 20
0
 11
1.399999999999999
 21
-0.2999999999999989
  0
LINE
  5
12D
100
AcDbEntity
  8
0
  6
ByLayer
 62
  256
370
   -1
100
AcDbLine
 10
1.399999999999999
 20
-0.2999999999999989
 11
0.1999999999999993
 21
-0.2999999999999989
  0
LINE
  5
12E
100
AcDbEntity
  8
0
  6
ByLayer
 62
  256
370
   -1
100
AcDbLine
 10
0.1999999999999993
 20
-0.2999999999999989
 11
0.1999999999999993
 21
-2.699999999999999
  0
LINE
  5
12F
100
AcDbEntity
  8
0
  6
ByLayer
 62
  256
370
   -1
100
AcDbLine
 10
0.1999999999999993
 20
-2.699999999999999
 11
1.399999999999999
 21
-2.699999999999999
  0
LINE
  5
130
100
AcDbEntity
  8
0
  6
ByLayer
 62
  256
370
   -1
100
AcDbLine
 10
1.399999999999999
 20
-2.699999999999999
 11
1.399999999999999
 21
-3
  0
LWPOLYLINE
  5
131
100
AcDbEntity
  8
0
  6
ByLayer
 62
  256
370
   -1
100
AcDbPolyline
 90
    4
 70
    1
 43
0
 10
1.5
 20
-0.5
 10
2.599999999999998
 20
-0.5
 10
2.599999999999998
 20
-2.5
 10
1.5
 20
-2.5
  0
ENDBLK
  5
B4
330
B2
100
AcDbEntity
  8
0
100
AcDbBlockEnd
  0
BLOCK
  5
B6
330
B5
100
AcDbEntity
  8
0
100
AcDbBlockBegin
  2
Connector1-16
 70
    0
 10
0
 20
0
  3
Connector1-16
  1

  0
LWPOLYLINE
  5
132
100
AcDbEntity
  8
0
  6
ByLayer
 62
  256
370
   -1
100
AcDbPolyline
 90
    4
 70
    1
 43
0
 10
-0.1000000000000014
 20
0
 10
2.899999999999999
 20
0
 10
2.899999999999999
 20
-3
 10
-0.1000000000000014
 20
-3
  0
LINE
  5
133
100
AcDbEntity
  8
0
  6
ByLayer
 62
  256
370
   -1
100
AcDbLine
 10
1.399999999999999
 20
0
 11
1.399999999999999
 21
-0.2999999999999989
  0
LINE
  5
134
100
AcDbEntity
  8
0
  6
ByLayer
 62
  256
370
   -1
100
AcDbLine
 10
1.399999999999999
 20
-0.2999999999999989
 11
0.1999999999999993
 21
-0.2999999999999989
  0
LINE
  5
135
100
AcDbEntity
  8
0
  6
ByLayer
 62
  256
370
   -1
100
AcDbLine
 10
0.1999999999999993
 20
-0.2999999999999989
 11
0.1999999999999993
 21
-2.699999999999999
  0
LINE
  5
136
100
AcDbEntity
  8
0
  6
ByLayer
 62
  256
370
   -1
100
AcDbLine
 10
0.1999999999999993
 20
-2.699999999999999
 11
1.399999999999999
 21
-2.699999999999999
  0
LINE
  5
137
100
AcDbEntity
  8
0
  6
ByLayer
 62
  256
370
   -1
100
AcDbLine
 10
1.399999999999999
 20
-2.699999999999999
 11
1.399999999999999
 21
-3
  0
LWPOLYLINE
  5
138
100
AcDbEntity
  8
0
  6
ByLayer
 62
  256
370
   -1
100
AcDbPolyline
 90
    4
 70
    1
 43
0
 10
1.5
 20
-0.5
 10
2.599999999999998
 20
-0.5
 10
2.599999999999998
 20
-2.5
 10
1.5
 20
-2.5
  0
ENDBLK
  5
B7
330
B5
100
AcDbEntity
  8
0
100
AcDbBlockEnd
  0
BLOCK
  5
B9
330
B8
100
AcDbEntity
  8
0
100
AcDbBlockBegin
  2
D-3 Basic Frame
 70
    0
 10
0
 20
0
  3
D-3 Basic Frame
  1

  0
LWPOLYLINE
  5
139
100
AcDbEntity
  8
0
  6
ByLayer
 62
  256
370
   -1
100
AcDbPolyline
 90
    4
 70
    1
 43
0
 10
0
 20
0
 10
480
 20
0
 10
480
 20
-240
 10
0
 20
-240
  0
LWPOLYLINE
  5
13A
100
AcDbEntity
  8
0
  6
ByLayer
 62
  256
370
   -1
100
AcDbPolyline
 90
    4
 70
    1
 43
0
 10
0
 20
10
 10
480
 20
10
 10
480
 20
8
 10
0
 20
8
  0
LWPOLYLINE
  5
13B
100
AcDbEntity
  8
0
  6
ByLayer
 62
  256
370
   -1
100
AcDbPolyline
 90
    4
 70
    1
 43
0
 10
0
 20
-2
 10
4
 20
-2
 10
4
 20
-238
 10
0
 20
-238
  0
LINE
  5
13C
100
AcDbEntity
  8
0
  6
ByLayer
 62
  256
370
   -1
100
AcDbLine
 10
4
 20
-4
 11
476
 21
-4
  0
LINE
  5
13D
100
AcDbEntity
  8
0
  6
ByLayer
 62
  256
370
   -1
100
AcDbLine
 10
4
 20
-236
 11
476
 21
-236
  0
LWPOLYLINE
  5
13E
100
AcDbEntity
  8
0
  6
ByLayer
 62
  256
370
   -1
100
AcDbPolyline
 90
    4
 70
    1
 43
0
 10
480
 20
-238
 10
476
 20
-238
 10
476
 20
-2
 10
480
 20
-2
  0
LWPOLYLINE
  5
13F
100
AcDbEntity
  8
0
  6
ByLayer
 62
  256
370
   -1
100
AcDbPolyline
 90
    4
 70
    1
 43
0
 10
238
 20
-4
 10
242
 20
-4
 10
242
 20
-236
 10
238
 20
-236
  0
LWPOLYLINE
  5
140
100
AcDbEntity
  8
0
  6
ByLayer
 62
  256
370
   -1
100
AcDbPolyline
 90
    4
 70
    1
 43
0
 10
118
 20
-4
 10
122
 20
-4
 10
122
 20
-236
 10
118
 20
-236
  0
LWPOLYLINE
  5
141
100
AcDbEntity
  8
0
  6
ByLayer
 62
  256
370
   -1
100
AcDbPolyline
 90
    4
 70
    1
 43
0
 10
358
 20
-4
 10
362
 20
-4
 10
362
 20
-236
 10
358
 20
-236
  0
LINE
  5
142
100
AcDbEntity
  8
0
  6
ByLayer
 62
  256
370
   -1
100
AcDbLine
 10
333
 20
-240
 11
338
 21
-242
  0
LWPOLYLINE
  5
143
100
AcDbEntity
  8
0
  6
ByLayer
 62
  256
370
   -1
100
AcDbPolyline
 90
    4
 70
    1
 43
0
 10
347
 20
-242
 10
350
 20
-242
 10
350
 20
-242.2
 10
347
 20
-242.2
  0
LWPOLYLINE
  5
144
100
AcDbEntity
  8
0
  6
ByLayer
 62
  256
370
   -1
100
AcDbPolyline
 90
    4
 70
    1
 43
0
 10
341
 20
-242
 10
344
 20
-242
 10
344
 20
-242.2
 10
341
 20
-242.2
  0
LINE
  5
145
100
AcDbEntity
  8
0
  6
ByLayer
 62
  256
370
   -1
100
AcDbLine
 10
338
 20
-242
 11
353
 21
-242
  0
LINE
  5
146
100
AcDbEntity
  8
0
  6
ByLayer
 62
  256
370
   -1
100
AcDbLine
 10
353
 20
-242
 11
358
 21
-240
  0
LWPOLYLINE
  5
147
100
AcDbEntity
  8
0
  6
ByLayer
 62
  256
370
   -1
100
AcDbPolyline
 90
    4
 70
    1
 43
0
 10
350
 20
-240
 10
347
 20
-240
 10
347
 20
-236
 10
350
 20
-236
  0
LWPOLYLINE
  5
148
100
AcDbEntity
  8
0
  6
ByLayer
 62
  256
370
   -1
100
AcDbPolyline
 90
    4
 70
    1
 43
0
 10
341
 20
-240
 10
344
 20
-240
 10
344
 20
-236
 10
341
 20
-236
  0
LWPOLYLINE
  5
149
100
AcDbEntity
  8
0
  6
ByLayer
 62
  256
370
   -1
100
AcDbPolyline
 90
    4
 70
    1
 43
0
 10
362
 20
-210
 10
365
 20
-210
 10
365
 20
-205
 10
362
 20
-205
  0
LWPOLYLINE
  5
14A
100
AcDbEntity
  8
0
  6
ByLayer
 62
  256
370
   -1
100
AcDbPolyline
 90
    4
 70
    1
 43
0
 10
115
 20
-210
 10
118
 20
-210
 10
118
 20
-205
 10
115
 20
-205
  0
LWPOLYLINE
  5
14B
100
AcDbEntity
  8
0
  6
ByLayer
 62
  256
370
   -1
100
AcDbPolyline
 90
    4
 70
    1
 43
0
 10
440
 20
-60
 10
400
 20
-60
 10
400
 20
-30
 10
440
 20
-30
  0
LWPOLYLINE
  5
14C
100
AcDbEntity
  8
0
  6
ByLayer
 62
  256
370
   -1
100
AcDbPolyline
 90
    4
 70
    1
 43
0
 10
80
 20
-60
 10
40
 20
-60
 10
40
 20
-30
 10
80
 20
-30
  0
LWPOLYLINE
  5
14D
100
AcDbEntity
  8
0
  6
ByLayer
 62
  256
370
   -1
100
AcDbPolyline
 90
    4
 70
    1
 43
0
 10
140
 20
-200
 10
130
 20
-200
 10
130
 20
-195
 10
140
 20
-195
  0
LWPOLYLINE
  5
14E
100
AcDbEntity
  8
0
  6
ByLayer
 62
  256
370
   -1
100
AcDbPolyline
 90
    4
 70
    1
 43
0
 10
140
 20
-195
 10
130
 20
-195
 10
130
 20
-190
 10
140
 20
-190
  0
LWPOLYLINE
  5
14F
100
AcDbEntity
  8
0
  6
ByLayer
 62
  256
370
   -1
100
AcDbPolyline
 90
    4
 70
    1
 43
0
 10
140
 20
-190
 10
130
 20
-190
 10
130
 20
-185
 10
140
 20
-185
  0
LWPOLYLINE
  5
150
100
AcDbEntity
  8
0
  6
ByLayer
 62
  256
370
   -1
100
AcDbPolyline
 90
    4
 70
    1
 43
0
 10
140
 20
-185
 10
130
 20
-185
 10
130
 20
-180
 10
140
 20
-180
  0
LWPOLYLINE
  5
151
100
AcDbEntity
  8
0
  6
ByLayer
 62
  256
370
   -1
100
AcDbPolyline
 90
    4
 70
    1
 43
0
 10
140
 20
-180
 10
130
 20
-180
 10
130
 20
-175
 10
140
 20
-175
  0
LWPOLYLINE
  5
152
100
AcDbEntity
  8
0
  6
ByLayer
 62
  256
370
   -1
100
AcDbPolyline
 90
    4
 70
    1
 43
0
 10
140
 20
-175
 10
130
 20
-175
 10
130
 20
-170
 10
140
 20
-170
  0
LWPOLYLINE
  5
153
100
AcDbEntity
  8
0
  6
ByLayer
 62
  256
370
   -1
100
AcDbPolyline
 90
    4
 70
    1
 43
0
 10
140
 20
-205
 10
130
 20
-205
 10
130
 20
-200
 10
140
 20
-200
  0
LWPOLYLINE
  5
154
100
AcDbEntity
  8
0
  6
ByLayer
 62
  256
370
   -1
100
AcDbPolyline
 90
    4
 70
    1
 43
0
 10
140
 20
-170
 10
130
 20
-170
 10
130
 20
-165
 10
140
 20
-165
  0
LWPOLYLINE
  5
155
100
AcDbEntity
  8
0
  6
ByLayer
 62
  256
370
   -1
100
AcDbPolyline
 90
    4
 70
    1
 43
0
 10
140
 20
-165
 10
130
 20
-165
 10
130
 20
-160
 10
140
 20
-160
  0
CIRCLE
  5
156
100
AcDbEntity
  8
0
  6
ByLayer
 62
  256
370
   13
100
AcDbCircle
 10
133
 20
-162.5
 40
1.118033988749895
  0
CIRCLE
  5
157
100
AcDbEntity
  8
0
  6
ByLayer
 62
  256
370
   13
100
AcDbCircle
 10
137
 20
-162.5
 40
1.118033988749895
  0
LINE
  5
158
100
AcDbEntity
  8
0
  6
ByLayer
 62
  256
370
   13
100
AcDbLine
 10
132
 20
-163
 11
134
 21
-162
  0
LINE
  5
159
100
AcDbEntity
  8
0
  6
ByLayer
 62
  256
370
   13
100
AcDbLine
 10
136
 20
-162
 11
138
 21
-163
  0
CIRCLE
  5
15A
100
AcDbEntity
  8
0
  6
ByLayer
 62
  256
370
   13
100
AcDbCircle
 10
133
 20
-167.5
 40
1.118033988749895
  0
CIRCLE
  5
15B
100
AcDbEntity
  8
0
  6
ByLayer
 62
  256
370
   13
100
AcDbCircle
 10
137
 20
-167.5
 40
1.118033988749895
  0
LINE
  5
15C
100
AcDbEntity
  8
0
  6
ByLayer
 62
  256
370
   13
100
AcDbLine
 10
132
 20
-168
 11
134
 21
-167
  0
LINE
  5
15D
100
AcDbEntity
  8
0
  6
ByLayer
 62
  256
370
   13
100
AcDbLine
 10
136
 20
-167
 11
138
 21
-168
  0
CIRCLE
  5
15E
100
AcDbEntity
  8
0
  6
ByLayer
 62
  256
370
   13
100
AcDbCircle
 10
133
 20
-172.5
 40
1.118033988749895
  0
CIRCLE
  5
15F
100
AcDbEntity
  8
0
  6
ByLayer
 62
  256
370
   13
100
AcDbCircle
 10
137
 20
-172.5
 40
1.118033988749895
  0
LINE
  5
160
100
AcDbEntity
  8
0
  6
ByLayer
 62
  256
370
   13
100
AcDbLine
 10
132
 20
-173
 11
134
 21
-172
  0
LINE
  5
161
100
AcDbEntity
  8
0
  6
ByLayer
 62
  256
370
   13
100
AcDbLine
 10
136
 20
-172
 11
138
 21
-173
  0
CIRCLE
  5
162
100
AcDbEntity
  8
0
  6
ByLayer
 62
  256
370
   13
100
AcDbCircle
 10
133
 20
-177.5
 40
1.118033988749895
  0
CIRCLE
  5
163
100
AcDbEntity
  8
0
  6
ByLayer
 62
  256
370
   13
100
AcDbCircle
 10
137
 20
-177.5
 40
1.118033988749895
  0
LINE
  5
164
100
AcDbEntity
  8
0
  6
ByLayer
 62
  256
370
   13
100
AcDbLine
 10
132
 20
-178
 11
134
 21
-177
  0
LINE
  5
165
100
AcDbEntity
  8
0
  6
ByLayer
 62
  256
370
   13
100
AcDbLine
 10
136
 20
-177
 11
138
 21
-178
  0
CIRCLE
  5
166
100
AcDbEntity
  8
0
  6
ByLayer
 62
  256
370
   13
100
AcDbCircle
 10
133
 20
-182.5
 40
1.118033988749895
  0
CIRCLE
  5
167
100
AcDbEntity
  8
0
  6
ByLayer
 62
  256
370
   13
100
AcDbCircle
 10
137
 20
-182.5
 40
1.118033988749895
  0
LINE
  5
168
100
AcDbEntity
  8
0
  6
ByLayer
 62
  256
370
   13
100
AcDbLine
 10
132
 20
-183
 11
134
 21
-182
  0
LINE
  5
169
100
AcDbEntity
  8
0
  6
ByLayer
 62
  256
370
   13
100
AcDbLine
 10
136
 20
-182
 11
138
 21
-183
  0
CIRCLE
  5
16A
100
AcDbEntity
  8
0
  6
ByLayer
 62
  256
370
   13
100
AcDbCircle
 10
133
 20
-187.5
 40
1.118033988749895
  0
CIRCLE
  5
16B
100
AcDbEntity
  8
0
  6
ByLayer
 62
  256
370
   13
100
AcDbCircle
 10
137
 20
-187.5
 40
1.118033988749895
  0
LINE
  5
16C
100
AcDbEntity
  8
0
  6
ByLayer
 62
  256
370
   13
100
AcDbLine
 10
132
 20
-188
 11
134
 21
-187
  0
LINE
  5
16D
100
AcDbEntity
  8
0
  6
ByLayer
 62
  256
370
   13
100
AcDbLine
 10
136
 20
-187
 11
138
 21
-188
  0
CIRCLE
  5
16E
100
AcDbEntity
  8
0
  6
ByLayer
 62
  256
370
   13
100
AcDbCircle
 10
133
 20
-192.5
 40
1.118033988749895
  0
CIRCLE
  5
16F
100
AcDbEntity
  8
0
  6
ByLayer
 62
  256
370
   13
100
AcDbCircle
 10
137
 20
-192.5
 40
1.118033988749895
  0
LINE
  5
170
100
AcDbEntity
  8
0
  6
ByLayer
 62
  256
370
   13
100
AcDbLine
 10
132
 20
-193
 11
134
 21
-192
  0
LINE
  5
171
100
AcDbEntity
  8
0
  6
ByLayer
 62
  256
370
   13
100
AcDbLine
 10
136
 20
-192
 11
138
 21
-193
  0
CIRCLE
  5
172
100
AcDbEntity
  8
0
  6
ByLayer
 62
  256
370
   13
100
AcDbCircle
 10
133
 20
-197.5
 40
1.118033988749895
  0
CIRCLE
  5
173
100
AcDbEntity
  8
0
  6
ByLayer
 62
  256
370
   13
100
AcDbCircle
 10
137
 20
-197.5
 40
1.118033988749895
  0
LINE
  5
174
100
AcDbEntity
  8
0
  6
ByLayer
 62
  256
370
   13
100
AcDbLine
 10
132
 20
-198
 11
134
 21
-197
  0
LINE
  5
175
100
AcDbEntity
  8
0
  6
ByLayer
 62
  256
370
   13
100
AcDbLine
 10
136
 20
-197
 11
138
 21
-198
  0
CIRCLE
  5
176
100
AcDbEntity
  8
0
  6
ByLayer
 62
  256
370
   13
100
AcDbCircle
 10
133
 20
-202.5
 40
1.118033988749895
  0
CIRCLE
  5
177
100
AcDbEntity
  8
0
  6
ByLayer
 62
  256
370
   13
100
AcDbCircle
 10
137
 20
-202.5
 40
1.118033988749895
  0
LINE
  5
178
100
AcDbEntity
  8
0
  6
ByLayer
 62
  256
370
   13
100
AcDbLine
 10
132
 20
-203
 11
134
 21
-202
  0
LINE
  5
179
100
AcDbEntity
  8
0
  6
ByLayer
 62
  256
370
   13
100
AcDbLine
 10
136
 20
-202
 11
138
 21
-203
  0
LINE
  5
17A
100
AcDbEntity
  8
0
  6
ByLayer
 62
  256
370
   25
100
AcDbLine
 10
140
 20
-167
 11
160
 21
-167
  0
LINE
  5
17B
100
AcDbEntity
  8
0
  6
ByLayer
 62
  256
370
   25
100
AcDbLine
 10
140
 20
-172
 11
160
 21
-172
  0
LINE
  5
17C
100
AcDbEntity
  8
0
  6
ByLayer
 62
  256
370
   25
100
AcDbLine
 10
140
 20
-177
 11
160
 21
-177
  0
LINE
  5
17D
100
AcDbEntity
  8
0
  6
ByLayer
 62
  256
370
   25
100
AcDbLine
 10
140
 20
-182
 11
160
 21
-182
  0
LINE
  5
17E
100
AcDbEntity
  8
0
  6
ByLayer
 62
  256
370
   25
100
AcDbLine
 10
140
 20
-187
 11
160
 21
-187
  0
LINE
  5
17F
100
AcDbEntity
  8
0
  6
ByLayer
 62
  256
370
   25
100
AcDbLine
 10
140
 20
-192
 11
160
 21
-192
  0
LINE
  5
180
100
AcDbEntity
  8
0
  6
ByLayer
 62
  256
370
   25
100
AcDbLine
 10
140
 20
-197
 11
160
 21
-197
  0
LINE
  5
181
100
AcDbEntity
  8
0
  6
ByLayer
 62
  256
370
   25
100
AcDbLine
 10
140
 20
-202
 11
160
 21
-202
  0
LINE
  5
182
100
AcDbEntity
  8
0
  6
ByLayer
 62
  256
370
   25
100
AcDbLine
 10
80
 20
-50
 11
124
 21
-50
  0
LINE
  5
183
100
AcDbEntity
  8
0
  6
ByLayer
 62
  256
370
   25
100
AcDbLine
 10
160
 20
-202
 11
160
 21
-60
  0
LINE
  5
184
100
AcDbEntity
  8
0
  6
ByLayer
 62
  256
370
   25
100
AcDbLine
 10
124
 20
-50
 11
150
 21
-50
  0
ARC
  5
185
100
AcDbEntity
  8
0
  6
ByLayer
 62
  256
370
   25
100
AcDbCircle
 10
150.75
 20
-59.25
 40
9.280355596635292
100
AcDbArc
 50
355.3645365730973
 51
94.63546342690265
  0
LINE
  5
186
100
AcDbEntity
  8
0
  6
ByLayer
 62
  256
370
   35
100
AcDbLine
 10
80
 20
-40
 11
400
 21
-40
  0
LINE
  5
187
100
AcDbEntity
  8
0
  6
ByLayer
 62
  256
370
   18
100
AcDbLine
 10
362
 20
-208
 11
350
 21
-208
  0
LINE
  5
188
100
AcDbEntity
  8
0
  6
ByLayer
 62
  256
370
   18
100
AcDbLine
 10
348
 20
-236
 11
348
 21
-210
  0
LINE
  5
189
100
AcDbEntity
  8
0
  6
ByLayer
 62
  256
370
   18
100
AcDbLine
 10
342
 20
-236
 11
342
 21
-210
  0
ARC
  5
18A
100
AcDbEntity
  8
0
  6
ByLayer
 62
  256
370
   18
100
AcDbCircle
 10
350.0785714285715
 20
-210.0785714285715
 40
2.080055925464875
100
AcDbArc
 50
92.16478915345483
 51
177.8352108465444
  0
ARC
  5
18B
100
AcDbEntity
  8
0
  6
ByLayer
 62
  256
370
   18
100
AcDbCircle
 10
339.9214285714285
 20
-210.0785714285715
 40
2.08005592546483
100
AcDbArc
 50
2.164789153454052
 51
87.83521084654515
  0
LINE
  5
18C
100
AcDbEntity
  8
0
  6
ByLayer
 62
  256
370
   18
100
AcDbLine
 10
118
 20
-208
 11
340
 21
-208
  0
LWPOLYLINE
  5
18D
100
AcDbEntity
  8
0
  6
ByLayer
 62
  256
370
   -1
100
AcDbPolyline
 90
    4
 70
    1
 43
0
 10
11
 20
-186
 10
12
 20
-186
 10
12
 20
-194
 10
11
 20
-194
  0
LWPOLYLINE
  5
18E
100
AcDbEntity
  8
0
  6
ByLayer
 62
  256
370
   -1
100
AcDbPolyline
 90
    4
 70
    1
 43
0
 10
13
 20
-186
 10
14
 20
-186
 10
14
 20
-194
 10
13
 20
-194
  0
LWPOLYLINE
  5
18F
100
AcDbEntity
  8
0
  6
ByLayer
 62
  256
370
   -1
100
AcDbPolyline
 90
    4
 70
    1
 43
0
 10
15
 20
-186
 10
16
 20
-186
 10
16
 20
-194
 10
15
 20
-194
  0
LWPOLYLINE
  5
190
100
AcDbEntity
  8
0
  6
ByLayer
 62
  256
370
   -1
100
AcDbPolyline
 90
    4
 70
    1
 43
0
 10
17
 20
-186
 10
18
 20
-186
 10
18
 20
-194
 10
17
 20
-194
  0
LWPOLYLINE
  5
191
100
AcDbEntity
  8
0
  6
ByLayer
 62
  256
370
   -1
100
AcDbPolyline
 90
    4
 70
    1
 43
0
 10
19
 20
-186
 10
20
 20
-186
 10
20
 20
-194
 10
19
 20
-194
  0
LWPOLYLINE
  5
192
100
AcDbEntity
  8
0
  6
ByLayer
 62
  256
370
   -1
100
AcDbPolyline
 90
    4
 70
    1
 43
0
 10
21
 20
-186
 10
22
 20
-186
 10
22
 20
-194
 10
21
 20
-194
  0
LWPOLYLINE
  5
193
100
AcDbEntity
  8
0
  6
ByLayer
 62
  256
370
   -1
100
AcDbPolyline
 90
    4
 70
    1
 43
0
 10
23
 20
-186
 10
24
 20
-186
 10
24
 20
-194
 10
23
 20
-194
  0
LWPOLYLINE
  5
194
100
AcDbEntity
  8
0
  6
ByLayer
 62
  256
370
   -1
100
AcDbPolyline
 90
    4
 70
    1
 43
0
 10
25
 20
-186
 10
26
 20
-186
 10
26
 20
-194
 10
25
 20
-194
  0
LWPOLYLINE
  5
195
100
AcDbEntity
  8
0
  6
ByLayer
 62
  256
370
   -1
100
AcDbPolyline
 90
    4
 70
    1
 43
0
 10
27
 20
-186
 10
28
 20
-186
 10
28
 20
-194
 10
27
 20
-194
  0
LWPOLYLINE
  5
196
100
AcDbEntity
  8
0
  6
ByLayer
 62
  256
370
   -1
100
AcDbPolyline
 90
    4
 70
    1
 43
0
 10
29
 20
-186
 10
30
 20
-186
 10
30
 20
-194
 10
29
 20
-194
  0
LWPOLYLINE
  5
197
100
AcDbEntity
  8
0
  6
ByLayer
 62
  256
370
   -1
100
AcDbPolyline
 90
    4
 70
    1
 43
0
 10
31
 20
-186
 10
32
 20
-186
 10
32
 20
-194
 10
31
 20
-194
  0
LWPOLYLINE
  5
198
100
AcDbEntity
  8
0
  6
ByLayer
 62
  256
370
   -1
100
AcDbPolyline
 90
    4
 70
    1
 43
0
 10
33
 20
-186
 10
34
 20
-186
 10
34
 20
-194
 10
33
 20
-194
  0
LWPOLYLINE
  5
199
100
AcDbEntity
  8
0
  6
ByLayer
 62
  256
370
   -1
100
AcDbPolyline
 90
    4
 70
    1
 43
0
 10
35
 20
-186
 10
36
 20
-186
 10
36
 20
-194
 10
35
 20
-194
  0
LWPOLYLINE
  5
19A
100
AcDbEntity
  8
0
  6
ByLayer
 62
  256
370
   -1
100
AcDbPolyline
 90
    4
 70
    1
 43
0
 10
37
 20
-186
 10
38
 20
-186
 10
38
 20
-194
 10
37
 20
-194
  0
LWPOLYLINE
  5
19B
100
AcDbEntity
  8
0
  6
ByLayer
 62
  256
370
   -1
100
AcDbPolyline
 90
    4
 70
    1
 43
0
 10
39
 20
-186
 10
40
 20
-186
 10
40
 20
-194
 10
39
 20
-194
  0
LWPOLYLINE
  5
19C
100
AcDbEntity
  8
0
  6
ByLayer
 62
  256
370
   -1
100
AcDbPolyline
 90
    4
 70
    1
 43
0
 10
41
 20
-186
 10
42
 20
-186
 10
42
 20
-194
 10
41
 20
-194
  0
LWPOLYLINE
  5
19D
100
AcDbEntity
  8
0
  6
ByLayer
 62
  256
370
   -1
100
AcDbPolyline
 90
    4
 70
    1
 43
0
 10
43
 20
-186
 10
44
 20
-186
 10
44
 20
-194
 10
43
 20
-194
  0
LWPOLYLINE
  5
19E
100
AcDbEntity
  8
0
  6
ByLayer
 62
  256
370
   -1
100
AcDbPolyline
 90
    4
 70
    1
 43
0
 10
45
 20
-186
 10
46
 20
-186
 10
46
 20
-194
 10
45
 20
-194
  0
LWPOLYLINE
  5
19F
100
AcDbEntity
  8
0
  6
ByLayer
 62
  256
370
   -1
100
AcDbPolyline
 90
    4
 70
    1
 43
0
 10
47
 20
-186
 10
48
 20
-186
 10
48
 20
-194
 10
47
 20
-194
  0
LINE
  5
1A0
100
AcDbEntity
  8
0
  6
ByLayer
 62
  256
370
   35
100
AcDbLine
 10
9
 20
-187
 11
50
 21
-187
  0
LINE
  5
1A1
100
AcDbEntity
  8
0
  6
ByLayer
 62
  256
370
   35
100
AcDbLine
 10
9
 20
-193
 11
50
 21
-193
  0
LWPOLYLINE
  5
1A2
100
AcDbEntity
  8
0
  6
ByLayer
 62
  256
370
   -1
100
AcDbPolyline
 90
    4
 70
    1
 43
0
 10
11
 20
-166
 10
12
 20
-166
 10
12
 20
-174
 10
11
 20
-174
  0
LWPOLYLINE
  5
1A3
100
AcDbEntity
  8
0
  6
ByLayer
 62
  256
370
   -1
100
AcDbPolyline
 90
    4
 70
    1
 43
0
 10
13
 20
-166
 10
14
 20
-166
 10
14
 20
-174
 10
13
 20
-174
  0
LWPOLYLINE
  5
1A4
100
AcDbEntity
  8
0
  6
ByLayer
 62
  256
370
   -1
100
AcDbPolyline
 90
    4
 70
    1
 43
0
 10
15
 20
-166
 10
16
 20
-166
 10
16
 20
-174
 10
15
 20
-174
  0
LWPOLYLINE
  5
1A5
100
AcDbEntity
  8
0
  6
ByLayer
 62
  256
370
   -1
100
AcDbPolyline
 90
    4
 70
    1
 43
0
 10
17
 20
-166
 10
18
 20
-166
 10
18
 20
-174
 10
17
 20
-174
  0
LWPOLYLINE
  5
1A6
100
AcDbEntity
  8
0
  6
ByLayer
 62
  256
370
   -1
100
AcDbPolyline
 90
    4
 70
    1
 43
0
 10
19
 20
-166
 10
20
 20
-166
 10
20
 20
-174
 10
19
 20
-174
  0
LWPOLYLINE
  5
1A7
100
AcDbEntity
  8
0
  6
ByLayer
 62
  256
370
   -1
100
AcDbPolyline
 90
    4
 70
    1
 43
0
 10
21
 20
-166
 10
22
 20
-166
 10
22
 20
-174
 10
21
 20
-174
  0
LWPOLYLINE
  5
1A8
100
AcDbEntity
  8
0
  6
ByLayer
 62
  256
370
   -1
100
AcDbPolyline
 90
    4
 70
    1
 43
0
 10
23
 20
-166
 10
24
 20
-166
 10
24
 20
-174
 10
23
 20
-174
  0
LWPOLYLINE
  5
1A9
100
AcDbEntity
  8
0
  6
ByLayer
 62
  256
370
   -1
100
AcDbPolyline
 90
    4
 70
    1
 43
0
 10
25
 20
-166
 10
26
 20
-166
 10
26
 20
-174
 10
25
 20
-174
  0
LWPOLYLINE
  5
1AA
100
AcDbEntity
  8
0
  6
ByLayer
 62
  256
370
   -1
100
AcDbPolyline
 90
    4
 70
    1
 43
0
 10
27
 20
-166
 10
28
 20
-166
 10
28
 20
-174
 10
27
 20
-174
  0
LWPOLYLINE
  5
1AB
100
AcDbEntity
  8
0
  6
ByLayer
 62
  256
370
   -1
100
AcDbPolyline
 90
    4
 70
    1
 43
0
 10
29
 20
-166
 10
30
 20
-166
 10
30
 20
-174
 10
29
 20
-174
  0
LWPOLYLINE
  5
1AC
100
AcDbEntity
  8
0
  6
ByLayer
 62
  256
370
   -1
100
AcDbPolyline
 90
    4
 70
    1
 43
0
 10
31
 20
-166
 10
32
 20
-166
 10
32
 20
-174
 10
31
 20
-174
  0
LWPOLYLINE
  5
1AD
100
AcDbEntity
  8
0
  6
ByLayer
 62
  256
370
   -1
100
AcDbPolyline
 90
    4
 70
    1
 43
0
 10
33
 20
-166
 10
34
 20
-166
 10
34
 20
-174
 10
33
 20
-174
  0
LWPOLYLINE
  5
1AE
100
AcDbEntity
  8
0
  6
ByLayer
 62
  256
370
   -1
100
AcDbPolyline
 90
    4
 70
    1
 43
0
 10
35
 20
-166
 10
36
 20
-166
 10
36
 20
-174
 10
35
 20
-174
  0
LWPOLYLINE
  5
1AF
100
AcDbEntity
  8
0
  6
ByLayer
 62
  256
370
   -1
100
AcDbPolyline
 90
    4
 70
    1
 43
0
 10
37
 20
-166
 10
38
 20
-166
 10
38
 20
-174
 10
37
 20
-174
  0
LWPOLYLINE
  5
1B0
100
AcDbEntity
  8
0
  6
ByLayer
 62
  256
370
   -1
100
AcDbPolyline
 90
    4
 70
    1
 43
0
 10
39
 20
-166
 10
40
 20
-166
 10
40
 20
-174
 10
39
 20
-174
  0
LWPOLYLINE
  5
1B1
100
AcDbEntity
  8
0
  6
ByLayer
 62
  256
370
   -1
100
AcDbPolyline
 90
    4
 70
    1
 43
0
 10
41
 20
-166
 10
42
 20
-166
 10
42
 20
-174
 10
41
 20
-174
  0
LWPOLYLINE
  5
1B2
100
AcDbEntity
  8
0
  6
ByLayer
 62
  256
370
   -1
100
AcDbPolyline
 90
    4
 70
    1
 43
0
 10
43
 20
-166
 10
44
 20
-166
 10
44
 20
-174
 10
43
 20
-174
  0
LWPOLYLINE
  5
1B3
100
AcDbEntity
  8
0
  6
ByLayer
 62
  256
370
   -1
100
AcDbPolyline
 90
    4
 70
    1
 43
0
 10
45
 20
-166
 10
46
 20
-166
 10
46
 20
-174
 10
45
 20
-174
  0
LWPOLYLINE
  5
1B4
100
AcDbEntity
  8
0
  6
ByLayer
 62
  256
370
   -1
100
AcDbPolyline
 90
    4
 70
    1
 43
0
 10
47
 20
-166
 10
48
 20
-166
 10
48
 20
-174
 10
47
 20
-174
  0
LINE
  5
1B5
100
AcDbEntity
  8
0
  6
ByLayer
 62
  256
370
   35
100
AcDbLine
 10
9
 20
-167
 11
50
 21
-167
  0
LINE
  5
1B6
100
AcDbEntity
  8
0
  6
ByLayer
 62
  256
370
   35
100
AcDbLine
 10
9
 20
-173
 11
50
 21
-173
  0
LWPOLYLINE
  5
1B7
100
AcDbEntity
  8
0
  6
ByLayer
 62
  256
370
   -1
100
AcDbPolyline
 90
    4
 70
    1
 43
0
 10
11
 20
-141
 10
12
 20
-141
 10
12
 20
-149
 10
11
 20
-149
  0
LWPOLYLINE
  5
1B8
100
AcDbEntity
  8
0
  6
ByLayer
 62
  256
370
   -1
100
AcDbPolyline
 90
    4
 70
    1
 43
0
 10
13
 20
-141
 10
14
 20
-141
 10
14
 20
-149
 10
13
 20
-149
  0
LWPOLYLINE
  5
1B9
100
AcDbEntity
  8
0
  6
ByLayer
 62
  256
370
   -1
100
AcDbPolyline
 90
    4
 70
    1
 43
0
 10
15
 20
-141
 10
16
 20
-141
 10
16
 20
-149
 10
15
 20
-149
  0
LWPOLYLINE
  5
1BA
100
AcDbEntity
  8
0
  6
ByLayer
 62
  256
370
   -1
100
AcDbPolyline
 90
    4
 70
    1
 43
0
 10
17
 20
-141
 10
18
 20
-141
 10
18
 20
-149
 10
17
 20
-149
  0
LWPOLYLINE
  5
1BB
100
AcDbEntity
  8
0
  6
ByLayer
 62
  256
370
   -1
100
AcDbPolyline
 90
    4
 70
    1
 43
0
 10
19
 20
-141
 10
20
 20
-141
 10
20
 20
-149
 10
19
 20
-149
  0
LWPOLYLINE
  5
1BC
100
AcDbEntity
  8
0
  6
ByLayer
 62
  256
370
   -1
100
AcDbPolyline
 90
    4
 70
    1
 43
0
 10
21
 20
-141
 10
22
 20
-141
 10
22
 20
-149
 10
21
 20
-149
  0
LWPOLYLINE
  5
1BD
100
AcDbEntity
  8
0
  6
ByLayer
 62
  256
370
   -1
100
AcDbPolyline
 90
    4
 70
    1
 43
0
 10
23
 20
-141
 10
24
 20
-141
 10
24
 20
-149
 10
23
 20
-149
  0
LWPOLYLINE
  5
1BE
100
AcDbEntity
  8
0
  6
ByLayer
 62
  256
370
   -1
100
AcDbPolyline
 90
    4
 70
    1
 43
0
 10
25
 20
-141
 10
26
 20
-141
 10
26
 20
-149
 10
25
 20
-149
  0
LWPOLYLINE
  5
1BF
100
AcDbEntity
  8
0
  6
ByLayer
 62
  256
370
   -1
100
AcDbPolyline
 90
    4
 70
    1
 43
0
 10
27
 20
-141
 10
28
 20
-141
 10
28
 20
-149
 10
27
 20
-149
  0
LWPOLYLINE
  5
1C0
100
AcDbEntity
  8
0
  6
ByLayer
 62
  256
370
   -1
100
AcDbPolyline
 90
    4
 70
    1
 43
0
 10
29
 20
-141
 10
30
 20
-141
 10
30
 20
-149
 10
29
 20
-149
  0
LWPOLYLINE
  5
1C1
100
AcDbEntity
  8
0
  6
ByLayer
 62
  256
370
   -1
100
AcDbPolyline
 90
    4
 70
    1
 43
0
 10
31
 20
-141
 10
32
 20
-141
 10
32
 20
-149
 10
31
 20
-149
  0
LWPOLYLINE
  5
1C2
100
AcDbEntity
  8
0
  6
ByLayer
 62
  256
370
   -1
100
AcDbPolyline
 90
    4
 70
    1
 43
0
 10
33
 20
-141
 10
34
 20
-141
 10
34
 20
-149
 10
33
 20
-149
  0
LWPOLYLINE
  5
1C3
100
AcDbEntity
  8
0
  6
ByLayer
 62
  256
370
   -1
100
AcDbPolyline
 90
    4
 70
    1
 43
0
 10
35
 20
-141
 10
36
 20
-141
 10
36
 20
-149
 10
35
 20
-149
  0
LWPOLYLINE
  5
1C4
100
AcDbEntity
  8
0
  6
ByLayer
 62
  256
370
   -1
100
AcDbPolyline
 90
    4
 70
    1
 43
0
 10
37
 20
-141
 10
38
 20
-141
 10
38
 20
-149
 10
37
 20
-149
  0
LWPOLYLINE
  5
1C5
100
AcDbEntity
  8
0
  6
ByLayer
 62
  256
370
   -1
100
AcDbPolyline
 90
    4
 70
    1
 43
0
 10
39
 20
-141
 10
40
 20
-141
 10
40
 20
-149
 10
39
 20
-149
  0
LWPOLYLINE
  5
1C6
100
AcDbEntity
  8
0
  6
ByLayer
 62
  256
370
   -1
100
AcDbPolyline
 90
    4
 70
    1
 43
0
 10
41
 20
-141
 10
42
 20
-141
 10
42
 20
-149
 10
41
 20
-149
  0
LWPOLYLINE
  5
1C7
100
AcDbEntity
  8
0
  6
ByLayer
 62
  256
370
   -1
100
AcDbPolyline
 90
    4
 70
    1
 43
0
 10
43
 20
-141
 10
44
 20
-141
 10
44
 20
-149
 10
43
 20
-149
  0
LWPOLYLINE
  5
1C8
100
AcDbEntity
  8
0
  6
ByLayer
 62
  256
370
   -1
100
AcDbPolyline
 90
    4
 70
    1
 43
0
 10
45
 20
-141
 10
46
 20
-141
 10
46
 20
-149
 10
45
 20
-149
  0
LWPOLYLINE
  5
1C9
100
AcDbEntity
  8
0
  6
ByLayer
 62
  256
370
   -1
100
AcDbPolyline
 90
    4
 70
    1
 43
0
 10
47
 20
-141
 10
48
 20
-141
 10
48
 20
-149
 10
47
 20
-149
  0
LINE
  5
1CA
100
AcDbEntity
  8
0
  6
ByLayer
 62
  256
370
   35
100
AcDbLine
 10
9
 20
-142
 11
50
 21
-142
  0
LINE
  5
1CB
100
AcDbEntity
  8
0
  6
ByLayer
 62
  256
370
   35
100
AcDbLine
 10
9
 20
-148
 11
50
 21
-148
  0
LINE
  5
1CC
100
AcDbEntity
  8
0
  6
DOTTINY
 62
  256
370
   -1
100
AcDbLine
 10
35
 20
-60
 11
30
 21
-60
  0
LINE
  5
1CD
100
AcDbEntity
  8
0
  6
DOTTINY
 62
  256
370
   -1
100
AcDbLine
 10
30
 20
-60
 11
30
 21
0
  0
LINE
  5
1CE
100
AcDbEntity
  8
0
  6
DOTTINY
 62
  256
370
   -1
100
AcDbLine
 10
80
 20
-65
 11
80
 21
-70
  0
LINE
  5
1CF
100
AcDbEntity
  8
0
  6
DOTTINY
 62
  256
370
   -1
100
AcDbLine
 10
80
 20
-70
 11
0
 21
-70
  0
MTEXT
  5
1D0
100
AcDbEntity
  8
0
  6
ByLayer
 62
  256
370
   -1
100
AcDbMText
 10
36.95833333333331
 20
-18.5
 30
0
 40
3
 41
11.16666666666699
 71
    5
 72
    1
  1
6"Max
  7
textstyle11
210
0
220
0
230
1
 50
0
 73
    1
 44
1
  0
MTEXT
  5
1D1
100
AcDbEntity
  8
0
  6
ByLayer
 62
  256
370
   -1
100
AcDbMText
 10
38
 20
-72
 30
0
 40
3
 41
11.16666666666681
 71
    5
 72
    1
  1
8"Max
  7
textstyle12
210
0
220
0
230
1
 50
0
 73
    1
 44
1
  0
MTEXT
  5
1D2
100
AcDbEntity
  8
0
  6
ByLayer
 62
  256
370
   -1
100
AcDbMText
 10
59
 20
-27
 30
0
 40
3
 41
15.75
 71
    5
 72
    1
  1
"M" Box
  7
textstyle13
210
0
220
0
230
1
 50
0
 73
    1
 44
1
  0
MTEXT
  5
1D3
100
AcDbEntity
  8
0
  6
ByLayer
 62
  256
370
   -1
100
AcDbMText
 10
295
 20
-34
 30
0
 40
3
 41
21.16666820952859
 71
    5
 72
    1
  1
14 AWG\P9 wire bus
  7
textstyle14
210
0
220
0
230
1
 50
0
 73
    1
 44
1
  0
MTEXT
  5
1D4
100
AcDbEntity
  8
0
  6
ByLayer
 62
  256
370
   -1
100
AcDbMText
 10
150
 20
-140
 30
0
 40
3
 41
16.25000000000014
 71
    5
 72
    1
  1
20 AWG\Pto track
  7
textstyle15
210
0
220
0
230
1
 50
0
 73
    1
 44
1
  0
MTEXT
  5
1D5
100
AcDbEntity
  8
0
  6
ByLayer
 62
  256
370
   -1
100
AcDbMText
 10
446.7083333333333
 20
-8.5
 30
0
 40
3
 41
21.91666666666681
 71
    5
 72
    1
  1
Leg Pocket
  7
textstyle16
210
0
220
0
230
1
 50
0
 73
    1
 44
1
  0
MTEXT
  5
1D6
100
AcDbEntity
  8
0
  6
ByLayer
 62
  256
370
   -1
100
AcDbMText
 10
29
 20
-197
 30
0
 40
3
 41
33.66666569732735
 71
    5
 72
    1
  1
South Track (5")
  7
textstyle17
210
0
220
0
230
1
 50
0
 73
    1
 44
1
  0
MTEXT
  5
1D7
100
AcDbEntity
  8
0
  6
ByLayer
 62
  256
370
   -1
100
AcDbMText
 10
29
 20
-163
 30
0
 40
3
 41
33.33333300000028
 71
    5
 72
    1
  1
North Track (7")
  7
textstyle18
210
0
220
0
230
1
 50
0
 73
    1
 44
1
  0
MTEXT
  5
1D8
100
AcDbEntity
  8
0
  6
ByLayer
 62
  256
370
   -1
100
AcDbMText
 10
30
 20
-137
 30
0
 40
3
 41
32.99999966666699
 71
    5
 72
    1
  1
Aux Track (9.5")
  7
textstyle19
210
0
220
0
230
1
 50
0
 73
    1
 44
1
  0
MTEXT
  5
1D9
100
AcDbEntity
  8
0
  6
ByLayer
 62
  256
370
   -1
100
AcDbMText
 10
353
 20
-246
 30
0
 40
3
 41
9.000000000000185
 71
    5
 72
    1
  1
UP-5
  7
textstyle20
210
0
220
0
230
1
 50
0
 73
    1
 44
1
  0
LWPOLYLINE
  5
1DA
100
AcDbEntity
  8
0
  6
ByLayer
 62
  256
370
   -1
100
AcDbPolyline
 90
    4
 70
    1
 43
0
 10
430
 20
-50
 10
420
 20
-50
 10
420
 20
-40
 10
430
 20
-40
  0
LWPOLYLINE
  5
1DB
100
AcDbEntity
  8
0
  6
ByLayer
 62
  256
370
   -1
100
AcDbPolyline
 90
    4
 70
    1
 43
0
 10
50
 20
-40
 10
60
 20
-40
 10
60
 20
-50
 10
50
 20
-50
  0
LWPOLYLINE
  5
1DC
100
AcDbEntity
  8
0
  6
ByLayer
 62
  256
370
   -1
100
AcDbPolyline
 90
    4
 70
    1
 43
0
 10
53
 20
-43
 10
51
 20
-43
 10
51
 20
-41
 10
53
 20
-41
  0
LWPOLYLINE
  5
1DD
100
AcDbEntity
  8
0
  6
ByLayer
 62
  256
370
   -1
100
AcDbPolyline
 90
    4
 70
    1
 43
0
 10
56
 20
-43
 10
54
 20
-43
 10
54
 20
-41
 10
56
 20
-41
  0
LWPOLYLINE
  5
1DE
100
AcDbEntity
  8
0
  6
ByLayer
 62
  256
370
   -1
100
AcDbPolyline
 90
    4
 70
    1
 43
0
 10
57
 20
-43
 10
59
 20
-43
 10
59
 20
-41
 10
57
 20
-41
  0
LWPOLYLINE
  5
1DF
100
AcDbEntity
  8
0
  6
ByLayer
 62
  256
370
   -1
100
AcDbPolyline
 90
    4
 70
    1
 43
0
 10
57
 20
-44
 10
59
 20
-44
 10
59
 20
-46
 10
57
 20
-46
  0
LWPOLYLINE
  5
1E0
100
AcDbEntity
  8
0
  6
ByLayer
 62
  256
370
   -1
100
AcDbPolyline
 90
    4
 70
    1
 43
0
 10
57
 20
-47
 10
59
 20
-47
 10
59
 20
-49
 10
57
 20
-49
  0
LWPOLYLINE
  5
1E1
100
AcDbEntity
  8
0
  6
ByLayer
 62
  256
370
   -1
100
AcDbPolyline
 90
    4
 70
    1
 43
0
 10
54
 20
-44
 10
56
 20
-44
 10
56
 20
-46
 10
54
 20
-46
  0
LWPOLYLINE
  5
1E2
100
AcDbEntity
  8
0
  6
ByLayer
 62
  256
370
   -1
100
AcDbPolyline
 90
    4
 70
    1
 43
0
 10
54
 20
-47
 10
56
 20
-47
 10
56
 20
-49
 10
54
 20
-49
  0
LWPOLYLINE
  5
1E3
100
AcDbEntity
  8
0
  6
ByLayer
 62
  256
370
   -1
100
AcDbPolyline
 90
    4
 70
    1
 43
0
 10
51
 20
-44
 10
53
 20
-44
 10
53
 20
-46
 10
51
 20
-46
  0
LWPOLYLINE
  5
1E4
100
AcDbEntity
  8
0
  6
ByLayer
 62
  256
370
   -1
100
AcDbPolyline
 90
    4
 70
    1
 43
0
 10
51
 20
-47
 10
53
 20
-47
 10
53
 20
-49
 10
51
 20
-49
  0
LWPOLYLINE
  5
1E5
100
AcDbEntity
  8
0
  6
ByLayer
 62
  256
370
   -1
100
AcDbPolyline
 90
    4
 70
    1
 43
0
 10
423
 20
-43
 10
421
 20
-43
 10
421
 20
-41
 10
423
 20
-41
  0
LWPOLYLINE
  5
1E6
100
AcDbEntity
  8
0
  6
ByLayer
 62
  256
370
   -1
100
AcDbPolyline
 90
    4
 70
    1
 43
0
 10
426
 20
-43
 10
424
 20
-43
 10
424
 20
-41
 10
426
 20
-41
  0
LWPOLYLINE
  5
1E7
100
AcDbEntity
  8
0
  6
ByLayer
 62
  256
370
   -1
100
AcDbPolyline
 90
    4
 70
    1
 43
0
 10
427
 20
-43
 10
429
 20
-43
 10
429
 20
-41
 10
427
 20
-41
  0
LWPOLYLINE
  5
1E8
100
AcDbEntity
  8
0
  6
ByLayer
 62
  256
370
   -1
100
AcDbPolyline
 90
    4
 70
    1
 43
0
 10
427
 20
-44
 10
429
 20
-44
 10
429
 20
-46
 10
427
 20
-46
  0
LWPOLYLINE
  5
1E9
100
AcDbEntity
  8
0
  6
ByLayer
 62
  256
370
   -1
100
AcDbPolyline
 90
    4
 70
    1
 43
0
 10
427
 20
-47
 10
429
 20
-47
 10
429
 20
-49
 10
427
 20
-49
  0
LWPOLYLINE
  5
1EA
100
AcDbEntity
  8
0
  6
ByLayer
 62
  256
370
   -1
100
AcDbPolyline
 90
    4
 70
    1
 43
0
 10
424
 20
-44
 10
426
 20
-44
 10
426
 20
-46
 10
424
 20
-46
  0
LWPOLYLINE
  5
1EB
100
AcDbEntity
  8
0
  6
ByLayer
 62
  256
370
   -1
100
AcDbPolyline
 90
    4
 70
    1
 43
0
 10
424
 20
-47
 10
426
 20
-47
 10
426
 20
-49
 10
424
 20
-49
  0
LWPOLYLINE
  5
1EC
100
AcDbEntity
  8
0
  6
ByLayer
 62
  256
370
   -1
100
AcDbPolyline
 90
    4
 70
    1
 43
0
 10
421
 20
-44
 10
423
 20
-44
 10
423
 20
-46
 10
421
 20
-46
  0
LWPOLYLINE
  5
1ED
100
AcDbEntity
  8
0
  6
ByLayer
 62
  256
370
   -1
100
AcDbPolyline
 90
    4
 70
    1
 43
0
 10
421
 20
-47
 10
423
 20
-47
 10
423
 20
-49
 10
421
 20
-49
  0
MTEXT
  5
1EE
100
AcDbEntity
  8
0
  6
ByLayer
 62
  256
370
   -1
100
AcDbMText
 10
270
 20
20
 30
0
 40
4
 41
59.99999915199196
 71
    5
 72
    1
  1
Sky Board: Height=14"
  7
textstyle21
210
0
220
0
230
1
 50
0
 73
    1
 44
1
  0
MTEXT
  5
1EF
100
AcDbEntity
  8
0
  6
ByLayer
 62
  256
370
   -1
100
AcDbMText
 10
108
 20
-214
 30
0
 40
3
 41
14.00000000000018
 71
    5
 72
    1
  1
6P6C\PCoupler
  7
textstyle22
210
0
220
0
230
1
 50
0
 73
    1
 44
1
  0
LWPOLYLINE
  5
1F0
100
AcDbEntity
  8
0
  6
ByLayer
 62
  256
370
   -1
100
AcDbPolyline
 90
    4
 70
    1
 43
0
 10
460
 20
-220
 10
476
 20
-220
 10
476
 20
-236
 10
460
 20
-236
  0
LWPOLYLINE
  5
1F1
100
AcDbEntity
  8
0
  6
ByLayer
 62
  256
370
   -1
100
AcDbPolyline
 90
    4
 70
    1
 43
0
 10
462
 20
-222
 10
474
 20
-222
 10
474
 20
-234
 10
462
 20
-234
  0
LWPOLYLINE
  5
1F2
100
AcDbEntity
  8
0
  6
ByLayer
 62
  256
370
   -1
100
AcDbPolyline
 90
    4
 70
    1
 43
0
 10
460
 20
-4
 10
476
 20
-4
 10
476
 20
-20
 10
460
 20
-20
  0
LWPOLYLINE
  5
1F3
100
AcDbEntity
  8
0
  6
ByLayer
 62
  256
370
   -1
100
AcDbPolyline
 90
    4
 70
    1
 43
0
 10
462
 20
-6
 10
474
 20
-6
 10
474
 20
-18
 10
462
 20
-18
  0
LWPOLYLINE
  5
1F4
100
AcDbEntity
  8
0
  6
ByLayer
 62
  256
370
   -1
100
AcDbPolyline
 90
    4
 70
    1
 43
0
 10
4
 20
-4
 10
20
 20
-4
 10
20
 20
-20
 10
4
 20
-20
  0
LWPOLYLINE
  5
1F5
100
AcDbEntity
  8
0
  6
ByLayer
 62
  256
370
   -1
100
AcDbPolyline
 90
    4
 70
    1
 43
0
 10
6
 20
-6
 10
18
 20
-6
 10
18
 20
-18
 10
6
 20
-18
  0
LWPOLYLINE
  5
1F6
100
AcDbEntity
  8
0
  6
ByLayer
 62
  256
370
   -1
100
AcDbPolyline
 90
    4
 70
    1
 43
0
 10
4
 20
-220
 10
20
 20
-220
 10
20
 20
-236
 10
4
 20
-236
  0
LWPOLYLINE
  5
1F7
100
AcDbEntity
  8
0
  6
ByLayer
 62
  256
370
   -1
100
AcDbPolyline
 90
    4
 70
    1
 43
0
 10
6
 20
-222
 10
18
 20
-222
 10
18
 20
-234
 10
6
 20
-234
  0
ENDBLK
  5
BA
330
B8
100
AcDbEntity
  8
0
100
AcDbBlockEnd
  0
ENDSEC
  0
SECTION
  2
ENTITIES
  0
LWPOLYLINE
  5
1F8
100
AcDbEntity
  8
0
  6
ByLayer
 62
  256
370
   -1
100
AcDbPolyline
 90
    4
 70
    1
 43
0
 10
10
 20
35
 10
0
 20
35
 10
0
 20
40
 10
10
 20
40
  0
LWPOLYLINE
  5
1F9
100
AcDbEntity
  8
0
  6
ByLayer
 62
  256
370
   -1
100
AcDbPolyline
 90
    4
 70
    1
 43
0
 10
10
 20
40
 10
0
 20
40
 10
0
 20
45
 10
10
 20
45
  0
LWPOLYLINE
  5
1FA
100
AcDbEntity
  8
0
  6
ByLayer
 62
  256
370
   -1
100
AcDbPolyline
 90
    4
 70
    1
 43
0
 10
10
 20
45
 10
0
 20
45
 10
0
 20
50
 10
10
 20
50
  0
LWPOLYLINE
  5
1FB
100
AcDbEntity
  8
0
  6
ByLayer
 62
  256
370
   -1
100
AcDbPolyline
 90
    4
 70
    1
 43
0
 10
10
 20
50
 10
0
 20
50
 10
0
 20
55
 10
10
 20
55
  0
LWPOLYLINE
  5
1FC
100
AcDbEntity
  8
0
  6
ByLayer
 62
  256
370
   -1
100
AcDbPolyline
 90
    4
 70
    1
 43
0
 10
10
 20
55
 10
0
 20
55
 10
0
 20
60
 10
10
 20
60
  0
LWPOLYLINE
  5
1FD
100
AcDbEntity
  8
0
  6
ByLayer
 62
  256
370
   -1
100
AcDbPolyline
 90
    4
 70
    1
 43
0
 10
10
 20
60
 10
0
 20
60
 10
0
 20
65
 10
10
 20
65
  0
LWPOLYLINE
  5
1FE
100
AcDbEntity
  8
0
  6
ByLayer
 62
  256
370
   -1
100
AcDbPolyline
 90
    4
 70
    1
 43
0
 10
10
 20
30
 10
0
 20
30
 10
0
 20
35
 10
10
 20
35
  0
LWPOLYLINE
  5
1FF
100
AcDbEntity
  8
0
  6
ByLayer
 62
  256
370
   -1
100
AcDbPolyline
 90
    4
 70
    1
 43
0
 10
10
 20
65
 10
0
 20
65
 10
0
 20
70
 10
10
 20
70
  0
CIRCLE
  5
200
100
AcDbEntity
  8
0
  6
ByLayer
 62
  256
370
   -1
100
AcDbCircle
 10
3
 20
67.5
 40
1.118033988749895
  0
CIRCLE
  5
201
100
AcDbEntity
  8
0
  6
ByLayer
 62
  256
370
   -1
100
AcDbCircle
 10
7
 20
67.5
 40
1.118033988749895
  0
LINE
  5
202
100
AcDbEntity
  8
0
  6
ByLayer
 62
  256
370
   -1
100
AcDbLine
 10
2
 20
67
 11
4
 21
68
  0
LINE
  5
203
100
AcDbEntity
  8
0
  6
ByLayer
 62
  256
370
   -1
100
AcDbLine
 10
6
 20
68
 11
8
 21
67
  0
CIRCLE
  5
204
100
AcDbEntity
  8
0
  6
ByLayer
 62
  256
370
   -1
100
AcDbCircle
 10
3
 20
62.5
 40
1.118033988749895
  0
CIRCLE
  5
205
100
AcDbEntity
  8
0
  6
ByLayer
 62
  256
370
   -1
100
AcDbCircle
 10
7
 20
62.5
 40
1.118033988749895
  0
LINE
  5
206
100
AcDbEntity
  8
0
  6
ByLayer
 62
  256
370
   -1
100
AcDbLine
 10
2
 20
62
 11
4
 21
63
  0
LINE
  5
207
100
AcDbEntity
  8
0
  6
ByLayer
 62
  256
370
   -1
100
AcDbLine
 10
6
 20
63
 11
8
 21
62
  0
CIRCLE
  5
208
100
AcDbEntity
  8
0
  6
ByLayer
 62
  256
370
   -1
100
AcDbCircle
 10
3
 20
57.5
 40
1.118033988749895
  0
CIRCLE
  5
209
100
AcDbEntity
  8
0
  6
ByLayer
 62
  256
370
   -1
100
AcDbCircle
 10
7
 20
57.5
 40
1.118033988749895
  0
LINE
  5
20A
100
AcDbEntity
  8
0
  6
ByLayer
 62
  256
370
   -1
100
AcDbLine
 10
2
 20
57
 11
4
 21
58
  0
LINE
  5
20B
100
AcDbEntity
  8
0
  6
ByLayer
 62
  256
370
   -1
100
AcDbLine
 10
6
 20
58
 11
8
 21
57
  0
CIRCLE
  5
20C
100
AcDbEntity
  8
0
  6
ByLayer
 62
  256
370
   -1
100
AcDbCircle
 10
3
 20
52.5
 40
1.118033988749895
  0
CIRCLE
  5
20D
100
AcDbEntity
  8
0
  6
ByLayer
 62
  256
370
   -1
100
AcDbCircle
 10
7
 20
52.5
 40
1.118033988749895
  0
LINE
  5
20E
100
AcDbEntity
  8
0
  6
ByLayer
 62
  256
370
   -1
100
AcDbLine
 10
2
 20
52
 11
4
 21
53
  0
LINE
  5
20F
100
AcDbEntity
  8
0
  6
ByLayer
 62
  256
370
   -1
100
AcDbLine
 10
6
 20
53
 11
8
 21
52
  0
CIRCLE
  5
210
100
AcDbEntity
  8
0
  6
ByLayer
 62
  256
370
   -1
100
AcDbCircle
 10
3
 20
47.5
 40
1.118033988749895
  0
CIRCLE
  5
211
100
AcDbEntity
  8
0
  6
ByLayer
 62
  256
370
   -1
100
AcDbCircle
 10
7
 20
47.5
 40
1.118033988749895
  0
LINE
  5
212
100
AcDbEntity
  8
0
  6
ByLayer
 62
  256
370
   -1
100
AcDbLine
 10
2
 20
47
 11
4
 21
48
  0
LINE
  5
213
100
AcDbEntity
  8
0
  6
ByLayer
 62
  256
370
   -1
100
AcDbLine
 10
6
 20
48
 11
8
 21
47
  0
CIRCLE
  5
214
100
AcDbEntity
  8
0
  6
ByLayer
 62
  256
370
   -1
100
AcDbCircle
 10
3
 20
42.5
 40
1.118033988749895
  0
CIRCLE
  5
215
100
AcDbEntity
  8
0
  6
ByLayer
 62
  256
370
   -1
100
AcDbCircle
 10
7
 20
42.5
 40
1.118033988749895
  0
LINE
  5
216
100
AcDbEntity
  8
0
  6
ByLayer
 62
  256
370
   -1
100
AcDbLine
 10
2
 20
42
 11
4
 21
43
  0
LINE
  5
217
100
AcDbEntity
  8
0
  6
ByLayer
 62
  256
370
   -1
100
AcDbLine
 10
6
 20
43
 11
8
 21
42
  0
CIRCLE
  5
218
100
AcDbEntity
  8
0
  6
ByLayer
 62
  256
370
   -1
100
AcDbCircle
 10
3
 20
37.5
 40
1.118033988749895
  0
CIRCLE
  5
219
100
AcDbEntity
  8
0
  6
ByLayer
 62
  256
370
   -1
100
AcDbCircle
 10
7
 20
37.5
 40
1.118033988749895
  0
LINE
  5
21A
100
AcDbEntity
  8
0
  6
ByLayer
 62
  256
370
   -1
100
AcDbLine
 10
2
 20
37
 11
4
 21
38
  0
LINE
  5
21B
100
AcDbEntity
  8
0
  6
ByLayer
 62
  256
370
   -1
100
AcDbLine
 10
6
 20
38
 11
8
 21
37
  0
CIRCLE
  5
21C
100
AcDbEntity
  8
0
  6
ByLayer
 62
  256
370
   -1
100
AcDbCircle
 10
3
 20
32.5
 40
1.118033988749895
  0
CIRCLE
  5
21D
100
AcDbEntity
  8
0
  6
ByLayer
 62
  256
370
   -1
100
AcDbCircle
 10
7
 20
32.5
 40
1.118033988749895
  0
LINE
  5
21E
100
AcDbEntity
  8
0
  6
ByLayer
 62
  256
370
   -1
100
AcDbLine
 10
2
 20
32
 11
4
 21
33
  0
LINE
  5
21F
100
AcDbEntity
  8
0
  6
ByLayer
 62
  256
370
   -1
100
AcDbLine
 10
6
 20
33
 11
8
 21
32
  0
MTEXT
  5
220
100
AcDbEntity
  8
0
  6
ByLayer
 62
  256
370
   -1
100
AcDbMText
 10
19.88888888888889
 20
57
 30
0
 40
2
 41
7.555555555555648
 71
    4
 72
    1
  1
Brown
  7
textstyle23
210
0
220
0
230
1
 50
0
 73
    1
 44
1
  0
MTEXT
  5
221
100
AcDbEntity
  8
0
  6
ByLayer
 62
  256
370
   -1
100
AcDbMText
 10
19.88888888888889
 20
52
 30
0
 40
2
 41
8.666666666666945
 71
    4
 72
    1
  1
Orange
  7
textstyle24
210
0
220
0
230
1
 50
0
 73
    1
 44
1
  0
MTEXT
  5
222
100
AcDbEntity
  8
0
  6
ByLayer
 62
  256
370
   -1
100
AcDbMText
 10
19.55555555555556
 20
47
 30
0
 40
2
 41
8.222222222222221
 71
    4
 72
    1
  1
Yellow
  7
textstyle25
210
0
220
0
230
1
 50
0
 73
    1
 44
1
  0
MTEXT
  5
223
100
AcDbEntity
  8
0
  6
ByLayer
 62
  256
370
   -1
100
AcDbMText
 10
20.22222222222222
 20
42
 30
0
 40
2
 41
5.111111111111112
 71
    4
 72
    1
  1
Blue
  7
textstyle26
210
0
220
0
230
1
 50
0
 73
    1
 44
1
  0
MTEXT
  5
224
100
AcDbEntity
  8
0
  6
ByLayer
 62
  256
370
   -1
100
AcDbMText
 10
19.88888888888889
 20
37
 30
0
 40
2
 41
7.111111111111328
 71
    4
 72
    1
  1
Green
  7
textstyle27
210
0
220
0
230
1
 50
0
 73
    1
 44
1
  0
MTEXT
  5
225
100
AcDbEntity
  8
0
  6
ByLayer
 62
  256
370
   -1
100
AcDbMText
 10
20.22222222222222
 20
32
 30
0
 40
2
 41
4.222222222222221
 71
    4
 72
    1
  1
Red
  7
textstyle28
210
0
220
0
230
1
 50
0
 73
    1
 44
1
  0
LWPOLYLINE
  5
226
100
AcDbEntity
  8
0
  6
ByLayer
 62
  256
370
   -1
100
AcDbPolyline
 90
    4
 70
    1
 43
0
 10
52
 20
35
 10
53
 20
35
 10
53
 20
27
 10
52
 20
27
  0
LWPOLYLINE
  5
227
100
AcDbEntity
  8
0
  6
ByLayer
 62
  256
370
   -1
100
AcDbPolyline
 90
    4
 70
    1
 43
0
 10
54
 20
35
 10
55
 20
35
 10
55
 20
27
 10
54
 20
27
  0
LWPOLYLINE
  5
228
100
AcDbEntity
  8
0
  6
ByLayer
 62
  256
370
   -1
100
AcDbPolyline
 90
    4
 70
    1
 43
0
 10
56
 20
35
 10
57
 20
35
 10
57
 20
27
 10
56
 20
27
  0
LWPOLYLINE
  5
229
100
AcDbEntity
  8
0
  6
ByLayer
 62
  256
370
   -1
100
AcDbPolyline
 90
    4
 70
    1
 43
0
 10
58
 20
35
 10
59
 20
35
 10
59
 20
27
 10
58
 20
27
  0
LWPOLYLINE
  5
22A
100
AcDbEntity
  8
0
  6
ByLayer
 62
  256
370
   -1
100
AcDbPolyline
 90
    4
 70
    1
 43
0
 10
60
 20
35
 10
61
 20
35
 10
61
 20
27
 10
60
 20
27
  0
LWPOLYLINE
  5
22B
100
AcDbEntity
  8
0
  6
ByLayer
 62
  256
370
   -1
100
AcDbPolyline
 90
    4
 70
    1
 43
0
 10
62
 20
35
 10
63
 20
35
 10
63
 20
27
 10
62
 20
27
  0
LWPOLYLINE
  5
22C
100
AcDbEntity
  8
0
  6
ByLayer
 62
  256
370
   -1
100
AcDbPolyline
 90
    4
 70
    1
 43
0
 10
64
 20
35
 10
65
 20
35
 10
65
 20
27
 10
64
 20
27
  0
LWPOLYLINE
  5
22D
100
AcDbEntity
  8
0
  6
ByLayer
 62
  256
370
   -1
100
AcDbPolyline
 90
    4
 70
    1
 43
0
 10
66
 20
35
 10
67
 20
35
 10
67
 20
27
 10
66
 20
27
  0
LWPOLYLINE
  5
22E
100
AcDbEntity
  8
0
  6
ByLayer
 62
  256
370
   -1
100
AcDbPolyline
 90
    4
 70
    1
 43
0
 10
68
 20
35
 10
69
 20
35
 10
69
 20
27
 10
68
 20
27
  0
LWPOLYLINE
  5
22F
100
AcDbEntity
  8
0
  6
ByLayer
 62
  256
370
   -1
100
AcDbPolyline
 90
    4
 70
    1
 43
0
 10
70
 20
35
 10
71
 20
35
 10
71
 20
27
 10
70
 20
27
  0
LWPOLYLINE
  5
230
100
AcDbEntity
  8
0
  6
ByLayer
 62
  256
370
   -1
100
AcDbPolyline
 90
    4
 70
    1
 43
0
 10
72
 20
35
 10
73
 20
35
 10
73
 20
27
 10
72
 20
27
  0
LWPOLYLINE
  5
231
100
AcDbEntity
  8
0
  6
ByLayer
 62
  256
370
   -1
100
AcDbPolyline
 90
    4
 70
    1
 43
0
 10
74
 20
35
 10
75
 20
35
 10
75
 20
27
 10
74
 20
27
  0
LWPOLYLINE
  5
232
100
AcDbEntity
  8
0
  6
ByLayer
 62
  256
370
   -1
100
AcDbPolyline
 90
    4
 70
    1
 43
0
 10
76
 20
35
 10
77
 20
35
 10
77
 20
27
 10
76
 20
27
  0
LWPOLYLINE
  5
233
100
AcDbEntity
  8
0
  6
ByLayer
 62
  256
370
   -1
100
AcDbPolyline
 90
    4
 70
    1
 43
0
 10
78
 20
35
 10
79
 20
35
 10
79
 20
27
 10
78
 20
27
  0
LWPOLYLINE
  5
234
100
AcDbEntity
  8
0
  6
ByLayer
 62
  256
370
   -1
100
AcDbPolyline
 90
    4
 70
    1
 43
0
 10
80
 20
35
 10
81
 20
35
 10
81
 20
27
 10
80
 20
27
  0
LWPOLYLINE
  5
235
100
AcDbEntity
  8
0
  6
ByLayer
 62
  256
370
   -1
100
AcDbPolyline
 90
    4
 70
    1
 43
0
 10
82
 20
35
 10
83
 20
35
 10
83
 20
27
 10
82
 20
27
  0
LWPOLYLINE
  5
236
100
AcDbEntity
  8
0
  6
ByLayer
 62
  256
370
   -1
100
AcDbPolyline
 90
    4
 70
    1
 43
0
 10
84
 20
35
 10
85
 20
35
 10
85
 20
27
 10
84
 20
27
  0
LWPOLYLINE
  5
237
100
AcDbEntity
  8
0
  6
ByLayer
 62
  256
370
   -1
100
AcDbPolyline
 90
    4
 70
    1
 43
0
 10
86
 20
35
 10
87
 20
35
 10
87
 20
27
 10
86
 20
27
  0
LWPOLYLINE
  5
238
100
AcDbEntity
  8
0
  6
ByLayer
 62
  256
370
   -1
100
AcDbPolyline
 90
    4
 70
    1
 43
0
 10
88
 20
35
 10
89
 20
35
 10
89
 20
27
 10
88
 20
27
  0
LINE
  5
239
100
AcDbEntity
  8
0
  6
ByLayer
 62
  256
370
   -1
100
AcDbLine
 10
50
 20
34
 11
91
 21
34
  0
LINE
  5
23A
100
AcDbEntity
  8
0
  6
ByLayer
 62
  256
370
   -1
100
AcDbLine
 10
50
 20
28
 11
91
 21
28
  0
LWPOLYLINE
  5
23B
100
AcDbEntity
  8
0
  6
ByLayer
 62
  256
370
   -1
100
AcDbPolyline
 90
    4
 70
    1
 43
0
 10
52
 20
47
 10
53
 20
47
 10
53
 20
39
 10
52
 20
39
  0
LWPOLYLINE
  5
23C
100
AcDbEntity
  8
0
  6
ByLayer
 62
  256
370
   -1
100
AcDbPolyline
 90
    4
 70
    1
 43
0
 10
54
 20
47
 10
55
 20
47
 10
55
 20
39
 10
54
 20
39
  0
LWPOLYLINE
  5
23D
100
AcDbEntity
  8
0
  6
ByLayer
 62
  256
370
   -1
100
AcDbPolyline
 90
    4
 70
    1
 43
0
 10
56
 20
47
 10
57
 20
47
 10
57
 20
39
 10
56
 20
39
  0
LWPOLYLINE
  5
23E
100
AcDbEntity
  8
0
  6
ByLayer
 62
  256
370
   -1
100
AcDbPolyline
 90
    4
 70
    1
 43
0
 10
58
 20
47
 10
59
 20
47
 10
59
 20
39
 10
58
 20
39
  0
LWPOLYLINE
  5
23F
100
AcDbEntity
  8
0
  6
ByLayer
 62
  256
370
   -1
100
AcDbPolyline
 90
    4
 70
    1
 43
0
 10
60
 20
47
 10
61
 20
47
 10
61
 20
39
 10
60
 20
39
  0
LWPOLYLINE
  5
240
100
AcDbEntity
  8
0
  6
ByLayer
 62
  256
370
   -1
100
AcDbPolyline
 90
    4
 70
    1
 43
0
 10
62
 20
47
 10
63
 20
47
 10
63
 20
39
 10
62
 20
39
  0
LWPOLYLINE
  5
241
100
AcDbEntity
  8
0
  6
ByLayer
 62
  256
370
   -1
100
AcDbPolyline
 90
    4
 70
    1
 43
0
 10
64
 20
47
 10
65
 20
47
 10
65
 20
39
 10
64
 20
39
  0
LWPOLYLINE
  5
242
100
AcDbEntity
  8
0
  6
ByLayer
 62
  256
370
   -1
100
AcDbPolyline
 90
    4
 70
    1
 43
0
 10
66
 20
47
 10
67
 20
47
 10
67
 20
39
 10
66
 20
39
  0
LWPOLYLINE
  5
243
100
AcDbEntity
  8
0
  6
ByLayer
 62
  256
370
   -1
100
AcDbPolyline
 90
    4
 70
    1
 43
0
 10
68
 20
47
 10
69
 20
47
 10
69
 20
39
 10
68
 20
39
  0
LWPOLYLINE
  5
244
100
AcDbEntity
  8
0
  6
ByLayer
 62
  256
370
   -1
100
AcDbPolyline
 90
    4
 70
    1
 43
0
 10
70
 20
47
 10
71
 20
47
 10
71
 20
39
 10
70
 20
39
  0
LWPOLYLINE
  5
245
100
AcDbEntity
  8
0
  6
ByLayer
 62
  256
370
   -1
100
AcDbPolyline
 90
    4
 70
    1
 43
0
 10
72
 20
47
 10
73
 20
47
 10
73
 20
39
 10
72
 20
39
  0
LWPOLYLINE
  5
246
100
AcDbEntity
  8
0
  6
ByLayer
 62
  256
370
   -1
100
AcDbPolyline
 90
    4
 70
    1
 43
0
 10
74
 20
47
 10
75
 20
47
 10
75
 20
39
 10
74
 20
39
  0
LWPOLYLINE
  5
247
100
AcDbEntity
  8
0
  6
ByLayer
 62
  256
370
   -1
100
AcDbPolyline
 90
    4
 70
    1
 43
0
 10
76
 20
47
 10
77
 20
47
 10
77
 20
39
 10
76
 20
39
  0
LWPOLYLINE
  5
248
100
AcDbEntity
  8
0
  6
ByLayer
 62
  256
370
   -1
100
AcDbPolyline
 90
    4
 70
    1
 43
0
 10
78
 20
47
 10
79
 20
47
 10
79
 20
39
 10
78
 20
39
  0
LWPOLYLINE
  5
249
100
AcDbEntity
  8
0
  6
ByLayer
 62
  256
370
   -1
100
AcDbPolyline
 90
    4
 70
    1
 43
0
 10
80
 20
47
 10
81
 20
47
 10
81
 20
39
 10
80
 20
39
  0
LWPOLYLINE
  5
24A
100
AcDbEntity
  8
0
  6
ByLayer
 62
  256
370
   -1
100
AcDbPolyline
 90
    4
 70
    1
 43
0
 10
82
 20
47
 10
83
 20
47
 10
83
 20
39
 10
82
 20
39
  0
LWPOLYLINE
  5
24B
100
AcDbEntity
  8
0
  6
ByLayer
 62
  256
370
   -1
100
AcDbPolyline
 90
    4
 70
    1
 43
0
 10
84
 20
47
 10
85
 20
47
 10
85
 20
39
 10
84
 20
39
  0
LWPOLYLINE
  5
24C
100
AcDbEntity
  8
0
  6
ByLayer
 62
  256
370
   -1
100
AcDbPolyline
 90
    4
 70
    1
 43
0
 10
86
 20
47
 10
87
 20
47
 10
87
 20
39
 10
86
 20
39
  0
LWPOLYLINE
  5
24D
100
AcDbEntity
  8
0
  6
ByLayer
 62
  256
370
   -1
100
AcDbPolyline
 90
    4
 70
    1
 43
0
 10
88
 20
47
 10
89
 20
47
 10
89
 20
39
 10
88
 20
39
  0
LINE
  5
24E
100
AcDbEntity
  8
0
  6
ByLayer
 62
  256
370
   -1
100
AcDbLine
 10
50
 20
46
 11
91
 21
46
  0
LINE
  5
24F
100
AcDbEntity
  8
0
  6
ByLayer
 62
  256
370
   -1
100
AcDbLine
 10
50
 20
40
 11
91
 21
40
  0
LWPOLYLINE
  5
250
100
AcDbEntity
  8
0
  6
ByLayer
 62
  256
370
   -1
100
AcDbPolyline
 90
    4
 70
    1
 43
0
 10
52
 20
63
 10
53
 20
63
 10
53
 20
55
 10
52
 20
55
  0
LWPOLYLINE
  5
251
100
AcDbEntity
  8
0
  6
ByLayer
 62
  256
370
   -1
100
AcDbPolyline
 90
    4
 70
    1
 43
0
 10
54
 20
63
 10
55
 20
63
 10
55
 20
55
 10
54
 20
55
  0
LWPOLYLINE
  5
252
100
AcDbEntity
  8
0
  6
ByLayer
 62
  256
370
   -1
100
AcDbPolyline
 90
    4
 70
    1
 43
0
 10
56
 20
63
 10
57
 20
63
 10
57
 20
55
 10
56
 20
55
  0
LWPOLYLINE
  5
253
100
AcDbEntity
  8
0
  6
ByLayer
 62
  256
370
   -1
100
AcDbPolyline
 90
    4
 70
    1
 43
0
 10
58
 20
63
 10
59
 20
63
 10
59
 20
55
 10
58
 20
55
  0
LWPOLYLINE
  5
254
100
AcDbEntity
  8
0
  6
ByLayer
 62
  256
370
   -1
100
AcDbPolyline
 90
    4
 70
    1
 43
0
 10
60
 20
63
 10
61
 20
63
 10
61
 20
55
 10
60
 20
55
  0
LWPOLYLINE
  5
255
100
AcDbEntity
  8
0
  6
ByLayer
 62
  256
370
   -1
100
AcDbPolyline
 90
    4
 70
    1
 43
0
 10
62
 20
63
 10
63
 20
63
 10
63
 20
55
 10
62
 20
55
  0
LWPOLYLINE
  5
256
100
AcDbEntity
  8
0
  6
ByLayer
 62
  256
370
   -1
100
AcDbPolyline
 90
    4
 70
    1
 43
0
 10
64
 20
63
 10
65
 20
63
 10
65
 20
55
 10
64
 20
55
  0
LWPOLYLINE
  5
257
100
AcDbEntity
  8
0
  6
ByLayer
 62
  256
370
   -1
100
AcDbPolyline
 90
    4
 70
    1
 43
0
 10
66
 20
63
 10
67
 20
63
 10
67
 20
55
 10
66
 20
55
  0
LWPOLYLINE
  5
258
100
AcDbEntity
  8
0
  6
ByLayer
 62
  256
370
   -1
100
AcDbPolyline
 90
    4
 70
    1
 43
0
 10
68
 20
63
 10
69
 20
63
 10
69
 20
55
 10
68
 20
55
  0
LWPOLYLINE
  5
259
100
AcDbEntity
  8
0
  6
ByLayer
 62
  256
370
   -1
100
AcDbPolyline
 90
    4
 70
    1
 43
0
 10
70
 20
63
 10
71
 20
63
 10
71
 20
55
 10
70
 20
55
  0
LWPOLYLINE
  5
25A
100
AcDbEntity
  8
0
  6
ByLayer
 62
  256
370
   -1
100
AcDbPolyline
 90
    4
 70
    1
 43
0
 10
72
 20
63
 10
73
 20
63
 10
73
 20
55
 10
72
 20
55
  0
LWPOLYLINE
  5
25B
100
AcDbEntity
  8
0
  6
ByLayer
 62
  256
370
   -1
100
AcDbPolyline
 90
    4
 70
    1
 43
0
 10
74
 20
63
 10
75
 20
63
 10
75
 20
55
 10
74
 20
55
  0
LWPOLYLINE
  5
25C
100
AcDbEntity
  8
0
  6
ByLayer
 62
  256
370
   -1
100
AcDbPolyline
 90
    4
 70
    1
 43
0
 10
76
 20
63
 10
77
 20
63
 10
77
 20
55
 10
76
 20
55
  0
LWPOLYLINE
  5
25D
100
AcDbEntity
  8
0
  6
ByLayer
 62
  256
370
   -1
100
AcDbPolyline
 90
    4
 70
    1
 43
0
 10
78
 20
63
 10
79
 20
63
 10
79
 20
55
 10
78
 20
55
  0
LWPOLYLINE
  5
25E
100
AcDbEntity
  8
0
  6
ByLayer
 62
  256
370
   -1
100
AcDbPolyline
 90
    4
 70
    1
 43
0
 10
80
 20
63
 10
81
 20
63
 10
81
 20
55
 10
80
 20
55
  0
LWPOLYLINE
  5
25F
100
AcDbEntity
  8
0
  6
ByLayer
 62
  256
370
   -1
100
AcDbPolyline
 90
    4
 70
    1
 43
0
 10
82
 20
63
 10
83
 20
63
 10
83
 20
55
 10
82
 20
55
  0
LWPOLYLINE
  5
260
100
AcDbEntity
  8
0
  6
ByLayer
 62
  256
370
   -1
100
AcDbPolyline
 90
    4
 70
    1
 43
0
 10
84
 20
63
 10
85
 20
63
 10
85
 20
55
 10
84
 20
55
  0
LWPOLYLINE
  5
261
100
AcDbEntity
  8
0
  6
ByLayer
 62
  256
370
   -1
100
AcDbPolyline
 90
    4
 70
    1
 43
0
 10
86
 20
63
 10
87
 20
63
 10
87
 20
55
 10
86
 20
55
  0
LWPOLYLINE
  5
262
100
AcDbEntity
  8
0
  6
ByLayer
 62
  256
370
   -1
100
AcDbPolyline
 90
    4
 70
    1
 43
0
 10
88
 20
63
 10
89
 20
63
 10
89
 20
55
 10
88
 20
55
  0
LINE
  5
263
100
AcDbEntity
  8
0
  6
ByLayer
 62
  256
370
   -1
100
AcDbLine
 10
50
 20
62
 11
91
 21
62
  0
LINE
  5
264
100
AcDbEntity
  8
0
  6
ByLayer
 62
  256
370
   -1
100
AcDbLine
 10
50
 20
56
 11
91
 21
56
  0
LINE
  5
265
100
AcDbEntity
  8
0
  6
ByLayer
 62
  256
370
   -1
100
AcDbLine
 10
10
 20
32
 11
19
 21
32
  0
LINE
  5
266
100
AcDbEntity
  8
0
  6
ByLayer
 62
  256
370
   -1
100
AcDbLine
 10
10
 20
37
 11
19
 21
37
  0
LINE
  5
267
100
AcDbEntity
  8
0
  6
ByLayer
 62
  256
370
   -1
100
AcDbLine
 10
10
 20
42
 11
19
 21
42
  0
LINE
  5
268
100
AcDbEntity
  8
0
  6
ByLayer
 62
  256
370
   -1
100
AcDbLine
 10
10
 20
47
 11
19
 21
47
  0
LINE
  5
269
100
AcDbEntity
  8
0
  6
ByLayer
 62
  256
370
   -1
100
AcDbLine
 10
10
 20
52
 11
19
 21
52
  0
LINE
  5
26A
100
AcDbEntity
  8
0
  6
ByLayer
 62
  256
370
   -1
100
AcDbLine
 10
10
 20
57
 11
19
 21
57
  0
LINE
  5
26B
100
AcDbEntity
  8
0
  6
ByLayer
 62
  256
370
   -1
100
AcDbLine
 10
10
 20
62
 11
19
 21
62
  0
MTEXT
  5
26C
100
AcDbEntity
  8
0
  6
ByLayer
 62
  256
370
   -1
100
AcDbMText
 10
92
 20
62
 30
0
 40
1
 41
0.5555555555555556
 71
    5
 72
    1
  1
N
  7
textstyle29
210
0
220
0
230
1
 50
0
 73
    1
 44
1
  0
MTEXT
  5
26D
100
AcDbEntity
  8
0
  6
ByLayer
 62
  256
370
   -1
100
AcDbMText
 10
92
 20
46
 30
0
 40
1
 41
0.5555555555555556
 71
    5
 72
    1
  1
N
  7
textstyle30
210
0
220
0
230
1
 50
0
 73
    1
 44
1
  0
MTEXT
  5
26E
100
AcDbEntity
  8
0
  6
ByLayer
 62
  256
370
   -1
100
AcDbMText
 10
92
 20
34
 30
0
 40
1
 41
0.5555555555555556
 71
    5
 72
    1
  1
N
  7
textstyle31
210
0
220
0
230
1
 50
0
 73
    1
 44
1
  0
MTEXT
  5
26F
100
AcDbEntity
  8
0
  6
ByLayer
 62
  256
370
   -1
100
AcDbMText
 10
92
 20
28
 30
0
 40
1
 41
0.5555553435534062
 71
    5
 72
    1
  1
S
  7
textstyle32
210
0
220
0
230
1
 50
0
 73
    1
 44
1
  0
MTEXT
  5
270
100
AcDbEntity
  8
0
  6
ByLayer
 62
  256
370
   -1
100
AcDbMText
 10
92
 20
40
 30
0
 40
1
 41
0.5555553435534062
 71
    5
 72
    1
  1
S
  7
textstyle33
210
0
220
0
230
1
 50
0
 73
    1
 44
1
  0
MTEXT
  5
271
100
AcDbEntity
  8
0
  6
ByLayer
 62
  256
370
   -1
100
AcDbMText
 10
92
 20
56
 30
0
 40
1
 41
0.5555553435534062
 71
    5
 72
    1
  1
S
  7
textstyle34
210
0
220
0
230
1
 50
0
 73
    1
 44
1
  0
LINE
  5
272
100
AcDbEntity
  8
0
  6
ByLayer
 62
  256
370
   -1
100
AcDbLine
 10
26
 20
32
 11
46
 21
32
  0
LINE
  5
273
100
AcDbEntity
  8
0
  6
ByLayer
 62
  256
370
   -1
100
AcDbLine
 10
46
 20
32
 11
51
 21
28
  0
LINE
  5
274
100
AcDbEntity
  8
0
  6
ByLayer
 62
  256
370
   -1
100
AcDbLine
 10
28
 20
37
 11
46
 21
37
  0
LINE
  5
275
100
AcDbEntity
  8
0
  6
ByLayer
 62
  256
370
   -1
100
AcDbLine
 10
46
 20
37
 11
51
 21
34
  0
LINE
  5
276
100
AcDbEntity
  8
0
  6
ByLayer
 62
  256
370
   -1
100
AcDbLine
 10
26
 20
42
 11
48
 21
42
  0
LINE
  5
277
100
AcDbEntity
  8
0
  6
ByLayer
 62
  256
370
   -1
100
AcDbLine
 10
48
 20
42
 11
51
 21
40
  0
LINE
  5
278
100
AcDbEntity
  8
0
  6
ByLayer
 62
  256
370
   -1
100
AcDbLine
 10
29
 20
47
 11
48
 21
47
  0
LINE
  5
279
100
AcDbEntity
  8
0
  6
ByLayer
 62
  256
370
   -1
100
AcDbLine
 10
48
 20
47
 11
51
 21
46
  0
LINE
  5
27A
100
AcDbEntity
  8
0
  6
ByLayer
 62
  256
370
   -1
100
AcDbLine
 10
30
 20
52
 11
48
 21
52
  0
LINE
  5
27B
100
AcDbEntity
  8
0
  6
ByLayer
 62
  256
370
   -1
100
AcDbLine
 10
48
 20
52
 11
51
 21
56
  0
LINE
  5
27C
100
AcDbEntity
  8
0
  6
ByLayer
 62
  256
370
   -1
100
AcDbLine
 10
29
 20
57
 11
46
 21
57
  0
LINE
  5
27D
100
AcDbEntity
  8
0
  6
ByLayer
 62
  256
370
   -1
100
AcDbLine
 10
46
 20
57
 11
51
 21
62
  0
LWPOLYLINE
  5
27E
100
AcDbEntity
  8
0
  6
ByLayer
 62
  256
370
   -1
100
AcDbPolyline
 90
    4
 70
    1
 43
0
 10
50
 20
74
 10
90
 20
74
 10
90
 20
80
 10
50
 20
80
  0
LINE
  5
27F
100
AcDbEntity
  8
0
  6
ByLayer
 62
  256
370
   -1
100
AcDbLine
 10
36
 20
67
 11
41
 21
78
  0
LINE
  5
280
100
AcDbEntity
  8
0
  6
ByLayer
 62
  256
370
   -1
100
AcDbLine
 10
41
 20
78
 11
50
 21
78
  0
LINE
  5
281
100
AcDbEntity
  8
0
  6
ByLayer
 62
  256
370
   -1
100
AcDbLine
 10
36
 20
62
 11
42
 21
75
  0
LINE
  5
282
100
AcDbEntity
  8
0
  6
ByLayer
 62
  256
370
   -1
100
AcDbLine
 10
42
 20
75
 11
50
 21
75
  0
MTEXT
  5
283
100
AcDbEntity
  8
0
  6
ByLayer
 62
  256
370
   -1
100
AcDbMText
 10
99.30555576755779
 20
31
 30
0
 40
2
 41
16.16666624266255
 71
    5
 72
    1
  1
South Track
  7
textstyle35
210
0
220
0
230
1
 50
0
 73
    1
 44
1
  0
MTEXT
  5
284
100
AcDbEntity
  8
0
  6
ByLayer
 62
  256
370
   -1
100
AcDbMText
 10
99.63888888888899
 20
43
 30
0
 40
2
 41
15.94444444444463
 71
    5
 72
    1
  1
North Track
  7
textstyle36
210
0
220
0
230
1
 50
0
 73
    1
 44
1
  0
MTEXT
  5
285
100
AcDbEntity
  8
0
  6
ByLayer
 62
  256
370
   -1
100
AcDbMText
 10
98.19444444444449
 20
59
 30
0
 40
2
 41
13.50000000000009
 71
    5
 72
    1
  1
Aux Track
  7
textstyle37
210
0
220
0
230
1
 50
0
 73
    1
 44
1
  0
LINE
  5
286
100
AcDbEntity
  8
0
  6
ByLayer
 62
  256
370
   -1
100
AcDbLine
 10
-13
 20
12
 11
-13
 21
62
  0
LINE
  5
287
100
AcDbEntity
  8
0
  6
ByLayer
 62
  256
370
   -1
100
AcDbLine
 10
-13
 20
62
 11
0
 21
62
  0
LINE
  5
288
100
AcDbEntity
  8
0
  6
ByLayer
 62
  256
370
   -1
100
AcDbLine
 10
-13
 20
62
 11
-13
 21
67
  0
LINE
  5
289
100
AcDbEntity
  8
0
  6
ByLayer
 62
  256
370
   -1
100
AcDbLine
 10
-13
 20
67
 11
0
 21
67
  0
LWPOLYLINE
  5
28A
100
AcDbEntity
  8
0
  6
ByLayer
 62
  256
370
   -1
100
AcDbPolyline
 90
    4
 70
    1
 43
0
 10
30
 20
2
 10
32
 20
2
 10
32
 20
-1
 10
30
 20
-1
  0
LWPOLYLINE
  5
28B
100
AcDbEntity
  8
0
  6
ByLayer
 62
  256
370
   -1
100
AcDbPolyline
 90
    4
 70
    1
 43
0
 10
-2
 20
2
 10
0
 20
2
 10
0
 20
-1
 10
-2
 20
-1
  0
LWPOLYLINE
  5
28C
100
AcDbEntity
  8
0
  6
ByLayer
 62
  256
370
   -1
100
AcDbPolyline
 90
    4
 70
    1
 43
0
 10
28
 20
0
 10
17
 20
0
 10
17
 20
11
 10
28
 20
11
  0
INSERT
  5
28D
100
AcDbEntity
  8
0
  6
ByLayer
 62
  256
370
   -1
100
AcDbBlockReference
  2
Connector1-11
 10
18.1
 20
10
 30
0
 41
1
 42
1
 43
0
 50
0
 70
    1
 71
    1
 44
0
 45
0
  0
INSERT
  5
28E
100
AcDbEntity
  8
0
  6
ByLayer
 62
  256
370
   -1
100
AcDbBlockReference
  2
Connector1-0
 10
18.1
 20
7
 30
0
 41
1
 42
1
 43
0
 50
0
 70
    1
 71
    1
 44
0
 45
0
  0
INSERT
  5
28F
100
AcDbEntity
  8
0
  6
ByLayer
 62
  256
370
   -1
100
AcDbBlockReference
  2
Connector1-11
 10
18.1
 20
4
 30
0
 41
1
 42
1
 43
0
 50
0
 70
    1
 71
    1
 44
0
 45
0
  0
INSERT
  5
290
100
AcDbEntity
  8
0
  6
ByLayer
 62
  256
370
   -1
100
AcDbBlockReference
  2
Connector1-11
 10
21.1
 20
10
 30
0
 41
1
 42
1
 43
0
 50
0
 70
    1
 71
    1
 44
0
 45
0
  0
INSERT
  5
291
100
AcDbEntity
  8
0
  6
ByLayer
 62
  256
370
   -1
100
AcDbBlockReference
  2
Connector1-11
 10
21.1
 20
7
 30
0
 41
1
 42
1
 43
0
 50
0
 70
    1
 71
    1
 44
0
 45
0
  0
INSERT
  5
292
100
AcDbEntity
  8
0
  6
ByLayer
 62
  256
370
   -1
100
AcDbBlockReference
  2
Connector1-11
 10
21.1
 20
4
 30
0
 41
1
 42
1
 43
0
 50
0
 70
    1
 71
    1
 44
0
 45
0
  0
INSERT
  5
293
100
AcDbEntity
  8
0
  6
ByLayer
 62
  256
370
   -1
100
AcDbBlockReference
  2
Connector1-11
 10
24.1
 20
10
 30
0
 41
1
 42
1
 43
0
 50
0
 70
    1
 71
    1
 44
0
 45
0
  0
INSERT
  5
294
100
AcDbEntity
  8
0
  6
ByLayer
 62
  256
370
   -1
100
AcDbBlockReference
  2
Connector1-11
 10
24.1
 20
7
 30
0
 41
1
 42
1
 43
0
 50
0
 70
    1
 71
    1
 44
0
 45
0
  0
INSERT
  5
295
100
AcDbEntity
  8
0
  6
ByLayer
 62
  256
370
   -1
100
AcDbBlockReference
  2
Connector1-11
 10
24.1
 20
4
 30
0
 41
1
 42
1
 43
0
 50
0
 70
    1
 71
    1
 44
0
 45
0
  0
LWPOLYLINE
  5
296
100
AcDbEntity
  8
0
  6
ByLayer
 62
  256
370
   -1
100
AcDbPolyline
 90
    4
 70
    1
 43
0
 10
0
 20
20
 10
30
 20
20
 10
30
 20
-2
 10
0
 20
-2
  0
LWPOLYLINE
  5
297
100
AcDbEntity
  8
0
  6
ByLayer
 62
  256
370
   -1
100
AcDbPolyline
 90
    4
 70
    1
 43
0
 10
30
 20
19
 10
32
 20
19
 10
32
 20
16
 10
30
 20
16
  0
LWPOLYLINE
  5
298
100
AcDbEntity
  8
0
  6
ByLayer
 62
  256
370
   -1
100
AcDbPolyline
 90
    4
 70
    1
 43
0
 10
-2
 20
19
 10
0
 20
19
 10
0
 20
16
 10
-2
 20
16
  0
MTEXT
  5
299
100
AcDbEntity
  8
0
  6
ByLayer
 62
  256
370
   -1
100
AcDbMText
 10
11.4444444444444
 20
11
 30
0
 40
2
 41
6.888888888888982
 71
    5
 72
    1
  1
White
  7
textstyle38
210
0
220
0
230
1
 50
0
 73
    1
 44
1
  0
MTEXT
  5
29A
100
AcDbEntity
  8
0
  6
ByLayer
 62
  256
370
   -1
100
AcDbMText
 10
10
 20
6
 30
0
 40
2
 41
6.444444444444537
 71
    5
 72
    1
  1
Black
  7
textstyle39
210
0
220
0
230
1
 50
0
 73
    1
 44
1
  0
MTEXT
  5
29B
100
AcDbEntity
  8
0
  6
ByLayer
 62
  256
370
   -1
100
AcDbMText
 10
11
 20
2
 30
0
 40
2
 41
5.555555555555772
 71
    5
 72
    1
  1
Gray
  7
textstyle40
210
0
220
0
230
1
 50
0
 73
    1
 44
1
  0
MTEXT
  5
29C
100
AcDbEntity
  8
0
  6
ByLayer
 62
  256
370
   -1
100
AcDbMText
 10
13
 20
-1
 30
0
 40
2
 41
18.8333331111112
 71
    5
 72
    1
  1
Brown (Violet)
  7
textstyle41
210
0
220
0
230
1
 50
0
 73
    1
 44
1
  0
MTEXT
  5
29D
100
AcDbEntity
  8
0
  6
ByLayer
 62
  256
370
   -1
100
AcDbMText
 10
18
 20
14
 30
0
 40
2
 41
8.222222222222221
 71
    5
 72
    1
  1
Yellow
  7
textstyle42
210
0
220
0
230
1
 50
0
 73
    1
 44
1
  0
MTEXT
  5
29E
100
AcDbEntity
  8
0
  6
ByLayer
 62
  256
370
   -1
100
AcDbMText
 10
28
 20
14
 30
0
 40
2
 41
7.111111111111327
 71
    5
 72
    1
  1
Green
  7
textstyle43
210
0
220
0
230
1
 50
0
 73
    1
 44
1
  0
MTEXT
  5
29F
100
AcDbEntity
  8
0
  6
ByLayer
 62
  256
370
   -1
100
AcDbMText
 10
34
 20
6
 30
0
 40
2
 41
5.111111111111111
 71
    5
 72
    1
  1
Blue
  7
textstyle44
210
0
220
0
230
1
 50
0
 73
    1
 44
1
  0
MTEXT
  5
2A0
100
AcDbEntity
  8
0
  6
ByLayer
 62
  256
370
   -1
100
AcDbMText
 10
33
 20
9
 30
0
 40
2
 41
4.222222222222222
 71
    5
 72
    1
  1
Red
  7
textstyle45
210
0
220
0
230
1
 50
0
 73
    1
 44
1
  0
MTEXT
  5
2A1
100
AcDbEntity
  8
0
  6
ByLayer
 62
  256
370
   -1
100
AcDbMText
 10
36.22222222222236
 20
3
 30
0
 40
2
 41
8.666666666666945
 71
    5
 72
    1
  1
Orange
  7
textstyle46
210
0
220
0
230
1
 50
0
 73
    1
 44
1
  0
LINE
  5
2A2
100
AcDbEntity
  8
0
  6
DASHEDTINY
 62
  256
370
   -1
100
AcDbLine
 10
20.2
 20
5.5
 11
13.5
 21
5.5
  0
LINE
  5
2A3
100
AcDbEntity
  8
0
  6
DASHEDTINY
 62
  256
370
   -1
100
AcDbLine
 10
20.2
 20
8.5
 11
15.3
 21
10.6
  0
LINE
  5
2A4
100
AcDbEntity
  8
0
  6
DASHEDTINY
 62
  256
370
   -1
100
AcDbLine
 10
20.2
 20
2.5
 11
14.1
 21
1.599999999999998
  0
LINE
  5
2A5
100
AcDbEntity
  8
0
  6
DASHEDTINY
 62
  256
370
   -1
100
AcDbLine
 10
23.2
 20
2.5
 11
24
 21
-1
  0
LINE
  5
2A6
100
AcDbEntity
  8
0
  6
DASHEDTINY
 62
  256
370
   -1
100
AcDbLine
 10
23
 20
-1
 11
24
 21
-1
  0
LINE
  5
2A7
100
AcDbEntity
  8
0
  6
DASHEDTINY
 62
  256
370
   -1
100
AcDbLine
 10
23.2
 20
5.5
 11
18.5
 21
12.8
  0
LINE
  5
2A8
100
AcDbEntity
  8
0
  6
DASHEDTINY
 62
  256
370
   -1
100
AcDbLine
 10
23.2
 20
8.5
 11
28
 21
12.8
  0
LINE
  5
2A9
100
AcDbEntity
  8
0
  6
DASHEDTINY
 62
  256
370
   -1
100
AcDbLine
 10
26.2
 20
8.499999999999998
 11
30.7
 21
8.9
  0
LINE
  5
2AA
100
AcDbEntity
  8
0
  6
DASHEDTINY
 62
  256
370
   -1
100
AcDbLine
 10
26.2
 20
2.5
 11
31.6
 21
3
  0
LINE
  5
2AB
100
AcDbEntity
  8
0
  6
DASHEDTINY
 62
  256
370
   -1
100
AcDbLine
 10
26.2
 20
5.6
 11
31.1
 21
5.9
  0
LWPOLYLINE
  5
2AC
100
AcDbEntity
  8
0
  6
ByLayer
 62
  256
370
   -1
100
AcDbPolyline
 90
    4
 70
    1
 43
0
 10
59
 20
11
 10
70
 20
11
 10
70
 20
0
 10
59
 20
0
  0
MTEXT
  5
2AD
100
AcDbEntity
  8
0
  6
ByLayer
 62
  256
370
   -1
100
AcDbMText
 10
60
 20
14
 30
0
 40
2
 41
8.222222222222221
 71
    5
 72
    1
  1
Yellow
  7
textstyle47
210
0
220
0
230
1
 50
0
 73
    1
 44
1
  0
MTEXT
  5
2AE
100
AcDbEntity
  8
0
  6
ByLayer
 62
  256
370
   -1
100
AcDbMText
 10
70
 20
14
 30
0
 40
2
 41
7.111111111111327
 71
    5
 72
    1
  1
Green
  7
textstyle48
210
0
220
0
230
1
 50
0
 73
    1
 44
1
  0
LINE
  5
2AF
100
AcDbEntity
  8
0
  6
DASHEDTINY
 62
  256
370
   -1
100
AcDbLine
 10
62.2
 20
5.5
 11
55.5
 21
5.5
  0
LINE
  5
2B0
100
AcDbEntity
  8
0
  6
DASHEDTINY
 62
  256
370
   -1
100
AcDbLine
 10
62.2
 20
8.5
 11
57.3
 21
10.6
  0
LINE
  5
2B1
100
AcDbEntity
  8
0
  6
DASHEDTINY
 62
  256
370
   -1
100
AcDbLine
 10
62.2
 20
2.5
 11
56.1
 21
1.599999999999998
  0
LINE
  5
2B2
100
AcDbEntity
  8
0
  6
DASHEDTINY
 62
  256
370
   -1
100
AcDbLine
 10
65.2
 20
5.5
 11
60.5
 21
12.8
  0
LINE
  5
2B3
100
AcDbEntity
  8
0
  6
DASHEDTINY
 62
  256
370
   -1
100
AcDbLine
 10
65.2
 20
8.5
 11
70
 21
12.8
  0
LINE
  5
2B4
100
AcDbEntity
  8
0
  6
DASHEDTINY
 62
  256
370
   -1
100
AcDbLine
 10
68.2
 20
8.499999999999998
 11
72.7
 21
8.9
  0
LINE
  5
2B5
100
AcDbEntity
  8
0
  6
ByLayer
 62
  256
370
   -1
100
AcDbLine
 10
-13
 20
12
 11
0
 21
12
  0
MTEXT
  5
2B6
100
AcDbEntity
  8
0
  6
ByLayer
 62
  256
370
   -1
100
AcDbMText
 10
14
 20
-5
 30
0
 40
3
 41
15.75
 71
    5
 72
    1
  1
"M" Box
  7
textstyle49
210
0
220
0
230
1
 50
0
 73
    1
 44
1
  0
MTEXT
  5
2B7
100
AcDbEntity
  8
0
  6
ByLayer
 62
  256
370
   -1
100
AcDbMText
 10
61.79166666666643
 20
19.5
 30
0
 40
3
 41
27.41666666666713
 71
    5
 72
    1
  1
"J" Connector
  7
textstyle50
210
0
220
0
230
1
 50
0
 73
    1
 44
1
  0
LINE
  5
2B8
100
AcDbEntity
  8
0
  6
ByLayer
 62
  256
370
   -1
100
AcDbLine
 10
0
 20
10
 11
-13
 21
10
  0
LINE
  5
2B9
100
AcDbEntity
  8
0
  6
ByLayer
 62
  256
370
   -1
100
AcDbLine
 10
-13
 20
10
 11
-13
 21
-10
  0
LINE
  5
2BA
100
AcDbEntity
  8
0
  6
ByLayer
 62
  256
370
   -1
100
AcDbLine
 10
-13
 20
-10
 11
65
 21
-10
  0
LINE
  5
2BB
100
AcDbEntity
  8
0
  6
ByLayer
 62
  256
370
   -1
100
AcDbLine
 10
65
 20
-10
 11
65
 21
0
  0
LINE
  5
2BC
100
AcDbEntity
  8
0
  6
DASHEDTINY
 62
  256
370
   -1
100
AcDbLine
 10
65.2
 20
2.5
 11
63
 21
-2
  0
LINE
  5
2BD
100
AcDbEntity
  8
0
  6
ByLayer
 62
  256
370
   -1
100
AcDbLine
 10
-13
 20
57
 11
0
 21
57
  0
LINE
  5
2BE
100
AcDbEntity
  8
0
  6
ByLayer
 62
  256
370
   -1
100
AcDbLine
 10
-13
 20
47
 11
0
 21
47
  0
LINE
  5
2BF
100
AcDbEntity
  8
0
  6
ByLayer
 62
  256
370
   -1
100
AcDbLine
 10
-13
 20
52
 11
0
 21
52
  0
LINE
  5
2C0
100
AcDbEntity
  8
0
  6
ByLayer
 62
  256
370
   -1
100
AcDbLine
 10
-13
 20
42
 11
0
 21
42
  0
LINE
  5
2C1
100
AcDbEntity
  8
0
  6
ByLayer
 62
  256
370
   -1
100
AcDbLine
 10
-13
 20
37
 11
0
 21
37
  0
LINE
  5
2C2
100
AcDbEntity
  8
0
  6
ByLayer
 62
  256
370
   -1
100
AcDbLine
 10
-13
 20
32
 11
0
 21
32
  0
LINE
  5
2C3
100
AcDbEntity
  8
0
  6
DOTTINY
 62
  256
370
   -1
100
AcDbLine
 10
68
 20
10
 11
90
 21
20
  0
LINE
  5
2C4
100
AcDbEntity
  8
0
  6
DOTTINY
 62
  256
370
   -1
100
AcDbLine
 10
90
 20
10
 11
69.00000000000001
 21
10
  0
INSERT
  5
2C5
100
AcDbEntity
  8
0
  6
ByLayer
 62
  256
370
   -1
100
AcDbBlockReference
  2
Connector1-14
 10
60.14778519709066
 20
9.997921094996826
 30
0
 41
1
 42
1
 43
0
 50
359.868
 70
    1
 71
    1
 44
0
 45
0
  0
INSERT
  5
2C6
100
AcDbEntity
  8
0
  6
ByLayer
 62
  256
370
   -1
100
AcDbBlockReference
  2
Connector1-0
 10
60.14087369936674
 20
6.997929056474188
 30
0
 41
1
 42
1
 43
0
 50
359.868
 70
    1
 71
    1
 44
0
 45
0
  0
INSERT
  5
2C7
100
AcDbEntity
  8
0
  6
ByLayer
 62
  256
370
   -1
100
AcDbBlockReference
  2
Connector1-14
 10
60.13396220164281
 20
3.997937017951552
 30
0
 41
1
 42
1
 43
0
 50
359.868
 70
    1
 71
    1
 44
0
 45
0
  0
INSERT
  5
2C8
100
AcDbEntity
  8
0
  6
ByLayer
 62
  256
370
   -1
100
AcDbBlockReference
  2
Connector1-14
 10
63.1477772356133
 20
9.991009597272907
 30
0
 41
1
 42
1
 43
0
 50
359.868
 70
    1
 71
    1
 44
0
 45
0
  0
INSERT
  5
2C9
100
AcDbEntity
  8
0
  6
ByLayer
 62
  256
370
   -1
100
AcDbBlockReference
  2
Connector1-14
 10
63.14086573788937
 20
6.991017558750269
 30
0
 41
1
 42
1
 43
0
 50
359.868
 70
    1
 71
    1
 44
0
 45
0
  0
INSERT
  5
2CA
100
AcDbEntity
  8
0
  6
ByLayer
 62
  256
370
   -1
100
AcDbBlockReference
  2
Connector1-14
 10
63.13395424016545
 20
3.99102552022763
 30
0
 41
1
 42
1
 43
0
 50
359.868
 70
    1
 71
    1
 44
0
 45
0
  0
INSERT
  5
2CB
100
AcDbEntity
  8
0
  6
ByLayer
 62
  256
370
   -1
100
AcDbBlockReference
  2
Connector1-14
 10
66.14776927413594
 20
9.984098099548984
 30
0
 41
1
 42
1
 43
0
 50
359.868
 70
    1
 71
    1
 44
0
 45
0
  0
INSERT
  5
2CC
100
AcDbEntity
  8
0
  6
ByLayer
 62
  256
370
   -1
100
AcDbBlockReference
  2
Connector1-14
 10
66.14085777641202
 20
6.984106061026345
 30
0
 41
1
 42
1
 43
0
 50
359.868
 70
    1
 71
    1
 44
0
 45
0
  0
INSERT
  5
2CD
100
AcDbEntity
  8
0
  6
ByLayer
 62
  256
370
   -1
100
AcDbBlockReference
  2
Connector1-14
 10
66.13394627868809
 20
3.984114022503707
 30
0
 41
1
 42
1
 43
0
 50
359.868
 70
    1
 71
    1
 44
0
 45
0
  0
LWPOLYLINE
  5
2CE
100
AcDbEntity
  8
0
  6
ByLayer
 62
  256
370
   -1
100
AcDbPolyline
 90
    4
 70
    1
 43
0
 10
100.0165366207641
 20
9.96591877636269
 10
90.01653742647716
 20
9.961904519190915
 10
90.01252316930537
 20
19.96190371347786
 10
100.0125223635924
 20
19.96591797064963
  0
LINE
  5
2CF
100
AcDbEntity
  8
0
  6
ByLayer
 62
  256
370
   -1
100
AcDbLine
 10
95.01653702362066
 20
9.963911647776802
 11
95.01613559790346
 21
10.9639115672055
  0
LINE
  5
2D0
100
AcDbEntity
  8
0
  6
ByLayer
 62
  256
370
   -1
100
AcDbLine
 10
95.01613559790346
 20
10.9639115672055
 11
91.01613592018866
 21
10.96230586433679
  0
LINE
  5
2D1
100
AcDbEntity
  8
0
  6
ByLayer
 62
  256
370
   -1
100
AcDbLine
 10
91.01613592018866
 20
10.96230586433679
 11
91.01292451445126
 21
18.96230521976634
  0
LINE
  5
2D2
100
AcDbEntity
  8
0
  6
ByLayer
 62
  256
370
   -1
100
AcDbLine
 10
91.01292451445126
 20
18.96230521976634
 11
95.01292419216607
 21
18.96391092263504
  0
LINE
  5
2D3
100
AcDbEntity
  8
0
  6
ByLayer
 62
  256
370
   -1
100
AcDbLine
 10
95.01292419216607
 20
18.96391092263504
 11
95.01252276644887
 21
19.96391084206373
  0
LWPOLYLINE
  5
2D4
100
AcDbEntity
  8
0
  6
ByLayer
 62
  256
370
   -1
100
AcDbPolyline
 90
    4
 70
    1
 43
0
 10
95.01573417218626
 20
11.96391148663419
 10
99.01573384990107
 20
11.9655171895029
 10
99.01332529559797
 20
17.96551670607506
 10
95.01332561788327
 20
17.96391100320635
  0
MTEXT
  5
2D5
100
AcDbEntity
  8
0
  6
ByLayer
 62
  256
370
   -1
100
AcDbMText
 10
54.89679147964828
 20
10.98656340305764
 30
0
 40
2
 41
4.222222222222222
 71
    5
 72
    1
  1
Red
  7
textstyle51
210
0
220
0
230
1
 50
0
 73
    1
 44
1
  0
MTEXT
  5
2D6
100
AcDbEntity
  8
0
  6
ByLayer
 62
  256
370
   -1
100
AcDbMText
 10
52.7748565020779
 20
5.965386273028661
 30
0
 40
2
 41
5.111111111111111
 71
    5
 72
    1
  1
Blue
  7
textstyle52
210
0
220
0
230
1
 50
0
 73
    1
 44
1
  0
MTEXT
  5
2D7
100
AcDbEntity
  8
0
  6
ByLayer
 62
  256
370
   -1
100
AcDbMText
 10
51.67033383142021
 20
2.283189711007407
 30
0
 40
2
 41
8.666666666666945
 71
    5
 72
    1
  1
Orange
  7
textstyle53
210
0
220
0
230
1
 50
0
 73
    1
 44
1
  0
MTEXT
  5
2D8
100
AcDbEntity
  8
0
  6
ByLayer
 62
  256
370
   -1
100
AcDbMText
 10
53.67558436020608
 20
-1.835643796992482
 30
0
 40
2
 41
18.8333331111112
 71
    5
 72
    1
  1
Brown (Violet)
  7
textstyle54
210
0
220
0
230
1
 50
0
 73
    1
 44
1
  0
LINE
  5
2D9
100
AcDbEntity
  8
0
  6
DASHEDTINY
 62
  256
370
   -1
100
AcDbLine
 10
68.2
 20
2.5
 11
73.86709466842643
 21
-0.1115817140006441
  0
LINE
  5
2DA
100
AcDbEntity
  8
0
  6
DASHEDTINY
 62
  256
370
   -1
100
AcDbLine
 10
68.2
 20
5.6
 11
73.65522112684731
 21
5.59328509501127
  0
MTEXT
  5
2DB
100
AcDbEntity
  8
0
  6
ByLayer
 62
  256
370
   -1
100
AcDbMText
 10
77.05896567355308
 20
4.680135686037081
 30
0
 40
2
 41
6.444444444444537
 71
    5
 72
    1
  1
Black
  7
textstyle55
210
0
220
0
230
1
 50
0
 73
    1
 44
1
  0
MTEXT
  5
2DC
100
AcDbEntity
  8
0
  6
ByLayer
 62
  256
370
   -1
100
AcDbMText
 10
76.50740493123403
 20
8.605613751143302
 30
0
 40
2
 41
6.888888888888982
 71
    5
 72
    1
  1
White
  7
textstyle56
210
0
220
0
230
1
 50
0
 73
    1
 44
1
  0
MTEXT
  5
2DD
100
AcDbEntity
  8
0
  6
ByLayer
 62
  256
370
   -1
100
AcDbMText
 10
76.90893208399166
 20
-0.619259701856316
 30
0
 40
2
 41
5.555555555555772
 71
    5
 72
    1
  1
Gray
  7
textstyle57
210
0
220
0
230
1
 50
0
 73
    1
 44
1
  0
MTEXT
  5
2DE
100
AcDbEntity
  8
0
  6
ByLayer
 62
  256
370
   -1
100
AcDbMText
 10
-11.46372543609849
 20
24.82505862228638
 30
0
 40
2
 41
12.61111111111111
 71
    4
 72
    1
  1
20 AWG \Pto TRACK
  7
textstyle58
210
0
220
0
230
1
 50
0
 73
    1
 44
1
  0
MTEXT
  5
2DF
100
AcDbEntity
  8
0
  6
ByLayer
 62
  256
370
   -1
100
AcDbMText
 10
41.96164675804093
 20
-5.600548980657578
 30
0
 40
2
 41
14.11111213968572
 71
    5
 72
    1
  1
14 AWG\P9 wire bus
  7
textstyle59
210
0
220
0
230
1
 50
0
 73
    1
 44
1
  0
MTEXT
  5
2E0
100
AcDbEntity
  8
0
  6
ByLayer
 62
  256
370
   -1
100
AcDbMText
 10
20.02209787540579
 20
62.29059687852158
 30
0
 40
2
 41
6.888888888888983
 71
    4
 72
    1
  1
White
  7
textstyle60
210
0
220
0
230
1
 50
0
 73
    1
 44
1
  0
MTEXT
  5
2E1
100
AcDbEntity
  8
0
  6
ByLayer
 62
  256
370
   -1
100
AcDbMText
 10
98.80505755620386
 20
2.304405178988386
 30
0
 40
2
 41
30.16666769524175
 71
    5
 72
    1
  1
Reversible colored\PAnderson Connector\Pused on both M and J\Pconnections
  7
textstyle61
210
0
220
0
230
1
 50
0
 73
    1
 44
1
  0
TEXT
  5
2E2
100
AcDbEntity
  8
0
  6
ByLayer
 62
  256
370
   -1
100
AcDbText
 10
51.15941111634949
 20
75.63217117585309
 30
0
 40
2.5
  1
12 VDC Accessories
 50
0
 41
1
 51
0
  7
textstyle62
 71
    0
210
0
220
0
230
1
100
AcDbText
  0
MTEXT
  5
2E3
100
AcDbEntity
  8
0
  6
ByLayer
 62
  256
370
   -1
100
AcDbMText
 10
20.02222222222222
 20
67.3
 30
0
 40
2
 41
6.444444444444538
 71
    4
 72
    1
  1
Black
  7
textstyle63
210
0
220
0
230
1
 50
0
 73
    1
 44
1
  0
CIRCLE
  5
2E4
100
AcDbEntity
  8
0
  6
ByLayer
 62
  256
370
   -1
100
AcDbCircle
 10
29
 20
67
 40
1.044030650891058
  0
LINE
  5
2E5
100
AcDbEntity
  8
0
  6
ByLayer
 62
  256
370
   -1
100
AcDbLine
 10
28.1
 20
67
 11
29.9
 21
67
  0
LINE
  5
2E6
100
AcDbEntity
  8
0
  6
ByLayer
 62
  256
370
   -1
100
AcDbLine
 10
29
 20
67.90000000000001
 11
29
 21
66.10000000000001
  0
LINE
  5
2E7
100
AcDbEntity
  8
0
  6
ByLayer
 62
  256
370
   -1
100
AcDbLine
 10
31
 20
67
 11
36
 21
67
  0
LINE
  5
2E8
100
AcDbEntity
  8
0
  6
ByLayer
 62
  256
370
   -1
100
AcDbLine
 10
10
 20
67
 11
19
 21
67
  0
LINE
  5
2E9
100
AcDbEntity
  8
0
  6
ByLayer
 62
  256
370
   -1
100
AcDbLine
 10
31
 20
62
 11
36
 21
62
  0
CIRCLE
  5
2EA
100
AcDbEntity
  8
0
  6
ByLayer
 62
  256
370
   -1
100
AcDbCircle
 10
29
 20
62
 40
1.044030650891058
  0
LINE
  5
2EB
100
AcDbEntity
  8
0
  6
ByLayer
 62
  256
370
   -1
100
AcDbLine
 10
28.1
 20
62
 11
29.9
 21
62
  0
ENDSEC
  0
SECTION
  2
OBJECTS
  0
DICTIONARY
  5
C
330
0
100
AcDbDictionary
281
    1
  3
ACAD_GROUP
350
D
  0
DICTIONARY
  5
D
330
C
100
AcDbDictionary
281
    1
  0
ENDSEC
  0
EOF
